<svg viewBox="0 0 330 200" xmlns="http://www.w3.org/2000/svg"><g><g><g><g><g><line x1="50" y1="178" x2="45" y2="178" style="visibility: inherit;" fill="rgb(0, 0, 0)" stroke="rgb(204, 204, 204)" stroke-width="1px"></line><line x1="50" y1="152.57142857142858" x2="45" y2="152.57142857142858" style="visibility: inherit;" fill="rgb(0, 0, 0)" stroke="rgb(204, 204, 204)" stroke-width="1px"></line><line x1="50" y1="127.14285714285715" x2="45" y2="127.14285714285715" style="visibility: inherit;" fill="rgb(0, 0, 0)" stroke="rgb(204, 204, 204)" stroke-width="1px"></line><line x1="50" y1="101.71428571428574" x2="45" y2="101.71428571428574" style="visibility: inherit;" fill="rgb(0, 0, 0)" stroke="rgb(204, 204, 204)" stroke-width="1px"></line><line x1="50" y1="76.28571428571429" x2="45" y2="76.28571428571429" style="visibility: inherit;" fill="rgb(0, 0, 0)" stroke="rgb(204, 204, 204)" stroke-width="1px"></line><line x1="50" y1="50.857142857142875" x2="45" y2="50.857142857142875" style="visibility: inherit;" fill="rgb(0, 0, 0)" stroke="rgb(204, 204, 204)" stroke-width="1px"></line><line x1="50" y1="25.428571428571445" x2="45" y2="25.428571428571445" style="visibility: inherit;" fill="rgb(0, 0, 0)" stroke="rgb(204, 204, 204)" stroke-width="1px"></line><line x1="50" y1="0" x2="45" y2="0" style="visibility: inherit;" fill="rgb(0, 0, 0)" stroke="rgb(204, 204, 204)" stroke-width="1px"></line></g><g transform="translate(40, 0)"><text x="0" y="178" dx="0em" dy="0.3em" style="text-anchor: end; visibility: hidden; font-family: &quot;Helvetica Neue&quot;, sans-serif; font-size: 12px; font-weight: 200;" fill="rgb(50, 49, 63)" stroke="none" stroke-width="1px">0.2</text><text x="0" y="152.57142857142858" dx="0em" dy="0.3em" style="text-anchor: end; visibility: inherit; font-family: &quot;Helvetica Neue&quot;, sans-serif; font-size: 12px; font-weight: 200;" fill="rgb(50, 49, 63)" stroke="none" stroke-width="1px">0.25</text><text x="0" y="127.14285714285715" dx="0em" dy="0.3em" style="text-anchor: end; visibility: inherit; font-family: &quot;Helvetica Neue&quot;, sans-serif; font-size: 12px; font-weight: 200;" fill="rgb(50, 49, 63)" stroke="none" stroke-width="1px">0.3</text><text x="0" y="101.71428571428574" dx="0em" dy="0.3em" style="text-anchor: end; visibility: inherit; font-family: &quot;Helvetica Neue&quot;, sans-serif; font-size: 12px; font-weight: 200;" fill="rgb(50, 49, 63)" stroke="none" stroke-width="1px">0.35</text><text x="0" y="76.28571428571429" dx="0em" dy="0.3em" style="text-anchor: end; visibility: inherit; font-family: &quot;Helvetica Neue&quot;, sans-serif; font-size: 12px; font-weight: 200;" fill="rgb(50, 49, 63)" stroke="none" stroke-width="1px">0.4</text><text x="0" y="50.857142857142875" dx="0em" dy="0.3em" style="text-anchor: end; visibility: inherit; font-family: &quot;Helvetica Neue&quot;, sans-serif; font-size: 12px; font-weight: 200;" fill="rgb(50, 49, 63)" stroke="none" stroke-width="1px">0.45</text><text x="0" y="25.428571428571445" dx="0em" dy="0.3em" style="text-anchor: end; visibility: inherit; font-family: &quot;Helvetica Neue&quot;, sans-serif; font-size: 12px; font-weight: 200;" fill="rgb(50, 49, 63)" stroke="none" stroke-width="1px">0.5</text><text x="0" y="0" dx="0em" dy="0.3em" style="text-anchor: end; visibility: hidden; font-family: &quot;Helvetica Neue&quot;, sans-serif; font-size: 12px; font-weight: 200;" fill="rgb(50, 49, 63)" stroke="none" stroke-width="1px">0.55</text></g><line x1="50" y1="0" x2="50" y2="178" fill="rgb(0, 0, 0)" stroke="rgb(204, 204, 204)" stroke-width="1px"></line></g></g><g transform="translate(50, 0)" clip-path="url(#clip_0)"><clipPath id="clip_0"><rect width="280" height="178"></rect></clipPath><g><g><g><line x1="0" y1="0" x2="0" y2="178" fill="rgb(0, 0, 0)" stroke="rgb(60, 60, 60)" stroke-width="1px" opacity="0.25"></line><line x1="31.11111111111111" y1="0" x2="31.11111111111111" y2="178" fill="rgb(0, 0, 0)" stroke="rgb(60, 60, 60)" stroke-width="1px" opacity="0.25"></line><line x1="62.22222222222222" y1="0" x2="62.22222222222222" y2="178" fill="rgb(0, 0, 0)" stroke="rgb(60, 60, 60)" stroke-width="1px" opacity="0.25"></line><line x1="93.33333333333333" y1="0" x2="93.33333333333333" y2="178" fill="rgb(0, 0, 0)" stroke="rgb(60, 60, 60)" stroke-width="1px" opacity="0.25"></line><line x1="124.44444444444444" y1="0" x2="124.44444444444444" y2="178" fill="rgb(0, 0, 0)" stroke="rgb(60, 60, 60)" stroke-width="1px" opacity="0.25"></line><line x1="155.55555555555557" y1="0" x2="155.55555555555557" y2="178" fill="rgb(0, 0, 0)" stroke="rgb(60, 60, 60)" stroke-width="1px" opacity="0.25"></line><line x1="186.66666666666666" y1="0" x2="186.66666666666666" y2="178" fill="rgb(0, 0, 0)" stroke="rgb(60, 60, 60)" stroke-width="1px" opacity="0.25"></line><line x1="217.77777777777777" y1="0" x2="217.77777777777777" y2="178" fill="rgb(0, 0, 0)" stroke="rgb(60, 60, 60)" stroke-width="1px" opacity="0.25"></line><line x1="248.88888888888889" y1="0" x2="248.88888888888889" y2="178" fill="rgb(0, 0, 0)" stroke="rgb(60, 60, 60)" stroke-width="1px" opacity="0.25"></line><line x1="280" y1="0" x2="280" y2="178" fill="rgb(0, 0, 0)" stroke="rgb(60, 60, 60)" stroke-width="1px" opacity="0.25"></line></g><g><line x1="0" y1="178" x2="280" y2="178" fill="rgb(0, 0, 0)" stroke="rgb(60, 60, 60)" stroke-width="1px" opacity="0.25"></line><line x1="0" y1="152.57142857142858" x2="280" y2="152.57142857142858" fill="rgb(0, 0, 0)" stroke="rgb(60, 60, 60)" stroke-width="1px" opacity="0.25"></line><line x1="0" y1="127.14285714285715" x2="280" y2="127.14285714285715" fill="rgb(0, 0, 0)" stroke="rgb(60, 60, 60)" stroke-width="1px" opacity="0.25"></line><line x1="0" y1="101.71428571428574" x2="280" y2="101.71428571428574" fill="rgb(0, 0, 0)" stroke="rgb(60, 60, 60)" stroke-width="1px" opacity="0.25"></line><line x1="0" y1="76.28571428571429" x2="280" y2="76.28571428571429" fill="rgb(0, 0, 0)" stroke="rgb(60, 60, 60)" stroke-width="1px" opacity="0.25"></line><line x1="0" y1="50.857142857142875" x2="280" y2="50.857142857142875" fill="rgb(0, 0, 0)" stroke="rgb(60, 60, 60)" stroke-width="1px" opacity="0.25"></line><line x1="0" y1="25.428571428571445" x2="280" y2="25.428571428571445" fill="rgb(0, 0, 0)" stroke="rgb(60, 60, 60)" stroke-width="1px" opacity="0.25"></line><line x1="0" y1="0" x2="280" y2="0" fill="rgb(0, 0, 0)" stroke="rgb(60, 60, 60)" stroke-width="1px" opacity="0.25"></line></g></g></g><g><g><line x1="0" y1="279.7142857142857" x2="280" y2="279.7142857142857" fill="rgb(0, 0, 0)" stroke="rgb(153, 153, 153)" stroke-width="1.5px"></line></g></g><g><g><line x1="31.11111111111111" y1="0" x2="31.11111111111111" y2="178" fill="rgb(0, 0, 0)" stroke="rgb(153, 153, 153)" stroke-width="1.5px"></line></g></g><g><g><g><g><g><path stroke="rgb(0, 119, 187)" stroke-width="2px" d="M31.11111111111111,51.76586345263891L31.11111111111111,34.192788136856905L31.11111111111111,59.84365745327564L31.11111111111111,42.139482171846055L31.11111111111111,17.84122418686033L31.11111111111111,36.850456348322666L31.11111111111111,26.173630612491024L31.11111111111111,21.257029529733927L31.11111111111111,0.659076033434701L31.11111111111111,9.213106540136437L31.11111111111111,-0.624442363079794L31.11111111111111,12.030633919391505L31.11111111111111,20.35636729806211L31.11111111111111,8.043886155929954L31.11111111111111,23.151589879987853L31.11111111111111,11.499479767182606L31.11111111111111,16.941775664470327L31.11111111111111,28.53659103968127L31.11111111111111,3.6070302890818766L31.11111111111111,31.226866653408877L31.11111111111111,32.56564386430111L31.11111111111111,55.42960895042428L31.11111111111111,46.83591360639022L31.11111111111111,14.849012439155416L31.11111111111111,43.66299273231829L31.11111111111111,50.683605184003014L31.11111111111111,55.48142904540342L31.11111111111111,63.77048149409427L31.11111111111111,42.387046849673965L31.11111111111111,67.00702971156736L31.11111111111111,32.74196927530801L31.11111111111111,22.70221801067936L31.11111111111111,37.65326744378976L31.11111111111111,40.52374302575896L31.11111111111111,34.73433968827382L31.11111111111111,37.797082740014616L31.11111111111111,56.28671368611239L31.11111111111111,44.48750021211828L31.11111111111111,33.25681320061247L31.11111111111111,58.292954010549266L31.11111111111111,63.401742855787504L31.11111111111111,30.694658815495842L31.11111111111111,-4.68841581536654L31.11111111111111,17.946647161800513L31.11111111111111,44.6274517463346L31.11111111111111,-4.8103545713016445L31.11111111111111,-8.769583186441736L31.11111111111111,3.8338018788146258L31.11111111111111,27.23815792420035L31.11111111111111,43.636672520146305L31.11111111111111,26.899175480771646L31.11111111111111,47.566363195930535L31.11111111111111,69.07899325087647L31.11111111111111,64.7440301750061L31.11111111111111,75.02712844795974L31.11111111111111,64.78667755204117L31.11111111111111,63.08156579472633L31.11111111111111,80.41677851350627L31.11111111111111,95.2258726223039L31.11111111111111,87.54120187287724L31.11111111111111,87.4591943930527L31.11111111111111,117.50220162848589L31.11111111111111,114.34900232234997L46.666666666666664,111.41782432671599L46.666666666666664,86.87507135623984L46.666666666666664,114.67621693669054L46.666666666666664,109.68289789098337L46.666666666666664,104.53316435453281L46.666666666666664,95.29704012926894L46.666666666666664,72.72075498205875L46.666666666666664,70.45800064352343L46.666666666666664,70.79827633281293L46.666666666666664,58.967875412070924L46.666666666666664,94.86530497387045L46.666666666666664,97.48368804370078L46.666666666666664,106.18693944812074L46.666666666666664,104.07398848108036L46.666666666666664,112.45391528146702L46.666666666666664,120.3436514602054L46.666666666666664,119.80424796906235L46.666666666666664,123.52064868345417L46.666666666666664,117.90125684716182L46.666666666666664,121.12972505556274L46.666666666666664,98.15836089480527L46.666666666666664,121.98533854774091L46.666666666666664,120.74996216402752L46.666666666666664,132.48869479992058L46.666666666666664,142.17982743560117L46.666666666666664,108.40489388589509L46.666666666666664,100.06349914379729L46.666666666666664,121.91240367187321L46.666666666666664,107.54671739701953L46.666666666666664,88.75106089638956L46.666666666666664,107.55951294327723L46.666666666666664,98.61116502555322L46.666666666666664,33.88391962145465L46.666666666666664,51.417137797783866L46.666666666666664,67.11782220710836L46.666666666666664,82.11676248309158L46.666666666666664,98.59002063170503L46.666666666666664,103.72369398259097L46.666666666666664,126.64113548745496L46.666666666666664,135.1630490025865L46.666666666666664,114.44925541713329L46.666666666666664,106.83373634920925L46.666666666666664,119.90131068769941L46.666666666666664,96.88107007895788L46.666666666666664,116.65298992487716L46.666666666666664,110.19612946736005L46.666666666666664,112.05282431192936L46.666666666666664,93.86301331982801L46.666666666666664,77.13206843381316L46.666666666666664,93.38004010312586L46.666666666666664,96.14051658234409L46.666666666666664,73.3293237858584L46.666666666666664,84.10101707675624L46.666666666666664,91.77162683290241L46.666666666666664,120.91122208831479L46.666666666666664,108.25775845015423L46.666666666666664,102.05608701207863L46.666666666666664,93.2347031154721L46.666666666666664,83.40880364374964L46.666666666666664,97.69544770323938L46.666666666666664,95.16679990464105L46.666666666666664,77.09430111239264L46.666666666666664,47.79168817105412L46.666666666666664,34.6583670896442L46.666666666666664,46.533602551520374L46.666666666666664,73.2706207250956L62.22222222222222,92.12962084759836L62.22222222222222,74.7416154046118L62.22222222222222,94.86921759754264L62.22222222222222,125.48813571092819L62.22222222222222,132.56891880623047L62.22222222222222,150.71201354379383L62.22222222222222,114.11254269974955L62.22222222222222,122.79793653631441L62.22222222222222,115.41503660015519L62.22222222222222,106.27547112271259L62.22222222222222,102.54473318555992L62.22222222222222,104.34751544790036L62.22222222222222,138.4593901232106L62.22222222222222,94.71090619535583L62.22222222222222,107.00064850313268L62.22222222222222,98.70055275239231L62.22222222222222,79.16785833796753L62.22222222222222,97.64725294702927L62.22222222222222,124.63794725363235L62.22222222222222,133.64003419243733L62.22222222222222,134.85055047064515L62.22222222222222,153.26811277570593L62.22222222222222,140.75611504309168L62.22222222222222,126.31351251155098L62.22222222222222,131.3332418741922L62.22222222222222,113.03355857470193L62.22222222222222,111.8754559799347L62.22222222222222,87.40166839114424L62.22222222222222,84.79098134812389L62.22222222222222,87.61730017580027L62.22222222222222,105.1268371754221L62.22222222222222,71.3335178315071L62.22222222222222,106.39576317017415L62.22222222222222,107.75686638697212L62.22222222222222,88.332142857151L62.22222222222222,73.95194419043895L62.22222222222222,90.6762011108428L62.22222222222222,77.03927140579401L62.22222222222222,98.74381380423517L62.22222222222222,87.38214303085827L62.22222222222222,24.274716901104256L62.22222222222222,64.12550449467085L62.22222222222222,96.51084384975661L62.22222222222222,66.30274425541059L62.22222222222222,68.57663194295584L62.22222222222222,41.01326546643267L62.22222222222222,35.29322116972605L62.22222222222222,89.46019143531254L62.22222222222222,93.26418868702369L62.22222222222222,129.53870658875536L62.22222222222222,114.84321364812104L62.22222222222222,109.99161449105769L62.22222222222222,128.7422905659834L62.22222222222222,118.25327692094118L62.22222222222222,138.16720798666026L62.22222222222222,127.46084574067868L62.22222222222222,81.64484829087763L62.22222222222222,59.430271374036565L62.22222222222222,69.00163465124777L62.22222222222222,91.53166492128109L62.22222222222222,112.5989660428304L62.22222222222222,119.14983927219572L62.22222222222222,136.91428586846268L62.22222222222222,43.688174917902074L77.77777777777779,78.2325512819834L77.77777777777779,96.53753888414104L77.77777777777779,89.1213288261555L77.77777777777779,113.46713624407937L77.77777777777779,102.87122192218524L77.77777777777779,128.87559644464284L77.77777777777779,145.36419774514044L77.77777777777779,144.67739324054654L77.77777777777779,105.75453578912425L77.77777777777779,109.9880455974021L77.77777777777779,103.55627520172041L77.77777777777779,121.3892799743735L77.77777777777779,106.0913079645043L77.77777777777779,69.3610518903446L77.77777777777779,53.46256194213787L77.77777777777779,81.0923128774322L77.77777777777779,99.06670557902454L77.77777777777779,115.74972985823102L77.77777777777779,94.89231462348704L77.77777777777779,106.53222073613273L77.77777777777779,103.37222143453417L77.77777777777779,65.25429523254668L77.77777777777779,95.08536301839067L77.77777777777779,115.20544128035988L77.77777777777779,93.26121814498593L77.77777777777779,128.96760562840956L77.77777777777779,139.79726805898719L77.77777777777779,137.29399760645816L77.77777777777779,126.74561884792817L77.77777777777779,115.78290682140862L77.77777777777779,100.11882541837619L77.77777777777779,93.12985919189138L77.77777777777779,118.60717980172106L77.77777777777779,107.19401595315006L77.77777777777779,136.2901629833193L77.77777777777779,89.18459834366766L77.77777777777779,85.57880819181723L77.77777777777779,77.59951865194597L77.77777777777779,78.10596680694692L77.77777777777779,79.958810895151L77.77777777777779,100.10228410331374L77.77777777777779,103.96937511373909L77.77777777777779,97.39514308832837L77.77777777777779,86.40881876914781L77.77777777777779,79.77234249232804L77.77777777777779,110.07009413108669L77.77777777777779,70.66583852755863L77.77777777777779,86.59249446861648L77.77777777777779,104.87714922982364L77.77777777777779,103.04931893340635L77.77777777777779,101.74923117905277L77.77777777777779,80.02279852428259L77.77777777777779,106.5029424720045L77.77777777777779,79.0231608940129L77.77777777777779,103.18207557159452L77.77777777777779,83.62810075121651L77.77777777777779,102.72475706752941L77.77777777777779,87.04601133084097L77.77777777777779,111.05780293388928L77.77777777777779,94.1634415395825L77.77777777777779,113.93750268096908L77.77777777777779,76.51779796151288L93.33333333333333,82.46403558788622L93.33333333333333,74.57740684761787L93.33333333333333,48.506881420015674L93.33333333333333,94.3292623664137L93.33333333333333,107.41283529602097L93.33333333333333,127.69765260153008L93.33333333333333,108.16354370826565L93.33333333333333,117.01135552695698L93.33333333333333,135.51813337581424L93.33333333333333,89.0329155969956L93.33333333333333,84.27416636891337L93.33333333333333,97.38970926185185L93.33333333333333,94.0538807830284L93.33333333333333,117.7898437980881L93.33333333333333,125.4792222774752L93.33333333333333,106.66958833572777L93.33333333333333,106.12062294641783L93.33333333333333,102.89719216101304L93.33333333333333,99.70468038874911L93.33333333333333,88.68491315322802L93.33333333333333,86.75221347497514L93.33333333333333,99.74654510856212L93.33333333333333,92.6454638742411L93.33333333333333,109.15927674362513L93.33333333333333,121.81674307919076L93.33333333333333,139.14350626839547L93.33333333333333,128.49822498884663L93.33333333333333,102.18178779285982L93.33333333333333,100.36673185213367L93.33333333333333,83.58567228563149L93.33333333333333,76.97639326243115L93.33333333333333,122.96330705022777L93.33333333333333,114.20740752147927L93.33333333333333,103.835171523342L93.33333333333333,95.5096202883164L93.33333333333333,109.98340330593314L93.33333333333333,118.51228149150755L93.33333333333333,109.33509456422043L93.33333333333333,86.65799875186408L93.33333333333333,90.30507994199284L93.33333333333333,105.48661117854412L93.33333333333333,124.39717601684066L93.33333333333333,143.6853146626535L93.33333333333333,141.76283444436856L93.33333333333333,144.1066006169211L93.33333333333333,124.61779453599826L93.33333333333333,132.4391854147491L93.33333333333333,129.063707978237L93.33333333333333,137.81218224380345L93.33333333333333,137.3434418672302L93.33333333333333,106.2105912722677L93.33333333333333,105.49074798398962L93.33333333333333,104.39874134661152L93.33333333333333,117.82801090598937L93.33333333333333,78.17234714069183L93.33333333333333,71.56835091681779L93.33333333333333,97.15411537034213L93.33333333333333,101.14264558383424L93.33333333333333,105.94422780309422L93.33333333333333,104.7327470199041L93.33333333333333,123.18194047987808L93.33333333333333,136.4630938825117L93.33333333333333,155.8961393833139L93.33333333333333,155.9320232186986L93.33333333333333,121.11052674565919L93.33333333333333,104.71089673859687L93.33333333333333,117.63941415868459L108.88888888888889,117.87064345654062L108.88888888888889,129.05560910346975L108.88888888888889,104.6661833435298L108.88888888888889,103.99819786012178L108.88888888888889,97.00641541363514L108.88888888888889,95.0101274360691L108.88888888888889,119.09649874454159L108.88888888888889,138.961492548498L108.88888888888889,127.37647035384072L108.88888888888889,131.26536120912624L108.88888888888889,130.18553028923134L108.88888888888889,110.93796173585572L108.88888888888889,128.21943231222616L108.88888888888889,145.87823771287975L108.88888888888889,105.95497675618942L108.88888888888889,117.71905015806634L108.88888888888889,142.04497096223656L108.88888888888889,116.92367663807624L108.88888888888889,113.66722332391456L108.88888888888889,113.05428690627065L108.88888888888889,99.74281070947981L108.88888888888889,102.46035938624173L108.88888888888889,113.7370763745865L108.88888888888889,131.23062447895938L108.88888888888889,99.68453400929685L108.88888888888889,119.3334159742078L108.88888888888889,108.83879434749032L108.88888888888889,99.71438608322127L108.88888888888889,85.26012891043518L108.88888888888889,105.14445814623582L108.88888888888889,51.248147780502734L108.88888888888889,89.70475128579432L108.88888888888889,107.72596048543971L108.88888888888889,110.99801806263483L108.88888888888889,115.95648968693742L108.88888888888889,127.76552379415709L108.88888888888889,125.57706343617096L108.88888888888889,48.894120169028554L108.88888888888889,85.00887348876805L108.88888888888889,113.38240636619915L108.88888888888889,123.4288686042436L108.88888888888889,109.80446759188051L108.88888888888889,131.39187621667313L108.88888888888889,120.45123274425123L108.88888888888889,111.58305411602443L108.88888888888889,109.61260644662183L108.88888888888889,105.34131772899168L108.88888888888889,103.63101285277499L108.88888888888889,84.24516787107575L108.88888888888889,101.69147709593648L108.88888888888889,97.60965698880665L108.88888888888889,126.54765431323989L108.88888888888889,138.90519758775866L108.88888888888889,104.11093307989431L108.88888888888889,121.27996852244918L108.88888888888889,116.26673911615941L108.88888888888889,126.76135214246437L108.88888888888889,107.90354365667267L108.88888888888889,112.967206166407L108.88888888888889,132.51167305908405L108.88888888888889,124.97325346487983L108.88888888888889,92.32168033406357L124.44444444444444,133.33126946414927L124.44444444444444,141.91019955777946L124.44444444444444,146.63366058598822L124.44444444444444,130.7196627735377L124.44444444444444,122.29296232934482L124.44444444444444,109.56869184266654L124.44444444444444,87.03731629425957L124.44444444444444,111.33386227422334L124.44444444444444,123.03633850177155L124.44444444444444,129.51140420906898L124.44444444444444,127.00372518208374L124.44444444444444,116.0179430244201L124.44444444444444,124.15986842074423L124.44444444444444,103.10798435135312L124.44444444444444,115.95283521334221L124.44444444444444,103.87454997117115L124.44444444444444,122.43803619172193L124.44444444444444,123.11626058287462L124.44444444444444,122.95008743002523L124.44444444444444,120.93447288561L124.44444444444444,127.38110177586499L124.44444444444444,134.7025611248103L124.44444444444444,101.85457368344417L124.44444444444444,71.95643510950673L124.44444444444444,94.13570942004364L124.44444444444444,107.65170770256766L124.44444444444444,118.40504378385488L124.44444444444444,103.00755581187352L124.44444444444444,107.78193674640147L124.44444444444444,104.60959067267524L124.44444444444444,131.27425517717126L124.44444444444444,140.82844222831204L124.44444444444444,125.69958484916373L124.44444444444444,114.15995186502542L124.44444444444444,126.08885439254865L124.44444444444444,129.37899301403436L124.44444444444444,132.82605007859271L124.44444444444444,126.65479360393577L124.44444444444444,123.64981365255224L124.44444444444444,120.62700354743171L124.44444444444444,133.13404013243505L124.44444444444444,106.30135694460385L124.44444444444444,77.69265756199549L124.44444444444444,87.87454513850258L124.44444444444444,101.13402655209569L124.44444444444444,126.15225358128403L124.44444444444444,55.18124363698189L124.44444444444444,65.4718581822458L124.44444444444444,98.77994723923376L124.44444444444444,101.8477750392059L124.44444444444444,82.31021321840879L124.44444444444444,100.83675875935774L124.44444444444444,116.46368113136015L124.44444444444444,116.85064942566844L124.44444444444444,95.28404873481655L124.44444444444444,97.81841690633881L124.44444444444444,127.69479010706232L124.44444444444444,131.628253265309L124.44444444444444,91.08577113054598L124.44444444444444,84.56113789500239L124.44444444444444,101.9287721175382L124.44444444444444,105.41736202758555L124.44444444444444,107.57347046754533L124.44444444444444,106.61423888202432L124.44444444444444,95.64761934686682L124.44444444444444,93.09362510107488L124.44444444444444,105.10816383944045L124.44444444444444,108.74906360430599L124.44444444444444,95.84134875643389L124.44444444444444,106.67737739797741L140,117.57828541705791L140,120.67489081516308L140,118.00536255262672L140,93.65773951458645L140,109.0180208002959L140,111.56930691180946L140,113.92046342172644L140,138.93391808539542L140,142.77688346308418L140,129.02561096294747L140,138.66855289902705L140,125.02296851070007L140,93.89260918237395L140,79.70483627009682L140,82.16526691795931L140,91.58351602279359L140,126.25149763214802L140,118.68404828490318L140,116.61801039565506L140,98.88854804015357L140,104.58429403699586L140,104.7287324029889L140,113.62393801476959L140,123.17628428549835L140,99.14898030117484L140,114.65067837671495L140,125.58788354929209L140,123.5272597774024L140,126.24323824243106L140,139.799488720191L140,132.03723535182195L140,99.53660328787974L140,124.18044385673053L140,98.94140982076964L140,88.42013695931271L140,85.15927785266369L140,110.89072962096972L140,104.40669850659498L140,94.25122854119104L140,90.59312872464227L140,108.76311397435272L140,102.43336158409633L140,119.84434200517147L140,128.90117221588977L140,105.49065978748936L140,122.3765191111934L140,118.02846472533946L140,107.80898911570381L140,117.47934855027205L140,128.2275660813046L140,131.17410723704396L140,109.99884741848543L140,88.00188346711299L140,56.73608665811379L140,69.53765946459048L140,84.8687200008281L140,113.41570524666257L140,140.19238494979896L140,120.40034603564473L140,133.06101830722582L140,122.83567375408909L140,121.0961020821087L140,109.50717215058009L140,111.51714214445659L140,86.4991580872285L140,126.27114213534622L155.55555555555557,135.387215078898L155.55555555555557,98.37833831541826L155.55555555555557,133.38627338480237L155.55555555555557,128.80616803892934L155.55555555555557,131.07694936777813L155.55555555555557,138.13864897225554L155.55555555555557,133.77258308081952L155.55555555555557,122.33822311967091L155.55555555555557,120.65780894591668L155.55555555555557,119.35890516931653L155.55555555555557,122.66278992471004L155.55555555555557,111.67427003778587L155.55555555555557,139.81217147178563L155.55555555555557,141.7547208589058L155.55555555555557,143.96433476764975L155.55555555555557,142.36027589960875L155.55555555555557,142.2310842894383L155.55555555555557,142.9036032468938L155.55555555555557,118.54888972534488L155.55555555555557,120.68652823163464L155.55555555555557,107.45441439675753L155.55555555555557,124.83845183891248L155.55555555555557,151.50882387118284L155.55555555555557,145.80849776923418L155.55555555555557,141.34724915352749L155.55555555555557,136.8445832169831L155.55555555555557,118.01836982503501L155.55555555555557,113.45434691049779L155.55555555555557,125.7027948675555L155.55555555555557,100.48891841212351L155.55555555555557,121.98007400025305L155.55555555555557,129.4338445819494L155.55555555555557,126.68673486283451L155.55555555555557,120.06087472387486L155.55555555555557,112.52943613225932L155.55555555555557,86.72754648639729L155.55555555555557,95.90461003371462L155.55555555555557,48.51920933818707L155.55555555555557,69.6015328944336L155.55555555555557,103.97477441740271L155.55555555555557,103.56639528954511L155.55555555555557,38.90792894771391L155.55555555555557,47.63527111570741L155.55555555555557,93.43896968579715L155.55555555555557,101.94114551877546L155.55555555555557,124.89445152755206L155.55555555555557,106.62572604599117L155.55555555555557,94.34918198183402L155.55555555555557,90.50716729195337L155.55555555555557,102.43463941184109L155.55555555555557,103.14336755137101L155.55555555555557,106.12728265338558L155.55555555555557,124.58911420949352L155.55555555555557,83.43794881134063L155.55555555555557,88.77271158678346L155.55555555555557,115.73843904416997L155.55555555555557,100.15491736664829L155.55555555555557,97.06923726723979L155.55555555555557,89.31646379120411L155.55555555555557,128.92178165743252L155.55555555555557,134.18938887698863L155.55555555555557,141.71412011562404L155.55555555555557,132.5100839615297L155.55555555555557,129.1667826053332L155.55555555555557,108.0993887078576L155.55555555555557,125.61203303714045L155.55555555555557,142.65895403406972L155.55555555555557,93.34998864009866L155.55555555555557,81.51278107381226L155.55555555555557,41.80556993409104L171.11111111111111,71.07011200450893L171.11111111111111,64.71497495024653L171.11111111111111,87.0569022598818L171.11111111111111,120.98318965026894L171.11111111111111,118.69566322013662L171.11111111111111,140.82936657881265L171.11111111111111,136.6062113267257L171.11111111111111,134.0951258417072L171.11111111111111,142.8920226823663L171.11111111111111,94.58726537159195L171.11111111111111,105.03826570129206L171.11111111111111,124.00924997100718L171.11111111111111,134.2752834115594L171.11111111111111,160.689466092239L171.11111111111111,130.89193291091505L171.11111111111111,110.61666193891006L171.11111111111111,126.26202899644974L171.11111111111111,112.01254676155656L171.11111111111111,119.69793868457153L171.11111111111111,87.50922868827762L171.11111111111111,104.60005719598571L171.11111111111111,107.31979743579039L171.11111111111111,115.17734025510129L171.11111111111111,133.56158189615508L171.11111111111111,121.29893381296424L171.11111111111111,112.05814833665899L171.11111111111111,74.777627943733L171.11111111111111,104.56100278509093L171.11111111111111,104.01946333977753L171.11111111111111,111.48092657117522L171.11111111111111,135.33659093764794L171.11111111111111,117.78008939905814L171.11111111111111,128.29300223638924L171.11111111111111,130.3626890556746L171.11111111111111,100.34586099417834L171.11111111111111,131.41506701318093L171.11111111111111,132.35073014604507L171.11111111111111,135.16239955046535L171.11111111111111,125.44163342044295L171.11111111111111,123.26521475151503L171.11111111111111,130.08845958134725L171.11111111111111,119.23016246995616L171.11111111111111,138.6077964560381L171.11111111111111,131.05727033098543L171.11111111111111,130.4457567129476L171.11111111111111,157.36447447672572L171.11111111111111,139.5378115781253L171.11111111111111,145.94976425389507L171.11111111111111,119.00152413635632L171.11111111111111,127.68635222922416L171.11111111111111,97.46595791346223L171.11111111111111,116.56867935961037L171.11111111111111,111.12786725158256L171.11111111111111,77.63876618399223L171.11111111111111,101.57384404299769L171.11111111111111,94.33526694204703L171.11111111111111,91.28086901390898L171.11111111111111,36.95648342267995L171.11111111111111,86.91387261771669L171.11111111111111,115.31080013748968L171.11111111111111,133.13014953107387L171.11111111111111,109.16418563757217L171.11111111111111,103.2650335448445L171.11111111111111,114.52952434269213L171.11111111111111,102.47011176137701L171.11111111111111,120.47464504558704L171.11111111111111,137.80242188916208L171.11111111111111,127.30535296118191L171.11111111111111,104.4565485414535L186.66666666666666,101.42150225534348L186.66666666666666,104.94149397787042L186.66666666666666,105.92885038583289L186.66666666666666,147.47017364953388L186.66666666666666,122.76538281847834L186.66666666666666,109.04664308383516L186.66666666666666,133.5924437096129L186.66666666666666,150.4197298829289L186.66666666666666,106.01559470901931L186.66666666666666,89.46202595546441L186.66666666666666,95.08846585120659L186.66666666666666,129.081557377033L186.66666666666666,119.59327960073676L186.66666666666666,125.10764970133823L186.66666666666666,138.17804688066317L186.66666666666666,153.82550872134354L186.66666666666666,136.06655482681333L186.66666666666666,133.96628231799787L186.66666666666666,122.75024511896991L186.66666666666666,122.28843259929246L186.66666666666666,119.05944985051701L186.66666666666666,110.9589280105474L186.66666666666666,114.94979001043436L186.66666666666666,152.07157083128808L186.66666666666666,122.10295532977958L186.66666666666666,128.5879369938839L186.66666666666666,135.63720575188978L186.66666666666666,119.68544415959946L186.66666666666666,121.73968263890455L186.66666666666666,140.86959299954583L186.66666666666666,157.03038293514052L186.66666666666666,147.71117130411847L186.66666666666666,145.247222856498L186.66666666666666,136.30826124554991L186.66666666666666,151.3278173166027L186.66666666666666,165.38781144365728L186.66666666666666,163.83553848863963L186.66666666666666,161.66881402510342L186.66666666666666,167.23140119931148L186.66666666666666,161.70662010392746L186.66666666666666,147.37235967156582L186.66666666666666,114.39209968606153L186.66666666666666,133.75637351386598L186.66666666666666,120.91577404259783L186.66666666666666,125.39732853568792L186.66666666666666,105.88282233645269L186.66666666666666,101.28205322809582L186.66666666666666,97.77697178049853L186.66666666666666,112.90712754919514L186.66666666666666,99.20119908789286L186.66666666666666,90.60278874071703L186.66666666666666,112.95738450290975L186.66666666666666,76.62282062702138L186.66666666666666,95.83705635064783L186.66666666666666,108.02618346074445L186.66666666666666,114.69190260530758L186.66666666666666,137.61937507333818L186.66666666666666,136.4841742944694L186.66666666666666,111.76473151465682L186.66666666666666,108.09717596236551L186.66666666666666,119.67336424473848L186.66666666666666,105.97535651921162L186.66666666666666,107.32575621433983L186.66666666666666,113.6852491545639L186.66666666666666,98.62932290124665L186.66666666666666,106.66834809985706L186.66666666666666,107.64418510219764L186.66666666666666,106.27116232714413L186.66666666666666,99.1075267785017L186.66666666666666,29.108613286295707L202.22222222222223,75.48240600289229L202.22222222222223,114.13913481561563L202.22222222222223,133.3708978583962L202.22222222222223,117.77072137963647L202.22222222222223,127.47843679070738L202.22222222222223,138.8001197967886L202.22222222222223,124.17924700428516L202.22222222222223,136.3365280626044L202.22222222222223,115.11637891347729L202.22222222222223,128.39517173350598L202.22222222222223,137.7478161132891L202.22222222222223,122.97225313472676L202.22222222222223,116.66187110255062L202.22222222222223,109.66418667433034L202.22222222222223,124.58596650070939L202.22222222222223,153.5192866284072L202.22222222222223,122.82057041192854L202.22222222222223,127.05010501985348L202.22222222222223,119.44248840733269L202.22222222222223,136.62679545425286L202.22222222222223,129.58659309864078L202.22222222222223,128.8001120116372L202.22222222222223,133.50772189568124L202.22222222222223,123.62815704030183L202.22222222222223,153.05558371082094L202.22222222222223,144.43493761739225L202.22222222222223,136.63018030681582L202.22222222222223,140.52262041509886L202.22222222222223,153.22486598728824L202.22222222222223,150.0199076687192L202.22222222222223,144.76634045400166L202.22222222222223,139.53424039202554L202.22222222222223,134.2025343273566L202.22222222222223,146.34976289154292L202.22222222222223,124.98156784463644L202.22222222222223,113.01508953011125L202.22222222222223,78.24723861971297L202.22222222222223,63.753571228054255L202.22222222222223,49.8853535593467L202.22222222222223,49.06907273349097L202.22222222222223,100.63043630388678L202.22222222222223,114.25099765051357L202.22222222222223,87.40899555642493L202.22222222222223,91.01415884606635L202.22222222222223,119.51406080108724L202.22222222222223,126.59274872888233L202.22222222222223,143.7088052113088L202.22222222222223,135.01775381356157L202.22222222222223,144.93935003768354L202.22222222222223,129.6280209134618L202.22222222222223,144.30756067015614L202.22222222222223,147.44273541267017L202.22222222222223,157.10165457833418L202.22222222222223,141.02475729189624L202.22222222222223,128.7092671379159L202.22222222222223,128.7689374369636L202.22222222222223,129.90053218241917L202.22222222222223,140.73882808298274L202.22222222222223,111.18759295095106L202.22222222222223,102.55880217658087L202.22222222222223,111.2815331887741L202.22222222222223,127.92795943788781L202.22222222222223,113.22409749457213L202.22222222222223,78.85091324789424L202.22222222222223,86.96643244624282L202.22222222222223,90.62613132323622L217.77777777777777,103.16497871797478L217.77777777777777,134.18686744029893L217.77777777777777,117.2143091194877L217.77777777777777,113.99406618076854L217.77777777777777,145.64472966142046L217.77777777777777,124.71684353797167L217.77777777777777,120.98345943241432L217.77777777777777,103.07860605005179L217.77777777777777,138.06276101434764L217.77777777777777,136.71305397744842L217.77777777777777,146.25600958651393L217.77777777777777,148.0854763350339L217.77777777777777,133.74239059456895L217.77777777777777,133.01407183679595L217.77777777777777,123.69173035477621L217.77777777777777,152.92748394198517L217.77777777777777,135.8699943935114L217.77777777777777,124.9093838709309L217.77777777777777,107.90389994590625L217.77777777777777,93.36772289502963L217.77777777777777,133.91359492574284L217.77777777777777,151.29657481656673L217.77777777777777,121.32456753409201L217.77777777777777,147.71147405104472L217.77777777777777,114.19537319198375L217.77777777777777,123.48254521079221L217.77777777777777,124.2306753803249L217.77777777777777,142.49589958244297L217.77777777777777,112.92376203296536L217.77777777777777,141.83463084076615L217.77777777777777,137.5821800433086L217.77777777777777,146.7458594442896L217.77777777777777,130.90025046391526L217.77777777777777,102.90280342482045L217.77777777777777,107.45956778073106L217.77777777777777,126.92379225050257L217.77777777777777,92.0804988599538L217.77777777777777,129.28479455196037L217.77777777777777,127.43430133204988L217.77777777777777,127.98536382469902L217.77777777777777,112.51072513075691L217.77777777777777,89.24751007649232L217.77777777777777,100.26077449377136L217.77777777777777,123.91077049492964L217.77777777777777,93.02815744488086L217.77777777777777,106.92014792685895L217.77777777777777,115.03577144305734L217.77777777777777,110.82358391925762L217.77777777777777,128.71695652596907L217.77777777777777,128.93626030594052L217.77777777777777,107.58263903530121L217.77777777777777,116.33649697959572L217.77777777777777,115.2254546790643L217.77777777777777,140.02408578536566L217.77777777777777,154.37683295674972L217.77777777777777,170.00299052874954L217.77777777777777,149.91982562828488L217.77777777777777,159.12092423134104L217.77777777777777,142.40985620179467L217.77777777777777,142.80959268051458L217.77777777777777,149.15645395812524L217.77777777777777,165.2785218764032L217.77777777777777,174.8159290914944L217.77777777777777,131.42666876449312L217.77777777777777,147.6948494340172L217.77777777777777,148.39787992048545L217.77777777777777,165.99313124372108L233.33333333333334,155.08456989907776L233.33333333333334,169.25969466608325L233.33333333333334,152.4124904081574L233.33333333333334,103.35184468914319L233.33333333333334,119.25513949617721L233.33333333333334,118.83227603637732L233.33333333333334,122.83842011096215L233.33333333333334,115.04945630568687L233.33333333333334,111.28616574421014L233.33333333333334,138.9832145938715L233.33333333333334,145.37033830358374L233.33333333333334,124.9537497519736L233.33333333333334,135.28416827333817L233.33333333333334,152.1920888739739L233.33333333333334,167.70620358863385L233.33333333333334,147.7989886506561L233.33333333333334,162.9048489104777L233.33333333333334,149.87666069777936L233.33333333333334,119.96043478351399L233.33333333333334,125.3075602023184L233.33333333333334,115.28894713758281L233.33333333333334,122.99976736364363L233.33333333333334,136.22732629299435L233.33333333333334,154.24803907653427L233.33333333333334,155.10059473928823L233.33333333333334,151.10029947597565L233.33333333333334,136.9950303647105L233.33333333333334,137.40656706003026L233.33333333333334,155.87843312378757L233.33333333333334,152.0686802241566L233.33333333333334,138.88512306565502L233.33333333333334,148.90497306762526L233.33333333333334,116.40529592586307L233.33333333333334,120.90075505654238L233.33333333333334,137.6256576965209L233.33333333333334,115.97594017411718L233.33333333333334,132.49594381398657L233.33333333333334,102.82740561334313L233.33333333333334,122.27232930419797L233.33333333333334,91.8982494333009L233.33333333333334,121.10682373736876L233.33333333333334,147.51108614926852L233.33333333333334,136.1863968459855L233.33333333333334,145.11728119012827L233.33333333333334,144.85743847072106L233.33333333333334,146.15785264803674L233.33333333333334,106.23200668508319L233.33333333333334,140.75060828013213L233.33333333333334,149.69121285539094L233.33333333333334,152.48607859426616L233.33333333333334,143.9369153379518L233.33333333333334,157.26893791976852L233.33333333333334,125.958199005436L233.33333333333334,121.7550877867237L233.33333333333334,128.45602410322147L233.33333333333334,121.45214090432441L233.33333333333334,124.72037051388196L233.33333333333334,130.3082910366399L233.33333333333334,141.9069028710706L233.33333333333334,143.4822573057897L233.33333333333334,141.54598627554185L233.33333333333334,150.72335344592813L233.33333333333334,159.30871168739503L233.33333333333334,158.24209120594463L233.33333333333334,145.3794044929411L248.88888888888889,142.72650090237738L248.88888888888889,123.85780607262848L248.88888888888889,129.86858459387267L248.88888888888889,154.0029759036799L248.88888888888889,154.03186824484467L248.88888888888889,133.1874399678593L248.88888888888889,146.79152614965437L248.88888888888889,151.64980663713453L248.88888888888889,137.3979350234751L248.88888888888889,129.708683570281L248.88888888888889,136.13543756352044L248.88888888888889,162.75181906974595L248.88888888888889,149.9639817943692L248.88888888888889,150.06468014456237L248.88888888888889,144.0597877227935L248.88888888888889,160.07971164554962L248.88888888888889,127.28890123605238L248.88888888888889,125.48611302927267L248.88888888888889,132.22883371820274L248.88888888888889,137.03861389004467L248.88888888888889,127.27153810952645L248.88888888888889,143.83299580953957L248.88888888888889,155.64245742916813L248.88888888888889,168.00367734135753L248.88888888888889,156.32153815977145L248.88888888888889,126.20497861987062L248.88888888888889,120.72180695908408L248.88888888888889,118.9094308998244L248.88888888888889,144.36429346546444L248.88888888888889,151.896991139322L248.88888888888889,166.44878484178327L248.88888888888889,144.01118448255846L248.88888888888889,147.59495396967336L248.88888888888889,159.98918316099406L248.88888888888889,143.18883161998946L248.88888888888889,149.8543766403199L248.88888888888889,130.1752174415589L248.88888888888889,130.6680078747341L248.88888888888889,154.50290638461524L248.88888888888889,155.7781005414756L248.88888888888889,170.5785104103346L248.88888888888889,156.02115714952106L248.88888888888889,135.0650856689328L248.88888888888889,144.44685285236153L248.88888888888889,143.77857828703947L248.88888888888889,121.17148283887931L248.88888888888889,140.97686316148145L248.88888888888889,148.00059431879004L248.88888888888889,165.71966323734858L248.88888888888889,171.55200664177178L248.88888888888889,177.33273403970045L248.88888888888889,126.17834672918788L248.88888888888889,137.77418311249878L248.88888888888889,158.2583922170585L248.88888888888889,139.968053829337L248.88888888888889,141.42403495666423L248.88888888888889,129.0648303019143L248.88888888888889,131.83350643353765L248.88888888888889,120.46239222616788L248.88888888888889,124.09301913697027L248.88888888888889,145.17681047782685L248.88888888888889,132.06640222264843L248.88888888888889,117.10998014224822L248.88888888888889,112.263120141449L248.88888888888889,88.61372944352945L248.88888888888889,103.64447430922768L248.88888888888889,91.9069021813182L248.88888888888889,115.9682379476067L248.88888888888889,125.68484677061744L248.88888888888889,149.03272452039135L248.88888888888889,131.05046788843893L248.88888888888889,120.26481212202731" style="fill: none;" fill="none"></path></g></g></g></g><g opacity="0.2"><g><g><g><path stroke="rgb(0, 119, 187)" stroke-width="2px" d="M31.11111111111111,51.76586345263891L31.11111111111111,23.648942947387724L31.11111111111111,84.46849199703762L31.11111111111111,21.319372040884843L31.11111111111111,-13.882581438337041L31.11111111111111,63.14706775120327L31.11111111111111,10.905598981039873L31.11111111111111,14.088577951703769L31.11111111111111,-29.71890442711964L31.11111111111111,21.91484492165702L31.11111111111111,-15.291539873395635L31.11111111111111,30.944379976817544L31.11111111111111,32.8177824020386L31.11111111111111,-10.400714124952032L31.11111111111111,45.795386927468456L31.11111111111111,-5.970467431204668L31.11111111111111,25.102916513170527L31.11111111111111,45.92587018013003L31.11111111111111,-33.783513069152804L31.11111111111111,72.65409663745336L31.11111111111111,34.57373625891552L31.11111111111111,89.72480423109873L31.11111111111111,33.94554025786266L31.11111111111111,-33.13096039635792L31.11111111111111,86.88375837462291L31.11111111111111,61.21449392182488L31.11111111111111,62.67815256118776L31.11111111111111,76.20404744148256L31.11111111111111,10.311914580208935L31.11111111111111,103.93699039731709L31.11111111111111,-18.655610016414073L31.11111111111111,7.642593111310703L31.11111111111111,60.0798398086003L31.11111111111111,44.82945619310652L31.11111111111111,26.050234930855908L31.11111111111111,42.39119723864965L31.11111111111111,84.02115981919427L31.11111111111111,26.78868011065893L31.11111111111111,16.41078274590629L31.11111111111111,95.84716514178686L31.11111111111111,71.06492611340114L31.11111111111111,-18.36596720559254L31.11111111111111,-57.76302773611886L31.11111111111111,51.899241617747734L31.11111111111111,84.64865861620223L31.11111111111111,-78.96706404004777L31.11111111111111,-121.17743383135115L31.11111111111111,55.11182144709997L31.11111111111111,22.738879476274775L31.11111111111111,62.344691991806044L31.11111111111111,68.23444441386633L31.11111111111111,1.792929921831444L31.11111111111111,78.56714476857867L31.11111111111111,101.34793833323889L31.11111111111111,58.24158556120739L31.11111111111111,90.45177585738047L31.11111111111111,49.42600120816914L31.11111111111111,60.52389815875463L31.11111111111111,106.41959759167263L31.11111111111111,117.43951378549849L31.11111111111111,76.0141957487379L31.11111111111111,87.33618317331587L31.11111111111111,162.56671248163497L31.11111111111111,109.61920336314611L46.666666666666664,107.02105733326503L46.666666666666664,50.060941900525776L46.666666666666664,156.37793530736653L46.666666666666664,102.19291932242258L46.666666666666664,96.80856404985701L46.666666666666664,81.44285379137312L46.666666666666664,38.856327261243564L46.666666666666664,67.06386913572041L46.666666666666664,71.30868986674719L46.666666666666664,41.22227403095792L46.666666666666664,148.71144931656974L46.666666666666664,101.41126264844624L46.666666666666664,119.24181655475073L46.666666666666664,100.90456203051977L46.666666666666664,125.02380548204695L46.666666666666664,132.1782557283129L46.666666666666664,118.99514273234777L46.666666666666664,129.09524975504195L46.666666666666664,109.47216909272332L46.666666666666664,125.97242736816406L46.666666666666664,63.70131465366909L46.666666666666664,157.7258050271443L46.666666666666664,118.89689758845739L46.666666666666664,150.0967937537602L46.666666666666664,156.716526389122L46.666666666666664,57.74249356133599L46.666666666666664,87.55140703065057L46.666666666666664,154.6857604639871L46.666666666666664,85.99818798473903L46.666666666666664,60.5575761454446L46.666666666666664,135.77219101360868L46.666666666666664,85.18864314896722L46.666666666666664,-63.20694848469324L46.666666666666664,77.71696506227767L46.666666666666664,90.66884882109507L46.666666666666664,104.6151728970664L46.666666666666664,123.29990785462516L46.666666666666664,111.42420400891987L46.666666666666664,161.01729774475098L46.666666666666664,147.9459192752838L46.666666666666664,83.37856503895351L46.666666666666664,95.41045774732319L46.666666666666664,139.50267219543457L46.666666666666664,62.3507091658456L46.666666666666664,146.3108696937561L46.666666666666664,100.51083878108435L46.666666666666664,114.83786657878332L46.666666666666664,66.57829683167596L46.666666666666664,52.035651104790844L46.666666666666664,117.75199760709492L46.666666666666664,100.28123130117146L46.666666666666664,39.11253459112987L46.666666666666664,100.25855701310296L46.666666666666664,103.27754146712168L46.666666666666664,164.62061497143338L46.666666666666664,89.2775629929134L46.666666666666664,92.75357985496522L46.666666666666664,80.00262727056231L46.666666666666664,68.66995443616597L46.666666666666664,119.12541379247395L46.666666666666664,91.37382820674353L46.666666666666664,49.98555292401997L46.666666666666664,3.8377687590462983L46.666666666666664,14.958385467529325L46.666666666666664,64.34645574433465L46.666666666666664,113.37614798545839L62.22222222222222,120.41812103135246L62.22222222222222,48.65960724013195L62.22222222222222,125.06062088693892L62.22222222222222,171.41651288100653L62.22222222222222,143.19009344918388L62.22222222222222,177.92665565013885L62.22222222222222,59.213336433683125L62.22222222222222,135.8260272911617L62.22222222222222,104.34068669591633L62.22222222222222,92.56612290654866L62.22222222222222,96.94862627983095L62.22222222222222,107.05168884141106L62.22222222222222,189.62720213617598L62.22222222222222,29.088180303573637L62.22222222222222,125.43526196479797L62.22222222222222,86.25040912628175L62.22222222222222,49.8688167163304L62.22222222222222,125.36634486062187L62.22222222222222,165.12398871353696L62.22222222222222,147.1431646006448L62.22222222222222,136.6663248879569L62.22222222222222,180.8944562332971L62.22222222222222,121.98811844417028L62.22222222222222,104.64960871423995L62.22222222222222,138.86283591815405L62.22222222222222,85.58403362546649L62.22222222222222,110.13830208778383L62.22222222222222,50.69098700795857L62.22222222222222,80.87495078359332L62.22222222222222,91.85677841731481L62.22222222222222,131.39114267485485L62.22222222222222,20.6435388156346L62.22222222222222,158.98913117817472L62.22222222222222,109.79852121216912L62.22222222222222,59.195057562419365L62.22222222222222,52.381646190370844L62.22222222222222,115.76258649144856L62.22222222222222,56.58387684822084L62.22222222222222,131.3006274018969L62.22222222222222,70.33963687079296L62.22222222222222,-70.38642229352675L62.22222222222222,123.90168588502067L62.22222222222222,145.08885288238525L62.22222222222222,20.99059486389163L62.22222222222222,71.9874634742737L62.22222222222222,-0.33178424835202236L62.22222222222222,26.713154724666055L62.22222222222222,170.7106468336923L62.22222222222222,98.97018456459047L62.22222222222222,183.95048344135284L62.22222222222222,92.79997423716955L62.22222222222222,102.71421575546266L62.22222222222222,156.86830467837197L62.22222222222222,102.51975645337788L62.22222222222222,168.03810458523887L62.22222222222222,111.4013023717063L62.22222222222222,12.920852116176064L62.22222222222222,26.10840599877494L62.22222222222222,83.35867956706457L62.22222222222222,125.32671032633101L62.22222222222222,144.19991772515434L62.22222222222222,128.97614911624365L62.22222222222222,163.56095576286316L62.22222222222222,-96.1509915079389L77.77777777777779,130.04911582810539L77.77777777777779,123.99502028737751L77.77777777777779,77.99701373917718L77.77777777777779,149.98584737096516L77.77777777777779,86.97735043934414L77.77777777777779,167.88215822832925L77.77777777777779,170.0970996958869L77.77777777777779,143.64718648365567L77.77777777777779,47.3702496119908L77.77777777777779,116.33831030981882L77.77777777777779,93.90861960819791L77.77777777777779,148.1387871333531L77.77777777777779,83.1443499497005L77.77777777777779,14.265667779105058L77.77777777777779,29.614827019827715L77.77777777777779,122.53693928037373L77.77777777777779,126.02829463141306L77.77777777777779,140.77426627704077L77.77777777777779,63.606191771371044L77.77777777777779,123.99207990510124L77.77777777777779,98.63222248213633L77.77777777777779,8.077405929565458L77.77777777777779,139.83196469715665L77.77777777777779,145.3855586733137L77.77777777777779,60.34488344192506L77.77777777777779,182.52718685354506L77.77777777777779,156.0417617048536L77.77777777777779,133.53909192766463L77.77777777777779,110.92305071013315L77.77777777777779,99.33883878162929L77.77777777777779,76.62270331382753L77.77777777777779,82.64640985216414L77.77777777777779,156.82316071646554L77.77777777777779,90.07427018029351L77.77777777777779,179.93438352857316L77.77777777777779,18.526251384190175L77.77777777777779,80.17012296404158L77.77777777777779,65.63058434213912L77.77777777777779,78.86563903944835L77.77777777777779,82.73807702745711L77.77777777777779,130.31749391555786L77.77777777777779,109.7700116293771L77.77777777777779,87.53379505021233L77.77777777777779,69.92933229037695L77.77777777777779,69.81762807709832L77.77777777777779,155.5167215892247L77.77777777777779,11.559455122266513L77.77777777777779,110.48247838020326L77.77777777777779,132.30413137163436L77.77777777777779,100.30757348878045L77.77777777777779,99.79909954752242L77.77777777777779,47.43314954212735L77.77777777777779,146.2231583935874L77.77777777777779,37.80348852702551L77.77777777777779,139.42044758796692L77.77777777777779,54.297138520649526L77.77777777777779,131.36974154199874L77.77777777777779,63.5278927258083L77.77777777777779,147.07549033846175L77.77777777777779,68.82189944812231L77.77777777777779,143.59859439304898L77.77777777777779,20.388240882328603L93.33333333333333,91.38339202744622L93.33333333333333,62.74746373721533L93.33333333333333,9.40109327861245L93.33333333333333,163.06283378601074L93.33333333333333,127.03819469043188L93.33333333333333,158.12487855979376L93.33333333333333,78.86238036836897L93.33333333333333,130.283073254994L93.33333333333333,163.27830014910018L93.33333333333333,19.305088928767617L93.33333333333333,77.13604252679009L93.33333333333333,117.06302360125952L93.33333333333333,89.05013806479319L93.33333333333333,153.39378832067763L93.33333333333333,137.0132899965559L93.33333333333333,78.45513742310662L93.33333333333333,105.29717486245293L93.33333333333333,98.06204598290581L93.33333333333333,94.91591273035323L93.33333333333333,72.1552622999464L93.33333333333333,83.85316395759584L93.33333333333333,119.23804255894254L93.33333333333333,81.99384202275958L93.33333333333333,133.92999604770117L93.33333333333333,140.80294258253917L93.33333333333333,165.1336510522025L93.33333333333333,112.53030306952341L93.33333333333333,62.70713199887959L93.33333333333333,97.64414794104441L93.33333333333333,58.41408293587823L93.33333333333333,67.06247472763063L93.33333333333333,191.9436777319227L93.33333333333333,101.07355822835652L93.33333333333333,88.27681752613613L93.33333333333333,83.02129343577795L93.33333333333333,131.69407783235823L93.33333333333333,131.30559876986914L93.33333333333333,95.56931417328973L93.33333333333333,52.64235503332958L93.33333333333333,95.77570172718595L93.33333333333333,128.25890803337097L93.33333333333333,152.76302327428544L93.33333333333333,172.61752263137274L93.33333333333333,138.8791141169412L93.33333333333333,147.62224987574987L93.33333333333333,95.38458541461401L93.33333333333333,144.17127173287528L93.33333333333333,124.0004918234689L93.33333333333333,150.93489364215307L93.33333333333333,136.64033130237036L93.33333333333333,59.51131537982397L93.33333333333333,104.41098305157253L93.33333333333333,102.76073139054436L93.33333333333333,137.97191524505615L93.33333333333333,18.688851492745556L93.33333333333333,61.66235658100673L93.33333333333333,135.53276205062866L93.33333333333333,107.12544090407236L93.33333333333333,113.14660113198417L93.33333333333333,102.91552584511895L93.33333333333333,150.85573066983906L93.33333333333333,156.38482398646218L93.33333333333333,185.04570763451713L93.33333333333333,155.9858489717756L93.33333333333333,68.87828203610012L93.33333333333333,80.11145172800337L93.33333333333333,137.0321902888162L108.88888888888889,118.21748740332468L108.88888888888889,145.83305757386344L108.88888888888889,68.08204470361983L108.88888888888889,102.99621963500978L108.88888888888889,86.51874174390521L108.88888888888889,92.01569546972004L108.88888888888889,155.22605570725034L108.88888888888889,168.75898325443268L108.88888888888889,109.99893706185479L108.88888888888889,137.09869749205455L108.88888888888889,128.56578390938895L108.88888888888889,82.06660890579225L108.88888888888889,154.14163817678178L108.88888888888889,172.36644581386022L108.88888888888889,46.070085321153925L108.88888888888889,135.3651602608817L108.88888888888889,178.5338521684919L108.88888888888889,79.24173515183587L108.88888888888889,108.78254335267205L108.88888888888889,112.13488227980478L108.88888888888889,79.77559641429357L108.88888888888889,106.53668240138464L108.88888888888889,130.65215185710363L108.88888888888889,157.47094663551877L108.88888888888889,52.36539830480305L108.88888888888889,148.80673892157418L108.88888888888889,93.09686190741404L108.88888888888889,86.02777368681774L108.88888888888889,63.578743151256035L108.88888888888889,134.9709519999368L108.88888888888889,-29.596317768096895L108.88888888888889,147.3896565437317L108.88888888888889,134.75777428490775L108.88888888888889,115.90610442842757L108.88888888888889,123.39419712339131L108.88888888888889,145.47907495498657L108.88888888888889,122.29437289919173L108.88888888888889,-66.13029473168507L108.88888888888889,139.18100346837727L108.88888888888889,155.9427056823458L108.88888888888889,138.49856196131026L108.88888888888889,89.36786607333593L108.88888888888889,163.772989153862L108.88888888888889,104.04026753561838L108.88888888888889,98.28078617368428L108.88888888888889,106.65693494251796L108.88888888888889,98.93438465254648L108.88888888888889,101.06555553844997L108.88888888888889,55.166400398526875L108.88888888888889,127.86094093322754L108.88888888888889,91.48692682811193L108.88888888888889,169.9546502998897L108.88888888888889,157.4415124995368L108.88888888888889,51.9195363180978L108.88888888888889,147.0335216862815L108.88888888888889,108.74689500672478L108.88888888888889,142.50327168192183L108.88888888888889,79.61683092798506L108.88888888888889,120.5626999310085L108.88888888888889,161.82837339809964L108.88888888888889,113.66562407357353L108.88888888888889,43.34432063783919L124.44444444444444,194.8456531592778L124.44444444444444,154.77859469822477L124.44444444444444,153.71885212830136L124.44444444444444,106.8486660548619L124.44444444444444,109.65291166305543L124.44444444444444,90.48228611264912L124.44444444444444,53.240252971649184L124.44444444444444,147.77868124416898L124.44444444444444,140.59005284309387L124.44444444444444,139.22400277001518L124.44444444444444,123.24220664160593L124.44444444444444,99.53926978792464L124.44444444444444,136.37275651523046L124.44444444444444,71.5301582472665L124.44444444444444,135.22011150632588L124.44444444444444,85.75712210791454L124.44444444444444,150.28326552254813L124.44444444444444,124.13359716960363L124.44444444444444,122.70082770075118L124.44444444444444,117.91105106898718L124.44444444444444,137.05104511124748L124.44444444444444,145.68475014822826L124.44444444444444,52.582592521395014L124.44444444444444,27.109227248600575L124.44444444444444,127.404620885849L124.44444444444444,127.92570512635368L124.44444444444444,134.53504790578572L124.44444444444444,79.91132385390148L124.44444444444444,114.94350814819336L124.44444444444444,99.85107156208583L124.44444444444444,171.2712519339153L124.44444444444444,155.1597228050232L124.44444444444444,103.0062987804413L124.44444444444444,96.85050238881794L124.44444444444444,143.98220818383354L124.44444444444444,134.31420094626293L124.44444444444444,137.9966356754303L124.44444444444444,117.39790889195035L124.44444444444444,119.14234372547696L124.44444444444444,116.0927883897509L124.44444444444444,151.89459500994002L124.44444444444444,66.05233216285707L124.44444444444444,34.779608488082914L124.44444444444444,103.1473765032632L124.44444444444444,121.02324867248535L124.44444444444444,163.6795941250665L124.44444444444444,-51.27527127947121L124.44444444444444,80.90778000014171L124.44444444444444,148.74208082471577L124.44444444444444,106.44951673916408L124.44444444444444,53.00387048721315L124.44444444444444,128.62657707078117L124.44444444444444,139.90406468936376L124.44444444444444,117.43110186713083L124.44444444444444,62.93414769853865L124.44444444444444,101.61996916362219L124.44444444444444,172.50934990814756L124.44444444444444,137.52844800267903L124.44444444444444,30.272047928401406L124.44444444444444,74.77418804168703L124.44444444444444,127.98022345134191L124.44444444444444,110.65024689265661L124.44444444444444,110.807633127485L124.44444444444444,105.17539150374277L124.44444444444444,79.19769004413061L124.44444444444444,89.26263373238702L124.44444444444444,123.1299719469888L124.44444444444444,114.21041325160436L124.44444444444444,76.47977648462569L124.44444444444444,122.93142036029272L140,133.9296474456787L140,125.31979891232083L140,114.00107015882222L140,57.13630495752608L140,132.05844272886003L140,115.39623607907978L140,117.44719818660192L140,176.45410008089883L140,148.5413315296173L140,108.3987022127424L140,153.13296580314636L140,104.55459192820959L140,47.197070189884755L140,58.4231769016811L140,85.85591288975307L140,105.710889680045L140,178.25347004617964L140,107.33287426403591L140,113.51895356178285L140,72.29435450690136L140,113.12791303225927L140,104.94538995197841L140,126.96674643244063L140,137.50480369159155L140,63.108024324689595L140,137.90322549002514L140,141.9936913081578L140,120.43632411956787L140,130.31720593997412L140,160.1338644368308L140,120.39385529926847L140,50.785655191966484L140,161.1462047100067L140,61.08285876682827L140,72.63822766712734L140,80.26798919269018L140,149.4879072734288L140,94.68065183503289L140,79.01802359308516L140,85.10597899981909L140,136.01809184891837L140,92.93873299871174L140,145.96081263678417L140,142.48641753196716L140,70.37489114488875L140,147.70530809674946L140,111.50638314655849L140,92.47977570125036L140,131.98488770212447L140,144.3498923778534L140,135.593918970653L140,78.2359576906477L140,55.006437540054335L140,9.83739144461498L140,88.74001867430553L140,107.86531080518452L140,156.2361831154142L140,180.35740450450353L140,90.71228766441347L140,152.05202671459745L140,107.49765692438399L140,118.4867445741381L140,92.12377725328719L140,114.53209713527136L140,48.972182001386386L140,185.9291182075228L155.55555555555557,149.06132449422566L155.55555555555557,42.865023170198725L155.55555555555557,185.89817598887853L155.55555555555557,121.93601002011982L155.55555555555557,134.4831213610513L155.55555555555557,148.73119837897164L155.55555555555557,127.22348424366544L155.55555555555557,105.18668317794801L155.55555555555557,118.13718768528531L155.55555555555557,117.41054950441634L155.55555555555557,127.6186170578003L155.55555555555557,95.19149020739965L155.55555555555557,182.0190236227853L155.55555555555557,144.6685449395861L155.55555555555557,147.27875563076566L155.55555555555557,139.95418759754727L155.55555555555557,142.03729687418257L155.55555555555557,143.91238168307714L155.55555555555557,82.0168194430215L155.55555555555557,123.89298599106925L155.55555555555557,87.60624364444189L155.55555555555557,150.91450800214497L155.55555555555557,191.51438191958837L155.55555555555557,137.25800861631123L155.55555555555557,134.6553762299674L155.55555555555557,130.0905843121665L155.55555555555557,89.77904973711287L155.55555555555557,106.60831253869195L155.55555555555557,144.075466803142L155.55555555555557,62.66810372897558L155.55555555555557,154.21680738244737L155.55555555555557,140.61450045449394L155.55555555555557,122.56607028416227L155.55555555555557,110.12208451543538L155.55555555555557,101.23227824483601L155.55555555555557,48.02471201760429L155.55555555555557,109.67020535469057L155.55555555555557,-22.55889170510426L155.55555555555557,101.22501822880336L155.55555555555557,155.53463670185636L155.55555555555557,102.95382659775872L155.55555555555557,-58.07977056503293L155.55555555555557,60.72628436769759L155.55555555555557,162.1445175409317L155.55555555555557,114.69440926824299L155.55555555555557,159.324410540717L155.55555555555557,79.22263782364983L155.55555555555557,75.93436588559833L155.55555555555557,84.7441452571324L155.55555555555557,120.32584759167264L155.55555555555557,104.20645976066591L155.55555555555557,110.6031553064074L155.55555555555557,152.2818615436554L155.55555555555557,21.711200714111357L155.55555555555557,96.7748557499477L155.55555555555557,156.1870302302497L155.55555555555557,76.77963485036578L155.55555555555557,92.44071711812703L155.55555555555557,77.68730357715063L155.55555555555557,188.32975845677512L155.55555555555557,142.09079970632283L155.55555555555557,153.00121697357724L155.55555555555557,118.7040297303881L155.55555555555557,124.1518305710384L155.55555555555557,76.49829786164422L155.55555555555557,151.88099953106473L155.55555555555557,168.22933552946364L155.55555555555557,19.38654054914204L155.55555555555557,63.756969724382685L155.55555555555557,-17.75524677549086L171.11111111111111,114.96692511013578L171.11111111111111,55.1822693688529L171.11111111111111,120.56979322433472L171.11111111111111,171.87262073584967L171.11111111111111,115.2643735749381L171.11111111111111,174.02992161682675L171.11111111111111,130.27147844859533L171.11111111111111,130.32849761417935L171.11111111111111,156.08736794335502L171.11111111111111,22.13012940543041L171.11111111111111,120.7147661958422L171.11111111111111,152.46572637557983L171.11111111111111,149.6743335723877L171.11111111111111,200.31074011325836L171.11111111111111,86.1956331389291L171.11111111111111,80.20375548090254L171.11111111111111,149.73007958275932L171.11111111111111,90.63832340921675L171.11111111111111,131.226026569094L171.11111111111111,39.22616369383678L171.11111111111111,130.23629995754789L171.11111111111111,111.39940779549735L171.11111111111111,126.96365448406766L171.11111111111111,161.1379443577358L171.11111111111111,102.90496168817793L171.11111111111111,98.19697012220112L171.11111111111111,18.856847354343984L171.11111111111111,149.23606504712788L171.11111111111111,103.20715417180745L171.11111111111111,122.67312141827176L171.11111111111111,171.120087487357L171.11111111111111,91.44533709117346L171.11111111111111,144.06237149238586L171.11111111111111,133.46721928460258L171.11111111111111,55.320618901933955L171.11111111111111,178.01887604168485L171.11111111111111,133.7542248453413L171.11111111111111,139.37990365709578L171.11111111111111,110.86048422540938L171.11111111111111,120.00058674812317L171.11111111111111,140.32332682609558L171.11111111111111,102.94271680286953L171.11111111111111,167.67424743516105L171.11111111111111,119.73148114340647L171.11111111111111,129.52848628589086L171.11111111111111,197.74255112239294L171.11111111111111,112.79781723022462L171.11111111111111,155.5676932675498L171.11111111111111,78.57916396004815L171.11111111111111,140.71359436852592L171.11111111111111,52.13536643981935L171.11111111111111,145.2227615288326L171.11111111111111,102.96664908954077L171.11111111111111,27.40511458260673L171.11111111111111,137.47646083150593L171.11111111111111,83.47740129062109L171.11111111111111,86.69927212170192L171.11111111111111,-44.530094964163595L171.11111111111111,161.8499564102718L171.11111111111111,157.90619141714913L171.11111111111111,159.85917362145017L171.11111111111111,73.2152397973197L171.11111111111111,94.41630540575301L171.11111111111111,131.4262605394636L171.11111111111111,84.38099288940431L171.11111111111111,147.48144497190205L171.11111111111111,163.79408715452468L171.11111111111111,111.55974956921169L171.11111111111111,70.1833419118609L186.66666666666666,96.86893282617842L186.66666666666666,110.22148156166078L186.66666666666666,107.40988499777659L186.66666666666666,209.78215854508537L186.66666666666666,85.70819657189507L186.66666666666666,88.46853348187038L186.66666666666666,170.41114464827947L186.66666666666666,175.66065914290292L186.66666666666666,39.40939194815502L186.66666666666666,64.6316728251321L186.66666666666666,103.52812569481988L186.66666666666666,180.07119466577257L186.66666666666666,105.36086293629238L186.66666666666666,133.37920485224043L186.66666666666666,157.78364264965057L186.66666666666666,177.2967014823641L186.66666666666666,109.42812398501806L186.66666666666666,130.8158735547747L186.66666666666666,105.92618932042805L186.66666666666666,121.59571381977628L186.66666666666666,114.2159757273538L186.66666666666666,98.80814525059291L186.66666666666666,120.93608301026481L186.66666666666666,207.75424206256866L186.66666666666666,77.15003207751684L186.66666666666666,138.3154094900404L186.66666666666666,146.2111088888986L186.66666666666666,95.75780177116395L186.66666666666666,124.82104035786222L186.66666666666666,169.56445854050773L186.66666666666666,181.27156783853258L186.66666666666666,133.73235385758537L186.66666666666666,141.55130018506733L186.66666666666666,122.89981882912772L186.66666666666666,173.85715142318182L186.66666666666666,186.4778026342392L186.66666666666666,161.50712905611311L186.66666666666666,158.4187273297991L186.66666666666666,175.5752819606236L186.66666666666666,153.4194484608514L186.66666666666666,125.87096902302335L186.66666666666666,64.9217097078051L186.66666666666666,162.80278425557273L186.66666666666666,101.65487483569555L186.66666666666666,132.11966027532304L186.66666666666666,76.61106303759985L186.66666666666666,94.3808995655605L186.66666666666666,92.51934960910253L186.66666666666666,135.60236120224L186.66666666666666,78.64230639593944L186.66666666666666,77.70517321995327L186.66666666666666,146.4892781461988L186.66666666666666,22.120974813188838L186.66666666666666,124.65840993608748L186.66666666666666,126.30987412588938L186.66666666666666,124.6904813221523L186.66666666666666,172.01058377538408L186.66666666666666,134.78137312616622L186.66666666666666,74.68556734493801L186.66666666666666,102.59584263392858L186.66666666666666,137.03764666829792L186.66666666666666,85.42834493092128L186.66666666666666,109.35135575703212L186.66666666666666,123.2244885649L186.66666666666666,76.04543352127077L186.66666666666666,118.72688589777266L186.66666666666666,109.10794060570855L186.66666666666666,104.21162816456386L186.66666666666666,88.36207345553808L186.66666666666666,-75.88975695201327L202.22222222222223,145.04309507778714L202.22222222222223,172.12422803470068L202.22222222222223,162.2185424225671L202.22222222222223,94.37045666149686L202.22222222222223,142.04000990731376L202.22222222222223,155.7826443059104L202.22222222222223,102.24793781552998L202.22222222222223,154.57244965008329L202.22222222222223,83.28615518978664L202.22222222222223,148.31336096354894L202.22222222222223,151.77678268296378L202.22222222222223,100.8089086668832L202.22222222222223,107.19629805428643L202.22222222222223,99.16766003199987L202.22222222222223,146.968636240278L202.22222222222223,196.91926681995392L202.22222222222223,76.77249608721053L202.22222222222223,133.3944069317409L202.22222222222223,108.03106348855157L202.22222222222223,162.40325602463315L202.22222222222223,119.02628956522261L202.22222222222223,127.62039038113187L202.22222222222223,140.56913672174727L202.22222222222223,108.80880975723268L202.22222222222223,197.1967237165996L202.22222222222223,131.50396847724915L202.22222222222223,124.92304434095112L202.22222222222223,146.3612805775234L202.22222222222223,172.27823434557234L202.22222222222223,145.21247019086567L202.22222222222223,136.88598963192533L202.22222222222223,131.6860902990614L202.22222222222223,126.20497523035323L202.22222222222223,164.5706057378224L202.22222222222223,92.92927527427675L202.22222222222223,95.06537205832346L202.22222222222223,26.095462254115517L202.22222222222223,42.01307014056616L202.22222222222223,29.083027056285317L202.22222222222223,47.84465149470739L202.22222222222223,177.9724816594805L202.22222222222223,134.68183967045377L202.22222222222223,47.14599241529194L202.22222222222223,96.4219037805285L202.22222222222223,162.2639137336186L202.22222222222223,137.21078062057495L202.22222222222223,169.3828899349485L202.22222222222223,121.98117671694075L202.22222222222223,159.8217443738665L202.22222222222223,106.66102722712927L202.22222222222223,166.3268703051976L202.22222222222223,152.14549752644132L202.22222222222223,171.5900333268302L202.22222222222223,116.9094113622393L202.22222222222223,110.23603190694539L202.22222222222223,128.8584428855351L202.22222222222223,131.59792430060253L202.22222222222223,156.9962719338281L202.22222222222223,66.86074025290355L202.22222222222223,89.61561601502557L202.22222222222223,124.36562970706396L202.22222222222223,152.8975988115583L202.22222222222223,91.16830457959858L202.22222222222223,27.291136877877392L202.22222222222223,99.1397112437657L202.22222222222223,96.11567963872639L217.77777777777777,121.97324981008259L217.77777777777777,180.71970052378518L217.77777777777777,91.7554716382708L217.77777777777777,109.16370177268983L217.77777777777777,193.12072488239835L217.77777777777777,93.32501435279848L217.77777777777777,115.38338327407837L217.77777777777777,76.22132597650801L217.77777777777777,190.53899346079146L217.77777777777777,134.68849342209953L217.77777777777777,160.57044300011228L217.77777777777777,150.8296764578138L217.77777777777777,112.22776198387147L217.77777777777777,131.92159370013647L217.77777777777777,109.70821813174658L217.77777777777777,196.7811143227986L217.77777777777777,110.2837600708008L217.77777777777777,108.46846808706013L217.77777777777777,82.39567405836925L217.77777777777777,71.56345731871471L217.77777777777777,194.73240297181266L217.77777777777777,177.3710446528026L217.77777777777777,76.3665566103799L217.77777777777777,187.29183382647378L217.77777777777777,63.921221903392265L217.77777777777777,137.41330323900496L217.77777777777777,125.35287063462394L217.77777777777777,169.89373588562012L217.77777777777777,68.56555570874897L217.77777777777777,185.20093405246735L217.77777777777777,131.2035038471222L217.77777777777777,160.4913785457611L217.77777777777777,107.13183699335372L217.77777777777777,60.90663286617824L217.77777777777777,114.294714314597L217.77777777777777,156.12012895515988L217.77777777777777,39.81555877413069L217.77777777777777,185.09123808997018L217.77777777777777,124.6585615021842L217.77777777777777,128.81195756367276L217.77777777777777,89.29876708984376L217.77777777777777,54.35268749509541L217.77777777777777,116.78067111968994L217.77777777777777,159.38576449666706L217.77777777777777,46.704237869807656L217.77777777777777,127.75813364982605L217.77777777777777,127.20920671735492L217.77777777777777,104.505302633558L217.77777777777777,155.55701543603624L217.77777777777777,129.26521597589766L217.77777777777777,75.55220712934222L217.77777777777777,129.46728389603751L217.77777777777777,113.55889122826713L217.77777777777777,177.22203244481767L217.77777777777777,175.90595371382577L217.77777777777777,193.44222688674927L217.77777777777777,119.79507827758789L217.77777777777777,172.9225721359253L217.77777777777777,117.34325415747507L217.77777777777777,143.40919739859447L217.77777777777777,158.67674587454115L217.77777777777777,189.46162375382016L217.77777777777777,189.12203991413116L217.77777777777777,66.3427782739912L217.77777777777777,172.09712043830328L217.77777777777777,149.4524256501879L217.77777777777777,192.3860082285745L233.33333333333334,138.7217278821128L233.33333333333334,190.52238181659155L233.33333333333334,127.14168402126859L233.33333333333334,29.760876110621865L233.33333333333334,143.11008170672827L233.33333333333334,118.19798084667752L233.33333333333334,128.84763622283936L233.33333333333334,103.36601059777398L233.33333333333334,105.64122990199499L233.33333333333334,180.5287878683635L233.33333333333334,154.95102386815208L233.33333333333334,94.32886692455838L233.33333333333334,150.77979605538505L233.33333333333334,177.55396977492742L233.33333333333334,190.97737566062384L233.33333333333334,117.93816624368941L233.33333333333334,185.56363930021013L233.33333333333334,130.33437837873186L233.33333333333334,75.08609591211592L233.33333333333334,133.328248330525L233.33333333333334,100.26102754047939L233.33333333333334,134.56599770273482L233.33333333333334,156.06866468702046L233.33333333333334,181.27910825184415L233.33333333333334,156.37942823341916L233.33333333333334,145.09985658100675L233.33333333333334,115.83712669781278L233.33333333333334,138.02387210300992L233.33333333333334,183.58623221942358L233.33333333333334,146.35405087471008L233.33333333333334,119.10978732790267L233.33333333333334,163.93474807058064L233.33333333333334,67.6557802132198L233.33333333333334,127.64394375256131L233.33333333333334,162.7130116564887L233.33333333333334,83.50136389051166L233.33333333333334,157.27594927379064L233.33333333333334,58.324598312377944L233.33333333333334,151.43971484048026L233.33333333333334,46.33712962695532L233.33333333333334,164.91968519347054L233.33333333333334,187.1174797671182L233.33333333333334,119.19936289106099L233.33333333333334,158.51360770634244L233.33333333333334,144.4676743916103L233.33333333333334,148.1084739140102L233.33333333333334,46.34323774065291L233.33333333333334,192.52851067270552L233.33333333333334,163.10211971827917L233.33333333333334,156.67837720257896L233.33333333333334,131.11317045348034L233.33333333333334,177.26697179249356L233.33333333333334,78.99209063393731L233.33333333333334,115.45042095865523L233.33333333333334,138.50742857796806L233.33333333333334,110.94631610597884L233.33333333333334,129.6227149282183L233.33333333333334,138.6901718207768L233.33333333333334,159.30482062271665L233.33333333333334,145.84528895786832L233.33333333333334,138.64157973017012L233.33333333333334,164.48940420150757L233.33333333333334,172.18674904959542L233.33333333333334,156.642160483769L233.33333333333334,126.08537442343577L248.88888888888889,138.74714551653182L248.88888888888889,95.55476382800512L248.88888888888889,138.88475237573897L248.88888888888889,190.20456286839078L248.88888888888889,154.0752067565918L248.88888888888889,101.92079755238125L248.88888888888889,167.19765542234694L248.88888888888889,158.9372273683548L248.88888888888889,116.02012760298594L248.88888888888889,118.17480639048986L248.88888888888889,145.77556855337963L248.88888888888889,202.67639132908414L248.88888888888889,130.78222588130407L248.88888888888889,150.21572766985213L248.88888888888889,135.05244909014021L248.88888888888889,184.1095975296838L248.88888888888889,78.10268562180657L248.88888888888889,122.78193071910314L248.88888888888889,142.34291475159782L248.88888888888889,144.25328414780753L248.88888888888889,112.62092443874904L248.88888888888889,168.6751823595592L248.88888888888889,173.35664985861098L248.88888888888889,186.54550720964158L248.88888888888889,138.79832938739233L248.88888888888889,81.03013931001936L248.88888888888889,112.49704946790425L248.88888888888889,116.19086681093489L248.88888888888889,182.54658731392453L248.88888888888889,163.19603765010834L248.88888888888889,188.27647539547513L248.88888888888889,110.35478394372124L248.88888888888889,152.97060820034574L248.88888888888889,178.58052694797516L248.88888888888889,117.98830430848258L248.88888888888889,159.85269417081562L248.88888888888889,100.65647864341737L248.88888888888889,131.4071935244969L248.88888888888889,190.25525414943695L248.88888888888889,157.6908917767661L248.88888888888889,192.77912521362305L248.88888888888889,134.18512725830078L248.88888888888889,103.63097844805037L248.88888888888889,158.51950362750463L248.88888888888889,142.7761664390564L248.88888888888889,87.26083966663906L248.88888888888889,170.68493364538466L248.88888888888889,158.5361910547529L248.88888888888889,192.29826661518644L248.88888888888889,186.0038251365934L248.88888888888889,49.44676576341902L248.88888888888889,155.16793768746513L248.88888888888889,188.9847058738981L248.88888888888889,112.53254624775478L248.88888888888889,143.60800664765495L248.88888888888889,110.52602331978936L248.88888888888889,135.98652063097273L248.88888888888889,103.40572091511318L248.88888888888889,129.53895950317383L248.88888888888889,176.80249748911177L248.88888888888889,112.40078983988082L248.88888888888889,94.67534702164788L248.88888888888889,104.99283014025008L248.88888888888889,53.139643396650044L248.88888888888889,126.19059160777502L248.88888888888889,74.300543989454L248.88888888888889,152.06024159703935L248.88888888888889,140.2597600051335L248.88888888888889,184.05454114505224L248.88888888888889,104.07708294051035L248.88888888888889,104.08632847240993" style="fill: none;" fill="none"></path></g></g></g></g></g></g><g transform="translate(50, 178)" clip-path="url(#clip_1)"><clipPath id="clip_1"><rect width="280" height="22"></rect></clipPath><g><g><line x1="0" y1="0" x2="0" y2="5" style="visibility: inherit;" fill="rgb(0, 0, 0)" stroke="rgb(204, 204, 204)" stroke-width="1px"></line><line x1="31.11111111111111" y1="0" x2="31.11111111111111" y2="5" style="visibility: inherit;" fill="rgb(0, 0, 0)" stroke="rgb(204, 204, 204)" stroke-width="1px"></line><line x1="62.22222222222222" y1="0" x2="62.22222222222222" y2="5" style="visibility: inherit;" fill="rgb(0, 0, 0)" stroke="rgb(204, 204, 204)" stroke-width="1px"></line><line x1="93.33333333333333" y1="0" x2="93.33333333333333" y2="5" style="visibility: inherit;" fill="rgb(0, 0, 0)" stroke="rgb(204, 204, 204)" stroke-width="1px"></line><line x1="124.44444444444444" y1="0" x2="124.44444444444444" y2="5" style="visibility: inherit;" fill="rgb(0, 0, 0)" stroke="rgb(204, 204, 204)" stroke-width="1px"></line><line x1="155.55555555555557" y1="0" x2="155.55555555555557" y2="5" style="visibility: inherit;" fill="rgb(0, 0, 0)" stroke="rgb(204, 204, 204)" stroke-width="1px"></line><line x1="186.66666666666666" y1="0" x2="186.66666666666666" y2="5" style="visibility: inherit;" fill="rgb(0, 0, 0)" stroke="rgb(204, 204, 204)" stroke-width="1px"></line><line x1="217.77777777777777" y1="0" x2="217.77777777777777" y2="5" style="visibility: inherit;" fill="rgb(0, 0, 0)" stroke="rgb(204, 204, 204)" stroke-width="1px"></line><line x1="248.88888888888889" y1="0" x2="248.88888888888889" y2="5" style="visibility: inherit;" fill="rgb(0, 0, 0)" stroke="rgb(204, 204, 204)" stroke-width="1px"></line><line x1="280" y1="0" x2="280" y2="5" style="visibility: inherit;" fill="rgb(0, 0, 0)" stroke="rgb(204, 204, 204)" stroke-width="1px"></line></g><g transform="translate(0, 8)"><text x="0" y="0" dx="0em" dy="0.95em" style="text-anchor: middle; visibility: hidden; font-family: &quot;Helvetica Neue&quot;, sans-serif; font-size: 12px; font-weight: 200;" fill="rgb(50, 49, 63)" stroke="none" stroke-width="1px">-2</text><text x="31.11111111111111" y="0" dx="0em" dy="0.95em" style="text-anchor: middle; visibility: inherit; font-family: &quot;Helvetica Neue&quot;, sans-serif; font-size: 12px; font-weight: 200;" fill="rgb(50, 49, 63)" stroke="none" stroke-width="1px">0</text><text x="62.22222222222222" y="0" dx="0em" dy="0.95em" style="text-anchor: middle; visibility: inherit; font-family: &quot;Helvetica Neue&quot;, sans-serif; font-size: 12px; font-weight: 200;" fill="rgb(50, 49, 63)" stroke="none" stroke-width="1px">2</text><text x="93.33333333333333" y="0" dx="0em" dy="0.95em" style="text-anchor: middle; visibility: inherit; font-family: &quot;Helvetica Neue&quot;, sans-serif; font-size: 12px; font-weight: 200;" fill="rgb(50, 49, 63)" stroke="none" stroke-width="1px">4</text><text x="124.44444444444444" y="0" dx="0em" dy="0.95em" style="text-anchor: middle; visibility: inherit; font-family: &quot;Helvetica Neue&quot;, sans-serif; font-size: 12px; font-weight: 200;" fill="rgb(50, 49, 63)" stroke="none" stroke-width="1px">6</text><text x="155.55555555555557" y="0" dx="0em" dy="0.95em" style="text-anchor: middle; visibility: inherit; font-family: &quot;Helvetica Neue&quot;, sans-serif; font-size: 12px; font-weight: 200;" fill="rgb(50, 49, 63)" stroke="none" stroke-width="1px">8</text><text x="186.66666666666666" y="0" dx="0em" dy="0.95em" style="text-anchor: middle; visibility: inherit; font-family: &quot;Helvetica Neue&quot;, sans-serif; font-size: 12px; font-weight: 200;" fill="rgb(50, 49, 63)" stroke="none" stroke-width="1px">10</text><text x="217.77777777777777" y="0" dx="0em" dy="0.95em" style="text-anchor: middle; visibility: inherit; font-family: &quot;Helvetica Neue&quot;, sans-serif; font-size: 12px; font-weight: 200;" fill="rgb(50, 49, 63)" stroke="none" stroke-width="1px">12</text><text x="248.88888888888889" y="0" dx="0em" dy="0.95em" style="text-anchor: middle; visibility: inherit; font-family: &quot;Helvetica Neue&quot;, sans-serif; font-size: 12px; font-weight: 200;" fill="rgb(50, 49, 63)" stroke="none" stroke-width="1px">14</text><text x="280" y="0" dx="0em" dy="0.95em" style="text-anchor: middle; visibility: hidden; font-family: &quot;Helvetica Neue&quot;, sans-serif; font-size: 12px; font-weight: 200;" fill="rgb(50, 49, 63)" stroke="none" stroke-width="1px">16</text></g><line x1="0" y1="0" x2="280" y2="0" fill="rgb(0, 0, 0)" stroke="rgb(204, 204, 204)" stroke-width="1px"></line></g></g></g></g></svg>