<svg viewBox="0 0 330 200" xmlns="http://www.w3.org/2000/svg"><g><g><g><g><g><line x1="60" y1="178" x2="55" y2="178" style="visibility: inherit;" fill="rgb(0, 0, 0)" stroke="rgb(204, 204, 204)" stroke-width="1px"></line><line x1="60" y1="160.2" x2="55" y2="160.2" style="visibility: inherit;" fill="rgb(0, 0, 0)" stroke="rgb(204, 204, 204)" stroke-width="1px"></line><line x1="60" y1="142.4" x2="55" y2="142.4" style="visibility: inherit;" fill="rgb(0, 0, 0)" stroke="rgb(204, 204, 204)" stroke-width="1px"></line><line x1="60" y1="124.6" x2="55" y2="124.6" style="visibility: inherit;" fill="rgb(0, 0, 0)" stroke="rgb(204, 204, 204)" stroke-width="1px"></line><line x1="60" y1="106.8" x2="55" y2="106.8" style="visibility: inherit;" fill="rgb(0, 0, 0)" stroke="rgb(204, 204, 204)" stroke-width="1px"></line><line x1="60" y1="89" x2="55" y2="89" style="visibility: inherit;" fill="rgb(0, 0, 0)" stroke="rgb(204, 204, 204)" stroke-width="1px"></line><line x1="60" y1="71.2" x2="55" y2="71.2" style="visibility: inherit;" fill="rgb(0, 0, 0)" stroke="rgb(204, 204, 204)" stroke-width="1px"></line><line x1="60" y1="53.400000000000006" x2="55" y2="53.400000000000006" style="visibility: inherit;" fill="rgb(0, 0, 0)" stroke="rgb(204, 204, 204)" stroke-width="1px"></line><line x1="60" y1="35.60000000000002" x2="55" y2="35.60000000000002" style="visibility: inherit;" fill="rgb(0, 0, 0)" stroke="rgb(204, 204, 204)" stroke-width="1px"></line><line x1="60" y1="17.799999999999983" x2="55" y2="17.799999999999983" style="visibility: inherit;" fill="rgb(0, 0, 0)" stroke="rgb(204, 204, 204)" stroke-width="1px"></line><line x1="60" y1="0" x2="55" y2="0" style="visibility: inherit;" fill="rgb(0, 0, 0)" stroke="rgb(204, 204, 204)" stroke-width="1px"></line></g><g transform="translate(50, 0)"><text x="0" y="178" dx="0em" dy="0.3em" style="text-anchor: end; visibility: hidden; font-family: &quot;Helvetica Neue&quot;, sans-serif; font-size: 12px; font-weight: 200;" fill="rgb(50, 49, 63)" stroke="none" stroke-width="1px">-0.05</text><text x="0" y="160.2" dx="0em" dy="0.3em" style="text-anchor: end; visibility: inherit; font-family: &quot;Helvetica Neue&quot;, sans-serif; font-size: 12px; font-weight: 200;" fill="rgb(50, 49, 63)" stroke="none" stroke-width="1px">0</text><text x="0" y="142.4" dx="0em" dy="0.3em" style="text-anchor: end; visibility: hidden; font-family: &quot;Helvetica Neue&quot;, sans-serif; font-size: 12px; font-weight: 200;" fill="rgb(50, 49, 63)" stroke="none" stroke-width="1px">0.05</text><text x="0" y="124.6" dx="0em" dy="0.3em" style="text-anchor: end; visibility: inherit; font-family: &quot;Helvetica Neue&quot;, sans-serif; font-size: 12px; font-weight: 200;" fill="rgb(50, 49, 63)" stroke="none" stroke-width="1px">0.1</text><text x="0" y="106.8" dx="0em" dy="0.3em" style="text-anchor: end; visibility: hidden; font-family: &quot;Helvetica Neue&quot;, sans-serif; font-size: 12px; font-weight: 200;" fill="rgb(50, 49, 63)" stroke="none" stroke-width="1px">0.15</text><text x="0" y="89" dx="0em" dy="0.3em" style="text-anchor: end; visibility: inherit; font-family: &quot;Helvetica Neue&quot;, sans-serif; font-size: 12px; font-weight: 200;" fill="rgb(50, 49, 63)" stroke="none" stroke-width="1px">0.2</text><text x="0" y="71.2" dx="0em" dy="0.3em" style="text-anchor: end; visibility: hidden; font-family: &quot;Helvetica Neue&quot;, sans-serif; font-size: 12px; font-weight: 200;" fill="rgb(50, 49, 63)" stroke="none" stroke-width="1px">0.25</text><text x="0" y="53.400000000000006" dx="0em" dy="0.3em" style="text-anchor: end; visibility: inherit; font-family: &quot;Helvetica Neue&quot;, sans-serif; font-size: 12px; font-weight: 200;" fill="rgb(50, 49, 63)" stroke="none" stroke-width="1px">0.3</text><text x="0" y="35.60000000000002" dx="0em" dy="0.3em" style="text-anchor: end; visibility: hidden; font-family: &quot;Helvetica Neue&quot;, sans-serif; font-size: 12px; font-weight: 200;" fill="rgb(50, 49, 63)" stroke="none" stroke-width="1px">0.35</text><text x="0" y="17.799999999999983" dx="0em" dy="0.3em" style="text-anchor: end; visibility: inherit; font-family: &quot;Helvetica Neue&quot;, sans-serif; font-size: 12px; font-weight: 200;" fill="rgb(50, 49, 63)" stroke="none" stroke-width="1px">0.4</text><text x="0" y="0" dx="0em" dy="0.3em" style="text-anchor: end; visibility: hidden; font-family: &quot;Helvetica Neue&quot;, sans-serif; font-size: 12px; font-weight: 200;" fill="rgb(50, 49, 63)" stroke="none" stroke-width="1px">0.45</text></g><line x1="60" y1="0" x2="60" y2="178" fill="rgb(0, 0, 0)" stroke="rgb(204, 204, 204)" stroke-width="1px"></line></g></g><g transform="translate(60, 0)" clip-path="url(#clip_0)"><clipPath id="clip_0"><rect width="270" height="178"></rect></clipPath><g><g><g><line x1="0" y1="0" x2="0" y2="178" fill="rgb(0, 0, 0)" stroke="rgb(60, 60, 60)" stroke-width="1px" opacity="0.25"></line><line x1="22.5" y1="0" x2="22.5" y2="178" fill="rgb(0, 0, 0)" stroke="rgb(60, 60, 60)" stroke-width="1px" opacity="0.25"></line><line x1="45" y1="0" x2="45" y2="178" fill="rgb(0, 0, 0)" stroke="rgb(60, 60, 60)" stroke-width="1px" opacity="0.25"></line><line x1="67.5" y1="0" x2="67.5" y2="178" fill="rgb(0, 0, 0)" stroke="rgb(60, 60, 60)" stroke-width="1px" opacity="0.25"></line><line x1="90" y1="0" x2="90" y2="178" fill="rgb(0, 0, 0)" stroke="rgb(60, 60, 60)" stroke-width="1px" opacity="0.25"></line><line x1="112.5" y1="0" x2="112.5" y2="178" fill="rgb(0, 0, 0)" stroke="rgb(60, 60, 60)" stroke-width="1px" opacity="0.25"></line><line x1="135" y1="0" x2="135" y2="178" fill="rgb(0, 0, 0)" stroke="rgb(60, 60, 60)" stroke-width="1px" opacity="0.25"></line><line x1="157.5" y1="0" x2="157.5" y2="178" fill="rgb(0, 0, 0)" stroke="rgb(60, 60, 60)" stroke-width="1px" opacity="0.25"></line><line x1="180" y1="0" x2="180" y2="178" fill="rgb(0, 0, 0)" stroke="rgb(60, 60, 60)" stroke-width="1px" opacity="0.25"></line><line x1="202.5" y1="0" x2="202.5" y2="178" fill="rgb(0, 0, 0)" stroke="rgb(60, 60, 60)" stroke-width="1px" opacity="0.25"></line><line x1="225" y1="0" x2="225" y2="178" fill="rgb(0, 0, 0)" stroke="rgb(60, 60, 60)" stroke-width="1px" opacity="0.25"></line><line x1="247.5" y1="0" x2="247.5" y2="178" fill="rgb(0, 0, 0)" stroke="rgb(60, 60, 60)" stroke-width="1px" opacity="0.25"></line><line x1="270" y1="0" x2="270" y2="178" fill="rgb(0, 0, 0)" stroke="rgb(60, 60, 60)" stroke-width="1px" opacity="0.25"></line></g><g><line x1="0" y1="178" x2="270" y2="178" fill="rgb(0, 0, 0)" stroke="rgb(60, 60, 60)" stroke-width="1px" opacity="0.25"></line><line x1="0" y1="160.2" x2="270" y2="160.2" fill="rgb(0, 0, 0)" stroke="rgb(60, 60, 60)" stroke-width="1px" opacity="0.25"></line><line x1="0" y1="142.4" x2="270" y2="142.4" fill="rgb(0, 0, 0)" stroke="rgb(60, 60, 60)" stroke-width="1px" opacity="0.25"></line><line x1="0" y1="124.6" x2="270" y2="124.6" fill="rgb(0, 0, 0)" stroke="rgb(60, 60, 60)" stroke-width="1px" opacity="0.25"></line><line x1="0" y1="106.8" x2="270" y2="106.8" fill="rgb(0, 0, 0)" stroke="rgb(60, 60, 60)" stroke-width="1px" opacity="0.25"></line><line x1="0" y1="89" x2="270" y2="89" fill="rgb(0, 0, 0)" stroke="rgb(60, 60, 60)" stroke-width="1px" opacity="0.25"></line><line x1="0" y1="71.2" x2="270" y2="71.2" fill="rgb(0, 0, 0)" stroke="rgb(60, 60, 60)" stroke-width="1px" opacity="0.25"></line><line x1="0" y1="53.400000000000006" x2="270" y2="53.400000000000006" fill="rgb(0, 0, 0)" stroke="rgb(60, 60, 60)" stroke-width="1px" opacity="0.25"></line><line x1="0" y1="35.60000000000002" x2="270" y2="35.60000000000002" fill="rgb(0, 0, 0)" stroke="rgb(60, 60, 60)" stroke-width="1px" opacity="0.25"></line><line x1="0" y1="17.799999999999983" x2="270" y2="17.799999999999983" fill="rgb(0, 0, 0)" stroke="rgb(60, 60, 60)" stroke-width="1px" opacity="0.25"></line><line x1="0" y1="0" x2="270" y2="0" fill="rgb(0, 0, 0)" stroke="rgb(60, 60, 60)" stroke-width="1px" opacity="0.25"></line></g></g></g><g><g><line x1="0" y1="160.2" x2="270" y2="160.2" fill="rgb(0, 0, 0)" stroke="rgb(153, 153, 153)" stroke-width="1.5px"></line></g></g><g><g><line x1="22.5" y1="0" x2="22.5" y2="178" fill="rgb(0, 0, 0)" stroke="rgb(153, 153, 153)" stroke-width="1.5px"></line></g></g><g><g><g><g><g><path stroke="rgb(0, 119, 187)" stroke-width="2px" d="M22.5,-5.93371938896999L22.5,2.655613224558124L22.5,16.096279544883004L22.5,13.080106424994824L22.5,2.698257949041846L22.5,-16.402059261787144L22.5,-6.966003784728855L22.5,1.9865282676951495L22.5,2.879680915072896L22.5,-17.27885249680932L22.5,8.148463034205946L22.5,-17.124269802878985L22.5,-5.347202932578L22.5,10.875054507329025L22.5,18.306632011750537L22.5,28.816864794128264L22.5,13.034292151235832L22.5,0.803528324953902L22.5,26.030273527499872L22.5,31.251370645036815L22.5,5.105128245308151L22.5,13.057351945498198L22.5,36.41321661740227L22.5,36.279918351922305L22.5,5.393848498915929L22.5,17.943270327989154L22.5,32.03729015557724L22.5,21.60107927681949L22.5,29.417364552647314L22.5,32.08062475271075L22.5,32.5056993400359L22.5,46.15374707970241L22.5,48.73400443528698L22.5,53.42467937223064L22.5,61.303171653819646L22.5,58.70590905259586L22.5,12.579123630976994L22.5,25.99639035866028L22.5,27.305962219406382L22.5,9.35997639935701L33.75,13.328698156275777L33.75,25.361933068306257L33.75,25.930491044452083L33.75,32.5336779370426L33.75,39.694617467826674L33.75,50.31394157752868L33.75,46.39333233084875L33.75,48.931801018995316L33.75,34.61497682682702L33.75,34.6342082449915L33.75,57.80317149813236L33.75,41.96398319634736L33.75,41.685413376289205L33.75,47.29739459979419L33.75,50.3856180514568L33.75,25.53258526835839L33.75,48.273751719677676L33.75,17.55830981247658L33.75,22.586857311207297L33.75,-1.3001816032659121L33.75,26.87427958975252L33.75,25.404720866263034L33.75,29.97944453452834L33.75,34.12413411077742L33.75,23.320149573903592L33.75,17.234762597811994L33.75,33.39086755319403L33.75,16.826073485636527L33.75,24.162848070874105L33.75,44.00336692548649L33.75,48.988924185138075L33.75,46.88753159505197L33.75,42.78748777188102L33.75,47.629375836117504L33.75,46.778178804435385L33.75,34.25786809999826L33.75,53.80502549218586L33.75,41.30772678975731L33.75,32.12986486985963L33.75,42.444316522089736L33.75,38.5642055653382L33.75,11.485904053619407L33.75,41.28538658843692L45,47.691320701994044L45,60.67605284008833L45,63.82571301432522L45,60.168291225266884L45,42.96594816579369L45,25.051835077607308L45,26.0758175764106L45,41.345500969506645L45,44.65384835697256L45,56.38496815858507L45,54.31726794539823L45,22.404399310940107L45,28.22548835479833L45,42.20461200358642L45,23.340245553744836L45,31.109816859300736L45,60.74301378615844L45,52.41450775556652L45,44.270249329166944L45,38.18464093813736L45,5.575980199631687L45,-15.338709842409742L45,17.65833494469763L45,16.415456641943706L45,38.208447311658546L45,36.754188097917364L45,31.766404488923143L45,42.10840129091858L45,40.3675618412168L45,22.88610662949509L45,9.006163374974875L45,-3.823331413033884L45,20.314850134036988L45,28.297495371331024L45,31.512015518086713L45,42.84300006898496L45,20.99110428257137L45,43.214834359665815L45,56.0996974202276L45,47.017756150500816L45,56.563045343361395L45,63.686929540993034L45,66.4742869169481L45,43.335473782477834L45,38.33032158294799L56.25,43.94391503381422L56.25,56.54892038850599L56.25,63.833021976641504L56.25,54.93178409701089L56.25,52.933965010437376L56.25,52.068751103277805L56.25,51.033489879724854L56.25,46.75142625853866L56.25,59.91904430797963L56.25,61.38798300034564L56.25,43.07503755335068L56.25,30.49610636379751L56.25,37.81343738166353L56.25,50.80915148692047L56.25,29.663734557847448L56.25,23.681059795987778L56.25,37.63515606306325L56.25,58.11398095835645L56.25,50.33976816981672L56.25,66.65795665174507L56.25,23.048579037128576L56.25,28.11026694055718L56.25,48.6534566788454L56.25,56.78300850323315L56.25,55.546063694545495L56.25,44.92411899637514L56.25,43.332600622602286L56.25,49.245856951014986L56.25,16.98525094886827L56.25,1.1306243699801257L56.25,11.489556291223295L56.25,45.205848900390095L56.25,29.882349262185357L56.25,24.887077175109084L56.25,22.55652950437573L56.25,37.52167865652865L56.25,57.05545827042475L56.25,57.264696890660616L56.25,64.2336912289551L56.25,68.22706190438814L56.25,69.06750295455305L67.5,65.87157112774281L67.5,50.18813163767474L67.5,35.09530994612106L67.5,41.96268907855827L67.5,39.15761902612971L67.5,36.85059089352205L67.5,46.27146830373715L67.5,52.74568063624925L67.5,60.629063364316394L67.5,49.262063291340695L67.5,52.92618608157015L67.5,56.159531238556966L67.5,20.709851319122947L67.5,29.601378931122213L67.5,46.84470821709465L67.5,54.466418874806365L67.5,56.67542945179119L67.5,48.92709254999622L67.5,58.593265131590755L67.5,62.38040735928894L67.5,56.354424043945556L67.5,29.298692806036513L67.5,51.66135324923471L67.5,76.9140666883485L67.5,65.90296837337593L67.5,71.41542504696713L67.5,64.96946279566684L67.5,56.01498106218099L67.5,26.97612752852868L67.5,29.9688225933196L67.5,41.02331237961542L67.5,35.633465777454916L67.5,51.020352493893L67.5,48.95329567144569L67.5,48.236230761708356L67.5,55.862174248040645L67.5,66.77793234785851L67.5,70.87781111598287L67.5,35.90706213116812L67.5,27.74909246325592L67.5,34.9669947693354L67.5,57.06291747984923L67.5,43.28597291527771L67.5,40.36664641510595L78.75,48.28449459917039L78.75,61.92578640488797L78.75,45.107397292304114L78.75,53.77430702581886L78.75,64.05570868334104L78.75,59.152894881254L78.75,68.40878045254084L78.75,61.73856187160689L78.75,64.30550845322537L78.75,49.51225784216837L78.75,47.407799909082144L78.75,54.502565811614446L78.75,51.34456939610257L78.75,67.34889941163311L78.75,79.63546138732106L78.75,54.13708578663153L78.75,43.69995584438493L78.75,57.87032520264536L78.75,48.64759507352204L78.75,51.17894541844183L78.75,56.403490307476844L78.75,57.54443071517153L78.75,55.463145894007695L78.75,32.229263430951136L78.75,20.796370705436516L78.75,43.633631830496114L78.75,50.54722147767693L78.75,68.50976711741062L78.75,65.22061421293598L78.75,84.36718236576667L78.75,61.89404110891313L78.75,46.38623848904783L78.75,64.24643681138524L78.75,67.26462015205483L78.75,42.36159547265686L78.75,52.45382311878393L78.75,55.85831899486655L78.75,70.4443772068183L78.75,91.4955222195721L90,87.74863233961679L90,82.94478573559535L90,84.02252096509226L90,87.70661549195817L90,73.41040693059666L90,51.934032291979236L90,68.94740890193621L90,58.83718054013633L90,67.19414785693397L90,66.60507879251426L90,89.24191133018843L90,81.06020124337978L90,70.65456946123783L90,61.02157590525833L90,61.06481825433663L90,54.40152978850894L90,53.03662841769156L90,65.44467321665344L90,73.48179312009367L90,60.64849391137811L90,67.4667043170646L90,75.39458722837657L90,53.540526960896784L90,75.91188143647155L90,66.66732838008666L90,71.90559620293295L90,75.81830441613386L90,66.52377581870192L90,61.809812289927194L90,52.185951251062036L90,69.83470286504762L90,59.5450316570779L90,60.66525397196891L90,56.95485609945942L90,36.09313048706824L90,42.718221393742425L90,52.67048502893344L90,66.16008997995316L90,68.5375494351307L90,62.38992289723872L90,72.78773570550631L90,63.264685471613106L90,45.97189910874303L90,60.22424357214888L90,43.77410296129776L90,44.93614192204234L90,45.31273388979767L90,51.28596633027753L90,62.5895784506247L90,57.71576997572454L90,63.69955245098038L90,29.09797499323227L101.25,39.08463508215152L101.25,43.98514244035843L101.25,45.20681039020994L101.25,62.097421838793636L101.25,61.92887988206951L101.25,72.70220200608496L101.25,58.706166632117785L101.25,49.11036630579349L101.25,57.19809256141494L101.25,63.06340870228476L101.25,80.33474355797212L101.25,68.95977937376641L101.25,86.69784166810597L101.25,56.60147132395319L101.25,76.8655870599664L101.25,76.32975477714042L101.25,72.04223899566354L101.25,64.5700553496076L101.25,77.58058104034623L101.25,78.73446525285459L101.25,62.6662166711677L101.25,64.79364802104169L101.25,65.19206260718069L101.25,74.32041685507988L101.25,77.38788979963242L101.25,78.7606396825062L101.25,79.78760825580041L101.25,70.79771661630679L101.25,64.47650874061233L101.25,52.687414414899635L101.25,42.09250811053343L101.25,53.69353742666857L101.25,68.76636052172076L101.25,52.48207433724815L101.25,64.05573544802913L101.25,66.93389026345402L101.25,48.40126159680838L101.25,66.14792616184327L101.25,71.18091785797937L101.25,72.31499600821414L101.25,54.29981640108632L101.25,53.84969782786493L101.25,45.016974620562365L101.25,58.68430627616735L101.25,47.305279886916225L101.25,53.87787783395943L112.5,58.69630218179047L112.5,51.40086315531147L112.5,66.82768609081872L112.5,45.42903298589687L112.5,62.077374143916956L112.5,60.96952193469917L112.5,56.34144023830363L112.5,68.04255793437164L112.5,66.93233100619794L112.5,68.31861441640189L112.5,71.19105492894727L112.5,75.36982664862201L112.5,68.68748930811243L112.5,50.55554056477166L112.5,76.072749001453L112.5,77.732346314591L112.5,87.35384372854341L112.5,72.7080528782851L112.5,81.71810208124201L112.5,82.1856155822413L112.5,84.37802935300688L112.5,88.58072839652552L112.5,71.5137620882693L112.5,66.56409815529007L112.5,84.71106646286856L112.5,79.66263741628772L112.5,64.32624954686432L112.5,58.11642918292206L112.5,69.19889806570721L112.5,74.41821656025715L112.5,64.52887796281139L112.5,69.03258213829017L112.5,31.999297322219718L112.5,53.92495853268271L112.5,42.81517335988977L112.5,47.47740870724857L112.5,45.00393401867592L112.5,51.31053209356334L112.5,45.61491249115389L112.5,63.376675027079116L112.5,69.32947072116536L112.5,59.384812531042115L112.5,56.75259784768106L112.5,49.15465693897059L112.5,57.70416690126687L112.5,53.849717319104855L112.5,46.849400417860636L112.5,51.67641545823591L112.5,57.31347726757156L112.5,65.62592515811221L112.5,45.99756807246743L112.5,67.87270273541772L112.5,79.3793083106003L123.75,76.6701540800644L123.75,69.51533572272737L123.75,81.49325373885799L123.75,57.40411496113401L123.75,68.50609910935557L123.75,66.47727108747004L123.75,73.59431141346835L123.75,82.11473511773434L123.75,59.440928530204815L123.75,63.35893123120577L123.75,65.94037765008514L123.75,85.31667350853863L123.75,87.30223646119465L123.75,74.72843863460558L123.75,66.9288031977006L123.75,58.37918179044651L123.75,46.515067181644014L123.75,56.196963625941976L123.75,57.866662243482054L123.75,73.48284761159216L123.75,65.06451375990268L123.75,75.33715865915512L123.75,77.86026648703513L123.75,69.60333333506166L123.75,62.61556686695802L123.75,66.90296947083704L123.75,60.84413165999551L123.75,70.93669719668091L123.75,78.40623664839184L123.75,65.18752105702828L123.75,65.35542190354985L123.75,72.27740338493538L123.75,66.94417061715815L123.75,46.34715487426217L123.75,50.075702897701845L123.75,49.49337007999074L123.75,49.922424168584655L123.75,55.12378143024321L123.75,78.13859023780748L123.75,74.72733194190934L123.75,82.38758337115453L123.75,47.686304762454085L123.75,39.92037778049186L123.75,60.23623736947461L123.75,76.90750137001088L123.75,81.45246829885133L123.75,80.42167567669087L123.75,50.01910255109509L123.75,66.2773212823584L123.75,61.257780689794686L123.75,73.95425171065261L135,46.49284419541317L135,60.61141539767242L135,69.54509752961906L135,76.45084509118146L135,85.04411750831454L135,72.71405164359956L135,68.96111915563911L135,75.19051281723601L135,63.216509752948426L135,49.30087264864403L135,59.25064149671053L135,51.49106647952351L135,66.96401783933612L135,67.17036811059934L135,73.7664940854682L135,78.0476656783088L135,72.56866329362775L135,67.64925087839832L135,86.24557079166453L135,61.04607516580988L135,54.38501731666426L135,72.44843209333719L135,68.85502472727002L135,76.6084247589618L135,83.35024296286763L135,63.155933379191524L135,80.53683672372006L135,73.1638233591527L135,65.369672179783L135,76.88321941409387L135,82.13737696477101L135,86.07100102226929L135,79.22700382304787L135,55.28877710004208L135,58.08880512416101L135,33.44481013595899L135,40.171638221620555L135,44.75000582878533L135,47.77580918994394L135,65.18800699071195L135,74.33192029092375L135,61.65454480227032L135,70.87972794757007L135,68.87096457234455L135,80.49479084820409L135,68.26927367693698L135,78.825284675637L135,66.22166023485607L135,71.59517115731684L135,44.24110264289169L135,69.90469708149307L135,84.3142614537756L135,73.90403246011022L135,79.15052924111892L146.25,59.29543026897554L146.25,71.69902220614699L146.25,83.2920686486241L146.25,88.95293215291959L146.25,68.41566004858768L146.25,69.25754768434977L146.25,83.0148467754353L146.25,96.96584040016108L146.25,99.43172306352957L146.25,74.40952324470345L146.25,68.93537819624224L146.25,65.76592498445677L146.25,48.36888467207055L146.25,61.68926877817215L146.25,79.92764232063712L146.25,72.96838327827705L146.25,83.32193721164855L146.25,88.87863229292388L146.25,91.32940640078637L146.25,69.93673416868837L146.25,70.17124038753505L146.25,62.476501337394694L146.25,60.68262920362089L146.25,48.326592101945494L146.25,73.44476550954222L146.25,88.24856371246362L146.25,83.15085997201554L146.25,81.76762086640328L146.25,60.87311198288518L146.25,63.36780332788419L146.25,37.98852379360551L146.25,51.223363614313314L146.25,51.230184903283416L146.25,68.88653862389296L146.25,81.17742431588393L146.25,68.25740543143405L146.25,73.26373553238186L146.25,56.49342792488261L146.25,45.67239617143349L146.25,44.429068205560895L146.25,63.2619472299848L146.25,57.94885156362258L146.25,67.49977993136051L146.25,73.82951562384011L146.25,67.446550164099L146.25,52.22687821476188L157.5,63.43477355056122L157.5,73.3935732568092L157.5,83.54536024360578L157.5,70.75739944236709L157.5,71.71265791092654L157.5,79.33837565800155L157.5,68.7616147865093L157.5,52.90271651442268L157.5,62.67815106210362L157.5,62.10939673124105L157.5,74.99845056735487L157.5,72.72144113661652L157.5,85.90039932418946L157.5,90.5050823002403L157.5,99.00887571509747L157.5,75.2433609934811L157.5,59.590923288593544L157.5,72.00310305781952L157.5,72.84546416299219L157.5,73.66698828993245L157.5,86.0518832949281L157.5,74.16465909644845L157.5,87.87928419211435L157.5,91.71386376439887L157.5,68.39886868130779L157.5,53.55730748731861L157.5,45.68321483945232L157.5,59.28568636426557L157.5,73.6327578058793L157.5,66.86487175887548L157.5,70.0812322060211L157.5,76.28947807788511L157.5,77.1250231876353L157.5,87.02025596465944L157.5,80.7835958300011L157.5,78.88079764711718L157.5,66.84988798539555L157.5,73.91876212740371L157.5,76.27130780687587L157.5,77.62123572153246L157.5,63.434364081158606L157.5,82.19621341749092L157.5,92.66183425262011L157.5,80.11624254032634L157.5,83.14576958444513L157.5,71.0168704249072L157.5,46.014405187225805L168.75,53.223619499359415L168.75,64.21341751012437L168.75,77.03043867822429L168.75,85.86193317458594L168.75,83.7072127049301L168.75,90.36659912259184L168.75,99.19285982126476L168.75,96.84882134243539L168.75,86.7017569711488L168.75,86.13619193140754L168.75,60.816198095703655L168.75,77.55784792484316L168.75,87.55565256822986L168.75,84.67707602828075L168.75,54.56847613721686L168.75,64.1526698498106L168.75,65.95253877092458L168.75,73.43970921664867L168.75,47.67553939717672L168.75,49.452456826553714L168.75,64.38002100144979L168.75,54.31417772385572L168.75,36.30252701051887L168.75,39.85772468333158L168.75,56.23128592064806L168.75,48.392276238744444L168.75,65.48054304083884L168.75,69.04270326590955L168.75,88.41554815945877L168.75,56.59631130801351L168.75,67.49645895067877L168.75,68.10226287307756L168.75,70.09043344654094L168.75,73.98997677324682L168.75,75.47153462027593L168.75,89.66557363185336L168.75,65.73642792888312L168.75,61.02964799039262L168.75,79.40888093252597L168.75,72.43806311571372L168.75,58.218823062680784L168.75,62.237627217353975L180,73.41081056426859L180,89.82561010259923L180,67.23515705429638L180,67.48510032274201L180,59.40960937844439L180,76.89972867314056L180,77.90276764955543L180,75.83062133745207L180,80.76110083076865L180,76.9535722435326L180,78.87254890089098L180,81.37734344652215L180,59.65609517008616L180,53.55156404441925L180,73.1569578854223L180,77.58605202960848L180,80.97394312457966L180,59.08395129344896L180,73.47681957901737L180,83.21278643143907L180,78.98055563171347L180,73.7272894775846L180,83.40622408842913L180,71.83271391663475L180,68.76934192343666L180,84.61419269182748L180,74.9367293449549L180,74.4427970178311L180,86.81223552271038L180,80.86297219779675L180,70.71645139805429L180,55.49246623487444L180,54.49767894250853L180,73.49921469392005L180,80.30124064267649L180,96.83432478178129L180,88.30980276625505L180,74.21073029256553L180,82.85081378589088L180,85.29919071656474L180,99.56303844727283L180,87.72241291211368L180,72.18489511970473L180,73.16387582399723L180,70.53007334100172L180,63.08886002556662L180,64.76799714479553L180,59.91557884641712L180,60.66476314799921L180,70.08499962292277L180,66.85118653179504L180,77.41343776346025L191.25,82.89238694167601L191.25,88.01441342625897L191.25,76.14910719271828L191.25,91.81180738375382L191.25,100.78353373864769L191.25,109.44002772247481L191.25,100.47468756243995L191.25,68.9163567269171L191.25,63.61736830021886L191.25,70.49538367239207L191.25,79.28780809669237L191.25,88.7830635573181L191.25,75.75360810433105L191.25,71.50698242470189L191.25,81.23219780137876L191.25,81.73390796667778L191.25,77.01920118145016L191.25,66.7061426819078L191.25,63.6314097321458L191.25,69.70065341928169L191.25,86.65399436556437L191.25,70.19757996322596L191.25,80.83046142531565L191.25,84.00890305681902L191.25,83.53717088606285L191.25,58.529015998282006L191.25,75.67691315903542L191.25,67.94743901785777L191.25,57.766678637841736L191.25,73.67226006661616L191.25,65.07942380234458L191.25,73.10172089651142L191.25,88.01571210333655L191.25,75.49221261089416L191.25,66.11683638420924L191.25,70.56200313763155L191.25,61.256816273905855L191.25,73.32398959039332L191.25,70.30383811496903L191.25,55.55500068010812L191.25,33.103397050749805L191.25,55.055162863285275L191.25,53.20737262031491L191.25,65.08036618388329L191.25,63.91811596010109L191.25,80.32169539602982L191.25,79.98998973174326L191.25,90.47085853936335L191.25,91.02142842603958L191.25,87.70220091815732L191.25,98.05866792008842L202.5,88.72500159147718L202.5,92.6139098084172L202.5,100.75325628257991L202.5,99.36845477185966L202.5,71.57606141902401L202.5,74.63651944361564L202.5,74.65756350733302L202.5,70.13138949142375L202.5,79.39010453263805L202.5,70.90946786904267L202.5,92.03881255450207L202.5,84.29054310597395L202.5,56.26337070153605L202.5,64.17587287239107L202.5,77.70063564665242L202.5,89.51951984338238L202.5,83.23832824571296L202.5,73.90503167833903L202.5,64.30661642864955L202.5,85.81824106642969L202.5,90.20170800369601L202.5,75.77438352871907L202.5,84.60596396427735L202.5,86.34820672691693L202.5,82.90602825654048L202.5,81.60933982951939L202.5,83.33331229939162L202.5,82.29497999819577L202.5,83.5857535819558L202.5,75.90203229787038L202.5,50.06825545431427L202.5,43.00279965282232L202.5,45.96963560033291L202.5,62.55886428504259L202.5,67.84872149079484L202.5,54.96245758205322L202.5,52.13140042584935L202.5,48.47351606346248L202.5,54.40101492677378L202.5,76.81937025233655L202.5,91.08040511038631L202.5,87.36149051324564L202.5,73.32187118134523L202.5,76.31181298972143L202.5,88.68491065550431L202.5,89.0180225422894L213.75,82.90720940416546L213.75,74.2653009747594L213.75,89.84120726198731L213.75,86.39121861702668L213.75,65.36812238840143L213.75,75.3112817868464L213.75,75.37629823356109L213.75,92.87337680619501L213.75,102.0292006061169L213.75,85.43784858022288L213.75,65.6498400570998L213.75,75.230338971737L213.75,73.32106168801961L213.75,92.21967752298939L213.75,82.62351558399932L213.75,88.6742736017271L213.75,89.6983526465633L213.75,85.85949411376349L213.75,99.1396019767763L213.75,78.83833632415782L213.75,66.67142886129767L213.75,78.30001499061436L213.75,83.66244937541873L213.75,93.61547187782998L213.75,94.81663275133178L213.75,86.20088105899457L213.75,85.16480058611847L213.75,70.45890883792292L213.75,72.23462010019333L213.75,61.0737888180811L213.75,65.94962374231808L213.75,73.27617612279411L213.75,83.0386647200403L213.75,87.98164836739406L213.75,90.10056965932193L213.75,65.22890237680043L213.75,71.51658509082176L213.75,77.50515319530118L213.75,70.50601614966362L213.75,81.83834637555104L213.75,83.46364384980573L213.75,74.53771917159303L213.75,66.91130107006398L213.75,73.21623145437817L213.75,87.98847346124995L213.75,79.3211376751539L225,83.94765897781114L225,76.13058724993742L225,66.48361995097565L225,85.13039671824318L225,67.93168702272142L225,63.82942239849308L225,79.54766970401133L225,98.14585442736819L225,97.51550607797547L225,100.43878587315704L225,95.71116724628345L225,103.28442022692047L225,85.96167236739923L225,92.32212664469795L225,100.41900166621636L225,77.93249848813313L225,90.65784583169518L225,94.40125428723275L225,72.99555334977497L225,81.64572156865708L225,77.75286160826273L225,81.21309773754827L225,86.65276482958646L225,92.0496114495936L225,87.48368962309021L225,60.8495488911942L225,59.071471573714945L225,45.31142898190291L225,62.329766658474625L225,80.92252719135858L225,93.70048032123911L225,65.11710275840204L225,78.25474697608617L225,78.75117659007826L225,69.50710313460422L225,77.03044184292074L225,88.41977816250751L225,80.09193259612816L225,90.58632008395253L225,95.81940751648939L225,85.66936775551436L225,80.86205838505147L225,75.23444129934144L225,67.43700932687659L225,75.72196505085314L236.25,76.29711123952677L236.25,74.19565297037012L236.25,79.1891317705491L236.25,91.85475013376347L236.25,94.0207657725875L236.25,98.45179800935175L236.25,93.84722600905648L236.25,105.62566061811776L236.25,105.0718911933728L236.25,92.91856799887584L236.25,94.83316046695094L236.25,89.66667990386594L236.25,88.29927571594781L236.25,80.36519091594259L236.25,92.2009187344792L236.25,84.38576764369503L236.25,64.59180016103087L236.25,77.04364609469592L236.25,80.93149226039421L236.25,80.60382119375332L236.25,84.29459216807999L236.25,73.08182091364097L236.25,84.83936605244179L236.25,72.63589276188195L236.25,70.37095953293789L236.25,56.40502995293228L236.25,62.276250736957124L236.25,77.5259012848409L236.25,74.7804624170227L236.25,77.93370297015687L236.25,90.35444356954682L236.25,97.26376415942066L236.25,95.32254997762413L236.25,89.96267743511422L236.25,76.80428805591717L236.25,87.83597769404683L236.25,85.79098352709552L236.25,75.2917567594L236.25,77.47799328465155L236.25,75.27131984412009L236.25,78.12162038433155L236.25,77.50743518798112L236.25,55.665323825648784L236.25,72.22244304416857L236.25,86.01955448864867L236.25,75.39721899079663L236.25,89.58728807954421L236.25,77.15066718213814L236.25,67.7095960852686L236.25,73.61042905790707L236.25,71.7905528410858L236.25,91.98086576131499L236.25,81.75889273445317L236.25,75.29397559619254L236.25,71.28482821736517L247.5,69.70600795718303L247.5,79.82979555590315L247.5,86.89617431439974L247.5,94.96102028535614L247.5,104.8971840634752L247.5,91.10027626602702L247.5,96.28962471633466L247.5,92.64613649457283L247.5,90.04077869659417L247.5,96.1857740331039L247.5,88.77591008712918L247.5,87.90674304705901L247.5,98.81275935496117L247.5,86.44355721667544L247.5,80.54762387392006L247.5,82.37355697701622L247.5,100.96746817439943L247.5,86.47852213388771L247.5,76.06334788802917L247.5,72.80179965498242L247.5,69.75672193051692L247.5,56.411350968368765L247.5,58.91970294170852L247.5,69.80824574383067L247.5,79.0688327393053L247.5,99.0205928397845L247.5,96.24216380075637L247.5,85.66854326221957L247.5,89.41363795455464L247.5,97.90758147630791L247.5,88.497283956967L247.5,88.18687559936178L247.5,83.81488880261023L247.5,86.66003416505004L247.5,86.51795467928972L247.5,79.97162464854675L247.5,78.41316635845635L247.5,75.16411268853268L247.5,91.4459045227952L247.5,78.52494535306616L247.5,80.59964486515237L247.5,88.63606012675591L247.5,94.25894671448128L247.5,89.05288356881177L247.5,84.04184188330672L247.5,96.19750875642599L247.5,71.80970820910156L247.5,73.36161459640516L247.5,81.29875119898232L247.5,91.45218981011816L247.5,87.99461067619389L247.5,93.73756934227029L247.5,74.19633196485924L247.5,70.4194561689668L247.5,94.2079874115928L247.5,88.57695617185497" style="fill: none;" fill="none"></path></g></g></g></g><g opacity="0.2"><g><g><g><path stroke="rgb(0, 119, 187)" stroke-width="2px" d="M22.5,-120.36975507736207L22.5,21.74264128208162L22.5,-12.581983971595776L22.5,-37.02356152534486L22.5,29.241207194328325L22.5,15.178942632675188L22.5,35.91865165233614L22.5,8.60144085884096L22.5,-12.78035216331483L22.5,-44.94859199523927L22.5,7.157269072532671L22.5,15.39778740406038L22.5,4.218360018730181L22.5,-47.50243525505067L22.5,46.27867634296419L22.5,-55.02695231437684L22.5,12.316603255271929L22.5,35.20695788860323L22.5,29.453590703010576L22.5,44.581868124008196L22.5,-10.6392552137375L22.5,-17.542472529411327L22.5,63.87021203041077L22.5,39.082994055748L22.5,-34.114168453216564L22.5,24.98567528724672L22.5,71.44699211120606L22.5,36.079971027374285L22.5,-40.9352460384369L22.5,36.76740057468416L22.5,53.17831821441651L22.5,5.946763706207292L22.5,41.14179213047029L22.5,36.075514984130876L22.5,33.14331121444704L22.5,66.62581856250763L22.5,52.6043904542923L22.5,60.46069176197052L22.5,73.12091006040573L22.5,54.81001515388489L22.5,-56.61105446815492L22.5,46.1222904443741L22.5,29.27032001018526L22.5,-17.559002327919018L33.75,19.28178079128267L33.75,43.41178543567659L33.75,26.78332800865175L33.75,42.438458275795L33.75,50.43602676391602L33.75,66.2429277420044L33.75,40.512418460845964L33.75,52.7395040512085L33.75,13.139740538597124L33.75,34.663055372238176L33.75,92.55661637783051L33.75,18.20520074367525L33.75,41.267558646202104L33.75,55.71536643505097L33.75,55.0179532289505L33.75,-11.746963906288158L33.75,82.38550139665604L33.75,-28.514853048324596L33.75,30.1296785593033L33.75,-37.1307399749756L33.75,69.1359713792801L33.75,23.200382781028765L33.75,36.84153003692629L33.75,40.34116847515108L33.75,7.1141727685928515L33.75,8.106682133674639L33.75,57.62502498626709L33.75,-8.02111761569978L33.75,35.168009948730486L33.75,73.7641452074051L33.75,56.46726007461548L33.75,43.73544270992281L33.75,36.63742203712465L33.75,54.89220793247223L33.75,45.50138325691225L33.75,15.477402043342607L33.75,83.12576158046723L33.75,22.56177873611452L33.75,18.36307199001314L33.75,57.91599400043488L33.75,32.74403913021089L33.75,-29.13154821395875L33.75,85.98461039066315L45,57.300221872329715L45,80.15315104722977L45,68.55020327568054L45,54.682158541679385L45,17.16243357658388L45,-1.8193345546722526L45,27.611791324615496L45,64.2500260591507L45,49.616369438171404L45,73.98164786100388L45,51.215717625617984L45,-25.46490364074708L45,36.95712192058565L45,63.1732974767685L45,-4.956304121017467L45,42.7641738176346L45,105.19280917644501L45,39.92174870967867L45,32.05386168956758L45,29.056228351593035L45,-43.33701090812684L45,-46.71074490547181L45,67.15390212535858L45,14.551139187812822L45,70.89793331623078L45,34.57279927730562L45,24.28472907543184L45,57.621396493911746L45,37.75630266666414L45,-3.3360761880874747L45,-23.06757359504701L45,56.52212245464325L45,40.27146322727205L45,36.33379573822023L45,59.83947689533234L45,-11.786739397048962L45,76.55042947530747L45,75.42699201107025L45,33.39484424591066L45,70.88097913265229L45,74.3727558374405L45,70.65532298088074L45,8.627254080772417L45,30.822593283653276L56.25,52.36430521011353L56.25,75.45642842054367L56.25,74.75917435884476L56.25,41.57992727756502L56.25,49.937236380577104L56.25,50.770930242538455L56.25,49.480598044395464L56.25,40.328330826759355L56.25,79.67047138214112L56.25,63.591391038894656L56.25,15.605619382858293L56.25,11.62770957946779L56.25,48.78943390846254L56.25,70.30272264480591L56.25,-2.0543908357620353L56.25,14.70704765319826L56.25,58.566300463676455L56.25,88.83221830129624L56.25,38.67844898700716L56.25,91.1352393746376L56.25,-42.365487384796154L56.25,35.70279879570009L56.25,79.46824128627777L56.25,68.97733623981476L56.25,53.69064648151398L56.25,28.991201949119585L56.25,40.94532306194307L56.25,58.115741443634036L56.25,-31.405658054351818L56.25,-22.651315498352062L56.25,27.02795417308809L56.25,95.78028781414032L56.25,6.897099804878252L56.25,17.394169044494646L56.25,19.060707998275774L56.25,59.969402384758L56.25,86.35612769126892L56.25,57.57855482101441L56.25,74.68718273639679L56.25,74.21711791753769L56.25,70.32816452980042L67.5,61.07767338752747L67.5,26.66297240257265L67.5,12.456077408790605L67.5,52.26375777721405L67.5,34.950013947486894L67.5,33.39004869461061L67.5,60.402784419059756L67.5,62.4569991350174L67.5,72.45413745641709L67.5,32.21156318187715L67.5,58.42237026691437L67.5,61.00954897403717L67.5,-32.46466856002809L67.5,42.93867034912111L67.5,72.70970214605332L67.5,65.8989848613739L67.5,59.988945317268374L67.5,37.30458719730379L67.5,73.09252400398255L67.5,68.06112070083618L67.5,47.3154490709305L67.5,-11.284904050827038L67.5,85.20534391403199L67.5,114.7931368470192L67.5,49.38632090091707L67.5,79.68411005735398L67.5,55.30051941871643L67.5,42.58325846195223L67.5,-16.58215277194978L67.5,34.457865190506L67.5,57.605047059059146L67.5,27.54869587421419L67.5,74.10068256855011L67.5,45.852710437774675L67.5,47.16063339710237L67.5,67.30108947753907L67.5,83.1515694975853L67.5,77.0276292681694L67.5,-16.54906134605409L67.5,15.512137961387651L67.5,45.79384822845461L67.5,90.20680154561997L67.5,22.620556068420427L67.5,35.987656664848345L78.75,60.16126687526703L78.75,82.38772411346436L78.75,19.879813623428362L78.75,66.774671626091L78.75,79.47781116962433L78.75,51.79867417812348L78.75,82.29260880947113L78.75,51.733234000206L78.75,68.15592832565308L78.75,27.322381925582903L78.75,44.25111300945284L78.75,65.1447146654129L78.75,46.607574772834795L78.75,91.3553944349289L78.75,98.06530435085297L78.75,15.889522385597246L78.75,28.04426093101503L78.75,79.12587924003601L78.75,34.81349987983705L78.75,54.975970935821536L78.75,64.24030764102936L78.75,59.255841326713565L78.75,52.341218662261966L78.75,-2.6215602636337394L78.75,3.647031617164629L78.75,77.88952351808548L78.75,60.917605948448184L78.75,95.45358557701111L78.75,60.28688485622406L78.75,113.08703459501267L78.75,28.18432922363283L78.75,23.124534559249895L78.75,91.03673429489136L78.75,71.79189516305924L78.75,5.0070584535598925L78.75,67.59216458797455L78.75,60.96506280899048L78.75,92.32346452474594L78.75,123.07223973870278L90,82.12829751968384L90,75.73901582956314L90,85.63912380933762L90,93.23275728225708L90,51.966094088554385L90,19.719470334053057L90,94.46747381687165L90,43.67183799743654L90,79.72959883213043L90,65.72147519588471L90,123.19716013669968L90,68.78763611316681L90,55.046121788024905L90,46.57208557128908L90,61.129681777954104L90,44.40659708976747L90,50.98927636146546L90,84.05674041509629L90,85.53747297525406L90,41.398545098304766L90,77.69401992559433L90,87.28641159534455L90,20.75943655967714L90,109.46891314983368L90,52.80049879550934L90,79.76299793720246L90,81.68736673593521L90,52.58198292255402L90,54.73886699676514L90,37.7501596927643L90,96.307830286026L90,44.11052484512331L90,62.34558744430542L90,51.38925929069519L90,4.800542068481462L90,52.655857753753665L90,67.59888048171997L90,86.3944974064827L90,72.10373861789704L90,53.1684830904007L90,88.38445491790772L90,48.98011012077333L90,20.032719564437883L90,81.6027602672577L90,19.098892045021074L90,46.6792003631592L90,45.87762184143068L90,60.24581499099732L90,79.54499663114548L90,50.40505726337433L90,72.67522616386414L90,-22.804391193389904L101.25,54.0646252155304L101.25,51.335903477668765L101.25,47.0393123149872L101.25,87.43333901166916L101.25,61.67606694698334L101.25,88.86218519210816L101.25,37.71211357116701L101.25,34.716665816307085L101.25,69.32968194484711L101.25,71.86138291358948L101.25,106.24174584150315L101.25,51.89733309745789L101.25,113.30493510961533L101.25,11.456915807724016L101.25,107.26176066398621L101.25,75.52600635290146L101.25,65.61096532344818L101.25,53.361779880523684L101.25,97.09636957645417L101.25,80.46529157161713L101.25,38.56384379863741L101.25,67.98479504585266L101.25,65.78968448638916L101.25,88.01294822692871L101.25,81.98909921646118L101.25,80.81976450681687L101.25,81.32806111574173L101.25,57.31287915706635L101.25,54.99469692707062L101.25,35.00377292633058L101.25,26.200148653984087L101.25,71.09508140087128L101.25,91.37559516429901L101.25,28.055645060539263L101.25,81.4162271142006L101.25,71.25112248659134L101.25,20.602318596839922L101.25,92.7679230093956L101.25,78.73040540218354L101.25,74.01611323356629L101.25,27.27704699039461L101.25,53.17451996803284L101.25,31.767889809608477L101.25,79.1853037595749L101.25,30.236740303039568L101.25,63.736774754524234L112.5,65.92393870353699L112.5,40.457704615592974L112.5,89.96792049407959L112.5,13.331053328514116L112.5,87.04988588094712L112.5,59.3077436208725L112.5,49.399317693710344L112.5,85.59423447847367L112.5,65.26699061393738L112.5,70.39803953170777L112.5,75.49971569776535L112.5,81.63798422813416L112.5,58.663983297348025L112.5,23.357617449760454L112.5,114.34856165647507L112.5,80.22174228429795L112.5,101.78608984947205L112.5,50.73936660289765L112.5,95.23317588567734L112.5,82.88688583374024L112.5,87.66665000915528L112.5,94.88477696180344L112.5,45.91331262588503L112.5,59.13960225582123L112.5,111.9315189242363L112.5,72.08999384641648L112.5,41.321667742729204L112.5,48.801698637008684L112.5,85.82260138988495L112.5,82.24719430208206L112.5,49.69487006664278L112.5,75.78813840150833L112.5,-23.550629901885998L112.5,86.81345034837723L112.5,26.150495600700395L112.5,54.470761728286746L112.5,41.29372198581697L112.5,60.77042920589447L112.5,37.07148308753969L112.5,90.01931883096695L112.5,78.25866426229477L112.5,44.467825245857256L112.5,52.80427582263947L112.5,37.75774557590486L112.5,70.5284318447113L112.5,48.06804294586183L112.5,36.34892506599428L112.5,58.91693801879883L112.5,65.76906998157502L112.5,78.09459699392319L112.5,16.55503244400026L112.5,100.68540472984314L112.5,96.63921667337418L123.75,72.60642273426056L123.75,58.783108186721805L123.75,99.4601307630539L123.75,21.27040679454805L123.75,85.15907533168793L123.75,63.43402905464173L123.75,84.26987190246582L123.75,94.8953706741333L123.75,25.43021864891054L123.75,69.23593528270722L123.75,69.81254727840424L123.75,114.38111729621887L123.75,90.28058089017868L123.75,55.86774189472199L123.75,55.22935004234314L123.75,45.55474967956545L123.75,28.718895268440264L123.75,70.71980829238892L123.75,60.37121016979218L123.75,96.90712566375733L123.75,52.43701298236847L123.75,90.74612600803376L123.75,81.64492822885514L123.75,57.21793360710144L123.75,52.133917164802554L123.75,73.33407337665558L123.75,51.75587494373322L123.75,86.07554550170899L123.75,89.61054582595825L123.75,45.35944766998293L123.75,65.60727317333222L123.75,82.6603756070137L123.75,58.94432146549225L123.75,15.45163125991823L123.75,55.66852493286133L123.75,48.61987085342409L123.75,50.56600530147553L123.75,62.92581732273102L123.75,112.6608034491539L123.75,69.61044449806214L123.75,93.87796051502228L123.75,-4.36561315059663L123.75,28.27148730754854L123.75,90.71002675294876L123.75,101.91439737081528L123.75,88.26991869211197L123.75,78.87548674345017L123.75,4.415242862701433L123.75,90.66464937925339L123.75,53.7284698009491L123.75,92.99895824193955L135,5.300732922554033L135,81.78927220106125L135,82.94562072753907L135,86.80946643352509L135,97.93402613401413L135,54.2189528465271L135,63.33172042369843L135,84.53460330963135L135,45.255505156517046L135,28.427416992187517L135,74.17529476881028L135,39.851703953743L135,90.17344487905503L135,67.4798935174942L135,83.66068304777146L135,84.46942306756974L135,64.35015971660614L135,60.2701322555542L135,114.14005066156388L135,23.24683172702791L135,44.39343054294588L135,99.54355425834656L135,63.46491367816925L135,88.23852480649948L135,93.46297026872635L135,32.864469003677385L135,106.60819174051285L135,62.10430331230164L135,53.67844541072846L135,94.15354026556015L135,90.01861329078675L135,91.9714371085167L135,68.9610080242157L135,19.381437015533464L135,62.28884716033936L135,-3.5211823463440055L135,50.26188035011292L135,51.61755723953247L135,52.31451423168183L135,91.30630369186402L135,88.04779024124146L135,42.63848156929018L135,84.71750266551972L135,65.85781950950623L135,97.93053026199341L135,49.93099792003633L135,94.65930117368698L135,47.31622357368471L135,79.655437541008L135,3.2099998712539843L135,108.40008873939514L135,105.9286080121994L135,58.288688969612124L135,87.02027441263199L146.25,29.512781810760515L146.25,90.30441011190415L146.25,100.68163831233979L146.25,97.4442274093628L146.25,37.60975189208986L146.25,70.52037913799286L146.25,103.6507954120636L146.25,117.89233083724976L146.25,103.13054705858231L146.25,36.87622351646425L146.25,60.72416062355042L146.25,61.01174516677857L146.25,22.273324203491228L146.25,81.66984493732453L146.25,107.28520263433457L146.25,62.52949471473694L146.25,98.85226811170578L146.25,97.21367491483689L146.25,95.00556756258011L146.25,37.8477258205414L146.25,70.52299971580506L146.25,50.934392762184146L146.25,57.99182100296021L146.25,29.79253644943239L146.25,111.12202562093735L146.25,110.4542610168457L146.25,75.50430436134339L146.25,79.69276220798493L146.25,29.53134865760805L146.25,67.1098403453827L146.25,-0.08039550781251137L146.25,71.07562334537506L146.25,51.24041683673859L146.25,95.37106920480728L146.25,99.6137528538704L146.25,48.87737710475923L146.25,80.77323068380356L146.25,31.337966513633745L146.25,29.440848541259783L146.25,42.56407625675203L146.25,91.51126576662064L146.25,49.9792080640793L146.25,81.82617248296738L146.25,83.32411916255951L146.25,57.87210197448731L146.25,29.397370290756243L157.5,80.24661655426026L157.5,88.33177281618119L157.5,98.77304072380066L157.5,51.575458240509036L157.5,73.14554561376572L157.5,90.77695227861405L157.5,52.89647347927094L157.5,29.11436910629274L157.5,77.34130288362503L157.5,61.25626523494721L157.5,94.33203132152558L157.5,69.30592699050904L157.5,105.66883660554886L157.5,97.41210676431656L157.5,111.76456583738327L157.5,39.595088911056536L157.5,36.112266731262224L157.5,90.62137271165848L157.5,74.1090058207512L157.5,74.89927448034287L157.5,104.62922580242157L157.5,56.333822798728946L157.5,108.45122183561325L157.5,97.46573312282563L157.5,33.42637605667116L157.5,31.294965696334856L157.5,33.87207586765291L157.5,79.68939365148545L157.5,95.15336496829987L157.5,56.713042688369754L157.5,74.9057728767395L157.5,85.60184688568116L157.5,78.37834085226059L157.5,101.86310513019562L157.5,71.42860562801361L157.5,76.0266003727913L157.5,48.80352349281313L157.5,84.52207334041596L157.5,79.80012632608414L157.5,79.6461275935173L157.5,42.154056620597856L157.5,110.33898742198944L157.5,108.36026550531388L157.5,61.297854971885684L157.5,87.69006015062332L157.5,52.823521685600284L157.5,8.510707330703752L168.75,64.03744096755982L168.75,80.69811452627182L168.75,96.25597043037415L168.75,99.10917491912842L168.75,80.47513200044632L168.75,100.35567874908448L168.75,112.43225086927414L168.75,93.33276362419129L168.75,71.4811604142189L168.75,85.28784437179566L168.75,22.836207342147844L168.75,102.6703226685524L168.75,102.55235953330994L168.75,80.35921121835709L168.75,9.40557630062105L168.75,78.52896041870117L168.75,68.65234215259552L168.75,84.67046488523484L168.75,9.029284667968767L168.75,52.117832970619205L168.75,86.77136726379395L168.75,39.21541280746462L168.75,9.285050940513628L168.75,45.190521192550676L168.75,80.79162777662278L168.75,36.633761715888994L168.75,91.11294324398041L168.75,74.38594360351563L168.75,117.47481549978257L168.75,8.86745603084566L168.75,83.84668041467667L168.75,69.01096875667572L168.75,73.072689306736L168.75,79.83929176330567L168.75,77.69387139081955L168.75,110.95663214921952L168.75,29.842709374427812L168.75,53.96947808265686L168.75,106.97773034572602L168.75,61.9818363904953L168.75,36.889962983131426L168.75,68.26583344936371L180,90.1705855846405L180,114.44780941009522L180,33.34947748184206L180,67.86001522541046L180,47.296372961998L180,103.13490761518479L180,79.4073261141777L180,72.72240186929703L180,88.15682007074356L180,71.24227936267853L180,81.75101388692856L180,85.13453526496887L180,27.074222755432146L180,44.3947673559189L180,102.56504864692688L180,84.22969324588776L180,86.05577976703644L180,26.248963546752947L180,95.06612200737L180,97.81673671007157L180,72.6322094321251L180,65.8473902463913L180,97.9246260046959L180,54.47244865894318L180,64.17428393363953L180,108.38146884441376L180,60.420534324646L180,73.70189852714539L180,105.3663932800293L180,71.93907721042633L180,55.496670198440555L180,32.65648849010469L180,53.00549800395966L180,102.0015183210373L180,90.50427956581116L180,121.63395099043846L180,75.5230197429657L180,53.06212158203125L180,95.81093902587891L180,88.97175611257553L180,120.95881004333496L180,69.961474609375L180,48.878618431091326L180,74.63234688043595L180,66.57936961650849L180,51.92704005241394L180,67.28670282363892L180,52.63695139884949L180,61.78853960037232L180,84.21535433530808L180,62.00046689510346L180,93.2568146109581L191.25,91.11081070899964L191.25,95.6974531531334L191.25,58.35114784240723L191.25,115.30585767030716L191.25,114.24112327098847L191.25,122.42476869821549L191.25,87.0266773223877L191.25,21.57886047363283L191.25,55.66888566017151L191.25,80.81240673065186L191.25,92.47644473314286L191.25,103.02594674825669L191.25,56.20942492485047L191.25,65.13704390525818L191.25,95.82002086639405L191.25,82.48647321462632L191.25,69.9471410036087L191.25,51.2365549325943L191.25,59.01931030750275L191.25,78.8045189499855L191.25,112.0840057849884L191.25,45.51295835971834L191.25,96.77978361845017L191.25,88.7765655040741L191.25,82.82957262992859L191.25,21.016783666610735L191.25,101.39875890016556L191.25,56.35322780609131L191.25,42.495538067817705L191.25,97.53063220977783L191.25,52.1901694059372L191.25,85.13516653776169L191.25,110.38669891357422L191.25,56.70696337223053L191.25,52.05377204418183L191.25,77.22975326776505L191.25,47.29903597831728L191.25,91.42474956512451L191.25,65.77361090183258L191.25,33.43174452781679L191.25,-0.5740083932876701L191.25,87.98281158208847L191.25,50.43568725585938L191.25,82.88985652923584L191.25,62.1747406244278L191.25,104.92706454992295L191.25,79.49243123531342L191.25,106.19216175079346L191.25,91.84728325605393L191.25,82.72335965633393L191.25,113.59336842298508L202.5,74.72450209856034L202.5,98.44727213382721L202.5,112.96227599382401L202.5,97.29125250577927L202.5,29.887471389770525L202.5,79.22720648050309L202.5,74.68912960290909L202.5,63.34212846755982L202.5,93.27817709445954L202.5,58.1885128736496L202.5,123.7328295826912L202.5,72.66813893318177L202.5,14.222612094879167L202.5,76.04462612867356L202.5,97.98777980804444L202.5,107.24784613847733L202.5,73.81654084920883L202.5,59.90508682727814L202.5,49.90899355411531L202.5,118.0856780230999L202.5,96.77690840959549L202.5,54.133396816253665L202.5,97.85333461761475L202.5,88.96157087087632L202.5,77.7427605509758L202.5,79.66430718898773L202.5,85.91927100419998L202.5,80.73748154640198L202.5,85.52191395759583L202.5,64.37645037174225L202.5,11.31759018898012L202.5,32.40461595058443L202.5,50.41988952159882L202.5,87.44270731210709L202.5,75.78350729942322L202.5,35.63306171894075L202.5,47.884814691543596L202.5,42.98668951988222L202.5,63.292263221740725L202.5,110.4469032406807L202.5,112.47195739746094L202.5,81.78311861753464L202.5,52.26244218349457L202.5,80.79672570228577L202.5,107.24455715417862L202.5,89.51769037246704L213.75,73.74098969697953L213.75,61.30243833065033L213.75,113.20506669282913L213.75,81.21623564958573L213.75,33.83347804546358L213.75,90.22602088451386L213.75,75.47382290363312L213.75,119.11899466514588L213.75,115.76293630599976L213.75,60.55082054138184L213.75,35.96782727241518L213.75,89.60108734369278L213.75,70.45714576244355L213.75,120.56760127544403L213.75,68.22927267551422L213.75,97.75041062831879L213.75,91.2344712138176L213.75,80.10120631456375L213.75,119.05976377129555L213.75,48.38643784523012L213.75,48.42106766700746L213.75,95.74289418458939L213.75,91.70610095262528L213.75,108.54500563144684L213.75,96.61837406158448L213.75,73.27725352048874L213.75,83.61067987680435L213.75,48.400071215629595L213.75,74.89818699359894L213.75,44.33254189491274L213.75,73.26337612867356L213.75,84.26600469350815L213.75,97.68239761590958L213.75,95.39612383842469L213.75,93.27895159721375L213.75,27.921401453018206L213.75,80.9481091618538L213.75,86.48800535202027L213.75,60.00731058120728L213.75,98.83684171438217L213.75,85.90159006118775L213.75,61.14883215427399L213.75,55.47167391777039L213.75,82.67362703084946L213.75,110.14683647155762L213.75,66.32013399600983L225,90.88744093179703L225,64.40497965812683L225,52.01316900253296L225,113.10056186914444L225,42.1336224794388L225,57.67602546215058L225,103.12504066228867L225,126.04313151240349L225,96.56998355388642L225,104.82370556592942L225,88.61973930597306L225,114.64429969787598L225,59.97755057811737L225,101.86280806064606L225,112.56431419849396L225,44.20274372100832L225,109.74586684703827L225,100.0163669705391L225,40.887001943588274L225,94.62097389698029L225,71.9135716676712L225,86.4034519314766L225,94.81226546764374L225,100.14488137960434L225,80.63480688333512L225,20.898337793350237L225,56.404355597496036L225,24.671365094184893L225,87.85727317333222L225,108.81166799068451L225,112.86741001605988L225,22.24203641414644L225,97.96121330261231L225,79.49582101106644L225,55.64099295139313L225,88.31544990539551L225,105.50378264188767L225,67.60016424655915L225,106.32790131568909L225,103.66903866529465L225,70.44430811405182L225,73.65109432935715L225,66.79301567077637L225,55.740861368179324L225,88.14939863681793L236.25,77.15983052253723L236.25,71.04346556663513L236.25,86.67934997081757L236.25,110.85317767858506L236.25,97.26978923082352L236.25,105.09834636449814L236.25,86.94036800861359L236.25,123.29331253170967L236.25,104.24123705625534L236.25,74.68858320713043L236.25,97.70504916906357L236.25,81.91695905923844L236.25,86.24816943407059L236.25,68.46406371593476L236.25,109.95451046228409L236.25,72.66304100751877L236.25,34.900848937034624L236.25,95.72141499519348L236.25,86.76326150894165L236.25,80.11231459379196L236.25,89.83074862957001L236.25,56.262664031982425L236.25,102.47568376064301L236.25,54.33068282604218L236.25,66.97355968952179L236.25,35.456135582923906L236.25,71.08308191299439L236.25,100.40037710666657L236.25,70.66230411529541L236.25,82.6635637998581L236.25,108.98555446863175L236.25,107.62774504423142L236.25,92.41072870492935L236.25,81.92286862134934L236.25,57.066703987121585L236.25,104.3835121512413L236.25,82.72349227666855L236.25,59.54291660785675L236.25,80.75734807252884L236.25,71.96130968332291L236.25,82.39707119464875L236.25,76.58615739345551L236.25,22.902156782150286L236.25,97.05812187194825L236.25,106.71522165536881L236.25,59.46371574401856L236.25,110.87239171266556L236.25,58.495735836029056L236.25,53.5479894399643L236.25,82.46167851686478L236.25,69.06073851585388L236.25,122.26633514165879L236.25,66.42593319416046L236.25,65.59659988880158L236.25,65.27110714912415L247.5,67.33777756690979L247.5,95.01547695398331L247.5,97.49574245214463L247.5,107.05828924179077L247.5,119.80142973065377L247.5,70.40491456985474L247.5,104.07364739179611L247.5,87.18090416193009L247.5,86.13274199962616L247.5,105.4032670378685L247.5,77.66111416816712L247.5,86.60299248695374L247.5,115.17178381681443L247.5,67.88975400924683L247.5,71.70372385978699L247.5,85.11245663166046L247.5,128.85833497047423L247.5,64.74510307312012L247.5,60.440586519241336L247.5,67.9094773054123L247.5,65.18910534381867L247.5,36.3932945251465L247.5,62.68223090171814L247.5,86.14105994701386L247.5,92.95971323251725L247.5,128.9482329905033L247.5,92.0745202422142L247.5,69.80811245441437L247.5,95.03127999305725L247.5,110.64849675893784L247.5,74.38183767795563L247.5,87.72126306295395L247.5,77.25690860748291L247.5,90.92775220870972L247.5,86.30483545064926L247.5,70.15212960243225L247.5,76.07547892332077L247.5,70.29053218364716L247.5,115.868592274189L247.5,59.1435065984726L247.5,83.71169413328171L247.5,100.69068301916123L247.5,102.69327659606934L247.5,81.24378885030747L247.5,76.52527935504914L247.5,114.43100906610489L247.5,35.228007388114946L247.5,75.68947417736054L247.5,93.20445610284806L247.5,106.6823477268219L247.5,82.80824197530747L247.5,102.35200734138489L247.5,44.88447589874269L247.5,64.75414247512818L247.5,129.89078427553176L247.5,80.13040931224823" style="fill: none;" fill="none"></path></g></g></g></g></g></g><g transform="translate(60, 178)" clip-path="url(#clip_1)"><clipPath id="clip_1"><rect width="270" height="22"></rect></clipPath><g><g><line x1="0" y1="0" x2="0" y2="5" style="visibility: inherit;" fill="rgb(0, 0, 0)" stroke="rgb(204, 204, 204)" stroke-width="1px"></line><line x1="22.5" y1="0" x2="22.5" y2="5" style="visibility: inherit;" fill="rgb(0, 0, 0)" stroke="rgb(204, 204, 204)" stroke-width="1px"></line><line x1="45" y1="0" x2="45" y2="5" style="visibility: inherit;" fill="rgb(0, 0, 0)" stroke="rgb(204, 204, 204)" stroke-width="1px"></line><line x1="67.5" y1="0" x2="67.5" y2="5" style="visibility: inherit;" fill="rgb(0, 0, 0)" stroke="rgb(204, 204, 204)" stroke-width="1px"></line><line x1="90" y1="0" x2="90" y2="5" style="visibility: inherit;" fill="rgb(0, 0, 0)" stroke="rgb(204, 204, 204)" stroke-width="1px"></line><line x1="112.5" y1="0" x2="112.5" y2="5" style="visibility: inherit;" fill="rgb(0, 0, 0)" stroke="rgb(204, 204, 204)" stroke-width="1px"></line><line x1="135" y1="0" x2="135" y2="5" style="visibility: inherit;" fill="rgb(0, 0, 0)" stroke="rgb(204, 204, 204)" stroke-width="1px"></line><line x1="157.5" y1="0" x2="157.5" y2="5" style="visibility: inherit;" fill="rgb(0, 0, 0)" stroke="rgb(204, 204, 204)" stroke-width="1px"></line><line x1="180" y1="0" x2="180" y2="5" style="visibility: inherit;" fill="rgb(0, 0, 0)" stroke="rgb(204, 204, 204)" stroke-width="1px"></line><line x1="202.5" y1="0" x2="202.5" y2="5" style="visibility: inherit;" fill="rgb(0, 0, 0)" stroke="rgb(204, 204, 204)" stroke-width="1px"></line><line x1="225" y1="0" x2="225" y2="5" style="visibility: inherit;" fill="rgb(0, 0, 0)" stroke="rgb(204, 204, 204)" stroke-width="1px"></line><line x1="247.5" y1="0" x2="247.5" y2="5" style="visibility: inherit;" fill="rgb(0, 0, 0)" stroke="rgb(204, 204, 204)" stroke-width="1px"></line><line x1="270" y1="0" x2="270" y2="5" style="visibility: inherit;" fill="rgb(0, 0, 0)" stroke="rgb(204, 204, 204)" stroke-width="1px"></line></g><g transform="translate(0, 8)"><text x="0" y="0" dx="0em" dy="0.95em" style="text-anchor: middle; visibility: hidden; font-family: &quot;Helvetica Neue&quot;, sans-serif; font-size: 12px; font-weight: 200;" fill="rgb(50, 49, 63)" stroke="none" stroke-width="1px">-2</text><text x="22.5" y="0" dx="0em" dy="0.95em" style="text-anchor: middle; visibility: inherit; font-family: &quot;Helvetica Neue&quot;, sans-serif; font-size: 12px; font-weight: 200;" fill="rgb(50, 49, 63)" stroke="none" stroke-width="1px">0</text><text x="45" y="0" dx="0em" dy="0.95em" style="text-anchor: middle; visibility: inherit; font-family: &quot;Helvetica Neue&quot;, sans-serif; font-size: 12px; font-weight: 200;" fill="rgb(50, 49, 63)" stroke="none" stroke-width="1px">2</text><text x="67.5" y="0" dx="0em" dy="0.95em" style="text-anchor: middle; visibility: inherit; font-family: &quot;Helvetica Neue&quot;, sans-serif; font-size: 12px; font-weight: 200;" fill="rgb(50, 49, 63)" stroke="none" stroke-width="1px">4</text><text x="90" y="0" dx="0em" dy="0.95em" style="text-anchor: middle; visibility: inherit; font-family: &quot;Helvetica Neue&quot;, sans-serif; font-size: 12px; font-weight: 200;" fill="rgb(50, 49, 63)" stroke="none" stroke-width="1px">6</text><text x="112.5" y="0" dx="0em" dy="0.95em" style="text-anchor: middle; visibility: inherit; font-family: &quot;Helvetica Neue&quot;, sans-serif; font-size: 12px; font-weight: 200;" fill="rgb(50, 49, 63)" stroke="none" stroke-width="1px">8</text><text x="135" y="0" dx="0em" dy="0.95em" style="text-anchor: middle; visibility: inherit; font-family: &quot;Helvetica Neue&quot;, sans-serif; font-size: 12px; font-weight: 200;" fill="rgb(50, 49, 63)" stroke="none" stroke-width="1px">10</text><text x="157.5" y="0" dx="0em" dy="0.95em" style="text-anchor: middle; visibility: inherit; font-family: &quot;Helvetica Neue&quot;, sans-serif; font-size: 12px; font-weight: 200;" fill="rgb(50, 49, 63)" stroke="none" stroke-width="1px">12</text><text x="180" y="0" dx="0em" dy="0.95em" style="text-anchor: middle; visibility: inherit; font-family: &quot;Helvetica Neue&quot;, sans-serif; font-size: 12px; font-weight: 200;" fill="rgb(50, 49, 63)" stroke="none" stroke-width="1px">14</text><text x="202.5" y="0" dx="0em" dy="0.95em" style="text-anchor: middle; visibility: inherit; font-family: &quot;Helvetica Neue&quot;, sans-serif; font-size: 12px; font-weight: 200;" fill="rgb(50, 49, 63)" stroke="none" stroke-width="1px">16</text><text x="225" y="0" dx="0em" dy="0.95em" style="text-anchor: middle; visibility: inherit; font-family: &quot;Helvetica Neue&quot;, sans-serif; font-size: 12px; font-weight: 200;" fill="rgb(50, 49, 63)" stroke="none" stroke-width="1px">18</text><text x="247.5" y="0" dx="0em" dy="0.95em" style="text-anchor: middle; visibility: inherit; font-family: &quot;Helvetica Neue&quot;, sans-serif; font-size: 12px; font-weight: 200;" fill="rgb(50, 49, 63)" stroke="none" stroke-width="1px">20</text><text x="270" y="0" dx="0em" dy="0.95em" style="text-anchor: middle; visibility: hidden; font-family: &quot;Helvetica Neue&quot;, sans-serif; font-size: 12px; font-weight: 200;" fill="rgb(50, 49, 63)" stroke="none" stroke-width="1px">22</text></g><line x1="0" y1="0" x2="270" y2="0" fill="rgb(0, 0, 0)" stroke="rgb(204, 204, 204)" stroke-width="1px"></line></g></g></g></g></svg>