<svg viewBox="0 0 859 400" xmlns="http://www.w3.org/2000/svg"><g><g><g><g><g><line x1="60" y1="336" x2="55" y2="336" style="visibility: inherit;" fill="rgb(0, 0, 0)" stroke="rgb(204, 204, 204)" stroke-width="1px"></line><line x1="60" y1="294.00000000000006" x2="55" y2="294.00000000000006" style="visibility: inherit;" fill="rgb(0, 0, 0)" stroke="rgb(204, 204, 204)" stroke-width="1px"></line><line x1="60" y1="252" x2="55" y2="252" style="visibility: inherit;" fill="rgb(0, 0, 0)" stroke="rgb(204, 204, 204)" stroke-width="1px"></line><line x1="60" y1="210" x2="55" y2="210" style="visibility: inherit;" fill="rgb(0, 0, 0)" stroke="rgb(204, 204, 204)" stroke-width="1px"></line><line x1="60" y1="168.00000000000003" x2="55" y2="168.00000000000003" style="visibility: inherit;" fill="rgb(0, 0, 0)" stroke="rgb(204, 204, 204)" stroke-width="1px"></line><line x1="60" y1="126" x2="55" y2="126" style="visibility: inherit;" fill="rgb(0, 0, 0)" stroke="rgb(204, 204, 204)" stroke-width="1px"></line><line x1="60" y1="83.99999999999994" x2="55" y2="83.99999999999994" style="visibility: inherit;" fill="rgb(0, 0, 0)" stroke="rgb(204, 204, 204)" stroke-width="1px"></line><line x1="60" y1="42" x2="55" y2="42" style="visibility: inherit;" fill="rgb(0, 0, 0)" stroke="rgb(204, 204, 204)" stroke-width="1px"></line><line x1="60" y1="0" x2="55" y2="0" style="visibility: inherit;" fill="rgb(0, 0, 0)" stroke="rgb(204, 204, 204)" stroke-width="1px"></line></g><g transform="translate(50, 0)"><text x="0" y="336" dx="0em" dy="0.3em" style="text-anchor: end; visibility: inherit; font-family: &quot;Helvetica Neue&quot;, sans-serif; font-size: 12px; font-weight: 200;" fill="rgb(50, 49, 63)" stroke="none" stroke-width="1px">0.04</text><text x="0" y="294.00000000000006" dx="0em" dy="0.3em" style="text-anchor: end; visibility: inherit; font-family: &quot;Helvetica Neue&quot;, sans-serif; font-size: 12px; font-weight: 200;" fill="rgb(50, 49, 63)" stroke="none" stroke-width="1px">0.045</text><text x="0" y="252" dx="0em" dy="0.3em" style="text-anchor: end; visibility: inherit; font-family: &quot;Helvetica Neue&quot;, sans-serif; font-size: 12px; font-weight: 200;" fill="rgb(50, 49, 63)" stroke="none" stroke-width="1px">0.05</text><text x="0" y="210" dx="0em" dy="0.3em" style="text-anchor: end; visibility: inherit; font-family: &quot;Helvetica Neue&quot;, sans-serif; font-size: 12px; font-weight: 200;" fill="rgb(50, 49, 63)" stroke="none" stroke-width="1px">0.055</text><text x="0" y="168.00000000000003" dx="0em" dy="0.3em" style="text-anchor: end; visibility: inherit; font-family: &quot;Helvetica Neue&quot;, sans-serif; font-size: 12px; font-weight: 200;" fill="rgb(50, 49, 63)" stroke="none" stroke-width="1px">0.06</text><text x="0" y="126" dx="0em" dy="0.3em" style="text-anchor: end; visibility: inherit; font-family: &quot;Helvetica Neue&quot;, sans-serif; font-size: 12px; font-weight: 200;" fill="rgb(50, 49, 63)" stroke="none" stroke-width="1px">0.065</text><text x="0" y="83.99999999999994" dx="0em" dy="0.3em" style="text-anchor: end; visibility: inherit; font-family: &quot;Helvetica Neue&quot;, sans-serif; font-size: 12px; font-weight: 200;" fill="rgb(50, 49, 63)" stroke="none" stroke-width="1px">0.07</text><text x="0" y="42" dx="0em" dy="0.3em" style="text-anchor: end; visibility: inherit; font-family: &quot;Helvetica Neue&quot;, sans-serif; font-size: 12px; font-weight: 200;" fill="rgb(50, 49, 63)" stroke="none" stroke-width="1px">0.075</text><text x="0" y="0" dx="0em" dy="0.3em" style="text-anchor: end; visibility: hidden; font-family: &quot;Helvetica Neue&quot;, sans-serif; font-size: 12px; font-weight: 200;" fill="rgb(50, 49, 63)" stroke="none" stroke-width="1px">0.08</text></g><line x1="60" y1="0" x2="60" y2="378" fill="rgb(0, 0, 0)" stroke="rgb(204, 204, 204)" stroke-width="1px"></line></g></g><g transform="translate(60, 0)" clip-path="url(#clip_0)"><clipPath id="clip_0"><rect width="799" height="378"></rect></clipPath><g><g><g><line x1="0" y1="0" x2="0" y2="378" fill="rgb(0, 0, 0)" stroke="rgb(60, 60, 60)" stroke-width="1px" opacity="0.25"></line><line x1="57.07142857142857" y1="0" x2="57.07142857142857" y2="378" fill="rgb(0, 0, 0)" stroke="rgb(60, 60, 60)" stroke-width="1px" opacity="0.25"></line><line x1="114.14285714285714" y1="0" x2="114.14285714285714" y2="378" fill="rgb(0, 0, 0)" stroke="rgb(60, 60, 60)" stroke-width="1px" opacity="0.25"></line><line x1="171.2142857142857" y1="0" x2="171.2142857142857" y2="378" fill="rgb(0, 0, 0)" stroke="rgb(60, 60, 60)" stroke-width="1px" opacity="0.25"></line><line x1="228.28571428571428" y1="0" x2="228.28571428571428" y2="378" fill="rgb(0, 0, 0)" stroke="rgb(60, 60, 60)" stroke-width="1px" opacity="0.25"></line><line x1="285.3571428571429" y1="0" x2="285.3571428571429" y2="378" fill="rgb(0, 0, 0)" stroke="rgb(60, 60, 60)" stroke-width="1px" opacity="0.25"></line><line x1="342.4285714285714" y1="0" x2="342.4285714285714" y2="378" fill="rgb(0, 0, 0)" stroke="rgb(60, 60, 60)" stroke-width="1px" opacity="0.25"></line><line x1="399.5" y1="0" x2="399.5" y2="378" fill="rgb(0, 0, 0)" stroke="rgb(60, 60, 60)" stroke-width="1px" opacity="0.25"></line><line x1="456.57142857142856" y1="0" x2="456.57142857142856" y2="378" fill="rgb(0, 0, 0)" stroke="rgb(60, 60, 60)" stroke-width="1px" opacity="0.25"></line><line x1="513.6428571428572" y1="0" x2="513.6428571428572" y2="378" fill="rgb(0, 0, 0)" stroke="rgb(60, 60, 60)" stroke-width="1px" opacity="0.25"></line><line x1="570.7142857142858" y1="0" x2="570.7142857142858" y2="378" fill="rgb(0, 0, 0)" stroke="rgb(60, 60, 60)" stroke-width="1px" opacity="0.25"></line><line x1="627.7857142857142" y1="0" x2="627.7857142857142" y2="378" fill="rgb(0, 0, 0)" stroke="rgb(60, 60, 60)" stroke-width="1px" opacity="0.25"></line><line x1="684.8571428571428" y1="0" x2="684.8571428571428" y2="378" fill="rgb(0, 0, 0)" stroke="rgb(60, 60, 60)" stroke-width="1px" opacity="0.25"></line><line x1="741.9285714285714" y1="0" x2="741.9285714285714" y2="378" fill="rgb(0, 0, 0)" stroke="rgb(60, 60, 60)" stroke-width="1px" opacity="0.25"></line><line x1="799" y1="0" x2="799" y2="378" fill="rgb(0, 0, 0)" stroke="rgb(60, 60, 60)" stroke-width="1px" opacity="0.25"></line></g><g><line x1="0" y1="336" x2="799" y2="336" fill="rgb(0, 0, 0)" stroke="rgb(60, 60, 60)" stroke-width="1px" opacity="0.25"></line><line x1="0" y1="294.00000000000006" x2="799" y2="294.00000000000006" fill="rgb(0, 0, 0)" stroke="rgb(60, 60, 60)" stroke-width="1px" opacity="0.25"></line><line x1="0" y1="252" x2="799" y2="252" fill="rgb(0, 0, 0)" stroke="rgb(60, 60, 60)" stroke-width="1px" opacity="0.25"></line><line x1="0" y1="210" x2="799" y2="210" fill="rgb(0, 0, 0)" stroke="rgb(60, 60, 60)" stroke-width="1px" opacity="0.25"></line><line x1="0" y1="168.00000000000003" x2="799" y2="168.00000000000003" fill="rgb(0, 0, 0)" stroke="rgb(60, 60, 60)" stroke-width="1px" opacity="0.25"></line><line x1="0" y1="126" x2="799" y2="126" fill="rgb(0, 0, 0)" stroke="rgb(60, 60, 60)" stroke-width="1px" opacity="0.25"></line><line x1="0" y1="83.99999999999994" x2="799" y2="83.99999999999994" fill="rgb(0, 0, 0)" stroke="rgb(60, 60, 60)" stroke-width="1px" opacity="0.25"></line><line x1="0" y1="42" x2="799" y2="42" fill="rgb(0, 0, 0)" stroke="rgb(60, 60, 60)" stroke-width="1px" opacity="0.25"></line><line x1="0" y1="0" x2="799" y2="0" fill="rgb(0, 0, 0)" stroke="rgb(60, 60, 60)" stroke-width="1px" opacity="0.25"></line></g></g></g><g><g><line x1="0" y1="672" x2="799" y2="672" fill="rgb(0, 0, 0)" stroke="rgb(153, 153, 153)" stroke-width="1.5px"></line></g></g><g><g><line x1="57.07142857142857" y1="0" x2="57.07142857142857" y2="378" fill="rgb(0, 0, 0)" stroke="rgb(153, 153, 153)" stroke-width="1.5px"></line></g></g><g><g><g><g><g><path stroke="rgb(0, 119, 187)" stroke-width="2px" d="M57.07142857142857,280.07519406080246L57.07142857142857,154.53245372325182L57.07142857142857,12.214289724826756L57.07142857142857,36.6843336139093L57.07142857142857,101.50359924252376L57.07142857142857,165.2710331675589L57.07142857142857,86.96336579439765L57.07142857142857,35.22719644108116L57.07142857142857,143.02467966772386L57.07142857142857,149.47448254610336L57.07142857142857,132.04763440193474L57.07142857142857,31.26076460410144L57.07142857142857,86.07377737851277L57.07142857142857,62.521592711272206L57.07142857142857,81.70943507130414L57.07142857142857,106.75326222293205L57.07142857142857,130.47787236489208L57.07142857142857,128.64198454467808L57.07142857142857,81.99648322163148L57.07142857142857,-9.426823392667359L57.07142857142857,-14.255205845480532L57.07142857142857,67.69686921094285L57.07142857142857,3.3505280979493364L57.07142857142857,66.02817735931433L57.07142857142857,17.127148181171833L57.07142857142857,92.39328941889119L57.07142857142857,24.32541824004778L57.07142857142857,67.0753311458592L57.07142857142857,125.30893874911015L57.07142857142857,68.62743793981014L57.07142857142857,54.344099695652176L57.07142857142857,91.28865298519179L57.07142857142857,105.18579254285032L57.07142857142857,133.57619592073272L57.07142857142857,90.44914622389689L57.07142857142857,-21.152844463830377L57.07142857142857,23.694045609589182L57.07142857142857,94.32040738245075L57.07142857142857,62.802923222777565L57.07142857142857,70.4361060842968L57.07142857142857,-8.374377529346305L57.07142857142857,1.5733025357175734L57.07142857142857,66.97925645124252L57.07142857142857,81.00196198474714L57.07142857142857,81.61645820058624L57.07142857142857,-0.7576340588610719L57.07142857142857,47.9581324266137L57.07142857142857,100.47815375486164L57.07142857142857,90.19102895817701L57.07142857142857,104.25429733145597L57.07142857142857,145.0088608239981L57.07142857142857,171.38856224871762L57.07142857142857,211.23803604047745L57.07142857142857,135.16094420187406L57.07142857142857,65.56593502655858L57.07142857142857,76.68694217858274L57.07142857142857,113.34084432041033L57.07142857142857,154.66015916297627L57.07142857142857,156.55980222958212L57.07142857142857,166.85797108136404L57.07142857142857,177.08872998310824L57.07142857142857,106.32133634420336L57.07142857142857,140.55250858981708L57.07142857142857,84.79849448036691L57.07142857142857,110.29453133482673L57.07142857142857,46.36137642227948L57.07142857142857,122.8326789484226L57.07142857142857,54.5056827512862L57.07142857142857,107.72105386540198L57.07142857142857,175.4519804637724L57.07142857142857,124.09735114104112L57.07142857142857,167.12276219562625L57.07142857142857,-45.41133828618581L57.07142857142857,4.089726330885583L57.07142857142857,-23.69719898578569L57.07142857142857,43.33511502816049L57.07142857142857,43.77460431619755L57.07142857142857,100.73303675391833L57.07142857142857,108.43744697414974L85.60714285714285,98.47128290082895L85.60714285714285,125.32586399403746L85.60714285714285,129.08097834400857L85.60714285714285,124.45379101641498L85.60714285714285,118.86466390733437L85.60714285714285,122.60177883413152L85.60714285714285,165.26121116224954L85.60714285714285,173.31273987617507L85.60714285714285,137.21341039375315L85.60714285714285,135.59461685202044L85.60714285714285,241.01653015721755L85.60714285714285,76.02110459869454L85.60714285714285,128.02840270081364L85.60714285714285,139.83612600254534L85.60714285714285,165.18699497751908L85.60714285714285,100.90846406681851L85.60714285714285,118.02871820487684L85.60714285714285,132.96724918578929L85.60714285714285,148.18903071340839L85.60714285714285,26.627152387243086L85.60714285714285,44.05044633385029L85.60714285714285,98.95595744989214L85.60714285714285,34.15332701052375L85.60714285714285,94.22874077704626L85.60714285714285,-78.20113043459014L85.60714285714285,22.41449694352292L85.60714285714285,10.840667179327909L85.60714285714285,21.493759734095192L85.60714285714285,63.31716720024417L85.60714285714285,84.94380922174258L85.60714285714285,160.38946520719415L85.60714285714285,183.09697579999855L85.60714285714285,101.091402051807L85.60714285714285,124.2401059615377L85.60714285714285,91.8311141102173L85.60714285714285,198.9439310412799L85.60714285714285,198.7814290869948L85.60714285714285,126.91781189136009L85.60714285714285,95.27968570048995L85.60714285714285,200.2646339682066L85.60714285714285,207.159663650234L85.60714285714285,165.12387483885254L114.14285714285714,175.34914909345127L114.14285714285714,162.7813238295449L114.14285714285714,154.0183710570653L114.14285714285714,131.45122458431243L114.14285714285714,197.62607060607147L114.14285714285714,157.8076294108383L114.14285714285714,84.19681023622474L114.14285714285714,105.76859735885222L114.14285714285714,131.93089742326111L114.14285714285714,143.35742286958327L114.14285714285714,182.08978116582648L114.14285714285714,179.18576567215212L114.14285714285714,99.20802937056112L114.14285714285714,120.633323395881L114.14285714285714,120.67905276097838L114.14285714285714,124.08619890855539L114.14285714285714,121.47992955593344L114.14285714285714,161.8013972934966L114.14285714285714,119.87072680573976L114.14285714285714,-13.837289439551228L114.14285714285714,114.14474395101541L114.14285714285714,179.92266807070536L114.14285714285714,198.77261222071147L114.14285714285714,212.69776289860428L114.14285714285714,277.3946635317804L114.14285714285714,197.90235240411766L114.14285714285714,128.92893366308223L114.14285714285714,209.73290515119564L114.14285714285714,181.10695195302208L114.14285714285714,155.17685723367245L114.14285714285714,197.5524069074566L114.14285714285714,35.13379704974733L114.14285714285714,21.7654384375968L114.14285714285714,64.18683278568733L114.14285714285714,69.06726930146311L114.14285714285714,30.01847733023692L114.14285714285714,32.19623015500872L114.14285714285714,91.61031159268481L142.67857142857144,92.72139621082937L142.67857142857144,118.42923259916307L142.67857142857144,128.84744467844018L142.67857142857144,152.23986906116875L142.67857142857144,131.06407052460713L142.67857142857144,76.88106497635482L142.67857142857144,142.03258400267387L142.67857142857144,156.41547413531558L142.67857142857144,155.69045889296302L142.67857142857144,203.47445640515198L142.67857142857144,211.74486363858526L142.67857142857144,135.56477602082816L142.67857142857144,160.60099115227652L142.67857142857144,151.03429864796993L142.67857142857144,126.95961784692406L142.67857142857144,135.62420010192275L142.67857142857144,183.61259286178998L142.67857142857144,197.58241291388185L142.67857142857144,225.96361531939692L142.67857142857144,49.30715025738823L142.67857142857144,157.3617492274997L142.67857142857144,171.62888198832022L142.67857142857144,99.38686584078874L142.67857142857144,202.66963662292724L142.67857142857144,230.81214803210594L142.67857142857144,189.74215618223963L142.67857142857144,213.27732348114858L142.67857142857144,59.88086314005017L142.67857142857144,1.6303089797636403L142.67857142857144,139.37433292508967L142.67857142857144,145.59775315547495L142.67857142857144,-2.8967956851450936L142.67857142857144,51.50220755633541L142.67857142857144,157.82481296000978L171.2142857142857,88.33692116223642L171.2142857142857,79.7241488139801L171.2142857142857,163.65963875299525L171.2142857142857,86.36261622337003L171.2142857142857,113.87255911962683L171.2142857142857,195.74364741406742L171.2142857142857,174.7019441590422L171.2142857142857,79.36524942312917L171.2142857142857,142.88770796533996L171.2142857142857,217.39461451576105L171.2142857142857,273.42690907601093L171.2142857142857,213.98654157330736L171.2142857142857,231.1718075419077L171.2142857142857,199.3885540809994L171.2142857142857,193.35908738653453L171.2142857142857,206.19363222051018L171.2142857142857,168.60185886340352L171.2142857142857,134.4334449345888L171.2142857142857,133.55360667556647L171.2142857142857,191.0175892630227L171.2142857142857,58.38563285583314L171.2142857142857,149.2620167154911L171.2142857142857,205.2531968247201L171.2142857142857,174.92911884136836L171.2142857142857,171.96550295917893L171.2142857142857,258.65318497519917L171.2142857142857,212.4323208838774L171.2142857142857,197.27500680149038L171.2142857142857,179.70432288086675L171.2142857142857,108.07449134967487L171.2142857142857,110.66033554543117L171.2142857142857,137.0237542418781L171.2142857142857,126.21157729793444L171.2142857142857,213.82576568227327L171.2142857142857,187.90495724261595L171.2142857142857,136.5190752672005L171.2142857142857,115.00625903170408L171.2142857142857,87.45946587777786L171.2142857142857,134.62619727645313L199.75,145.2043268310666L199.75,72.94990623162033L199.75,146.1848313341488L199.75,160.7721522766322L199.75,166.25579930054965L199.75,236.53989401285548L199.75,224.0512101341766L199.75,88.29568918284662L199.75,186.34803297362862L199.75,162.72585398103087L199.75,197.99810417977147L199.75,195.6953297644089L199.75,173.34395118887613L199.75,241.47006616792316L199.75,261.29871638894815L199.75,270.2178426997706L199.75,161.61784107785485L199.75,216.15636159957091L199.75,241.42949532258893L199.75,150.6230721401476L199.75,148.54080977006575L199.75,160.07810598590274L199.75,151.42081722008163L199.75,138.4298953556239L199.75,179.93768059868924L199.75,164.09929640090056L199.75,215.4777702986932L199.75,166.1537669956527L199.75,171.22059724687585L199.75,111.21033710216909L199.75,78.48933631167063L199.75,-65.48311768779001L199.75,-61.12780601268321L199.75,52.86284254500089L199.75,188.3199064404298L199.75,134.8223560613709L199.75,98.36989607586366L228.28571428571428,156.61146863802614L228.28571428571428,118.62873335185265L228.28571428571428,63.07615940274371L228.28571428571428,115.92767067254528L228.28571428571428,87.96912929714284L228.28571428571428,124.55528503239498L228.28571428571428,157.65762587535588L228.28571428571428,81.12764279930724L228.28571428571428,153.87553649478508L228.28571428571428,186.1373048146567L228.28571428571428,198.02252006053934L228.28571428571428,204.84301542949683L228.28571428571428,234.36622681446082L228.28571428571428,156.00022596256264L228.28571428571428,116.42887669882964L228.28571428571428,164.008669174205L228.28571428571428,114.36062109261206L228.28571428571428,130.92777228229906L228.28571428571428,163.97552611752553L228.28571428571428,221.1811311860335L228.28571428571428,239.977273858753L228.28571428571428,235.58186626265478L228.28571428571428,295.515517257631L228.28571428571428,210.1121031898142L228.28571428571428,122.58469488965764L228.28571428571428,193.02232405392706L228.28571428571428,154.031155996611L228.28571428571428,216.28050480669162L228.28571428571428,198.4327434443559L228.28571428571428,212.89113043207675L228.28571428571428,117.25795082127308L228.28571428571428,167.62722146436724L228.28571428571428,264.01828479722235L228.28571428571428,205.81746911975802L228.28571428571428,203.47247078402674L228.28571428571428,159.68162871827977L228.28571428571428,184.12187734502731L228.28571428571428,98.54407934700362L256.8214285714286,136.3901128551656L256.8214285714286,69.00224631913278L256.8214285714286,-73.4292283422484L256.8214285714286,-27.93972217838376L256.8214285714286,111.02917184948677L256.8214285714286,145.766562810658L256.8214285714286,186.75307909912982L256.8214285714286,142.80816488425208L256.8214285714286,156.38024378395244L256.8214285714286,219.6429185663233L256.8214285714286,251.21471306053223L256.8214285714286,165.4986895821537L256.8214285714286,235.38634231698785L256.8214285714286,268.06124126322436L256.8214285714286,274.22068347577675L256.8214285714286,263.0427148225572L256.8214285714286,273.95131093756356L256.8214285714286,235.32430655059812L256.8214285714286,192.46224364219663L256.8214285714286,225.20520155774688L256.8214285714286,271.07654317109075L256.8214285714286,84.1538817399042L256.8214285714286,135.49297460992915L256.8214285714286,195.07145474600662L256.8214285714286,154.3031608953945L256.8214285714286,117.18767265646886L256.8214285714286,146.6743331442429L256.8214285714286,179.5797992998453L256.8214285714286,165.03047168577268L256.8214285714286,173.7387116451535L256.8214285714286,181.37749174234114L256.8214285714286,187.15524224637056L256.8214285714286,170.32302591918767L256.8214285714286,136.5677892072133L256.8214285714286,187.5258856834848L256.8214285714286,222.18946365248436L256.8214285714286,242.41898927528422L256.8214285714286,229.6584628906176L256.8214285714286,129.79047797240767L256.8214285714286,160.7407630092976L256.8214285714286,203.24948676866757L285.3571428571429,136.62865553165943L285.3571428571429,123.36505414167326L285.3571428571429,156.70766752433346L285.3571428571429,211.6148062316869L285.3571428571429,225.93458107520902L285.3571428571429,214.59217381125546L285.3571428571429,173.88884496477755L285.3571428571429,187.33099865786738L285.3571428571429,198.0410777084381L285.3571428571429,165.50245662643616L285.3571428571429,183.5398232228405L285.3571428571429,142.67669773619457L285.3571428571429,44.58308973622968L285.3571428571429,125.71812967486773L285.3571428571429,135.52829985635034L285.3571428571429,74.03475983629562L285.3571428571429,158.5124918919202L285.3571428571429,205.66784202464797L285.3571428571429,229.24806038980708L285.3571428571429,149.24795847204342L285.3571428571429,163.77355652491462L285.3571428571429,200.58346691990025L285.3571428571429,226.0921425298699L285.3571428571429,285.0750957415014L285.3571428571429,185.76079578909332L285.3571428571429,226.84440898724228L285.3571428571429,206.79956195251842L285.3571428571429,132.34380081592022L285.3571428571429,240.75778486310256L285.3571428571429,250.6084291337658L285.3571428571429,165.7177346348005L285.3571428571429,115.47903646226149L285.3571428571429,147.44824133631835L285.3571428571429,156.59465474079403L285.3571428571429,173.87809985989546L285.3571428571429,231.44479955502885L313.8928571428571,275.72684391301L313.8928571428571,187.6115614888735L313.8928571428571,241.40704962716504L313.8928571428571,140.19655764762166L313.8928571428571,195.02811842360265L313.8928571428571,164.85740793465476L313.8928571428571,189.28076720666232L313.8928571428571,232.42269280213924L313.8928571428571,271.07117015516053L313.8928571428571,245.1051804208475L313.8928571428571,236.37189648054348L313.8928571428571,228.42171305121366L313.8928571428571,232.40347219527595L313.8928571428571,226.28656697881723L313.8928571428571,250.28614926703278L313.8928571428571,231.05879388074578L313.8928571428571,200.38472634446924L313.8928571428571,193.961033999278L313.8928571428571,222.06258169374098L313.8928571428571,171.11875414586802L313.8928571428571,196.82367210231274L313.8928571428571,203.90020354176792L313.8928571428571,265.2902582382276L313.8928571428571,279.9988472399184L313.8928571428571,278.26769678217585L313.8928571428571,272.4537803913498L313.8928571428571,275.3030630937424L313.8928571428571,201.9687088603501L313.8928571428571,198.07584006039644L313.8928571428571,190.02803460626805L313.8928571428571,243.95790162008407L313.8928571428571,159.62218803358914L313.8928571428571,157.1663294446042L313.8928571428571,202.00865238973915L313.8928571428571,175.47682510655775L313.8928571428571,68.24894663597132L313.8928571428571,47.72523835244766L313.8928571428571,81.68131472434396L313.8928571428571,144.59831994632358L342.4285714285714,63.829626380559716L342.4285714285714,125.0097297544223L342.4285714285714,148.7242826053466L342.4285714285714,223.57257598811182L342.4285714285714,229.00609077318785L342.4285714285714,228.9520550328748L342.4285714285714,166.53932150353535L342.4285714285714,141.91266908734772L342.4285714285714,171.4127494245156L342.4285714285714,165.18573547300005L342.4285714285714,181.24851580200374L342.4285714285714,95.11327268921008L342.4285714285714,145.42273301030798L342.4285714285714,187.0859624513722L342.4285714285714,155.12760653309445L342.4285714285714,117.15742815859568L342.4285714285714,204.43926380471862L342.4285714285714,246.11563881871987L342.4285714285714,212.82873278044397L342.4285714285714,173.1920953582688L342.4285714285714,216.9499222511628L342.4285714285714,148.03939371553534L342.4285714285714,203.94200216083212L342.4285714285714,130.6555505892544L342.4285714285714,213.10402972107585L342.4285714285714,112.27999109390657L342.4285714285714,175.39031199433373L342.4285714285714,211.64351701627953L342.4285714285714,259.59746246272795L342.4285714285714,280.39244838198704L342.4285714285714,225.6738974788229L342.4285714285714,253.0895605646635L342.4285714285714,292.80728970545914L342.4285714285714,284.92534388648505L342.4285714285714,296.76096640555284L342.4285714285714,316.18493920879496L342.4285714285714,331.0533066649254L342.4285714285714,210.4208779847035L342.4285714285714,237.1163352319842L370.9642857142857,195.66912679608137L370.9642857142857,194.93898771247547L370.9642857142857,103.99871605659303L370.9642857142857,162.78353837743265L370.9642857142857,237.0005125738076L370.9642857142857,211.56061683517044L370.9642857142857,290.35953403962463L370.9642857142857,237.07376140029916L370.9642857142857,254.36559573216255L370.9642857142857,258.37162115218047L370.9642857142857,267.6517372491468L370.9642857142857,181.8322805143898L370.9642857142857,143.73945286139877L370.9642857142857,221.49566768565793L370.9642857142857,74.27082280492198L370.9642857142857,152.75527970895416L370.9642857142857,217.01044467035084L370.9642857142857,198.5265406068751L370.9642857142857,287.44072961190875L370.9642857142857,332.6549676381322L370.9642857142857,289.506088383363L370.9642857142857,218.07378337822342L370.9642857142857,255.6622029187797L370.9642857142857,193.02359352365247L370.9642857142857,85.85698448333216L370.9642857142857,102.7190652532164L370.9642857142857,192.13678525941285L370.9642857142857,147.6292460862202L370.9642857142857,141.8096965851428L370.9642857142857,125.70906681430583L370.9642857142857,163.6183900273576L370.9642857142857,161.5788581035575L370.9642857142857,246.71495931518325L370.9642857142857,128.53214016659402L370.9642857142857,210.44237660827244L399.5,124.39369353927373L399.5,159.42389787004709L399.5,142.4567927644629L399.5,194.2396509960877L399.5,142.23286087009828L399.5,126.84398521598294L399.5,106.77316211233205L399.5,169.97635323148774L399.5,237.4203679939616L399.5,225.92131428602386L399.5,161.25450098921684L399.5,230.80490691906107L399.5,264.76243419316944L399.5,311.51257092277734L399.5,326.07304598403294L399.5,294.581912478878L399.5,222.92319929663768L399.5,225.24554314651746L399.5,177.01140755676423L399.5,192.41805685915475L399.5,167.13721168850617L399.5,135.43545735367988L399.5,186.90530383878266L399.5,207.1328624027569L399.5,274.2970254860877L399.5,275.68615482107157L399.5,216.40322812709422L399.5,290.2510882396293L399.5,139.87131963841875L399.5,149.55937599344705L399.5,166.22651781561174L399.5,116.92192419720999L399.5,149.86874504299954L399.5,197.28383214123244L399.5,263.5015183618498L399.5,232.4440905291338L399.5,256.67336521378155L399.5,229.594077145046L399.5,274.9098959892905L399.5,242.7401473599622L428.0357142857143,185.61810679900347L428.0357142857143,241.04514560501403L428.0357142857143,260.1816698873081L428.0357142857143,173.67009912514908L428.0357142857143,149.216663852836L428.0357142857143,203.04366296261867L428.0357142857143,284.47070571023414L428.0357142857143,309.0019670739066L428.0357142857143,197.9700570353443L428.0357142857143,136.21638452104173L428.0357142857143,177.10264291221762L428.0357142857143,278.66623654279033L428.0357142857143,244.78808499761178L428.0357142857143,269.39151564471575L428.0357142857143,200.73571853180314L428.0357142857143,237.42571509086844L428.0357142857143,207.35309865596147L428.0357142857143,258.7496403129235L428.0357142857143,218.05564189382406L428.0357142857143,221.61344368712912L428.0357142857143,256.50772802505975L428.0357142857143,125.85567808433828L428.0357142857143,120.35820594003474L428.0357142857143,166.35705422503162L428.0357142857143,178.05594920600893L428.0357142857143,183.8704522102204L428.0357142857143,241.12711110407872L428.0357142857143,266.1189721029685L428.0357142857143,156.08429949293654L428.0357142857143,207.09662764555287L428.0357142857143,273.12471173576165L428.0357142857143,222.4946326635578L428.0357142857143,238.69519218339315L428.0357142857143,210.1818507464754L428.0357142857143,141.89327277851274L428.0357142857143,144.18804303474525L428.0357142857143,165.8740983227927L428.0357142857143,262.21232572913397L456.57142857142856,288.27032248807086L456.57142857142856,299.16188781638226L456.57142857142856,252.95397265660333L456.57142857142856,280.5314739460204L456.57142857142856,333.7219459244284L456.57142857142856,324.7310288684769L456.57142857142856,282.1247374258759L456.57142857142856,211.98336935295595L456.57142857142856,235.66461482199392L456.57142857142856,248.7713050040744L456.57142857142856,177.3976953025545L456.57142857142856,194.2926449773243L456.57142857142856,285.42240017637795L456.57142857142856,231.78814269295444L456.57142857142856,154.39351931328238L456.57142857142856,135.12298788496648L456.57142857142856,163.27102383296963L456.57142857142856,122.9241228599625L456.57142857142856,134.2674718677566L456.57142857142856,143.99650795337942L456.57142857142856,116.81673950599071L456.57142857142856,199.46801087049508L456.57142857142856,255.9272511529199L456.57142857142856,294.6287402228875L456.57142857142856,251.4257377097823L456.57142857142856,231.43093684374196L456.57142857142856,254.65219382678808L456.57142857142856,269.35009820601545L456.57142857142856,235.1039115866494L456.57142857142856,130.92723280671072L456.57142857142856,139.4199508338143L456.57142857142856,44.70002524310161L456.57142857142856,128.17519056948314L456.57142857142856,158.37339434714488L456.57142857142856,195.99061001355273L456.57142857142856,238.1386405051638L456.57142857142856,243.42030028229294L485.10714285714283,236.77581219509443L485.10714285714283,196.77388832947733L485.10714285714283,242.7076290487118L485.10714285714283,255.5081314586918L485.10714285714283,191.7465941633773L485.10714285714283,197.53447993552643L485.10714285714283,178.85245282623742L485.10714285714283,181.32024769290427L485.10714285714283,190.09327693166819L485.10714285714283,200.3461856328397L485.10714285714283,219.48565718429973L485.10714285714283,173.9329378896814L485.10714285714283,173.95505320393212L485.10714285714283,202.55613040544492L485.10714285714283,196.8243302084083L485.10714285714283,216.19530987602923L485.10714285714283,211.6869710675624L485.10714285714283,220.267998790249L485.10714285714283,246.4533452364831L485.10714285714283,290.0525996072906L485.10714285714283,317.69695340298523L485.10714285714283,287.9469243687565L485.10714285714283,221.49516873372642L485.10714285714283,185.31697357185513L485.10714285714283,191.77609248452083L485.10714285714283,216.1887036054891L485.10714285714283,216.90175992784276L485.10714285714283,236.76224810205326L485.10714285714283,240.641015591159L485.10714285714283,263.9860426795093L485.10714285714283,334.53949667284536L485.10714285714283,269.89729157250906L485.10714285714283,289.1781923720943L485.10714285714283,298.29260458646456L485.10714285714283,268.4869257098331L485.10714285714283,183.00548006808125L485.10714285714283,138.51443182060336L513.6428571428572,168.06022559779413L513.6428571428572,134.7660317610355L513.6428571428572,137.93187590781756L513.6428571428572,188.83321321215575L513.6428571428572,217.85649504784556L513.6428571428572,169.33392914845825L513.6428571428572,196.9384475989001L513.6428571428572,219.68811185615408L513.6428571428572,212.56185912762368L513.6428571428572,182.65529722973278L513.6428571428572,245.96160089376312L513.6428571428572,269.28461279513084L513.6428571428572,297.6848077418902L513.6428571428572,349.2379246617853L513.6428571428572,290.3362696925103L513.6428571428572,334.00290109868644L513.6428571428572,268.8184577593553L513.6428571428572,263.93397147472785L513.6428571428572,284.3507057608133L513.6428571428572,241.8747900117019L513.6428571428572,250.2881514423239L513.6428571428572,253.43784381110362L513.6428571428572,189.83726678585347L513.6428571428572,220.26229790625177L513.6428571428572,225.42123079167126L513.6428571428572,211.29838936249212L513.6428571428572,265.99442971181753L513.6428571428572,252.3583037878983L513.6428571428572,286.0779544130512L513.6428571428572,246.04535229298753L513.6428571428572,221.31656667764955L513.6428571428572,135.55184167132361L513.6428571428572,133.17454558316228L513.6428571428572,125.32966321529963L513.6428571428572,123.29170342577714L513.6428571428572,181.96956422503723L513.6428571428572,138.87609073266944L513.6428571428572,200.79657338109953L513.6428571428572,239.17746669082254L513.6428571428572,205.02142449634323L542.1785714285714,261.1746969724718L542.1785714285714,176.76708243519207L542.1785714285714,148.30582350629655L542.1785714285714,173.78709744297316L542.1785714285714,188.84837829400809L542.1785714285714,204.01458448964183L542.1785714285714,252.0801032471527L542.1785714285714,266.4248696379584L542.1785714285714,212.10508896188267L542.1785714285714,229.8297218160411L542.1785714285714,256.8654693649161L542.1785714285714,241.45389248644997L542.1785714285714,234.5536789757948L542.1785714285714,251.87083853858354L542.1785714285714,274.6094809864619L542.1785714285714,210.79294131366368L542.1785714285714,260.1662430415628L542.1785714285714,247.1450516015338L542.1785714285714,256.16287465274615L542.1785714285714,247.4334417783039L542.1785714285714,237.56916998641594L542.1785714285714,281.35663024674L542.1785714285714,266.9770870214113L542.1785714285714,240.69506850274854L542.1785714285714,196.6446276571301L542.1785714285714,179.44913726246045L542.1785714285714,192.67458396670634L542.1785714285714,248.43282154510868L542.1785714285714,234.49635481423408L542.1785714285714,197.654487988867L542.1785714285714,218.20843421311238L542.1785714285714,251.9816423111621L542.1785714285714,241.21394487938062L542.1785714285714,248.99895871115191L542.1785714285714,240.30939753313348L542.1785714285714,190.84407224332975L542.1785714285714,135.26695455357844L542.1785714285714,185.8300435140456L542.1785714285714,276.91139539448767L542.1785714285714,175.12103896360605L542.1785714285714,112.82554381502274L570.7142857142858,161.46564019568328L570.7142857142858,213.0750610878918L570.7142857142858,251.69030041997758L570.7142857142858,271.9406480759688L570.7142857142858,221.53455591024803L570.7142857142858,223.79363050354627L570.7142857142858,198.005300630886L570.7142857142858,274.4180297552101L570.7142857142858,335.60433188072165L570.7142857142858,303.6386233984907L570.7142857142858,297.2343738805938L570.7142857142858,199.79900698254636L570.7142857142858,189.71767418617085L570.7142857142858,277.81993002315807L570.7142857142858,189.5833591140535L570.7142857142858,284.2468851993815L570.7142857142858,248.9406648272476L570.7142857142858,258.07222090924984L570.7142857142858,194.10410863617184L570.7142857142858,289.19739514862977L570.7142857142858,202.46652721330815L570.7142857142858,249.3196348367053L570.7142857142858,191.46224622833236L570.7142857142858,175.09244187419114L570.7142857142858,226.43210596885973L570.7142857142858,256.9812465610903L570.7142857142858,241.09627960340987L570.7142857142858,262.58623222241886L570.7142857142858,178.24330704051306L570.7142857142858,190.14089336775575L570.7142857142858,227.477624647515L570.7142857142858,230.98134619754376L570.7142857142858,233.2626469776739L570.7142857142858,243.4865867284363L570.7142857142858,213.40543544217502L570.7142857142858,208.94982948258252L570.7142857142858,229.7041382929965L570.7142857142858,148.7519113624862L570.7142857142858,229.9736743691427L570.7142857142858,147.7209154559888L570.7142857142858,187.91045752726302L599.25,297.85833397842833L599.25,276.78099004827374L599.25,262.4535163426545L599.25,267.85421496535224L599.25,235.11493881884147L599.25,274.31644075121244L599.25,220.60283470753285L599.25,221.94959257008702L599.25,277.3117580530767L599.25,233.4516006301477L599.25,278.6445735925814L599.25,221.76884888615496L599.25,254.97781984213762L599.25,288.63769149901725L599.25,226.6695343501702L599.25,227.98413478418206L599.25,277.547430104518L599.25,273.29410862118254L599.25,225.4148057650939L599.25,313.079198739017L599.25,365.2754200226575L599.25,256.0984965280598L599.25,219.68990426754385L599.25,107.02765863833088L599.25,138.66715782700342L599.25,172.68910206448055L599.25,226.0012609070004L599.25,189.66405767830972L599.25,186.096528092818L599.25,223.37789893138202L599.25,183.33969812385914L599.25,221.8349016236823L599.25,146.9545350866056L599.25,186.50776309946394L599.25,209.4702939461423L599.25,174.06144386951638L599.25,216.43005641951876L627.7857142857142,267.0847579279823L627.7857142857142,275.5494275831749L627.7857142857142,237.7973550524456L627.7857142857142,203.25820176399606L627.7857142857142,176.4181145226768L627.7857142857142,216.10616439555952L627.7857142857142,173.55227590784352L627.7857142857142,178.64339905491423L627.7857142857142,259.6296254724917L627.7857142857142,213.51300625387773L627.7857142857142,220.33881757488214L627.7857142857142,260.3084941019437L627.7857142857142,311.97043955980666L627.7857142857142,307.5973630467589L627.7857142857142,311.338198859664L627.7857142857142,263.47445652435556L627.7857142857142,265.0574929329773L627.7857142857142,264.23569963055974L627.7857142857142,216.85465963887052L627.7857142857142,236.87680661801627L627.7857142857142,265.5220258720167L627.7857142857142,274.30507238432455L627.7857142857142,272.9266840441507L627.7857142857142,134.9322008504559L627.7857142857142,248.82854540432038L627.7857142857142,292.9149438576969L627.7857142857142,277.1484393141909L627.7857142857142,250.98701113833454L627.7857142857142,224.46061731799523L627.7857142857142,263.6289606656079L627.7857142857142,260.2782381156352L627.7857142857142,235.36085089321537L627.7857142857142,201.7122102277017L627.7857142857142,182.80520220378264L627.7857142857142,227.59082012044925L627.7857142857142,239.36639309327327L627.7857142857142,211.66539960146264L627.7857142857142,222.39587176466176L627.7857142857142,189.1165654458057L627.7857142857142,113.01688083395072L656.3214285714286,188.32371137371484L656.3214285714286,140.79315847057592L656.3214285714286,167.30573412119443L656.3214285714286,210.70729162895148L656.3214285714286,247.45092853667418L656.3214285714286,283.83334084011364L656.3214285714286,269.9358857372835L656.3214285714286,252.62393042441815L656.3214285714286,262.9290198862351L656.3214285714286,267.9547665345548L656.3214285714286,205.82764378952254L656.3214285714286,293.0900433049635L656.3214285714286,265.8265017977975L656.3214285714286,303.72074093291894L656.3214285714286,276.9322440258845L656.3214285714286,287.506722571384L656.3214285714286,213.01300242062274L656.3214285714286,253.87706889221596L656.3214285714286,232.19124699538662L656.3214285714286,209.0621449524505L656.3214285714286,121.94941274966851L656.3214285714286,126.44588137058057L656.3214285714286,179.91069967977788L656.3214285714286,237.98409416337364L656.3214285714286,274.08844007289144L656.3214285714286,288.5502444579347L656.3214285714286,273.55399654353516L656.3214285714286,246.48781856325184L656.3214285714286,244.0982201601679L656.3214285714286,310.1827913347253L656.3214285714286,303.19583443542535L656.3214285714286,177.88861772859224L656.3214285714286,203.37212496664603L656.3214285714286,163.98466361562302L656.3214285714286,202.6433279573911L656.3214285714286,188.14479418158487L656.3214285714286,268.77189228272414L656.3214285714286,191.30646084151255L684.8571428571428,267.1961701059436L684.8571428571428,188.98303371334646L684.8571428571428,268.00336164036133L684.8571428571428,248.54526954769338L684.8571428571428,290.5532559506848L684.8571428571428,303.8854838343117L684.8571428571428,234.91578589270432L684.8571428571428,206.7509668969507L684.8571428571428,231.64362780472015L684.8571428571428,203.89757740628943L684.8571428571428,217.2368901737465L684.8571428571428,236.9147353510817L684.8571428571428,262.67361426000366L684.8571428571428,272.7901637056146L684.8571428571428,282.530083078067L684.8571428571428,314.153121052933L684.8571428571428,309.22297550365465L684.8571428571428,246.44324613288128L684.8571428571428,192.27265263006146L684.8571428571428,223.46924693825875L684.8571428571428,215.69429909850973L684.8571428571428,268.53534450331824L684.8571428571428,242.17555033087433L684.8571428571428,233.51582893681345L684.8571428571428,267.47571120829474L684.8571428571428,242.53449438912327L684.8571428571428,243.1721115523735L684.8571428571428,152.971809221158L684.8571428571428,225.90738963654613L684.8571428571428,219.91076910240045L684.8571428571428,276.527183960334L684.8571428571428,193.96540629294847L684.8571428571428,228.55310389654238L684.8571428571428,205.93972240243193L684.8571428571428,311.1499607107272L684.8571428571428,204.90961672909438L684.8571428571428,208.08664327888113L713.3928571428572,238.76059874313128L713.3928571428572,318.71283639918005L713.3928571428572,272.1718710508957L713.3928571428572,298.4070803312668L713.3928571428572,273.5557798378592L713.3928571428572,248.197555818136L713.3928571428572,253.42436931012605L713.3928571428572,288.1121099560174L713.3928571428572,271.7034877162404L713.3928571428572,272.46585021145506L713.3928571428572,272.83191882209405L713.3928571428572,310.4332566895272L713.3928571428572,304.4049746655337L713.3928571428572,263.3064983882256L713.3928571428572,264.53140374408645L713.3928571428572,274.30578115216787L713.3928571428572,214.64501768727237L713.3928571428572,257.6228425406166L713.3928571428572,232.06445373909162L713.3928571428572,234.85134724269204L713.3928571428572,287.5966482847327L713.3928571428572,192.7789935046073L713.3928571428572,202.953666411259L713.3928571428572,236.17483260775705L713.3928571428572,271.4015864762372L713.3928571428572,300.85578228430194L713.3928571428572,271.37014432785656L713.3928571428572,292.90022833369824L713.3928571428572,226.43324250711592L713.3928571428572,207.048759595952L713.3928571428572,163.44714869046305L713.3928571428572,183.309886556769L713.3928571428572,210.66551612729114L713.3928571428572,154.5454121524947L713.3928571428572,200.42529986470083L713.3928571428572,236.3016295085498L713.3928571428572,215.98703375161583L713.3928571428572,279.2485762757116L713.3928571428572,210.80428897869908L713.3928571428572,214.98851029594135L741.9285714285714,245.14136884522085L741.9285714285714,259.7911660785177L741.9285714285714,318.85627721039646L741.9285714285714,281.7907513516437L741.9285714285714,289.1101856313521L741.9285714285714,270.6330943156704L741.9285714285714,316.0711222201243L741.9285714285714,287.61486077962246L741.9285714285714,195.4458479443665L741.9285714285714,231.07755036112522L741.9285714285714,215.46346461151157L741.9285714285714,206.73538162335225L741.9285714285714,247.05823196187293L741.9285714285714,271.91199982890294L741.9285714285714,281.869140462451L741.9285714285714,261.9058485486346L741.9285714285714,273.1162963186644L741.9285714285714,246.09092883318317L741.9285714285714,241.91581201582943L741.9285714285714,211.2842595579016L741.9285714285714,271.75772945891543L741.9285714285714,231.75267379767138L741.9285714285714,233.3131844358828L741.9285714285714,292.8673127506487L741.9285714285714,306.496651173491L741.9285714285714,298.8110907559744L741.9285714285714,255.0233112862797L741.9285714285714,291.39731692618676L741.9285714285714,241.33743152228925L741.9285714285714,266.91281982188184L741.9285714285714,209.6635007615373L741.9285714285714,239.79558375808512L741.9285714285714,225.2225883920962L741.9285714285714,133.1542997908577L741.9285714285714,214.6578908057204L741.9285714285714,104.75661521501485L741.9285714285714,160.25613351671186" style="fill: none;" fill="none"></path></g></g></g></g><g opacity="0.2"><g><g><g><path stroke="rgb(0, 119, 187)" stroke-width="2px" d="M57.07142857142857,280.07519406080246L57.07142857142857,79.20680952072149L57.07142857142857,-124.4111477136612L57.07142857142857,65.4611052274704L57.07142857142857,186.13163244724277L57.07142857142857,253.48435056209564L57.07142857142857,-25.01785147190094L57.07142857142857,-40.20463514328003L57.07142857142857,302.0050288438797L57.07142857142857,159.05168813467026L57.07142857142857,106.06542241573334L57.07142857142857,-119.37106239795685L57.07142857142857,168.11432254314423L57.07142857142857,27.23945689201355L57.07142857142857,110.46864402294159L57.07142857142857,144.30134010314944L57.07142857142857,166.05474811792374L57.07142857142857,125.88861894607544L57.07142857142857,12.035337209701595L57.07142857142857,-146.553426861763L57.07142857142857,-21.497514724731445L57.07142857142857,190.6222851276398L57.07142857142857,-93.1677131652832L57.07142857142857,160.04390877485278L57.07142857142857,-56.224048018455505L57.07142857142857,205.29218029975894L57.07142857142857,-77.7762143611908L57.07142857142857,131.2001348733902L57.07142857142857,212.6592965126038L57.07142857142857,-16.39478194713587L57.07142857142857,32.9190970659256L57.07142857142857,146.7054755687714L57.07142857142857,126.0315002202988L57.07142857142857,176.16179895401004L57.07142857142857,25.758573532104492L57.07142857142857,-188.55582761764526L57.07142857142857,90.9643800258637L57.07142857142857,200.25994938611987L57.07142857142857,15.526697158813477L57.07142857142857,81.88588035106659L57.07142857142857,-126.5901027917862L57.07142857142857,16.49482262134552L57.07142857142857,165.08818727731705L57.07142857142857,102.03602027893066L57.07142857142857,82.53820252418518L57.07142857142857,-124.3187724351883L57.07142857142857,121.03178215026855L57.07142857142857,179.2581857442856L57.07142857142857,74.7603417634964L57.07142857142857,125.34919989109042L57.07142857142857,206.14070606231692L57.07142857142857,210.9581143856049L57.07142857142857,271.0122467279434L57.07142857142857,21.045306444168148L57.07142857142857,-38.82657873630524L57.07142857142857,93.36845290660864L57.07142857142857,168.32169753313067L57.07142857142857,216.63913142681125L57.07142857142857,159.4092668294907L57.07142857142857,182.30522435903552L57.07142857142857,192.4348683357239L57.07142857142857,0.17024588584899902L57.07142857142857,191.89926695823672L57.07142857142857,1.167473316192627L57.07142857142857,148.5385866165161L57.07142857142857,-49.538355946540776L57.07142857142857,237.5396327376366L57.07142857142857,-47.984811544418335L57.07142857142857,187.54411053657532L57.07142857142857,277.0483703613281L57.07142857142857,47.065407156944275L57.07142857142857,231.660878777504L57.07142857142857,-364.2124890089035L57.07142857142857,78.34132325649261L57.07142857142857,-65.37758696079254L57.07142857142857,143.88358604907992L57.07142857142857,44.43383824825287L57.07142857142857,186.1706854104996L57.07142857142857,119.99406230449677L85.60714285714285,83.52203679084784L85.60714285714285,165.6077356338501L85.60714285714285,134.71364986896518L85.60714285714285,117.51301002502441L85.60714285714285,110.48097324371344L85.60714285714285,128.20745122432712L85.60714285714285,229.2503596544266L85.60714285714285,185.39003294706347L85.60714285714285,83.06441617012024L85.60714285714285,133.1664265394211L85.60714285714285,399.1494001150131L85.60714285714285,-171.47203373908997L85.60714285714285,206.0393498539925L85.60714285714285,157.54771095514297L85.60714285714285,203.21329843997955L85.60714285714285,4.490667700767517L85.60714285714285,143.70909941196442L85.60714285714285,155.3750456571579L85.60714285714285,171.02170300483706L85.60714285714285,-155.715665102005L85.60714285714285,70.18538725376129L85.60714285714285,181.3142241239548L85.60714285714285,-63.05061864852905L85.60714285714285,184.34186142683032L85.60714285714285,-336.8459372520447L85.60714285714285,173.33793801069262L85.60714285714285,-6.520077466964665L85.60714285714285,37.47339856624603L85.60714285714285,126.0522783994675L85.60714285714285,117.38377225399023L85.60714285714285,273.5579491853714L85.60714285714285,217.1582416892052L85.60714285714285,-21.916958570480347L85.60714285714285,158.96316182613376L85.60714285714285,43.21762633323675L85.60714285714285,359.61315643787384L85.60714285714285,198.53767615556717L85.60714285714285,19.12238609790802L85.60714285714285,47.82249641418457L85.60714285714285,357.7420563697815L85.60714285714285,217.502208173275L85.60714285714285,102.0701916217804L114.14285714285714,190.68706047534945L114.14285714285714,143.92958593368533L114.14285714285714,140.87394189834598L114.14285714285714,97.6005048751831L114.14285714285714,296.88833963871L114.14285714285714,98.07996761798859L114.14285714285714,-26.2194185256958L114.14285714285714,138.1262780427933L114.14285714285714,171.1743475198746L114.14285714285714,160.49721103906634L114.14285714285714,240.18831861019137L114.14285714285714,174.82974243164065L114.14285714285714,-20.758575081825256L114.14285714285714,152.7712644338608L114.14285714285714,120.74764680862427L114.14285714285714,129.196918129921L114.14285714285714,117.57052552700043L114.14285714285714,222.28359889984134L114.14285714285714,56.97472107410431L114.14285714285714,-214.3993138074875L114.14285714285714,306.11779403686523L114.14285714285714,278.5895542502403L114.14285714285714,227.0475284457207L114.14285714285714,233.58548891544345L114.14285714285714,374.4400144815445L114.14285714285714,78.66388571262365L114.14285714285714,25.46880555152893L114.14285714285714,330.93886238336563L114.14285714285714,138.16802215576175L114.14285714285714,116.28171515464783L114.14285714285714,261.1157314181328L114.14285714285714,-208.4941177368164L114.14285714285714,1.7129005193710327L114.14285714285714,127.81892430782318L114.14285714285714,76.38792407512665L114.14285714285714,-28.554710626602173L114.14285714285714,35.46285939216614L114.14285714285714,180.7314337491989L142.67857142857144,94.38802313804626L142.67857142857144,156.9909871816635L142.67857142857144,144.47476279735565L142.67857142857144,187.32850563526156L142.67857142857144,99.30037271976471L142.67857142857144,-4.39344334602356L142.67857142857144,239.7598625421524L142.67857142857144,177.9898093342781L142.67857142857144,154.60293602943423L142.67857142857144,275.1504526734352L142.67857142857144,224.15047448873523L142.67857142857144,21.294644594192505L142.67857142857144,198.1553138494492L142.67857142857144,136.68425989151L142.67857142857144,90.84759664535522L142.67857142857144,148.6210734844208L142.67857142857144,255.59518200159073L142.67857142857144,218.53714299201968L142.67857142857144,268.5354189276695L142.67857142857144,-215.6775473356247L142.67857142857144,319.4436476826668L142.67857142857144,193.02958112955096L142.67857142857144,-8.976158380508423L142.67857142857144,357.59379279613495L142.67857142857144,273.025915145874L142.67857142857144,128.13716840744019L142.67857142857144,248.58007442951205L142.67857142857144,-170.2138273715973L142.67857142857144,-85.74552226066584L142.67857142857144,345.9903688430786L142.67857142857144,154.93288350105286L142.67857142857144,-225.63861894607544L142.67857142857144,133.1007124185562L142.67857142857144,317.30872106552124L171.2142857142857,-15.894916534423828L171.2142857142857,66.80499029159546L171.2142857142857,289.5628736615181L171.2142857142857,-29.582917571067753L171.2142857142857,155.13747346401217L171.2142857142857,318.55027985572815L171.2142857142857,143.13938927650455L171.2142857142857,-63.639792680740356L171.2142857142857,238.17139577865603L171.2142857142857,329.1549743413925L171.2142857142857,357.47535091638565L171.2142857142857,124.82599031925204L171.2142857142857,256.9497064948082L171.2142857142857,151.71367388963702L171.2142857142857,184.31488734483722L171.2142857142857,225.44544947147372L171.2142857142857,112.21419882774353L171.2142857142857,83.18082404136658L171.2142857142857,132.23384928703308L171.2142857142857,277.213563144207L171.2142857142857,-140.56230175495148L171.2142857142857,285.5765925049782L171.2142857142857,289.23996698856354L171.2142857142857,129.44300186634067L171.2142857142857,167.52007913589478L171.2142857142857,388.68470799922943L171.2142857142857,143.10102474689486L171.2142857142857,174.53903567790988L171.2142857142857,153.34829699993134L171.2142857142857,0.6297440528869629L171.2142857142857,114.53910183906555L171.2142857142857,176.56888228654864L171.2142857142857,109.99331188201904L171.2142857142857,345.24704825878143L171.2142857142857,149.0237445831299L171.2142857142857,59.44025230407715L171.2142857142857,82.73703467845917L171.2142857142857,46.13927614688879L171.2142857142857,205.37629437446597L199.75,161.07152116298678L199.75,-35.43172466754913L199.75,256.03721898794174L199.75,182.65313369035724L199.75,174.4812698364258L199.75,341.9660360813141L199.75,205.31818431615832L199.75,-115.3375922441482L199.75,333.4265486598015L199.75,127.29258549213412L199.75,250.9064794778824L199.75,192.24116814136508L199.75,139.8168833255768L199.75,343.6592386364937L199.75,291.0416917204857L199.75,283.5965321660042L199.75,-1.2821613550186157L199.75,297.9641423821449L199.75,279.33919590711594L199.75,14.413437366485653L199.75,145.41741621494296L199.75,177.38405030965808L199.75,138.4348840713501L199.75,118.94351255893707L199.75,242.19935846328735L199.75,140.34172010421756L199.75,292.5454811453819L199.75,92.16776204109192L199.75,178.82084262371063L199.75,21.194946885108948L199.75,29.407835125923157L199.75,-281.4417986869812L199.75,-54.59483850002289L199.75,223.84881538152698L199.75,391.50550228357315L199.75,54.57603049278259L199.75,43.691206097602844L228.28571428571428,243.97382748126986L228.28571428571428,61.65463042259216L228.28571428571428,-20.2527015209198L228.28571428571428,195.20493757724765L228.28571428571428,46.03131723403931L228.28571428571428,179.43451863527298L228.28571428571428,207.31113713979724L228.28571428571428,-33.66733181476593L228.28571428571428,262.997377038002L228.28571428571428,234.5299572944641L228.28571428571428,215.85034292936328L228.28571428571428,215.07375848293307L228.28571428571428,278.65104389190674L228.28571428571428,38.45122468471527L228.28571428571428,57.071852803230286L228.28571428571428,235.3783578872681L228.28571428571428,39.88854897022247L228.28571428571428,155.77849906682968L228.28571428571428,213.54715687036517L228.28571428571428,306.98953878879547L228.28571428571428,268.1714878678322L228.28571428571428,228.9887548685074L228.28571428571428,385.41599375009537L228.28571428571428,82.00698208808899L228.28571428571428,-8.706417560577393L228.28571428571428,298.6787678003311L228.28571428571428,95.5444039106369L228.28571428571428,309.65452802181244L228.28571428571428,171.66110140085223L228.28571428571428,234.57871091365817L228.28571428571428,-26.191818594932556L228.28571428571428,243.18112742900848L228.28571428571428,408.604879796505L228.28571428571428,118.5162456035614L228.28571428571428,199.95497328042987L228.28571428571428,93.99536561965948L228.28571428571428,220.78225028514865L228.28571428571428,-29.822617650032043L256.8214285714286,193.15916311740878L256.8214285714286,-32.07955348491669L256.8214285714286,-287.07644033432007L256.8214285714286,40.29453706741333L256.8214285714286,319.4825128912926L256.8214285714286,197.87264925241473L256.8214285714286,248.2328535318375L256.8214285714286,76.89079356193542L256.8214285714286,176.738362133503L256.8214285714286,314.5369307398796L256.8214285714286,298.57240480184555L256.8214285714286,36.92465436458588L256.8214285714286,340.21782141923904L256.8214285714286,317.07358968257904L256.8214285714286,283.45984679460526L256.8214285714286,246.2757618427277L256.8214285714286,290.3142051100731L256.8214285714286,177.38379997015002L256.8214285714286,128.16914927959445L256.8214285714286,274.31963843107224L256.8214285714286,339.8835555911064L256.8214285714286,-196.2301104068756L256.8214285714286,212.5016139149666L256.8214285714286,284.43917495012283L256.8214285714286,93.15072011947632L256.8214285714286,61.514440298080444L256.8214285714286,190.90432387590408L256.8214285714286,228.93799853324893L256.8214285714286,143.20648026466372L256.8214285714286,186.80107158422473L256.8214285714286,192.8356618881226L256.8214285714286,195.8218680024147L256.8214285714286,145.07470142841342L256.8214285714286,85.93493413925171L256.8214285714286,263.963030397892L256.8214285714286,274.18483060598373L256.8214285714286,272.7632777094841L256.8214285714286,210.51767331361773L256.8214285714286,-20.01149940490717L256.8214285714286,207.16619056463244L256.8214285714286,267.0125724077225L285.3571428571429,36.69740867614746L285.3571428571429,103.46965205669403L285.3571428571429,206.72158759832382L285.3571428571429,293.975514292717L285.3571428571429,247.41424334049228L285.3571428571429,197.5785629153252L285.3571428571429,112.83385169506073L285.3571428571429,207.49422919750216L285.3571428571429,214.10619628429416L285.3571428571429,116.69452500343323L285.3571428571429,210.59587311744693L285.3571428571429,81.38200950622559L285.3571428571429,-102.55732226371765L285.3571428571429,247.42068958282474L285.3571428571429,150.2435551285744L285.3571428571429,-18.205550193786564L285.3571428571429,285.22908997535706L285.3571428571429,276.4008672237396L285.3571428571429,264.6183879375458L285.3571428571429,29.24780559539795L285.3571428571429,185.56195360422137L285.3571428571429,255.7983325123787L285.3571428571429,264.3551559448242L285.3571428571429,373.5495255589485L285.3571428571429,36.78934586048126L285.3571428571429,288.4698287844658L285.3571428571429,176.73229140043262L285.3571428571429,20.66015911102295L285.3571428571429,403.37876093387604L285.3571428571429,265.3843955397606L285.3571428571429,38.38169288635254L285.3571428571429,40.120989203453064L285.3571428571429,195.40204864740375L285.3571428571429,170.3142748475075L285.3571428571429,199.80326753854754L285.3571428571429,317.79484909772873L313.8928571428571,342.1499104499817L313.8928571428571,55.43863785266876L313.8928571428571,322.10028183460236L313.8928571428571,-11.61918032169342L313.8928571428571,277.275459587574L313.8928571428571,119.60134220123297L313.8928571428571,225.91580611467364L313.8928571428571,297.13558119535446L313.8928571428571,329.0438861846924L313.8928571428571,206.15619581937793L313.8928571428571,223.27197057008746L313.8928571428571,216.49643790721896L313.8928571428571,238.37611091136935L313.8928571428571,217.11120915412906L313.8928571428571,286.2855226993561L313.8928571428571,202.2177608013153L313.8928571428571,154.37362504005435L313.8928571428571,184.3254954814911L313.8928571428571,264.2149032354355L313.8928571428571,94.70301282405853L313.8928571428571,235.38104903697968L313.8928571428571,214.51500070095065L313.8928571428571,357.375340282917L313.8928571428571,302.06173074245453L313.8928571428571,275.670971095562L313.8928571428571,263.73290580511093L313.8928571428571,279.57698714733124L313.8928571428571,91.96717751026154L313.8928571428571,192.23653686046603L313.8928571428571,177.95632642507556L313.8928571428571,324.8527021408081L313.8928571428571,33.11861765384674L313.8928571428571,153.48254156112674L313.8928571428571,269.2721368074417L313.8928571428571,135.6790841817856L313.8928571428571,-92.59287106990814L313.8928571428571,16.939675927162227L313.8928571428571,132.61542928218844L313.8928571428571,238.97382777929306L342.4285714285714,-57.32341396808624L342.4285714285714,216.7798848152161L342.4285714285714,184.29611188173294L342.4285714285714,335.8450160622597L342.4285714285714,237.15636295080188L342.4285714285714,228.87100142240527L342.4285714285714,72.92022120952612L342.4285714285714,104.9726904630661L342.4285714285714,215.66286993026733L342.4285714285714,155.8452145457268L342.4285714285714,205.34268629550937L342.4285714285714,-34.08959197998041L342.4285714285714,220.88692349195483L342.4285714285714,249.58080661296847L342.4285714285714,107.1900726556778L342.4285714285714,60.202160596847534L342.4285714285714,335.3620172739029L342.4285714285714,308.6302013397217L342.4285714285714,162.8983737230301L342.4285714285714,113.73713922500616L342.4285714285714,282.5866625905037L342.4285714285714,44.673600912094116L342.4285714285714,287.7959148287773L342.4285714285714,20.725873231887817L342.4285714285714,336.776748418808L342.4285714285714,-38.956066846847534L342.4285714285714,270.0557933449745L342.4285714285714,266.02332454919815L342.4285714285714,331.5283806324005L342.4285714285714,311.5849272608757L342.4285714285714,143.59607112407684L342.4285714285714,294.2130551934242L342.4285714285714,352.3838834166527L342.4285714285714,273.10242515802383L342.4285714285714,314.5144001841545L342.4285714285714,345.32089841365814L342.4285714285714,353.3558578491211L342.4285714285714,29.472234964370728L342.4285714285714,277.1595211029053L370.9642857142857,133.49831414222717L370.9642857142857,193.84377908706668L370.9642857142857,-32.411691427230835L370.9642857142857,250.9607718586922L370.9642857142857,348.32597386837006L370.9642857142857,173.4007732272148L370.9642857142857,408.55790984630585L370.9642857142857,157.14510244131088L370.9642857142857,280.3033472299576L370.9642857142857,264.3806592822075L370.9642857142857,281.5719113945961L370.9642857142857,53.10309541225433L370.9642857142857,86.60021138191229L370.9642857142857,338.12998992204666L370.9642857142857,-146.56644451618195L370.9642857142857,270.48196506500244L370.9642857142857,313.39319211244583L370.9642857142857,170.80068451166153L370.9642857142857,420.81201311945915L370.9642857142857,400.47632467746735L370.9642857142857,224.7827695012093L370.9642857142857,110.92532587051397L370.9642857142857,312.04483222961426L370.9642857142857,99.06567943096161L370.9642857142857,-74.89292907714844L370.9642857142857,128.0121864080429L370.9642857142857,326.2633652687073L370.9642857142857,80.86793732643133L370.9642857142857,133.0803723335266L370.9642857142857,101.55812215805054L370.9642857142857,220.4823748469353L370.9642857142857,158.51956021785736L370.9642857142857,374.41911113262177L370.9642857142857,-48.74208855628967L370.9642857142857,333.3077312707901L399.5,-4.679331064224186L399.5,211.96920436620715L399.5,117.00613510608673L399.5,271.91393834352493L399.5,64.2226756811142L399.5,103.76067173480993L399.5,76.66692745685577L399.5,264.7811399102211L399.5,338.5863901376724L399.5,208.67273372411728L399.5,64.25428104400635L399.5,335.1305158138275L399.5,315.69872510433197L399.5,381.637776017189L399.5,347.9137585759163L399.5,247.34521222114566L399.5,115.43512952327728L399.5,228.72905892133716L399.5,104.66020417213446L399.5,215.52803081274035L399.5,129.21594393253326L399.5,87.88282585144049L399.5,264.11007356643677L399.5,237.4742002487183L399.5,375.043270111084L399.5,277.76984882354736L399.5,127.47883808612823L399.5,401.022878408432L399.5,-85.69833326339722L399.5,164.09146052598956L399.5,191.22723054885867L399.5,42.965033769607544L399.5,199.28897631168368L399.5,268.40646278858185L399.5,362.8280476927757L399.5,185.85794878005984L399.5,293.0172772407532L399.5,188.9751450419426L399.5,342.8836242556572L399.5,194.48552441596985L428.0357142857143,99.93504595756531L428.0357142857143,324.1857038140297L428.0357142857143,288.88645631074905L428.0357142857143,43.902742981910706L428.0357142857143,112.53651094436646L428.0357142857143,283.78416162729263L428.0357142857143,406.6112698316574L428.0357142857143,345.7988591194153L428.0357142857143,31.422191977500916L428.0357142857143,43.58587574958801L428.0357142857143,238.4320304989815L428.0357142857143,431.01162698864937L428.0357142857143,193.97085767984393L428.0357142857143,306.2966616153717L428.0357142857143,97.75202286243439L428.0357142857143,292.46070992946625L428.0357142857143,162.2441740036011L428.0357142857143,335.84445279836655L428.0357142857143,157.01464426517487L428.0357142857143,226.95014637708667L428.0357142857143,308.8491545319557L428.0357142857143,-70.12239682674408L428.0357142857143,112.1119977235794L428.0357142857143,235.35532665252688L428.0357142857143,195.604291677475L428.0357142857143,192.5922067165375L428.0357142857143,327.0120994448662L428.0357142857143,303.6067636013031L428.0357142857143,-8.967709422111511L428.0357142857143,283.6151198744774L428.0357142857143,372.1668378710747L428.0357142857143,146.5495140552521L428.0357142857143,262.9960314631462L428.0357142857143,167.4118385910988L428.0357142857143,39.4604058265686L428.0357142857143,147.6301984190941L428.0357142857143,198.40318125486377L428.0357142857143,406.719666838646L456.57142857142856,327.3573176264763L456.57142857142856,315.49923580884933L456.57142857142856,183.64209991693497L456.57142857142856,321.897725880146L456.57142857142856,413.50765389204025L456.57142857142856,311.2446532845497L456.57142857142856,218.21530026197433L456.57142857142856,106.7713172435761L456.57142857142856,271.18648302555084L456.57142857142856,268.431340277195L456.57142857142856,70.33728075027466L456.57142857142856,219.6350694894791L456.57142857142856,422.1170329749584L456.57142857142856,151.33675646781924L456.57142857142856,38.301584243774414L456.57142857142856,106.21719074249268L456.57142857142856,205.4930777549744L456.57142857142856,62.40377140045166L456.57142857142856,151.28249537944797L456.57142857142856,158.59006208181384L456.57142857142856,76.04708683490753L456.57142857142856,323.4449179172516L456.57142857142856,340.61611157655716L456.57142857142856,352.6809738278389L456.57142857142856,186.62123394012454L456.57142857142856,201.43873554468155L456.57142857142856,289.48407930135727L456.57142857142856,291.39695477485657L456.57142857142856,183.7346316576004L456.57142857142856,-25.337785363197327L456.57142857142856,152.15902787446976L456.57142857142856,-97.37986314296722L456.57142857142856,253.38793855905536L456.57142857142856,203.67070001363754L456.57142857142856,252.41643351316452L456.57142857142856,301.3606862425804L456.57142857142856,251.34278994798663L485.10714285714283,226.80908006429675L485.10714285714283,136.77100253105164L485.10714285714283,311.6082401275635L485.10714285714283,274.7088850736618L485.10714285714283,96.10428822040558L485.10714285714283,206.21630859375003L485.10714285714283,150.82941216230395L485.10714285714283,185.0219399929047L485.10714285714283,203.25282078981402L485.10714285714283,215.72554868459704L485.10714285714283,248.1948645114899L485.10714285714283,105.6038589477539L485.10714285714283,173.98822617530826L485.10714285714283,245.4577462077141L485.10714285714283,188.22662991285327L485.10714285714283,245.2517793774605L485.10714285714283,204.92446285486224L485.10714285714283,233.13954037427902L485.10714285714283,285.7313649058342L485.10714285714283,355.45148116350174L485.10714285714283,359.1634840965271L485.10714285714283,243.32188081741336L485.10714285714283,121.81753528118134L485.10714285714283,131.04968082904819L485.10714285714283,201.46477085351947L485.10714285714283,252.80762028694153L485.10714285714283,217.97134441137317L485.10714285714283,266.552980363369L485.10714285714283,246.4591668248177L485.10714285714283,299.0035833120346L485.10714285714283,440.3696776628495L485.10714285714283,172.93398392200473L485.10714285714283,318.09954357147217L485.10714285714283,311.96422290802L485.10714285714283,223.77840739488605L485.10714285714283,54.78331160545349L485.10714285714283,71.7778594493866L513.6428571428572,212.37891626358035L513.6428571428572,84.82474100589752L513.6428571428572,142.68064212799072L513.6428571428572,265.185219168663L513.6428571428572,261.39141780138016L513.6428571428572,96.55008029937744L513.6428571428572,238.34522527456284L513.6428571428572,253.81260824203494L513.6428571428572,201.8724800348282L513.6428571428572,137.79545438289642L513.6428571428572,340.92105638980865L513.6428571428572,304.26913064718246L513.6428571428572,340.28510016202927L513.6428571428572,426.56760004162794L513.6428571428572,201.9837872385979L513.6428571428572,399.5028482079506L513.6428571428572,171.0417927503586L513.6428571428572,256.6072420477867L513.6428571428572,314.9758071899414L513.6428571428572,178.16091638803482L513.6428571428572,262.90819358825684L513.6428571428572,258.16238236427307L513.6428571428572,94.43640124797827L513.6428571428572,265.8998445868492L513.6428571428572,233.1596301198006L513.6428571428572,190.11412721872333L513.6428571428572,348.0384902358055L513.6428571428572,231.90411490201953L513.6428571428572,336.6574303507805L513.6428571428572,185.99644911289218L513.6428571428572,184.2233882546425L513.6428571428572,6.904754161834717L513.6428571428572,129.60860145092013L513.6428571428572,113.56233966350555L513.6428571428572,120.23476374149323L513.6428571428572,269.9863554239273L513.6428571428572,74.23588049411774L513.6428571428572,293.6772973537445L513.6428571428572,296.74880665540695L513.6428571428572,153.78736120462418L542.1785714285714,345.4046056866646L542.1785714285714,50.15566062927246L542.1785714285714,105.61393511295319L542.1785714285714,212.00900834798816L542.1785714285714,211.44029957056048L542.1785714285714,226.76389378309253L542.1785714285714,324.17838138341904L542.1785714285714,287.94201922416687L542.1785714285714,130.6254179477692L542.1785714285714,256.4166710972786L542.1785714285714,297.4190906882286L542.1785714285714,218.3365271687508L542.1785714285714,224.20335870981216L542.1785714285714,277.8465778827667L542.1785714285714,308.7174446582794L542.1785714285714,115.0681318044663L542.1785714285714,334.2261956334114L542.1785714285714,227.6132644414902L542.1785714285714,269.68960922956467L542.1785714285714,234.33929246664047L542.1785714285714,222.772762298584L542.1785714285714,347.0378206372261L542.1785714285714,245.4077721834183L542.1785714285714,201.27204072475433L542.1785714285714,130.56896638870242L542.1785714285714,153.65590167045593L542.1785714285714,212.51275402307513L542.1785714285714,332.0701779127121L542.1785714285714,213.59165471792224L542.1785714285714,142.39168775081635L542.1785714285714,249.03935354948044L542.1785714285714,302.6414544582367L542.1785714285714,225.06239873170856L542.1785714285714,260.6764794588089L542.1785714285714,227.27505576610568L542.1785714285714,116.64608430862427L542.1785714285714,51.901278018951416L542.1785714285714,261.67467695474625L542.1785714285714,413.53342321515083L542.1785714285714,22.43550431728363L542.1785714285714,19.382301092147827L570.7142857142858,234.42578476667407L570.7142857142858,290.4891924262047L570.7142857142858,309.6131594181061L570.7142857142858,302.3161695599556L570.7142857142858,145.9254176616669L570.7142857142858,227.18224239349368L570.7142857142858,159.32280582189563L570.7142857142858,389.03712344169617L570.7142857142858,427.3837850689888L570.7142857142858,255.69006067514422L570.7142857142858,287.6279996037483L570.7142857142858,53.64595663547516L570.7142857142858,174.59567499160767L570.7142857142858,409.97331377863884L570.7142857142858,57.22850275039673L570.7142857142858,426.24217432737356L570.7142857142858,195.9813342690468L570.7142857142858,271.76955503225327L570.7142857142858,98.15194022655487L570.7142857142858,431.8373249173165L570.7142857142858,72.37022531032562L570.7142857142858,319.599296271801L570.7142857142858,104.67616331577301L570.7142857142858,150.53773534297943L570.7142857142858,303.44160211086273L570.7142857142858,302.8049574494362L570.7142857142858,217.26882916688922L570.7142857142858,294.8211611509323L570.7142857142858,51.72891926765442L570.7142857142858,207.9872728586197L570.7142857142858,283.48272156715393L570.7142857142858,236.23692852258682L570.7142857142858,236.68459814786914L570.7142857142858,258.8224963545799L570.7142857142858,168.28370851278308L570.7142857142858,202.26642054319385L570.7142857142858,260.8356015086174L570.7142857142858,27.32357096672058L570.7142857142858,351.8063188791275L570.7142857142858,24.341777086257935L570.7142857142858,248.19477063417438L599.25,462.78014865517616L599.25,245.16497415304187L599.25,240.9623057842255L599.25,275.9552628993988L599.25,186.00602459907535L599.25,333.11869364976883L599.25,140.03242564201358L599.25,223.96972936391833L599.25,360.3550062775612L599.25,167.66136449575427L599.25,346.434033036232L599.25,136.45526182651523L599.25,304.7912762761116L599.25,339.12749898433685L599.25,133.71729862689975L599.25,229.95603543519977L599.25,351.892373085022L599.25,266.9141263961792L599.25,153.59585148096085L599.25,444.5757881999016L599.25,443.5697519481182L599.25,92.33311128616339L599.25,165.07701587677005L599.25,-61.965709805488586L599.25,186.12640661001208L599.25,223.7220184206963L599.25,305.9694991707802L599.25,135.15825283527374L599.25,180.74523371458054L599.25,279.29995518922806L599.25,123.28239691257477L599.25,279.5777068734169L599.25,34.6339852809906L599.25,245.83760511875155L599.25,243.91409021615985L599.25,120.94816875457764L599.25,279.9829752445221L627.7857142857142,343.06681019067764L627.7857142857142,288.24643206596375L627.7857142857142,181.16924625635147L627.7857142857142,151.44947183132172L627.7857142857142,136.15798366069794L627.7857142857142,275.6382392048836L627.7857142857142,109.72144317626953L627.7857142857142,186.28008377552032L627.7857142857142,381.1089650988579L627.7857142857142,144.33807742595675L627.7857142857142,230.57753455638885L627.7857142857142,320.26300889253616L627.7857142857142,389.4633577466011L627.7857142857142,301.03774827718735L627.7857142857142,316.94945257902145L627.7857142857142,191.67884302139285L627.7857142857142,267.4320475459099L627.7857142857142,263.0030096769333L627.7857142857142,145.78309965133667L627.7857142857142,266.9100270867348L627.7857142857142,308.4898547530174L627.7857142857142,287.47964215278625L627.7857142857142,270.85910153388977L627.7857142857142,-72.05952394008636L627.7857142857142,419.67306223511696L627.7857142857142,359.0445415377617L627.7857142857142,253.4986824989319L627.7857142857142,211.7448688745499L627.7857142857142,184.6710265874863L627.7857142857142,322.381475687027L627.7857142857142,255.25215429067612L627.7857142857142,197.9847700595856L627.7857142857142,151.23924922943118L627.7857142857142,154.4446901679039L627.7857142857142,294.76924699544907L627.7857142857142,257.0297525525093L627.7857142857142,170.11390936374664L627.7857142857142,238.49158000946048L627.7857142857142,139.1976059675217L627.7857142857142,-1.132646083831787L656.3214285714286,301.28395718336105L656.3214285714286,69.49732911586767L656.3214285714286,207.07459759712222L656.3214285714286,275.80962789058685L656.3214285714286,302.5663838982582L656.3214285714286,338.4069592952728L656.3214285714286,249.08970308303836L656.3214285714286,226.65599745512012L656.3214285714286,278.3866540789604L656.3214285714286,275.4933865070343L656.3214285714286,112.63695967197418L656.3214285714286,423.983642578125L656.3214285714286,224.93118953704837L656.3214285714286,360.56209963560104L656.3214285714286,236.7494986653328L656.3214285714286,303.3684403896332L656.3214285714286,101.2724221944809L656.3214285714286,315.17316859960556L656.3214285714286,199.66251415014267L656.3214285714286,174.3684918880463L656.3214285714286,-8.719685554504395L656.3214285714286,133.19058430194858L656.3214285714286,260.10792714357376L656.3214285714286,325.09418588876724L656.3214285714286,328.2449589371681L656.3214285714286,310.2429510354996L656.3214285714286,251.05962467193606L656.3214285714286,205.88855159282684L656.3214285714286,240.51382255554202L656.3214285714286,409.30964809656143L656.3214285714286,292.7153990864754L656.3214285714286,-10.07220733165741L656.3214285714286,241.59738582372668L656.3214285714286,104.9034715890885L656.3214285714286,260.6313244700432L656.3214285714286,166.39699351787567L656.3214285714286,389.712539434433L656.3214285714286,75.10831367969513L684.8571428571428,381.0307340025902L684.8571428571428,71.66332912445068L684.8571428571428,386.5338535308838L684.8571428571428,219.3581314086914L684.8571428571428,353.56523555517197L684.8571428571428,323.8838256597519L684.8571428571428,131.4612389802933L684.8571428571428,164.5037384033203L684.8571428571428,268.9826191663742L684.8571428571428,162.27850180864334L684.8571428571428,237.24585932493213L684.8571428571428,266.4315031170845L684.8571428571428,301.3119326233864L684.8571428571428,287.96498787403107L684.8571428571428,297.13996213674545L684.8571428571428,361.5876780152321L684.8571428571428,301.8277571797371L684.8571428571428,152.2736520767212L684.8571428571428,111.0167623758316L684.8571428571428,270.26413840055466L684.8571428571428,204.0318773388863L684.8571428571428,347.79691261053085L684.8571428571428,202.63585907220843L684.8571428571428,220.52624684572223L684.8571428571428,318.41553461551666L684.8571428571428,205.1226691603661L684.8571428571428,244.12853729724884L684.8571428571428,17.671355724334774L684.8571428571428,335.3107602596283L684.8571428571428,210.91583830118182L684.8571428571428,361.45180624723434L684.8571428571428,70.12273979187012L684.8571428571428,280.4346503019333L684.8571428571428,172.01965016126633L684.8571428571428,468.9653181731701L684.8571428571428,45.5491007566452L684.8571428571428,212.8521831035614L713.3928571428572,284.77153193950653L713.3928571428572,438.6411928832531L713.3928571428572,202.3604230284691L713.3928571428572,337.7598942518234L713.3928571428572,236.27882909774783L713.3928571428572,210.16021978855136L713.3928571428572,261.26458954811096L713.3928571428572,340.1437209248543L713.3928571428572,247.09055435657504L713.3928571428572,273.60939395427704L713.3928571428572,273.38102173805237L713.3928571428572,366.8352634906769L713.3928571428572,295.3625516295433L713.3928571428572,201.65878397226336L713.3928571428572,266.3687617778778L713.3928571428572,288.96734726428986L713.3928571428572,125.15387248992923L713.3928571428572,322.08957982063293L713.3928571428572,193.72687053680423L713.3928571428572,239.03168749809268L713.3928571428572,366.7145998477936L713.3928571428572,50.55251133441925L713.3928571428572,218.21567577123645L713.3928571428572,286.00658190250397L713.3928571428572,324.24171727895737L713.3928571428572,345.0370759963989L713.3928571428572,227.1416873931885L713.3928571428572,325.19535434246063L713.3928571428572,126.73276376724246L713.3928571428572,177.9720352292061L713.3928571428572,98.04473233222961L713.3928571428572,213.1039933562279L713.3928571428572,251.69896048307422L713.3928571428572,70.36525619030004L713.3928571428572,269.2451314330101L713.3928571428572,290.1161239743233L713.3928571428572,185.51514011621478L713.3928571428572,374.1408900618553L713.3928571428572,108.13785803318024L713.3928571428572,221.26484227180484L741.9285714285714,290.37065666913986L741.9285714285714,281.765861928463L741.9285714285714,407.45394390821457L741.9285714285714,226.19246256351474L741.9285714285714,300.08933705091476L741.9285714285714,242.91745734214786L741.9285714285714,384.2281640768051L741.9285714285714,244.9304686188698L741.9285714285714,57.192328691482544L741.9285714285714,284.5251039862633L741.9285714285714,192.0423359870911L741.9285714285714,193.6432571411133L741.9285714285714,307.5425074696541L741.9285714285714,309.19265162944794L741.9285714285714,296.80485141277313L741.9285714285714,231.96091067790985L741.9285714285714,289.9319679737091L741.9285714285714,205.55287760496142L741.9285714285714,235.65313678979876L741.9285714285714,165.33693087100983L741.9285714285714,362.46793431043625L741.9285714285714,171.74509030580523L741.9285714285714,235.65395039319992L741.9285714285714,382.1985052227974L741.9285714285714,326.9406588077545L741.9285714285714,287.2827501296997L741.9285714285714,189.34164208173755L741.9285714285714,345.95832538604736L741.9285714285714,166.24760341644287L741.9285714285714,305.27590227127075L741.9285714285714,123.78952217102054L741.9285714285714,284.9937082529068L741.9285714285714,203.36309534311297L741.9285714285714,-4.948133111000004L741.9285714285714,336.9132773280144L741.9285714285714,-60.095298171043396L741.9285714285714,243.50541096925738" style="fill: none;" fill="none"></path></g></g></g></g></g></g><g transform="translate(60, 378)" clip-path="url(#clip_1)"><clipPath id="clip_1"><rect width="799" height="22"></rect></clipPath><g><g><line x1="0" y1="0" x2="0" y2="5" style="visibility: inherit;" fill="rgb(0, 0, 0)" stroke="rgb(204, 204, 204)" stroke-width="1px"></line><line x1="57.07142857142857" y1="0" x2="57.07142857142857" y2="5" style="visibility: inherit;" fill="rgb(0, 0, 0)" stroke="rgb(204, 204, 204)" stroke-width="1px"></line><line x1="114.14285714285714" y1="0" x2="114.14285714285714" y2="5" style="visibility: inherit;" fill="rgb(0, 0, 0)" stroke="rgb(204, 204, 204)" stroke-width="1px"></line><line x1="171.2142857142857" y1="0" x2="171.2142857142857" y2="5" style="visibility: inherit;" fill="rgb(0, 0, 0)" stroke="rgb(204, 204, 204)" stroke-width="1px"></line><line x1="228.28571428571428" y1="0" x2="228.28571428571428" y2="5" style="visibility: inherit;" fill="rgb(0, 0, 0)" stroke="rgb(204, 204, 204)" stroke-width="1px"></line><line x1="285.3571428571429" y1="0" x2="285.3571428571429" y2="5" style="visibility: inherit;" fill="rgb(0, 0, 0)" stroke="rgb(204, 204, 204)" stroke-width="1px"></line><line x1="342.4285714285714" y1="0" x2="342.4285714285714" y2="5" style="visibility: inherit;" fill="rgb(0, 0, 0)" stroke="rgb(204, 204, 204)" stroke-width="1px"></line><line x1="399.5" y1="0" x2="399.5" y2="5" style="visibility: inherit;" fill="rgb(0, 0, 0)" stroke="rgb(204, 204, 204)" stroke-width="1px"></line><line x1="456.57142857142856" y1="0" x2="456.57142857142856" y2="5" style="visibility: inherit;" fill="rgb(0, 0, 0)" stroke="rgb(204, 204, 204)" stroke-width="1px"></line><line x1="513.6428571428572" y1="0" x2="513.6428571428572" y2="5" style="visibility: inherit;" fill="rgb(0, 0, 0)" stroke="rgb(204, 204, 204)" stroke-width="1px"></line><line x1="570.7142857142858" y1="0" x2="570.7142857142858" y2="5" style="visibility: inherit;" fill="rgb(0, 0, 0)" stroke="rgb(204, 204, 204)" stroke-width="1px"></line><line x1="627.7857142857142" y1="0" x2="627.7857142857142" y2="5" style="visibility: inherit;" fill="rgb(0, 0, 0)" stroke="rgb(204, 204, 204)" stroke-width="1px"></line><line x1="684.8571428571428" y1="0" x2="684.8571428571428" y2="5" style="visibility: inherit;" fill="rgb(0, 0, 0)" stroke="rgb(204, 204, 204)" stroke-width="1px"></line><line x1="741.9285714285714" y1="0" x2="741.9285714285714" y2="5" style="visibility: inherit;" fill="rgb(0, 0, 0)" stroke="rgb(204, 204, 204)" stroke-width="1px"></line><line x1="799" y1="0" x2="799" y2="5" style="visibility: inherit;" fill="rgb(0, 0, 0)" stroke="rgb(204, 204, 204)" stroke-width="1px"></line></g><g transform="translate(0, 8)"><text x="0" y="0" dx="0em" dy="0.95em" style="text-anchor: middle; visibility: hidden; font-family: &quot;Helvetica Neue&quot;, sans-serif; font-size: 12px; font-weight: 200;" fill="rgb(50, 49, 63)" stroke="none" stroke-width="1px">-2</text><text x="57.07142857142857" y="0" dx="0em" dy="0.95em" style="text-anchor: middle; visibility: inherit; font-family: &quot;Helvetica Neue&quot;, sans-serif; font-size: 12px; font-weight: 200;" fill="rgb(50, 49, 63)" stroke="none" stroke-width="1px">0</text><text x="114.14285714285714" y="0" dx="0em" dy="0.95em" style="text-anchor: middle; visibility: inherit; font-family: &quot;Helvetica Neue&quot;, sans-serif; font-size: 12px; font-weight: 200;" fill="rgb(50, 49, 63)" stroke="none" stroke-width="1px">2</text><text x="171.2142857142857" y="0" dx="0em" dy="0.95em" style="text-anchor: middle; visibility: inherit; font-family: &quot;Helvetica Neue&quot;, sans-serif; font-size: 12px; font-weight: 200;" fill="rgb(50, 49, 63)" stroke="none" stroke-width="1px">4</text><text x="228.28571428571428" y="0" dx="0em" dy="0.95em" style="text-anchor: middle; visibility: inherit; font-family: &quot;Helvetica Neue&quot;, sans-serif; font-size: 12px; font-weight: 200;" fill="rgb(50, 49, 63)" stroke="none" stroke-width="1px">6</text><text x="285.3571428571429" y="0" dx="0em" dy="0.95em" style="text-anchor: middle; visibility: inherit; font-family: &quot;Helvetica Neue&quot;, sans-serif; font-size: 12px; font-weight: 200;" fill="rgb(50, 49, 63)" stroke="none" stroke-width="1px">8</text><text x="342.4285714285714" y="0" dx="0em" dy="0.95em" style="text-anchor: middle; visibility: inherit; font-family: &quot;Helvetica Neue&quot;, sans-serif; font-size: 12px; font-weight: 200;" fill="rgb(50, 49, 63)" stroke="none" stroke-width="1px">10</text><text x="399.5" y="0" dx="0em" dy="0.95em" style="text-anchor: middle; visibility: inherit; font-family: &quot;Helvetica Neue&quot;, sans-serif; font-size: 12px; font-weight: 200;" fill="rgb(50, 49, 63)" stroke="none" stroke-width="1px">12</text><text x="456.57142857142856" y="0" dx="0em" dy="0.95em" style="text-anchor: middle; visibility: inherit; font-family: &quot;Helvetica Neue&quot;, sans-serif; font-size: 12px; font-weight: 200;" fill="rgb(50, 49, 63)" stroke="none" stroke-width="1px">14</text><text x="513.6428571428572" y="0" dx="0em" dy="0.95em" style="text-anchor: middle; visibility: inherit; font-family: &quot;Helvetica Neue&quot;, sans-serif; font-size: 12px; font-weight: 200;" fill="rgb(50, 49, 63)" stroke="none" stroke-width="1px">16</text><text x="570.7142857142858" y="0" dx="0em" dy="0.95em" style="text-anchor: middle; visibility: inherit; font-family: &quot;Helvetica Neue&quot;, sans-serif; font-size: 12px; font-weight: 200;" fill="rgb(50, 49, 63)" stroke="none" stroke-width="1px">18</text><text x="627.7857142857142" y="0" dx="0em" dy="0.95em" style="text-anchor: middle; visibility: inherit; font-family: &quot;Helvetica Neue&quot;, sans-serif; font-size: 12px; font-weight: 200;" fill="rgb(50, 49, 63)" stroke="none" stroke-width="1px">20</text><text x="684.8571428571428" y="0" dx="0em" dy="0.95em" style="text-anchor: middle; visibility: inherit; font-family: &quot;Helvetica Neue&quot;, sans-serif; font-size: 12px; font-weight: 200;" fill="rgb(50, 49, 63)" stroke="none" stroke-width="1px">22</text><text x="741.9285714285714" y="0" dx="0em" dy="0.95em" style="text-anchor: middle; visibility: inherit; font-family: &quot;Helvetica Neue&quot;, sans-serif; font-size: 12px; font-weight: 200;" fill="rgb(50, 49, 63)" stroke="none" stroke-width="1px">24</text><text x="799" y="0" dx="0em" dy="0.95em" style="text-anchor: middle; visibility: hidden; font-family: &quot;Helvetica Neue&quot;, sans-serif; font-size: 12px; font-weight: 200;" fill="rgb(50, 49, 63)" stroke="none" stroke-width="1px">26</text></g><line x1="0" y1="0" x2="799" y2="0" fill="rgb(0, 0, 0)" stroke="rgb(204, 204, 204)" stroke-width="1px"></line></g></g></g></g></svg>