<svg viewBox="0 0 330 200" xmlns="http://www.w3.org/2000/svg"><g><g><g><g><g><line x1="50" y1="178" x2="45" y2="178" style="visibility: inherit;" fill="rgb(0, 0, 0)" stroke="rgb(204, 204, 204)" stroke-width="1px"></line><line x1="50" y1="163.16666666666666" x2="45" y2="163.16666666666666" style="visibility: inherit;" fill="rgb(0, 0, 0)" stroke="rgb(204, 204, 204)" stroke-width="1px"></line><line x1="50" y1="148.33333333333334" x2="45" y2="148.33333333333334" style="visibility: inherit;" fill="rgb(0, 0, 0)" stroke="rgb(204, 204, 204)" stroke-width="1px"></line><line x1="50" y1="133.5" x2="45" y2="133.5" style="visibility: inherit;" fill="rgb(0, 0, 0)" stroke="rgb(204, 204, 204)" stroke-width="1px"></line><line x1="50" y1="118.66666666666667" x2="45" y2="118.66666666666667" style="visibility: inherit;" fill="rgb(0, 0, 0)" stroke="rgb(204, 204, 204)" stroke-width="1px"></line><line x1="50" y1="103.83333333333334" x2="45" y2="103.83333333333334" style="visibility: inherit;" fill="rgb(0, 0, 0)" stroke="rgb(204, 204, 204)" stroke-width="1px"></line><line x1="50" y1="89.00000000000001" x2="45" y2="89.00000000000001" style="visibility: inherit;" fill="rgb(0, 0, 0)" stroke="rgb(204, 204, 204)" stroke-width="1px"></line><line x1="50" y1="74.16666666666669" x2="45" y2="74.16666666666669" style="visibility: inherit;" fill="rgb(0, 0, 0)" stroke="rgb(204, 204, 204)" stroke-width="1px"></line><line x1="50" y1="59.33333333333336" x2="45" y2="59.33333333333336" style="visibility: inherit;" fill="rgb(0, 0, 0)" stroke="rgb(204, 204, 204)" stroke-width="1px"></line><line x1="50" y1="44.50000000000003" x2="45" y2="44.50000000000003" style="visibility: inherit;" fill="rgb(0, 0, 0)" stroke="rgb(204, 204, 204)" stroke-width="1px"></line><line x1="50" y1="29.666666666666686" x2="45" y2="29.666666666666686" style="visibility: inherit;" fill="rgb(0, 0, 0)" stroke="rgb(204, 204, 204)" stroke-width="1px"></line><line x1="50" y1="14.833333333333343" x2="45" y2="14.833333333333343" style="visibility: inherit;" fill="rgb(0, 0, 0)" stroke="rgb(204, 204, 204)" stroke-width="1px"></line><line x1="50" y1="0" x2="45" y2="0" style="visibility: inherit;" fill="rgb(0, 0, 0)" stroke="rgb(204, 204, 204)" stroke-width="1px"></line></g><g transform="translate(40, 0)"><text x="0" y="178" dx="0em" dy="0.3em" style="text-anchor: end; visibility: hidden; font-family: &quot;Helvetica Neue&quot;, sans-serif; font-size: 12px; font-weight: 200;" fill="rgb(50, 49, 63)" stroke="none" stroke-width="1px">-0.1</text><text x="0" y="163.16666666666666" dx="0em" dy="0.3em" style="text-anchor: end; visibility: inherit; font-family: &quot;Helvetica Neue&quot;, sans-serif; font-size: 12px; font-weight: 200;" fill="rgb(50, 49, 63)" stroke="none" stroke-width="1px">0</text><text x="0" y="148.33333333333334" dx="0em" dy="0.3em" style="text-anchor: end; visibility: hidden; font-family: &quot;Helvetica Neue&quot;, sans-serif; font-size: 12px; font-weight: 200;" fill="rgb(50, 49, 63)" stroke="none" stroke-width="1px">0.1</text><text x="0" y="133.5" dx="0em" dy="0.3em" style="text-anchor: end; visibility: inherit; font-family: &quot;Helvetica Neue&quot;, sans-serif; font-size: 12px; font-weight: 200;" fill="rgb(50, 49, 63)" stroke="none" stroke-width="1px">0.2</text><text x="0" y="118.66666666666667" dx="0em" dy="0.3em" style="text-anchor: end; visibility: hidden; font-family: &quot;Helvetica Neue&quot;, sans-serif; font-size: 12px; font-weight: 200;" fill="rgb(50, 49, 63)" stroke="none" stroke-width="1px">0.3</text><text x="0" y="103.83333333333334" dx="0em" dy="0.3em" style="text-anchor: end; visibility: inherit; font-family: &quot;Helvetica Neue&quot;, sans-serif; font-size: 12px; font-weight: 200;" fill="rgb(50, 49, 63)" stroke="none" stroke-width="1px">0.4</text><text x="0" y="89.00000000000001" dx="0em" dy="0.3em" style="text-anchor: end; visibility: hidden; font-family: &quot;Helvetica Neue&quot;, sans-serif; font-size: 12px; font-weight: 200;" fill="rgb(50, 49, 63)" stroke="none" stroke-width="1px">0.5</text><text x="0" y="74.16666666666669" dx="0em" dy="0.3em" style="text-anchor: end; visibility: inherit; font-family: &quot;Helvetica Neue&quot;, sans-serif; font-size: 12px; font-weight: 200;" fill="rgb(50, 49, 63)" stroke="none" stroke-width="1px">0.6</text><text x="0" y="59.33333333333336" dx="0em" dy="0.3em" style="text-anchor: end; visibility: hidden; font-family: &quot;Helvetica Neue&quot;, sans-serif; font-size: 12px; font-weight: 200;" fill="rgb(50, 49, 63)" stroke="none" stroke-width="1px">0.7</text><text x="0" y="44.50000000000003" dx="0em" dy="0.3em" style="text-anchor: end; visibility: inherit; font-family: &quot;Helvetica Neue&quot;, sans-serif; font-size: 12px; font-weight: 200;" fill="rgb(50, 49, 63)" stroke="none" stroke-width="1px">0.8</text><text x="0" y="29.666666666666686" dx="0em" dy="0.3em" style="text-anchor: end; visibility: hidden; font-family: &quot;Helvetica Neue&quot;, sans-serif; font-size: 12px; font-weight: 200;" fill="rgb(50, 49, 63)" stroke="none" stroke-width="1px">0.9</text><text x="0" y="14.833333333333343" dx="0em" dy="0.3em" style="text-anchor: end; visibility: inherit; font-family: &quot;Helvetica Neue&quot;, sans-serif; font-size: 12px; font-weight: 200;" fill="rgb(50, 49, 63)" stroke="none" stroke-width="1px">1</text><text x="0" y="0" dx="0em" dy="0.3em" style="text-anchor: end; visibility: hidden; font-family: &quot;Helvetica Neue&quot;, sans-serif; font-size: 12px; font-weight: 200;" fill="rgb(50, 49, 63)" stroke="none" stroke-width="1px">1.1</text></g><line x1="50" y1="0" x2="50" y2="178" fill="rgb(0, 0, 0)" stroke="rgb(204, 204, 204)" stroke-width="1px"></line></g></g><g transform="translate(50, 0)" clip-path="url(#clip_0)"><clipPath id="clip_0"><rect width="280" height="178"></rect></clipPath><g><g><g><line x1="0" y1="0" x2="0" y2="178" fill="rgb(0, 0, 0)" stroke="rgb(60, 60, 60)" stroke-width="1px" opacity="0.25"></line><line x1="20" y1="0" x2="20" y2="178" fill="rgb(0, 0, 0)" stroke="rgb(60, 60, 60)" stroke-width="1px" opacity="0.25"></line><line x1="40" y1="0" x2="40" y2="178" fill="rgb(0, 0, 0)" stroke="rgb(60, 60, 60)" stroke-width="1px" opacity="0.25"></line><line x1="60" y1="0" x2="60" y2="178" fill="rgb(0, 0, 0)" stroke="rgb(60, 60, 60)" stroke-width="1px" opacity="0.25"></line><line x1="80" y1="0" x2="80" y2="178" fill="rgb(0, 0, 0)" stroke="rgb(60, 60, 60)" stroke-width="1px" opacity="0.25"></line><line x1="100" y1="0" x2="100" y2="178" fill="rgb(0, 0, 0)" stroke="rgb(60, 60, 60)" stroke-width="1px" opacity="0.25"></line><line x1="120" y1="0" x2="120" y2="178" fill="rgb(0, 0, 0)" stroke="rgb(60, 60, 60)" stroke-width="1px" opacity="0.25"></line><line x1="140" y1="0" x2="140" y2="178" fill="rgb(0, 0, 0)" stroke="rgb(60, 60, 60)" stroke-width="1px" opacity="0.25"></line><line x1="160" y1="0" x2="160" y2="178" fill="rgb(0, 0, 0)" stroke="rgb(60, 60, 60)" stroke-width="1px" opacity="0.25"></line><line x1="180" y1="0" x2="180" y2="178" fill="rgb(0, 0, 0)" stroke="rgb(60, 60, 60)" stroke-width="1px" opacity="0.25"></line><line x1="200" y1="0" x2="200" y2="178" fill="rgb(0, 0, 0)" stroke="rgb(60, 60, 60)" stroke-width="1px" opacity="0.25"></line><line x1="220" y1="0" x2="220" y2="178" fill="rgb(0, 0, 0)" stroke="rgb(60, 60, 60)" stroke-width="1px" opacity="0.25"></line><line x1="240" y1="0" x2="240" y2="178" fill="rgb(0, 0, 0)" stroke="rgb(60, 60, 60)" stroke-width="1px" opacity="0.25"></line><line x1="260" y1="0" x2="260" y2="178" fill="rgb(0, 0, 0)" stroke="rgb(60, 60, 60)" stroke-width="1px" opacity="0.25"></line><line x1="280" y1="0" x2="280" y2="178" fill="rgb(0, 0, 0)" stroke="rgb(60, 60, 60)" stroke-width="1px" opacity="0.25"></line></g><g><line x1="0" y1="178" x2="280" y2="178" fill="rgb(0, 0, 0)" stroke="rgb(60, 60, 60)" stroke-width="1px" opacity="0.25"></line><line x1="0" y1="163.16666666666666" x2="280" y2="163.16666666666666" fill="rgb(0, 0, 0)" stroke="rgb(60, 60, 60)" stroke-width="1px" opacity="0.25"></line><line x1="0" y1="148.33333333333334" x2="280" y2="148.33333333333334" fill="rgb(0, 0, 0)" stroke="rgb(60, 60, 60)" stroke-width="1px" opacity="0.25"></line><line x1="0" y1="133.5" x2="280" y2="133.5" fill="rgb(0, 0, 0)" stroke="rgb(60, 60, 60)" stroke-width="1px" opacity="0.25"></line><line x1="0" y1="118.66666666666667" x2="280" y2="118.66666666666667" fill="rgb(0, 0, 0)" stroke="rgb(60, 60, 60)" stroke-width="1px" opacity="0.25"></line><line x1="0" y1="103.83333333333334" x2="280" y2="103.83333333333334" fill="rgb(0, 0, 0)" stroke="rgb(60, 60, 60)" stroke-width="1px" opacity="0.25"></line><line x1="0" y1="89.00000000000001" x2="280" y2="89.00000000000001" fill="rgb(0, 0, 0)" stroke="rgb(60, 60, 60)" stroke-width="1px" opacity="0.25"></line><line x1="0" y1="74.16666666666669" x2="280" y2="74.16666666666669" fill="rgb(0, 0, 0)" stroke="rgb(60, 60, 60)" stroke-width="1px" opacity="0.25"></line><line x1="0" y1="59.33333333333336" x2="280" y2="59.33333333333336" fill="rgb(0, 0, 0)" stroke="rgb(60, 60, 60)" stroke-width="1px" opacity="0.25"></line><line x1="0" y1="44.50000000000003" x2="280" y2="44.50000000000003" fill="rgb(0, 0, 0)" stroke="rgb(60, 60, 60)" stroke-width="1px" opacity="0.25"></line><line x1="0" y1="29.666666666666686" x2="280" y2="29.666666666666686" fill="rgb(0, 0, 0)" stroke="rgb(60, 60, 60)" stroke-width="1px" opacity="0.25"></line><line x1="0" y1="14.833333333333343" x2="280" y2="14.833333333333343" fill="rgb(0, 0, 0)" stroke="rgb(60, 60, 60)" stroke-width="1px" opacity="0.25"></line><line x1="0" y1="0" x2="280" y2="0" fill="rgb(0, 0, 0)" stroke="rgb(60, 60, 60)" stroke-width="1px" opacity="0.25"></line></g></g></g><g><g><line x1="0" y1="163.16666666666666" x2="280" y2="163.16666666666666" fill="rgb(0, 0, 0)" stroke="rgb(153, 153, 153)" stroke-width="1.5px"></line></g></g><g><g><line x1="20" y1="0" x2="20" y2="178" fill="rgb(0, 0, 0)" stroke="rgb(153, 153, 153)" stroke-width="1.5px"></line></g></g><g><g><g><g><g><path stroke="rgb(0, 119, 187)" stroke-width="2px" d="M20,-15.53460920264601L20,3.856177285969153L20,17.52755547096089L20,-13.005292407949582L20,-4.114993193936954L20,5.40972751821343L20,-0.7920563385800392L20,12.834364679812552L20,19.207549932797605L20,32.98209752987461L20,4.18229725932153L20,7.642256973723278L20,0.22633809786043457L20,18.957154535374457L20,29.93147103809224L20,11.793590659577802L20,25.681325918366042L20,19.882835561816847L20,28.13565509277464L20,32.960520922265914L20,17.47730540905522L20,29.531796241456988L20,46.51676376928552L20,50.09732948191291L20,38.84470156211128L20,38.12712421375019L20,42.59291358334258L20,13.992979093696704L20,16.643536618447143L20,37.679470989392286L30,43.31480451088149L30,24.42669152870758L30,36.63230989752648L30,28.545724966479668L30,29.991319564414198L30,1.152729276249886L30,13.295161910184817L30,18.637464810145474L30,41.40450505226568L30,40.799177113021045L30,46.65969350912795L30,28.117111017029373L30,41.642329086759275L30,56.05021346606948L30,17.80910781018099L30,27.552559496922527L30,44.16482354123241L30,39.653521384310096L30,16.889551897149914L30,19.597113636713573L30,21.177359025228952L30,26.674977875083357L30,30.981937624810058L30,32.34584017860769L30,6.782739998506514L30,25.240657688145205L30,38.243396751660754L30,35.798517286327694L30,36.43731759759618L30,29.543253199892234L30,41.25975778299792L30,45.80279938339129L30,6.0320189473565335L30,21.79384011889715L30,23.407727330119712L30,33.70594617278854L30,28.03628324996322L30,42.00393693962232L40,30.715335011394046L40,34.16114709371999L40,42.22920936899192L40,40.73920110001251L40,43.61947891196064L40,53.93878026652607L40,33.127145726571115L40,40.22948280121267L40,43.98356452273555L40,29.327928805473817L40,54.93477506088618L40,63.04737797566693L40,37.75044461402365L40,46.37684601334573L40,32.87900460037298L40,53.10407766663654L40,30.43759352940495L40,45.16837721851374L40,49.405059745631064L40,42.39696579618541L40,36.29587558970823L40,36.506101354356446L40,23.677624359366803L40,15.557468685291752L40,32.13505576816155L40,32.84919214308434L40,42.003034560244316L40,50.79203397136591L40,46.94118642470238L40,42.11996984279753L40,11.323822465320035L40,15.141783726282682L40,15.314762273669885L40,-0.3622766499276793L40,12.9982383312053L50,40.11288695700566L50,46.92242997388604L50,55.400870165232206L50,54.40940325319967L50,45.726040726066856L50,36.910334478911494L50,41.26807813511098L50,54.10860797166312L50,22.90350601911237L50,27.78212190770921L50,25.400548957410365L50,41.64142931061363L50,37.25471270416605L50,36.11996985475875L50,34.87084424297407L50,31.08919059316554L50,14.461932327828237L50,34.808336281666044L50,25.086023535662207L50,43.44850509544213L50,54.39073287554581L50,44.85635701283613L50,49.5761736202129L50,53.42878394730221L50,28.124068117582766L50,7.405298052098715L50,27.7718086587586L50,10.677691130669814L50,40.640802058874726L50,43.43300372360102L50,56.243329600480905L50,45.13012586990263L50,42.45120403146308L50,29.122936485065395L50,52.58809915255709L50,60.00905827922348L50,37.64114800438915L60,43.4476873438297L60,17.145886585756415L60,27.846031383064002L60,36.73943091753321L60,42.2220709243806L60,24.182598824464804L60,36.33111639529278L60,35.73527256474782L60,47.319198265627364L60,53.31232133008362L60,61.384081950767765L60,38.805578313857666L60,44.170436455363244L60,63.278980883094206L60,45.29268367616288L60,50.355174777078346L60,45.51970747937821L60,50.89496511517008L60,56.645773178128636L60,54.555896770430564L60,70.82346539386488L60,24.989183883001658L60,29.90463203199525L60,39.16846431498419L60,34.87899653040188L60,48.019966132975526L60,38.07595070652383L60,38.832179382158614L60,46.99463798684678L60,42.27614865749757L60,65.77337967584339L60,41.32564101554837L60,28.025236506886614L60,47.829937064425565L60,50.25171467688267L70,26.430026163815967L70,20.15528092592527L70,33.53176764136299L70,53.38580207518187L70,41.459940388747754L70,59.760401492286945L70,54.823359253984236L70,56.47541266460115L70,38.73859873083569L70,47.973310152693614L70,65.97941579024238L70,63.985754435858595L70,68.56961509323207L70,72.8424518311188L70,91.54806619510046L70,73.52748927449183L70,67.70558619285622L70,62.887156962066896L70,45.237652372545L70,38.227885248994454L70,51.57293993795054L70,44.64938096939011L70,37.59326510869553L70,30.975014781414018L70,36.21602509943162L70,28.84488910751051L70,56.774221994379204L70,53.14283690724713L70,53.17688753927118L70,49.23499012027801L70,52.17219654739671L70,43.15676641476617L80,51.4078908444194L80,63.01007649585098L80,43.27661560347374L80,45.85578927817363L80,60.58363989247334L80,57.854704168956204L80,73.69653308442479L80,85.51879413953172L80,78.31062144456753L80,60.50436569701702L80,48.816881434824495L80,45.61308774354447L80,65.64304704866242L80,79.63608245890201L80,58.11567916576581L80,44.380027592805135L80,52.530601958807566L80,50.649338146275056L80,59.72018699262091L80,42.50802391616634L80,37.88923221736033L80,43.840195023470386L80,51.630352125636705L80,54.40180079901535L80,52.68189660368952L80,45.11155586039183L80,51.123150328368894L80,68.90157645915208L80,57.76325683975773L80,78.08939351946844L80,74.25701687918546L80,43.80957559458281L80,49.48113595472893L80,39.069461053771505L80,59.110472988781964L80,34.9842728883213L80,36.02079617839175L80,45.57496200319798L80,10.496067998707304L80,43.65320336296165L80,45.984306658152775L80,63.82531729430599L80,67.04057222460098L80,52.21012569579119L80,71.02169902987859L80,92.91881619612921L90,58.010311254186746L90,66.81009619732099L90,77.67424519041815L90,68.96180195319438L90,64.72545197829275L90,54.87013626431228L90,58.98371961316349L90,82.25729643861979L90,70.96436132328034L90,92.849041076519L90,82.17453599692462L90,74.16751406622575L90,66.75692584931441L90,60.93813989253593L90,55.31181531960817L90,52.46729409981799L90,65.74497810377103L90,73.97510687931432L90,64.92321004325582L90,51.27205494555494L90,69.44569203960495L90,61.88614417934973L90,61.30313801263509L90,43.03402127918443L90,50.90941308794524L90,50.5097988140073L90,33.522921829908285L90,41.677475048793895L90,51.32990835131818L90,65.00097545398245L90,50.60091989286525L90,65.81111180612118L90,45.71238758461877L90,52.69476655104083L90,54.435474389662275L90,64.1367568615297L90,57.45443838695009L90,29.426044109618573L100,63.62574444799975L100,79.90375629617385L100,65.28427084815671L100,62.37473080475432L100,59.05200246524396L100,64.84544602762611L100,74.76071214912903L100,80.32340732557716L100,61.94585925346499L100,61.28910534782739L100,50.605090752463724L100,73.83542580717078L100,71.18154275008007L100,70.71385810924352L100,78.57038545302221L100,90.46066047961514L100,84.02479456791283L100,47.47703430808983L100,70.00550641868949L100,67.22494926206933L100,72.9358791638573L100,82.80141251857043L100,77.50644898558636L100,77.92345010525969L100,72.27279563319875L100,75.63023167196232L100,56.69923885669303L100,60.428349375760504L100,68.23768752418118L100,79.25723759493526L100,78.38540020085156L100,79.02157277959653L100,59.4008727099383L100,44.343553075743785L100,33.268594095837926L100,47.81561258021901L100,52.81578826060243L100,68.9245738177519L100,72.22923774653799L100,72.22428362648166L100,63.59036916741019L100,65.64027955282698L100,49.98412064402683L100,61.35170368963114L100,47.417231269361366L100,55.51526536207305L110,60.156963342393894L110,44.538841824113604L110,49.27249161822357L110,63.295832859016L110,63.137022224984506L110,65.09742176210202L110,71.35498661801408L110,65.40098850928858L110,51.28284343681602L110,76.96122750402614L110,76.71327090717033L110,70.9206847694914L110,83.17981787209118L110,87.6429065884217L110,85.39241312470422L110,88.85529800967208L110,79.58800296415389L110,69.33597471175294L110,73.36438696696976L110,58.75961437094978L110,53.52554804246887L110,43.74068448242306L110,44.55167038418904L110,60.35069063809351L110,60.18693875177803L110,68.21601891659161L110,70.80762744034804L110,77.04238929004755L110,54.69785924942069L110,55.843499812627485L110,57.97915832587759L110,70.82783871326059L110,63.370261884330986L110,79.24708947932677L110,60.15375849443252L110,63.40030129455076L110,57.60203591010499L110,56.684693259129105L110,69.16080863602708L110,67.17983325716506L110,47.005366899947234L110,66.923331009376L120,62.72557144186574L120,70.68410250040894L120,56.61876615977093L120,54.331959603801195L120,48.37426412815344L120,62.58278531659339L120,83.84962832229553L120,75.31045217095146L120,65.75153542426229L120,86.15466486732365L120,79.92917331449311L120,67.26453003322355L120,71.73894055506749L120,69.67684338780938L120,54.54414629713318L120,60.4821435199715L120,72.31705034890993L120,75.2757043905212L120,66.78938604596179L120,68.7927192839161L120,60.624615152210524L120,75.19096604557666L120,78.93105185571414L120,82.71582626825432L120,82.36911562795954L120,78.68829669782828L120,79.69960426228828L120,51.60294892949416L120,51.83907674886319L120,68.28570743285141L120,67.15707470505947L120,85.7305801045667L120,48.20932795992121L120,38.450182674669975L120,58.69229787092037L120,81.0902576218086L120,70.20180647591974L120,82.59979874503748L120,84.95846609242045L120,85.82358918170503L120,82.54874537933095L120,66.68559936611784L120,75.41630516804618L120,61.59515658830024L120,57.527811422831334L120,71.49229569527698L130,56.79601704653021L130,68.41847386902123L130,79.81041190790464L130,72.52643196046748L130,87.55238505757093L130,88.61241315934802L130,78.47150535067169L130,69.9188467264985L130,87.72802666827927L130,100.01485444310244L130,72.97718183121842L130,61.14958786123056L130,71.4692961324437L130,84.10192666942976L130,61.706672874063855L130,60.83479157704352L130,51.44195823441885L130,62.05500065031218L130,74.77314924046935L130,79.21771814929768L130,84.15972578430569L130,77.65380849781273L130,55.76828817333363L130,57.45426048321873L130,54.94858284086L130,72.84047934585817L130,62.80079036458736L130,57.65861574115996L130,56.120682593003764L130,41.309320049970864L130,43.328933603061955L130,43.73205012867476L130,57.48951651328579L130,61.09955088500445L130,80.4893545441087L130,90.88494122419293L140,82.71243431007984L140,62.334131720678755L140,65.6330551801225L140,72.91518205591642L140,75.156499486299L140,73.72305661507346L140,83.1891248985205L140,89.2470910130386L140,80.65126269529927L140,96.2790218520403L140,80.01720304061415L140,88.86088465116089L140,70.18369986888764L140,65.37302762435078L140,48.20558213889322L140,61.30509936630561L140,78.68322044503591L140,86.8166613532617L140,90.64421025237526L140,92.4021949369972L140,88.18855454122614L140,97.32310155389067L140,94.56282338713024L140,86.74491415747652L140,87.45774702029615L140,71.93404971637639L140,71.16088148998209L140,80.48076635428463L140,67.3624701608908L140,60.476302757443506L140,74.74069606140148L140,76.92113741363023L140,78.54142073864702L140,62.49377246742425L140,70.54703540828811L140,78.97351703977776L140,70.18648488086178L140,64.12366449094841L140,71.99180834645249L150,74.79310196133983L150,79.68767554060142L150,83.09698661066405L150,72.75064942775555L150,68.36900083346201L150,71.60731918090404L150,56.83341445013177L150,45.60005158673303L150,69.80677145614571L150,87.10065156555781L150,87.99935936731066L150,81.90859645089687L150,66.86992429980346L150,71.35140370898671L150,84.73759784841474L150,80.52036053266488L150,75.7456930617076L150,89.06254502572112L150,73.16569512151179L150,82.66583365835248L150,61.04316953005889L150,51.97983741272988L150,63.20672549114329L150,60.076160073115645L150,65.2319220303501L150,72.77759237283502L150,74.25695490356705L150,77.56133223086448L150,87.04037255352647L150,80.04718674603649L150,81.60829923182854L150,66.91185496825058L150,71.80879123158104L150,58.7829446582805L160,67.27420672111576L160,82.529271266855L160,79.16713943997851L160,86.16596361152233L160,91.25886807532252L160,89.30823556000675L160,99.26175972271773L160,94.47589657574186L160,105.38166513762447L160,87.89252507719343L160,81.07619621773331L160,67.48350827546778L160,66.00624178639173L160,73.72975316121848L160,87.28027696892424L160,87.01996261766438L160,93.12687717412442L160,89.6194628389748L160,94.85149157715273L160,104.40509465538919L160,93.81801134270505L160,84.38722607645636L160,85.81953628750591L160,58.57216795221139L160,58.708974416664276L160,69.37621219293933L160,66.65597859623034L160,76.40119371574322L160,80.31894624488274L160,59.867462175627864L160,36.46105052086136L160,51.40938792855991L160,78.40129933892561L160,80.24783487005357L160,76.44666419953104L160,90.90015476463236L160,64.70364352972112L160,81.81052684929452L160,64.8688276776462L160,52.25334865463509L160,47.040579588886516L160,59.73263555666392L160,68.21189945876947L160,87.80293253227285L160,75.52572391329734L160,77.97218242028472L160,88.78259778860678L170,88.89791113243582L170,80.43625898027071L170,91.75388894198528L170,100.96719110638811L170,75.3068005678907L170,76.63233533925941L170,75.03791911260565L170,82.13802720421323L170,85.7829741913901L170,85.11072754137675L170,63.90852186246491L170,79.82010906436311L170,57.39279382327159L170,72.66080386777098L170,85.54150064789877L170,87.11083232961275L170,80.45360268514659L170,85.62387111203654L170,90.58866531699967L170,78.84869345257722L170,76.57637582757103L170,86.00332402708943L170,72.4558474591741L170,86.07523617573793L170,90.67009544429112L170,86.19567329917508L170,80.59341508885718L170,71.46391730352539L170,83.69593318409302L170,74.78333587710011L170,81.3740460550623L170,55.02284249121966L170,53.21223018440618L170,56.54623294198322L170,82.87809306576139L170,90.90778299288523L170,72.86212534179234L170,87.63191238921848L170,78.99272075423778L170,67.16585358259587L170,68.97449205087129L170,67.95227789342306L170,68.05476323441609L170,60.39193335181042L170,73.59330425067087L180,80.62475714327897L180,95.2709009204825L180,103.50577788876615L180,111.36738932129019L180,104.40246571300193L180,70.76413753746608L180,67.08690833520092L180,67.95375884058794L180,77.91867206384376L180,72.261741713025L180,85.6169782968389L180,87.65663336666587L180,80.08773712487317L180,68.21806492907585L180,72.2263966709541L180,88.52900594334803L180,86.03284970439077L180,97.02041620920063L180,93.35364507184404L180,82.15902727373032L180,64.46798756238374L180,79.46837661971581L180,76.96401529099505L180,61.958703330671554L180,61.88532779108432L180,60.677295558597336L180,81.47981917437654L180,83.85629334992217L180,91.66406640378266L180,77.38451396406272L180,71.34252439527062L180,74.12553107691814L180,75.50949405801103L180,79.04083526435579L180,96.18507476033619L180,98.60160774418823L180,105.32579580403832L190,82.72180804882925L190,95.47444968585859L190,96.34751760064377L190,74.64677901525587L190,84.59255817011571L190,73.37598275229679L190,74.65208308151571L190,78.24407004665063L190,92.22680164983309L190,87.21311698125066L190,57.347438806889045L190,59.895632287620074L190,59.61569542532676L190,56.8659902662765L190,73.19663232469944L190,75.56572013241683L190,80.36593931402346L190,76.39667260737566L190,97.73337794795444L190,92.34425268245623L190,81.74340671900643L190,68.76523285669329L190,81.01921857731884L190,88.37968570393728L190,75.58127008916382L190,89.14815923993655L190,94.99854783669036L190,82.19805536541297L190,80.96879136883986L190,83.13711779310569L190,94.13509324984311L190,91.68239215093787L190,87.68137634840372L190,74.52769794293303L190,85.28910504318112L190,83.01021072787147L190,92.41859992060324L190,90.91391382046497L200,83.55018957512354L200,92.92463781470124L200,101.52434159140229L200,74.6055665303495L200,84.46747775609653L200,97.63888606470044L200,97.75589181010653L200,74.68096988811928L200,80.80364730009339L200,92.61918919512969L200,105.15280540722217L200,92.66154979827567L200,87.58630059855719L200,84.90768892783446L200,87.12314215830084L200,74.01314352073938L200,71.13052139750326L200,90.70018410327756L200,77.4025304852489L200,85.20016332498572L200,87.96182218808758L200,97.78841755560336L200,103.86058829886495L200,80.56569118497438L200,79.5723367245853L200,72.26905946603578L200,77.33643695118722L200,58.62379006784775L200,68.89311294699681L200,72.21604798403366L200,78.10697954992644L200,80.6292280242852L200,92.9827882023262L210,93.27642352014423L210,82.28735355514077L210,71.77827320880367L210,86.35628385376936L210,97.50917146026296L210,95.2483170554193L210,88.25165078591222L210,94.77303084662108L210,90.57735613741805L210,103.32067931349076L210,76.24007042639454L210,65.58182548916142L210,78.50359257520715L210,89.58229338603107L210,100.78840330129994L210,96.54159139128208L210,104.2443735591472L210,103.86795732132003L210,107.60896038264875L210,90.15327302963045L210,71.55589610944496L210,87.5731500979879L210,70.45863246500207L210,71.21428603875466L210,79.91584075062173L210,84.90810429196775L210,72.73178985401721L210,65.11832555145861L210,80.18497573938475L210,80.4786070402851L210,81.79049685496432L210,71.37056528070575L210,51.61689079526468L210,58.908141410688984L210,68.60877234717633L210,76.23191393403467L210,91.43697557641022L210,85.41901950315409L210,79.12287859286333L210,73.4709150642085L210,81.45767929056852L210,84.06161724269134L210,85.43916385217355L210,93.76178215052991L210,99.40118409855948L210,100.8770021815923L210,88.18357300479178L210,74.98112261922537L210,71.61597428698171L210,78.74422433363694L220,70.66611014835419L220,77.05845780590604L220,84.8892396494911L220,95.83253684074676L220,95.05438120224672L220,95.41430487468998L220,92.74535125634169L220,98.3966014711525L220,91.25670112342432L220,93.97017403346776L220,89.38185465277719L220,80.91047224168871L220,77.22923461257356L220,59.667683082772925L220,74.11273813125709L220,84.73293979094755L220,86.7324481117308L220,72.28836452807467L220,75.1169251114854L220,78.0912730879026L220,46.13815995373949L220,55.38512163352148L220,74.67859883501835L220,80.79564493136431L220,92.33907503229474L220,92.54619438454766L220,97.8511821131225L220,91.99436250330899L220,68.30758614739912L220,71.51236851653141L220,69.58746935312361L220,85.30934096207864L220,84.51006597378243L220,81.39904476462836L220,71.41485098953467L220,85.93123493565373L220,74.74998673184665L220,73.92472853094709L220,79.753049090487L220,71.00675493577057L220,72.87165808339279L220,66.40606425400193L220,73.17078772105148L220,71.46205893507027L220,69.56116672764475L230,79.91449099228932L230,76.39638092585098L230,80.84459127466496L230,76.05149466284483L230,91.91872535837712L230,89.12835841194602L230,102.33111250886807L230,113.47005117628667L230,94.03208357906557L230,83.84371931642028L230,78.10826908324002L230,73.0891812251439L230,58.68457019367399L230,87.71894357227437L230,68.41711011105667L230,79.09142271224991L230,91.25885362353526L230,102.4038076853351L230,93.47948352827208L230,87.61315136949366L230,75.90041438222019L230,79.23645366517756L230,77.60792977782917L230,75.18908033672672L230,91.83199401241761L230,97.08533234323396L230,91.07252400870324L230,101.34828538351377L230,91.02047971876337L230,98.32267555390919L230,96.31416673736845L230,76.87644790377463L230,74.45139936665444L230,69.62778898910533L230,81.84775401454678L230,75.84040843626764L230,98.18861052899108L240,104.50543305183577L240,104.94009594264702L240,98.8029881287202L240,95.28717787475892L240,90.14814285881226L240,81.02972565758373L240,89.41556935311245L240,80.31142775695058L240,89.46452592103005L240,86.95044356756401L240,97.12587746484873L240,102.99314796032785L240,102.45966381888952L240,92.97268428243022L240,92.30075798732133L240,79.31948474030948L240,94.83386063763257L240,83.57950524601593L240,88.10877302555197L240,84.43844009598864L240,91.89776256776317L240,96.12972895957905L240,89.5706392724785L240,96.2563325166388L240,97.81675846177443L240,95.25106799680852L240,92.07374307361562L240,81.26680844335152L240,88.50331230546074L240,89.11577520520511L240,78.82625242323294L240,86.03669432551037L240,92.28355831156395L240,75.08832650731142L240,63.90011231114549L240,66.66877736256569L240,60.83361021045475L240,66.72307642716346L240,54.80807154427873L240,63.78699214290128L240,78.1060499570601L240,71.14702365131177L240,85.71863623856106L250,86.13142173527837L250,91.80963049554325L250,90.19331125154196L250,97.65197873354414L250,96.03415898227965L250,97.70119894193179L250,98.39093926338295L250,103.44810252659286L250,112.98622370524862L250,100.79339418866432L250,105.29076260362982L250,92.56498959482661L250,93.1260689863818L250,96.37491947626613L250,75.97417038012868L250,72.0416068474213L250,61.32896103698569L250,61.15147285206254L250,65.23906796302282L250,59.952309003229246L250,75.37726541206558L250,68.05856463816951L250,85.30703246697102L250,80.81550162695436L250,80.20159421958083L250,81.44310856619013L250,83.22130640799921L250,84.3172778077232L250,90.82878410740538L250,88.0381258085798L250,93.11410409343824L250,104.75373807429823L250,103.39477637735736L250,85.74025242722671L250,92.37728547173724L250,101.4840063082257L250,104.96844690404808L250,96.13763926841305L250,99.92885870387644L250,95.89881258398587L250,89.94224627727448L250,82.59529333858201L250,86.68362898160126L250,83.43103125808105L260,82.1759451098291L260,92.2356361905961L260,94.93244745494299L260,96.93819229301636L260,87.59736419020193L260,91.191783306786L260,80.7180931872856L260,95.7434700910289L260,82.03420896832381L260,74.35352382364412L260,74.39546068491066L260,72.23017694144366L260,80.31262221488704L260,91.66453511647394L260,85.9436589109819L260,83.33516875274503L260,81.98584971050934L260,84.48401101363014L260,87.82766725976653L260,84.7090788425568L260,85.61931371737897L260,84.46655632684259L260,54.60197189030826L260,55.845345941649555L260,70.87187495676677L260,88.9871847401937L260,101.10530404473624L260,97.9676631742236L260,101.6300126465271L260,90.86809743357364L260,90.0275609388709L260,87.27531022398233L260,80.36130199373899L260,72.03752441530114L260,82.31855111911705L260,84.0744942839631L260,86.65526998136572L260,97.13045786675293L260,106.91500568503031" style="fill: none;" fill="none"></path></g></g></g></g><g opacity="0.2"><g><g><g><path stroke="rgb(0, 119, 187)" stroke-width="2px" d="M20,-83.72951583067572L20,17.994020720322936L20,-8.234028776486696L20,32.12813013792041L20,37.69018276532495L20,-58.34301308790839L20,15.750544408957182L20,-15.721790552139282L20,0.46922489007314994L20,19.678148667017638L20,-10.08744215965271L20,33.264385799566924L20,28.76463089386624L20,53.640421569347396L20,-39.013015786806704L20,12.831880291303008L20,-10.897133509317996L20,47.05276284615201L20,46.39272912343347L20,-15.41301504770911L20,46.51283009847009L20,11.185124754905729L20,40.51486327250802L20,40.19781225919726L20,-5.747503598531068L20,47.613525827725766L20,71.99420942862831L20,55.46817733844124L20,21.965761025746673L20,37.050758242607145L20,49.291597445805905L20,-28.9069219032923L20,20.61937286456427L20,69.23337235053383L30,51.767804761727675L30,-3.9054778814315796L30,54.94073742628099L30,16.415847579638182L30,32.15971146027249L30,-42.10515614350635L30,31.508810857931792L30,26.650919159253448L30,75.55506541331611L30,39.89118520418805L30,55.45046810309094L30,0.30323727925619437L30,61.93015619119011L30,77.66204003492993L30,-39.5525506734848L30,42.167737027009366L30,69.08321960767113L30,32.886568148930905L30,-17.256402333577455L30,23.658456246058165L30,23.54772710800171L30,34.921406149864225L30,37.44237724939984L30,34.391694009304075L30,-31.561910271644592L30,52.92753422260286L30,57.74750534693402L30,32.13119808832806L30,37.39551806449893L30,19.202156603336363L30,58.83451465765637L30,52.61736178398134L30,-53.62415170669553L30,45.436571876208006L30,25.828558146953583L30,49.153274436791776L30,19.53178886572522L30,62.955417474110945L40,13.782432119051634L40,39.32986521720889L40,54.331302781899794L40,38.504188696543395L40,47.93989562988284L40,69.41773229837419L40,1.9096939166387017L40,50.88298841317497L40,49.614687105019925L40,7.344475229581207L40,93.34504444400471L40,75.2162823478381L40,-0.1949554284413466L40,59.31644811232887L40,12.632242480913817L40,83.44168726603192L40,-3.5621326764424452L40,67.26455275217694L40,55.760083536307036L40,31.884824872016935L40,27.14424027999243L40,36.821440001328824L40,4.434908866882353L40,3.3772351741791056L40,57.001436392466246L40,33.920396705468534L40,55.73379818598431L40,63.97553308804832L40,41.16491510470712L40,34.888144969940214L40,-34.87039860089618L40,20.868725617726653L40,15.574230094750732L40,-23.877835035324097L40,33.039010802904784L50,80.78485989570619L50,57.13674449920656L50,68.11853045225145L50,52.922202885150924L50,32.70099693536761L50,23.686775108178466L50,47.804693619410216L50,73.36940272649132L50,-23.904146909713745L50,35.10004574060443L50,21.828189531962096L50,66.00274984041852L50,30.674637794494657L50,34.417855580647824L50,32.99715582529706L50,25.416710118452727L50,-10.478955070177676L50,65.32794221242271L50,10.502554416656523L50,70.99222743511201L50,70.80407454570137L50,30.554793218771636L50,56.655898531278L50,59.20769943793617L50,-9.83300562699634L50,-23.67285704612732L50,58.32157456874849L50,-14.963485161463382L50,85.58546845118207L50,47.62130622069043L50,75.45881841580075L50,28.460320274035155L50,38.43282127380374L50,9.13053516546887L50,87.78584315379463L50,71.14049696922304L50,4.089282592137664L60,52.15749635299049L60,-22.306814551353455L60,43.8962485790253L60,50.07953021923703L60,50.446030934651716L60,-2.8766093254089355L60,54.5538927515348L60,34.84150681893033L60,64.69508681694668L60,62.302005926768004L60,73.49172288179399L60,4.937822858492552L60,52.21772366762163L60,91.94179752469064L60,18.3132378657659L60,57.94891142845155L60,38.26650653282803L60,58.95785156885785L60,65.2719852725665L60,51.421082158883436L60,95.22481832901639L60,-43.76223838329315L60,37.27780425548556L60,53.064212739467635L60,28.44479485352835L60,67.73142053683601L60,23.15992756684622L60,39.96652239561084L60,59.23832589387895L60,35.198414663473784L60,101.01922620336217L60,4.654033025105804L60,8.07462974389395L60,77.53698790073396L60,53.88438109556836L70,-9.30250660578406L70,10.743163069089263L70,53.596497714519515L70,83.1668537259102L70,23.571147859096527L70,87.21109314759575L70,47.41779589653018L70,58.9534927805265L70,12.133377830187499L70,61.82537728548051L70,92.98857424656552L70,60.99526240428291L70,75.44540607929231L70,79.25170693794888L70,119.60648774107298L70,46.496623893578885L70,58.9727315704028L70,55.65951311588289L70,18.763395488262205L70,27.71323456366858L70,71.5905219713847L70,34.264042516549466L70,27.009091317653656L70,21.04763929049176L70,44.077540576458006L70,17.788185119628935L70,98.66822132468225L70,47.69575927654904L70,53.22796348730725L70,43.322143991788266L70,56.57800618807477L70,29.633621215820312L80,63.784577488899245L80,80.41335497299832L80,13.676424264907865L80,49.72454979022348L80,82.6754158139229L80,53.761300583680494L80,97.45927645762762L80,103.25218572219214L80,67.49836240212124L80,33.79498207569125L80,31.285655041535733L80,40.80739720662439L80,95.6879860063394L80,100.62563557426137L80,25.835074226061522L80,23.776550233364105L80,64.75646350781125L80,47.827442427476285L80,73.32646026213966L80,16.689779301484435L80,30.961044669151335L80,52.76663923263551L80,63.31558777888618L80,58.55897380908333L80,50.10204031070076L80,33.75604474544528L80,60.14054203033449L80,95.56921565532686L80,41.05577741066617L80,108.57859853903454L80,68.50845191876095L80,-1.861586332321167L80,57.98847649494809L80,23.451948702335358L80,89.17199089129767L80,-1.2050272623697538L80,37.575581113497435L80,59.90621074040733L80,-42.12227300802863L80,93.3889064093431L80,49.48096160093945L80,90.58683324853581L80,71.86345462004346L80,29.964455902576475L80,99.23905903100969L80,125.76449194550514L90,5.647553841273009L90,80.00977361202241L90,93.9704686800639L90,55.89313709735872L90,58.37092701594037L90,40.08716269334161L90,65.15409463644029L90,117.16766167680424L90,54.02495865027112L90,125.67606070637703L90,66.16277837753297L90,62.156981170177474L90,55.64104352394742L90,52.20996095736824L90,46.87232846021655L90,48.20051227013272L90,85.66150410970054L90,86.32030004262926L90,51.34536478916806L90,30.79532229900363L90,96.70614768067998L90,50.5468223889669L90,60.42862876256309L90,15.630346179008512L90,62.72250080108644L90,49.91037740310037L90,8.042606353759794L90,53.90930487712227L90,65.8085583051046L90,85.50757610797884L90,29.000836551189423L90,88.62639967600506L90,15.56430125236514L90,63.16833500067395L90,57.046536147594466L90,78.68868056933087L90,47.430960675080655L90,-12.616547306378664L100,114.9252949555715L100,104.32077406843504L100,43.35504267613095L100,58.01042073965074L100,54.06790995597841L100,73.53561137119931L100,89.6336113313834L100,88.6674500902494L100,34.37953714529675L100,60.303974489371L100,34.57906885941827L100,108.68092838923138L100,67.20071816444398L100,70.01233114798866L100,90.35517646869025L100,108.29607301950456L100,74.37099570035936L100,-7.344606081644656L100,103.79821458458902L100,63.05411352713905L100,81.50227401653927L100,97.59971255064012L100,69.5640036861102L100,78.54895178476971L100,63.796813925107344L100,80.66638573010765L100,28.302749633789062L100,66.02201515436174L100,79.95169474681221L100,95.78656270106634L100,77.07764410972597L100,79.975831647714L100,29.969822605450986L100,21.757573624451965L100,16.656155625979125L100,69.6361403067907L100,60.316051781177535L100,93.08775215347609L100,77.18623363971712L100,72.21685244639717L100,50.63949747880302L100,68.71514513095222L100,26.49988228082657L100,78.40307825803758L100,26.515522638956725L100,67.66231650114061L110,67.11951031287514L110,21.111659546693176L110,56.3729663093885L110,84.3308447202047L110,62.89880627393724L110,68.03802106777829L110,80.74133390188219L110,56.46999134620033L110,30.105625828107236L110,115.47880360484123L110,76.34133601188661L110,62.23180556297304L110,101.56851752599081L110,94.33753966291746L110,82.01667292912803L110,94.04962533712389L110,65.68706039587659L110,53.95793233315152L110,79.40700534979504L110,36.85245547691983L110,45.674448549747495L110,29.06338914235434L110,45.76814923683804L110,84.04922101895016L110,59.94131092230481L110,80.25963916381203L110,74.69504022598268L110,86.39453206459683L110,21.181064188480406L110,57.561960657437666L110,61.18264609575273L110,90.10085929433507L110,52.18389664093655L110,103.06233087182046L110,31.513762017091153L110,68.2701154947281L110,48.90463783343637L110,55.30867928266527L110,87.87498170137407L110,64.20837018887204L110,16.743667364120512L110,96.80027717351915L120,56.428932090600355L120,82.6218990882238L120,35.5207616488139L120,50.90174976984662L120,39.43772091468179L120,83.89556709925336L120,115.7498928308487L120,62.50168794393541L120,51.413160304228484L120,116.75935903191566L120,70.59093598524731L120,48.26756511131924L120,78.45055633783342L120,66.58369763692222L120,31.845100661118863L120,69.38913935422899L120,90.0694105923176L120,79.7136854529381L120,54.059908529122694L120,71.79771914084755L120,48.37245895465219L120,97.04049238562585L120,84.54118057092033L120,88.39298788706463L120,81.84904966751736L120,73.16706830263139L120,81.21656560897829L120,9.457965930302947L120,52.19326847791673L120,92.95565345883371L120,65.46412561337155L120,113.59083820382756L120,-8.072550257046998L120,23.81146474679312L120,89.05547066529593L120,114.68719724814099L120,53.869129757086455L120,101.19678714871408L120,88.49646711349489L120,87.12127381563188L120,77.63647967576982L120,42.890880346298246L120,88.51236387093864L120,40.863433718681364L120,51.42679367462796L120,92.43902210394543L130,34.75159907341006L130,85.8521591027578L130,96.89831896622977L130,61.60046203931175L130,110.0913147032261L130,90.20245531201364L130,63.26014363765718L130,57.08985879023872L130,114.44179658095044L130,118.44509610533714L130,32.42067291339242L130,43.40819690624875L130,86.94885853926343L130,103.05087247490884L130,28.113792181015015L130,59.52696963151298L130,37.3527082204819L130,77.97456427415214L130,93.85037212570509L130,85.8845715125402L130,91.57273723681769L130,67.89493256807329L130,22.94000768661499L130,59.983218948046385L130,51.1900663773219L130,99.67832410335542L130,47.74125689268115L130,49.94535380601886L130,53.813782870769515L130,19.092276235421508L130,46.358353932698606L130,44.33672491709393L130,78.12571609020235L130,66.51460244258247L130,109.57406003276509L130,106.47832124431929L140,70.45367393891019L140,31.766677836577117L140,70.58144036928815L140,83.83837236960731L140,78.51847563187283L140,71.57289230823518L140,97.38822732369107L140,98.33404018481573L140,67.75752021869026L140,119.72066058715185L140,55.6244748234749L140,102.12640706698102L140,42.16792269547784L140,58.157019257545485L140,22.454413910706847L140,80.95437520742418L140,104.75040206313135L140,99.01682271560034L140,96.38553360104562L140,95.03917196393014L140,81.86809394756955L140,111.02492207288743L140,90.42240613698961L140,75.01805031299592L140,88.52699631452562L140,48.648503760496794L140,70.00112915039064L140,94.46059365073842L140,47.68502587080005L140,50.147051652272566L140,96.13728601733845L140,80.19179944197339L140,80.97184572617215L140,38.422300060590146L140,82.6269298195839L140,91.61323948701224L140,57.00593664248787L140,55.02943390607835L140,83.79402412970863L150,78.99504238367082L150,87.02953590949379L150,88.21095321575802L150,57.231143653392806L150,61.79652794202171L150,76.46479670206708L150,34.67255735397342L150,28.750007291634887L150,106.11685126026472L150,113.04147172967595L150,89.34742106993994L150,72.77245207627617L150,44.31191607316339L150,78.07362282276155L150,104.8168890575568L150,74.19450455904008L150,68.58369185527168L150,109.03782297174138L150,49.32042026519778L150,96.91604146361352L150,28.60917333761853L150,38.384839236736326L150,80.0470576087634L150,55.38031194607419L150,72.9655649662018L150,84.09609788656236L150,76.47599869966508L150,82.51789822181068L150,101.25893303751947L150,69.5574080348015L150,83.94996796051663L150,44.867188572883634L150,79.15419562657677L150,39.24417479832971L160,80.01109981536867L160,105.41186808546385L160,74.12394169966382L160,96.66419986883801L160,98.89822477102281L160,86.3822867870331L160,114.19204596678418L160,87.29710185527803L160,121.74031798044842L160,61.65881498654686L160,70.8517029285431L160,47.094476362069486L160,63.79034205277763L160,85.31502022345863L160,107.60606268048288L160,86.62949109077455L160,102.28724900881451L160,84.35834133625032L160,102.69953468441965L160,118.73549927274388L160,77.93738637367886L160,70.24104817708336L160,87.96800160408021L160,17.701115449269622L160,58.91418411334358L160,85.37706885735196L160,62.57562820116681L160,91.01901639501256L160,86.19557503859204L160,29.190236071745574L160,1.3514330387115763L160,73.83189404010774L160,118.88916645447415L160,83.01763816674553L160,70.74490819374722L160,112.58039061228436L160,25.408876677354186L160,107.47085182865462L160,39.45627892017367L160,33.3301301201185L160,39.22142599026364L160,78.77071950833005L160,80.93079531192781L160,117.18948214252791L160,57.10991098483406L160,81.6418701807658L160,104.9982208410899L170,89.07088114817938L170,67.74378075202308L170,108.7303338845571L170,114.78714435299239L170,36.81621476014459L170,78.62063749631248L170,72.64629477262498L170,92.78818934162459L170,91.2503946721554L170,84.10235756635667L170,32.105213344097166L170,103.6874898672104L170,23.751820961634337L170,95.5628189345201L170,104.86254581809045L170,89.46482985218367L170,70.46775821844739L170,93.37927375237149L170,98.03585662444434L170,61.23873565594357L170,73.16789939006172L170,100.14374632636708L170,52.1346326073011L170,106.50431925058366L170,97.56238434712094L170,79.48404008150102L170,72.1900277733803L170,57.76967062552772L170,102.0439570049445L170,61.41443991661073L170,91.2601113220056L170,15.496037145455688L170,50.49631172418596L170,61.547237078348815L170,122.3758832514286L170,102.952317883571L170,45.793638865153014L170,109.78659296035768L170,66.03393330176674L170,49.425552825133025L170,71.68744975328447L170,66.41895665725075L170,68.20849124590558L170,48.897688527902005L170,93.39536059896153L180,91.1719364821911L180,117.24011658628783L180,115.85809334119162L180,123.15980647007626L180,93.95508030056955L180,20.30664527416232L180,61.571064531803145L180,69.25403459866844L180,92.86604189872743L180,63.77634618679684L180,105.64983317255975L180,90.71611597140631L180,68.73439276218416L180,50.413556635379805L180,78.23889428377153L180,112.9829198519389L180,82.28861534595491L180,113.50176596641542L180,87.85348836580914L180,65.36710057655972L180,37.93142799536389L180,101.96896020571393L180,73.2074732979139L180,39.45073539018634L180,61.77526448170346L180,58.865247209866865L180,112.68360459804536L180,87.42100461324058L180,103.37572598457338L180,55.9651853044828L180,62.27954004208249L180,78.30004109938942L180,77.58543852965039L180,84.33784707387291L180,121.9014340043068L180,102.22640721996626L180,115.41207789381346L190,48.81582641601565L190,114.60341214140257L190,97.65711947282156L190,42.09567113717401L190,99.51122690240544L190,56.551119625568404L190,76.5662335753441L190,83.632050494353L190,113.20089905460677L190,79.69258997837704L190,12.548921545346587L190,63.7179225087166L190,59.195790131886824L190,52.74143252770108L190,97.69259541233382L190,79.11935184399289L190,87.56626808643342L190,70.44277254740399L190,129.73843595882258L190,84.26056478420895L190,65.84213777383171L190,49.29797206322354L190,99.40019715825719L190,99.42038639386496L190,56.383646667003646L190,109.49849296609563L190,103.77413073182107L190,62.99731665849687L190,79.12489537398022L190,86.38960742950441L190,110.63205643494925L190,88.00334050258003L190,81.67985264460248L190,54.79718033472699L190,101.4312156935533L190,79.591869254907L190,106.53118370970091L190,88.65688467025758L200,72.50460320711137L200,106.98631017406782L200,114.42389725645384L200,34.22740393877032L200,99.26034459471704L200,117.39599852760634L200,97.93140042821568L200,40.068587005138426L200,89.9876634180546L200,110.34250203768414L200,123.95322972536087L200,73.92466638485593L200,79.97342679897946L200,80.88977142175041L200,90.44632200400036L200,54.3481455643972L200,66.80658821264905L200,120.054678161939L200,57.456050058205946L200,96.89661258459093L200,92.10431048274042L200,112.52831060687703L200,112.96884441375734L200,45.62334551413858L200,78.08230503400169L200,61.314143578211485L200,84.93750317891441L200,30.55481974283856L200,84.29709726572038L200,77.20045053958894L200,86.94337689876558L200,84.41260073582333L200,111.51312846938771L210,93.71687649687132L210,65.80374860763551L210,56.01465268929802L210,108.22329982121786L210,114.2385028700034L210,91.85703544815382L210,77.75665138165158L210,104.55510093768439L210,84.28384407361351L210,122.43566407759985L210,35.61915709575021L210,49.594458083311736L210,97.88624320427579L210,106.20034460226697L210,117.59756817420325L210,90.17137352625531L210,115.79854681094488L210,103.30333296457928L210,113.22046497464181L210,63.96974200010301L210,43.659830729166686L210,111.59903108080229L210,44.78685601552331L210,72.34776639938356L210,92.96817281842233L210,92.39649960398675L210,54.467318197091444L210,53.698129097620665L210,102.78495102127394L210,80.91905399163566L210,83.75833157698315L210,55.7406679193179L210,21.986379067103087L210,69.84501733382545L210,83.15971875190736L210,87.66662631432217L210,114.24456803997359L210,76.39208539326988L210,69.67866722742718L210,64.99296977122627L210,93.43782563010853L210,87.96752417087556L210,87.50548376639686L210,106.24570959806444L210,107.86028702060383L210,103.09072930614155L210,69.14342923959099L210,55.17744704087578L210,66.5682517886162L210,89.43659940361978L220,58.54893887043001L220,86.64697929223381L220,96.63541241486868L220,112.24748262763025L220,93.88714774449667L220,95.95419038335484L220,88.74192082881929L220,106.87347679336867L220,80.54685060183209L220,98.04038339853288L220,82.49937558174135L220,68.20339862505597L220,71.70737816890083L220,33.32535578807199L220,95.78032070398332L220,100.66324228048326L220,89.7317105929057L220,50.62223915259045L220,79.35976598660153L220,82.5527950525284L220,-1.791509747505188L220,69.25556415319444L220,103.61881463726363L220,89.97121407588324L220,109.6542201836904L220,92.856873412927L220,105.80866370598477L220,83.20913308858873L220,32.77742161353433L220,76.31954207022987L220,66.7001206080119L220,108.89214837551118L220,83.31115349133812L220,76.73251295089723L220,56.43856032689415L220,107.70581085483235L220,57.97811442613603L220,72.68684122959775L220,88.49552992979687L220,57.88731370369595L220,75.66901280482612L220,56.70767350991569L220,83.31787292162579L220,68.89896575609845L220,66.70982841650647L230,95.44447738925618L230,71.11921582619351L230,87.51690679788591L230,68.86184974511467L230,115.71957140167555L230,84.94280799229942L230,122.1352436542511L230,130.1784591774146L230,64.87513218323392L230,68.56117292245231L230,69.50509373346966L230,65.56054943799974L230,37.077653646469145L230,131.27050364017487L230,39.46435991923016L230,95.10289161403975L230,109.50999999046327L230,119.12123877803486L230,80.09299729267758L230,78.81365313132606L230,58.33130890130998L230,84.24051258961362L230,75.16514394680661L230,71.56080617507301L230,116.79636452595395L230,104.96533983945848L230,82.05331150690716L230,116.76192744572958L230,75.52877122163774L230,109.27596930662793L230,93.30140351255736L230,47.71986965338391L230,70.81382656097414L230,62.392373422781645L230,100.17770155270895L230,66.82939006884895L230,131.71091366807622L240,113.98066683610281L240,105.59209027886392L240,89.59732640782994L240,90.01346249381703L240,82.43959033489229L240,67.35209985574089L240,101.99433489640555L240,66.65521536270779L240,103.19417316714924L240,83.17932003736497L240,112.38902831077577L240,111.79405370354654L240,101.65943760673207L240,78.74221497774126L240,91.29286854465803L240,59.847574869791686L240,118.10542448361716L240,66.69797215859097L240,94.90267469485602L240,78.93294070164364L240,103.08674627542497L240,102.4776785473029L240,79.73200474182767L240,106.28487238287927L240,100.15739737947783L240,91.40253229935965L240,87.30775568882626L240,65.05640649795534L240,99.35806809862456L240,90.03446955482167L240,63.39196825027467L240,96.85235717892648L240,101.65385429064435L240,49.295478800932585L240,47.117791016896604L240,70.82177493969601L240,52.080859482288375L240,75.55727575222653L240,36.93556421995166L240,77.25537304083508L240,99.58463667829832L240,60.70848419268928L240,107.57605511943501L250,86.75059998035432L250,100.32694363594057L250,87.76883238554002L250,108.83997995654744L250,93.60742935538293L250,100.20175888140997L250,99.4255497455597L250,111.03384742140771L250,127.29340547323227L250,82.50414991378786L250,112.03681522607805L250,73.47633008162182L250,93.96768807371458L250,101.24819521109265L250,45.373046735922514L250,66.14276154836021L250,45.259992321332334L250,60.88524057467781L250,71.37046062946321L250,52.02217056353889L250,98.51470002532007L250,57.080513477325454L250,111.17973421017331L250,74.0782053669294L250,79.28073310852052L250,83.3053800861041L250,85.88860317071281L250,85.96123490730923L250,100.59604355692865L250,83.85213836034141L250,100.7280715207259L250,122.2131890455882L250,101.35633383194607L250,59.258466502030714L250,102.33283503850302L250,115.14408756295842L250,110.19510779778165L250,82.8914278149605L250,105.61568785707158L250,89.85374340415002L250,81.00739681720735L250,71.57486393054329L250,92.81613244613013L250,78.55213467280072L260,80.29331588745119L260,107.32517281174661L260,98.97766435146333L260,99.9468095501264L260,73.58612203598024L260,96.58341198166212L260,65.00755800803505L260,118.28153544664383L260,61.47031728426617L260,62.83249610662462L260,74.45836597681047L260,68.9822513262431L260,92.43629012505215L260,108.69240446885428L260,77.3623446027438L260,79.42243351538978L260,79.96187114715578L260,88.23125296831132L260,92.84315162897111L260,80.03119621674222L260,86.98466602961224L260,82.73742024103802L260,9.805095235506712L260,57.71040701866151L260,93.41166847944261L260,116.16014941533408L260,119.28248300155005L260,93.26120186845463L260,107.12353685498239L260,74.72522461414339L260,88.76675619681679L260,83.14693415164949L260,69.99028964837395L260,59.551858047644316L260,97.74009117484094L260,86.70840903123222L260,90.52643352746965L260,112.84323969483377L260,121.59182741244635" style="fill: none;" fill="none"></path></g></g></g></g></g></g><g transform="translate(50, 178)" clip-path="url(#clip_1)"><clipPath id="clip_1"><rect width="280" height="22"></rect></clipPath><g><g><line x1="0" y1="0" x2="0" y2="5" style="visibility: inherit;" fill="rgb(0, 0, 0)" stroke="rgb(204, 204, 204)" stroke-width="1px"></line><line x1="20" y1="0" x2="20" y2="5" style="visibility: inherit;" fill="rgb(0, 0, 0)" stroke="rgb(204, 204, 204)" stroke-width="1px"></line><line x1="40" y1="0" x2="40" y2="5" style="visibility: inherit;" fill="rgb(0, 0, 0)" stroke="rgb(204, 204, 204)" stroke-width="1px"></line><line x1="60" y1="0" x2="60" y2="5" style="visibility: inherit;" fill="rgb(0, 0, 0)" stroke="rgb(204, 204, 204)" stroke-width="1px"></line><line x1="80" y1="0" x2="80" y2="5" style="visibility: inherit;" fill="rgb(0, 0, 0)" stroke="rgb(204, 204, 204)" stroke-width="1px"></line><line x1="100" y1="0" x2="100" y2="5" style="visibility: inherit;" fill="rgb(0, 0, 0)" stroke="rgb(204, 204, 204)" stroke-width="1px"></line><line x1="120" y1="0" x2="120" y2="5" style="visibility: inherit;" fill="rgb(0, 0, 0)" stroke="rgb(204, 204, 204)" stroke-width="1px"></line><line x1="140" y1="0" x2="140" y2="5" style="visibility: inherit;" fill="rgb(0, 0, 0)" stroke="rgb(204, 204, 204)" stroke-width="1px"></line><line x1="160" y1="0" x2="160" y2="5" style="visibility: inherit;" fill="rgb(0, 0, 0)" stroke="rgb(204, 204, 204)" stroke-width="1px"></line><line x1="180" y1="0" x2="180" y2="5" style="visibility: inherit;" fill="rgb(0, 0, 0)" stroke="rgb(204, 204, 204)" stroke-width="1px"></line><line x1="200" y1="0" x2="200" y2="5" style="visibility: inherit;" fill="rgb(0, 0, 0)" stroke="rgb(204, 204, 204)" stroke-width="1px"></line><line x1="220" y1="0" x2="220" y2="5" style="visibility: inherit;" fill="rgb(0, 0, 0)" stroke="rgb(204, 204, 204)" stroke-width="1px"></line><line x1="240" y1="0" x2="240" y2="5" style="visibility: inherit;" fill="rgb(0, 0, 0)" stroke="rgb(204, 204, 204)" stroke-width="1px"></line><line x1="260" y1="0" x2="260" y2="5" style="visibility: inherit;" fill="rgb(0, 0, 0)" stroke="rgb(204, 204, 204)" stroke-width="1px"></line><line x1="280" y1="0" x2="280" y2="5" style="visibility: inherit;" fill="rgb(0, 0, 0)" stroke="rgb(204, 204, 204)" stroke-width="1px"></line></g><g transform="translate(0, 8)"><text x="0" y="0" dx="0em" dy="0.95em" style="text-anchor: middle; visibility: hidden; font-family: &quot;Helvetica Neue&quot;, sans-serif; font-size: 12px; font-weight: 200;" fill="rgb(50, 49, 63)" stroke="none" stroke-width="1px">-2</text><text x="20" y="0" dx="0em" dy="0.95em" style="text-anchor: middle; visibility: inherit; font-family: &quot;Helvetica Neue&quot;, sans-serif; font-size: 12px; font-weight: 200;" fill="rgb(50, 49, 63)" stroke="none" stroke-width="1px">0</text><text x="40" y="0" dx="0em" dy="0.95em" style="text-anchor: middle; visibility: inherit; font-family: &quot;Helvetica Neue&quot;, sans-serif; font-size: 12px; font-weight: 200;" fill="rgb(50, 49, 63)" stroke="none" stroke-width="1px">2</text><text x="60" y="0" dx="0em" dy="0.95em" style="text-anchor: middle; visibility: inherit; font-family: &quot;Helvetica Neue&quot;, sans-serif; font-size: 12px; font-weight: 200;" fill="rgb(50, 49, 63)" stroke="none" stroke-width="1px">4</text><text x="80" y="0" dx="0em" dy="0.95em" style="text-anchor: middle; visibility: inherit; font-family: &quot;Helvetica Neue&quot;, sans-serif; font-size: 12px; font-weight: 200;" fill="rgb(50, 49, 63)" stroke="none" stroke-width="1px">6</text><text x="100" y="0" dx="0em" dy="0.95em" style="text-anchor: middle; visibility: inherit; font-family: &quot;Helvetica Neue&quot;, sans-serif; font-size: 12px; font-weight: 200;" fill="rgb(50, 49, 63)" stroke="none" stroke-width="1px">8</text><text x="120" y="0" dx="0em" dy="0.95em" style="text-anchor: middle; visibility: inherit; font-family: &quot;Helvetica Neue&quot;, sans-serif; font-size: 12px; font-weight: 200;" fill="rgb(50, 49, 63)" stroke="none" stroke-width="1px">10</text><text x="140" y="0" dx="0em" dy="0.95em" style="text-anchor: middle; visibility: inherit; font-family: &quot;Helvetica Neue&quot;, sans-serif; font-size: 12px; font-weight: 200;" fill="rgb(50, 49, 63)" stroke="none" stroke-width="1px">12</text><text x="160" y="0" dx="0em" dy="0.95em" style="text-anchor: middle; visibility: inherit; font-family: &quot;Helvetica Neue&quot;, sans-serif; font-size: 12px; font-weight: 200;" fill="rgb(50, 49, 63)" stroke="none" stroke-width="1px">14</text><text x="180" y="0" dx="0em" dy="0.95em" style="text-anchor: middle; visibility: inherit; font-family: &quot;Helvetica Neue&quot;, sans-serif; font-size: 12px; font-weight: 200;" fill="rgb(50, 49, 63)" stroke="none" stroke-width="1px">16</text><text x="200" y="0" dx="0em" dy="0.95em" style="text-anchor: middle; visibility: inherit; font-family: &quot;Helvetica Neue&quot;, sans-serif; font-size: 12px; font-weight: 200;" fill="rgb(50, 49, 63)" stroke="none" stroke-width="1px">18</text><text x="220" y="0" dx="0em" dy="0.95em" style="text-anchor: middle; visibility: inherit; font-family: &quot;Helvetica Neue&quot;, sans-serif; font-size: 12px; font-weight: 200;" fill="rgb(50, 49, 63)" stroke="none" stroke-width="1px">20</text><text x="240" y="0" dx="0em" dy="0.95em" style="text-anchor: middle; visibility: inherit; font-family: &quot;Helvetica Neue&quot;, sans-serif; font-size: 12px; font-weight: 200;" fill="rgb(50, 49, 63)" stroke="none" stroke-width="1px">22</text><text x="260" y="0" dx="0em" dy="0.95em" style="text-anchor: middle; visibility: inherit; font-family: &quot;Helvetica Neue&quot;, sans-serif; font-size: 12px; font-weight: 200;" fill="rgb(50, 49, 63)" stroke="none" stroke-width="1px">24</text><text x="280" y="0" dx="0em" dy="0.95em" style="text-anchor: middle; visibility: hidden; font-family: &quot;Helvetica Neue&quot;, sans-serif; font-size: 12px; font-weight: 200;" fill="rgb(50, 49, 63)" stroke="none" stroke-width="1px">26</text></g><line x1="0" y1="0" x2="280" y2="0" fill="rgb(0, 0, 0)" stroke="rgb(204, 204, 204)" stroke-width="1px"></line></g></g></g></g></svg>