<svg viewBox="0 0 330 200" xmlns="http://www.w3.org/2000/svg"><g><g><g><g><g><line x1="60" y1="178" x2="55" y2="178" style="visibility: inherit;" fill="rgb(0, 0, 0)" stroke="rgb(204, 204, 204)" stroke-width="1px"></line><line x1="60" y1="158.22222222222223" x2="55" y2="158.22222222222223" style="visibility: inherit;" fill="rgb(0, 0, 0)" stroke="rgb(204, 204, 204)" stroke-width="1px"></line><line x1="60" y1="138.44444444444446" x2="55" y2="138.44444444444446" style="visibility: inherit;" fill="rgb(0, 0, 0)" stroke="rgb(204, 204, 204)" stroke-width="1px"></line><line x1="60" y1="118.66666666666666" x2="55" y2="118.66666666666666" style="visibility: inherit;" fill="rgb(0, 0, 0)" stroke="rgb(204, 204, 204)" stroke-width="1px"></line><line x1="60" y1="98.88888888888889" x2="55" y2="98.88888888888889" style="visibility: inherit;" fill="rgb(0, 0, 0)" stroke="rgb(204, 204, 204)" stroke-width="1px"></line><line x1="60" y1="79.1111111111111" x2="55" y2="79.1111111111111" style="visibility: inherit;" fill="rgb(0, 0, 0)" stroke="rgb(204, 204, 204)" stroke-width="1px"></line><line x1="60" y1="59.33333333333334" x2="55" y2="59.33333333333334" style="visibility: inherit;" fill="rgb(0, 0, 0)" stroke="rgb(204, 204, 204)" stroke-width="1px"></line><line x1="60" y1="39.55555555555557" x2="55" y2="39.55555555555557" style="visibility: inherit;" fill="rgb(0, 0, 0)" stroke="rgb(204, 204, 204)" stroke-width="1px"></line><line x1="60" y1="19.7777777777778" x2="55" y2="19.7777777777778" style="visibility: inherit;" fill="rgb(0, 0, 0)" stroke="rgb(204, 204, 204)" stroke-width="1px"></line><line x1="60" y1="0" x2="55" y2="0" style="visibility: inherit;" fill="rgb(0, 0, 0)" stroke="rgb(204, 204, 204)" stroke-width="1px"></line></g><g transform="translate(50, 0)"><text x="0" y="178" dx="0em" dy="0.3em" style="text-anchor: end; visibility: hidden; font-family: &quot;Helvetica Neue&quot;, sans-serif; font-size: 12px; font-weight: 200;" fill="rgb(50, 49, 63)" stroke="none" stroke-width="1px">-0.05</text><text x="0" y="158.22222222222223" dx="0em" dy="0.3em" style="text-anchor: end; visibility: inherit; font-family: &quot;Helvetica Neue&quot;, sans-serif; font-size: 12px; font-weight: 200;" fill="rgb(50, 49, 63)" stroke="none" stroke-width="1px">0</text><text x="0" y="138.44444444444446" dx="0em" dy="0.3em" style="text-anchor: end; visibility: hidden; font-family: &quot;Helvetica Neue&quot;, sans-serif; font-size: 12px; font-weight: 200;" fill="rgb(50, 49, 63)" stroke="none" stroke-width="1px">0.05</text><text x="0" y="118.66666666666666" dx="0em" dy="0.3em" style="text-anchor: end; visibility: inherit; font-family: &quot;Helvetica Neue&quot;, sans-serif; font-size: 12px; font-weight: 200;" fill="rgb(50, 49, 63)" stroke="none" stroke-width="1px">0.1</text><text x="0" y="98.88888888888889" dx="0em" dy="0.3em" style="text-anchor: end; visibility: hidden; font-family: &quot;Helvetica Neue&quot;, sans-serif; font-size: 12px; font-weight: 200;" fill="rgb(50, 49, 63)" stroke="none" stroke-width="1px">0.15</text><text x="0" y="79.1111111111111" dx="0em" dy="0.3em" style="text-anchor: end; visibility: inherit; font-family: &quot;Helvetica Neue&quot;, sans-serif; font-size: 12px; font-weight: 200;" fill="rgb(50, 49, 63)" stroke="none" stroke-width="1px">0.2</text><text x="0" y="59.33333333333334" dx="0em" dy="0.3em" style="text-anchor: end; visibility: hidden; font-family: &quot;Helvetica Neue&quot;, sans-serif; font-size: 12px; font-weight: 200;" fill="rgb(50, 49, 63)" stroke="none" stroke-width="1px">0.25</text><text x="0" y="39.55555555555557" dx="0em" dy="0.3em" style="text-anchor: end; visibility: inherit; font-family: &quot;Helvetica Neue&quot;, sans-serif; font-size: 12px; font-weight: 200;" fill="rgb(50, 49, 63)" stroke="none" stroke-width="1px">0.3</text><text x="0" y="19.7777777777778" dx="0em" dy="0.3em" style="text-anchor: end; visibility: hidden; font-family: &quot;Helvetica Neue&quot;, sans-serif; font-size: 12px; font-weight: 200;" fill="rgb(50, 49, 63)" stroke="none" stroke-width="1px">0.35</text><text x="0" y="0" dx="0em" dy="0.3em" style="text-anchor: end; visibility: hidden; font-family: &quot;Helvetica Neue&quot;, sans-serif; font-size: 12px; font-weight: 200;" fill="rgb(50, 49, 63)" stroke="none" stroke-width="1px">0.4</text></g><line x1="60" y1="0" x2="60" y2="178" fill="rgb(0, 0, 0)" stroke="rgb(204, 204, 204)" stroke-width="1px"></line></g></g><g transform="translate(60, 0)" clip-path="url(#clip_0)"><clipPath id="clip_0"><rect width="270" height="178"></rect></clipPath><g><g><g><line x1="0" y1="0" x2="0" y2="178" fill="rgb(0, 0, 0)" stroke="rgb(60, 60, 60)" stroke-width="1px" opacity="0.25"></line><line x1="19.285714285714285" y1="0" x2="19.285714285714285" y2="178" fill="rgb(0, 0, 0)" stroke="rgb(60, 60, 60)" stroke-width="1px" opacity="0.25"></line><line x1="38.57142857142857" y1="0" x2="38.57142857142857" y2="178" fill="rgb(0, 0, 0)" stroke="rgb(60, 60, 60)" stroke-width="1px" opacity="0.25"></line><line x1="57.857142857142854" y1="0" x2="57.857142857142854" y2="178" fill="rgb(0, 0, 0)" stroke="rgb(60, 60, 60)" stroke-width="1px" opacity="0.25"></line><line x1="77.14285714285714" y1="0" x2="77.14285714285714" y2="178" fill="rgb(0, 0, 0)" stroke="rgb(60, 60, 60)" stroke-width="1px" opacity="0.25"></line><line x1="96.42857142857143" y1="0" x2="96.42857142857143" y2="178" fill="rgb(0, 0, 0)" stroke="rgb(60, 60, 60)" stroke-width="1px" opacity="0.25"></line><line x1="115.71428571428571" y1="0" x2="115.71428571428571" y2="178" fill="rgb(0, 0, 0)" stroke="rgb(60, 60, 60)" stroke-width="1px" opacity="0.25"></line><line x1="135" y1="0" x2="135" y2="178" fill="rgb(0, 0, 0)" stroke="rgb(60, 60, 60)" stroke-width="1px" opacity="0.25"></line><line x1="154.28571428571428" y1="0" x2="154.28571428571428" y2="178" fill="rgb(0, 0, 0)" stroke="rgb(60, 60, 60)" stroke-width="1px" opacity="0.25"></line><line x1="173.57142857142858" y1="0" x2="173.57142857142858" y2="178" fill="rgb(0, 0, 0)" stroke="rgb(60, 60, 60)" stroke-width="1px" opacity="0.25"></line><line x1="192.85714285714286" y1="0" x2="192.85714285714286" y2="178" fill="rgb(0, 0, 0)" stroke="rgb(60, 60, 60)" stroke-width="1px" opacity="0.25"></line><line x1="212.14285714285714" y1="0" x2="212.14285714285714" y2="178" fill="rgb(0, 0, 0)" stroke="rgb(60, 60, 60)" stroke-width="1px" opacity="0.25"></line><line x1="231.42857142857142" y1="0" x2="231.42857142857142" y2="178" fill="rgb(0, 0, 0)" stroke="rgb(60, 60, 60)" stroke-width="1px" opacity="0.25"></line><line x1="250.71428571428572" y1="0" x2="250.71428571428572" y2="178" fill="rgb(0, 0, 0)" stroke="rgb(60, 60, 60)" stroke-width="1px" opacity="0.25"></line><line x1="270" y1="0" x2="270" y2="178" fill="rgb(0, 0, 0)" stroke="rgb(60, 60, 60)" stroke-width="1px" opacity="0.25"></line></g><g><line x1="0" y1="178" x2="270" y2="178" fill="rgb(0, 0, 0)" stroke="rgb(60, 60, 60)" stroke-width="1px" opacity="0.25"></line><line x1="0" y1="158.22222222222223" x2="270" y2="158.22222222222223" fill="rgb(0, 0, 0)" stroke="rgb(60, 60, 60)" stroke-width="1px" opacity="0.25"></line><line x1="0" y1="138.44444444444446" x2="270" y2="138.44444444444446" fill="rgb(0, 0, 0)" stroke="rgb(60, 60, 60)" stroke-width="1px" opacity="0.25"></line><line x1="0" y1="118.66666666666666" x2="270" y2="118.66666666666666" fill="rgb(0, 0, 0)" stroke="rgb(60, 60, 60)" stroke-width="1px" opacity="0.25"></line><line x1="0" y1="98.88888888888889" x2="270" y2="98.88888888888889" fill="rgb(0, 0, 0)" stroke="rgb(60, 60, 60)" stroke-width="1px" opacity="0.25"></line><line x1="0" y1="79.1111111111111" x2="270" y2="79.1111111111111" fill="rgb(0, 0, 0)" stroke="rgb(60, 60, 60)" stroke-width="1px" opacity="0.25"></line><line x1="0" y1="59.33333333333334" x2="270" y2="59.33333333333334" fill="rgb(0, 0, 0)" stroke="rgb(60, 60, 60)" stroke-width="1px" opacity="0.25"></line><line x1="0" y1="39.55555555555557" x2="270" y2="39.55555555555557" fill="rgb(0, 0, 0)" stroke="rgb(60, 60, 60)" stroke-width="1px" opacity="0.25"></line><line x1="0" y1="19.7777777777778" x2="270" y2="19.7777777777778" fill="rgb(0, 0, 0)" stroke="rgb(60, 60, 60)" stroke-width="1px" opacity="0.25"></line><line x1="0" y1="0" x2="270" y2="0" fill="rgb(0, 0, 0)" stroke="rgb(60, 60, 60)" stroke-width="1px" opacity="0.25"></line></g></g></g><g><g><line x1="0" y1="158.22222222222223" x2="270" y2="158.22222222222223" fill="rgb(0, 0, 0)" stroke="rgb(153, 153, 153)" stroke-width="1.5px"></line></g></g><g><g><line x1="19.285714285714285" y1="0" x2="19.285714285714285" y2="178" fill="rgb(0, 0, 0)" stroke="rgb(153, 153, 153)" stroke-width="1.5px"></line></g></g><g><g><g><g><g><path stroke="rgb(0, 119, 187)" stroke-width="2px" d="M19.285714285714285,-14.81711658085996L19.285714285714285,13.231249958422836L19.285714285714285,28.565420143299804L19.285714285714285,13.659444734950767L19.285714285714285,25.67234923739315L19.285714285714285,30.674128822438206L19.285714285714285,28.26377758777744L19.285714285714285,31.051316209656306L19.285714285714285,36.6638145246809L19.285714285714285,30.613501368929406L19.285714285714285,3.809123737949534L19.285714285714285,26.00425461220925L19.285714285714285,11.043381938529876L19.285714285714285,22.135705661534956L19.285714285714285,31.269520388228244L19.285714285714285,30.927800533866247L19.285714285714285,8.592370917311598L19.285714285714285,18.876706788779472L19.285714285714285,21.44283310755273L19.285714285714285,-5.78975679027667L19.285714285714285,1.492405811099161L19.285714285714285,17.124269011952492L19.285714285714285,2.1652221601603117L19.285714285714285,8.243521975538727L19.285714285714285,9.975033275519479L19.285714285714285,20.611013366945542L19.285714285714285,27.823999231092387L19.285714285714285,30.22735488667641L19.285714285714285,29.44478404020967L19.285714285714285,38.691335147933785L19.285714285714285,13.722593155712133L19.285714285714285,14.124345097438095L19.285714285714285,3.9516986086042323L19.285714285714285,11.902244821795108L28.928571428571427,13.980080314637178L28.928571428571427,17.064378397385354L28.928571428571427,29.135493641309836L28.928571428571427,32.84556730741204L28.928571428571427,35.185992713767746L28.928571428571427,28.521348589892284L28.928571428571427,38.780947987091366L28.928571428571427,18.40039954736173L28.928571428571427,21.859478772684128L28.928571428571427,33.81629415031739L28.928571428571427,24.769589069802095L28.928571428571427,45.83073434772817L28.928571428571427,20.422752257037757L28.928571428571427,33.79873266239895L28.928571428571427,34.57299937790012L28.928571428571427,26.157716754979845L28.928571428571427,35.92322643301341L28.928571428571427,40.332884707261854L28.928571428571427,16.01024385451197L28.928571428571427,20.892873804722115L28.928571428571427,18.97218309300368L28.928571428571427,23.308718017813362L28.928571428571427,-0.24463732582429998L28.928571428571427,24.616646674024736L28.928571428571427,15.368888704030269L28.928571428571427,22.200597969190113L28.928571428571427,21.134550716311537L28.928571428571427,22.88002304716096L28.928571428571427,12.193983454405355L28.928571428571427,17.046095893786458L28.928571428571427,11.791520294484485L28.928571428571427,30.27157758026874L28.928571428571427,40.54856964293185L28.928571428571427,41.004729768360704L28.928571428571427,40.053655244676634L28.928571428571427,42.52408321697945L28.928571428571427,16.21876555018619L28.928571428571427,29.140797238877724L28.928571428571427,28.350041375688818L28.928571428571427,30.163075258678134L28.928571428571427,15.648043667814022L28.928571428571427,29.108066187955814L38.57142857142857,24.400813897445516L38.57142857142857,26.658365292016185L38.57142857142857,39.2908916621719L38.57142857142857,49.30367823007259L38.57142857142857,44.12554757864143L38.57142857142857,30.24896436905712L38.57142857142857,36.38736853452701L38.57142857142857,51.67580786087089L38.57142857142857,61.98782667891301L38.57142857142857,42.39853241998955L38.57142857142857,40.62001378445561L38.57142857142857,35.525252511752086L38.57142857142857,36.331134516389625L38.57142857142857,36.492173503870646L38.57142857142857,35.18990110286833L38.57142857142857,35.166668583524796L38.57142857142857,34.55798168752946L38.57142857142857,40.181573784330965L38.57142857142857,43.549231235438924L38.57142857142857,41.34891536886752L38.57142857142857,41.15686868263441L38.57142857142857,51.074115533099175L38.57142857142857,11.418216721626806L38.57142857142857,25.058279343956997L38.57142857142857,48.719656953323465L38.57142857142857,51.88329922901107L38.57142857142857,52.25751780517807L38.57142857142857,49.472875875520174L38.57142857142857,52.54612638556871L38.57142857142857,28.777324836807253L38.57142857142857,24.98775967572871L38.57142857142857,36.83075614341939L38.57142857142857,43.38479684731672L38.57142857142857,42.4663207255945L38.57142857142857,53.43394415582756L38.57142857142857,62.61283467150386L38.57142857142857,53.56213188530995L38.57142857142857,44.73777548687855L38.57142857142857,59.626123429639335L38.57142857142857,71.05064979207044L38.57142857142857,42.62260853919966L38.57142857142857,48.89497616096486L48.214285714285715,50.24034962378434L48.214285714285715,53.53156553632843L48.214285714285715,67.0546946382135L48.214285714285715,63.08446655472443L48.214285714285715,61.243335792887805L48.214285714285715,51.37635520201377L48.214285714285715,54.61913328429928L48.214285714285715,45.33870453672134L48.214285714285715,54.40323274091131L48.214285714285715,52.607304111319934L48.214285714285715,62.93341231722192L48.214285714285715,42.75143259591991L48.214285714285715,50.61907092759624L48.214285714285715,62.22809085333779L48.214285714285715,58.99991015444856L48.214285714285715,48.94425598426389L48.214285714285715,48.81115513695187L48.214285714285715,56.92383151244863L48.214285714285715,61.01873586239131L48.214285714285715,61.35069754584326L48.214285714285715,70.63783800454489L48.214285714285715,38.32854656289945L48.214285714285715,51.78231521924229L48.214285714285715,54.76719200367333L48.214285714285715,54.848742163043156L48.214285714285715,50.84103666694621L48.214285714285715,54.49463992818525L48.214285714285715,35.30722745361524L48.214285714285715,27.558533277063503L48.214285714285715,32.26714904397991L48.214285714285715,30.692454413316256L48.214285714285715,44.08812551244594L48.214285714285715,52.2200528733601L48.214285714285715,58.78427736741986L48.214285714285715,54.024867926070556L48.214285714285715,66.44554051997034L48.214285714285715,54.783628698968826L48.214285714285715,68.37973887463778L48.214285714285715,71.13167754058264L48.214285714285715,85.97426359997723L57.857142857142854,59.71941073889124L57.857142857142854,64.98629865208684L57.857142857142854,66.28605692282967L57.857142857142854,58.453926943580896L57.857142857142854,54.92900732395155L57.857142857142854,67.86561947738723L57.857142857142854,62.01385361027741L57.857142857142854,68.59390010744215L57.857142857142854,72.30290254539182L57.857142857142854,61.291497880401465L57.857142857142854,57.92151074724994L57.857142857142854,46.18052506848073L57.857142857142854,59.8626977573733L57.857142857142854,69.22543048155377L57.857142857142854,66.4929142591878L57.857142857142854,68.11873878755648L57.857142857142854,77.41422972908701L57.857142857142854,60.21382975080263L57.857142857142854,69.61814258064686L57.857142857142854,85.46152686946441L57.857142857142854,75.24669559720863L57.857142857142854,77.5123622306939L57.857142857142854,64.64746389255792L57.857142857142854,47.67625604549568L57.857142857142854,55.16409106143034L57.857142857142854,55.22336383646689L57.857142857142854,57.31017152195088L57.857142857142854,61.14843989314251L57.857142857142854,65.79988423990841L57.857142857142854,65.83673929642883L57.857142857142854,73.73254871053248L57.857142857142854,50.88682725505349L57.857142857142854,54.649500533134955L57.857142857142854,55.398342484747104L57.857142857142854,65.32688706653863L57.857142857142854,63.79824075555665L57.857142857142854,63.954070539675016L57.857142857142854,63.26984976017583L57.857142857142854,65.25977835692103L67.5,62.0804119949435L67.5,69.78071928821704L67.5,67.39115862265183L67.5,64.03571467262809L67.5,69.50777340065159L67.5,77.50199413907292L67.5,84.64367848337086L67.5,80.68425934268605L67.5,82.22298250117707L67.5,74.51616679673015L67.5,70.69378321131175L67.5,69.54806240322918L67.5,63.533760298162406L67.5,80.93784428039044L67.5,66.33207162459006L67.5,66.81372127145778L67.5,62.94931802941181L67.5,64.99698781976126L67.5,62.4071779463564L67.5,65.27919213722065L67.5,66.22519833693849L67.5,55.15390474375721L67.5,55.41081407665527L67.5,56.9892454855931L67.5,53.94001865399966L67.5,56.012377919169126L67.5,63.58902627843662L67.5,86.17903977471089L67.5,70.67193744218181L67.5,65.78613291496865L67.5,67.51460339548422L67.5,80.46634370042224L67.5,69.33864597584144L67.5,67.31763294865557L67.5,73.45178378937565L67.5,52.99315244347605L67.5,65.15536981789059L67.5,75.95208522856903L67.5,67.45145518953672L67.5,86.15146546256253L77.14285714285714,87.11072357113187L77.14285714285714,89.27817277149043L77.14285714285714,75.0891766311865L77.14285714285714,86.20669591333647L77.14285714285714,77.75429971162188L77.14285714285714,73.76489302866551L77.14285714285714,75.21073384296633L77.14285714285714,76.84669359849931L77.14285714285714,85.4233263829969L77.14285714285714,82.67005697685217L77.14285714285714,92.90195478212809L77.14285714285714,89.14184958067719L77.14285714285714,79.40545731713019L77.14285714285714,73.19825234768577L77.14285714285714,70.62427225432137L77.14285714285714,73.97089148924883L77.14285714285714,74.68311874356216L77.14285714285714,81.82717403476579L77.14285714285714,71.64654176920408L77.14285714285714,79.88964657611832L77.14285714285714,79.99185411244278L77.14285714285714,83.57737128535032L77.14285714285714,66.23564733226569L77.14285714285714,65.82924311322323L77.14285714285714,62.32312425021408L77.14285714285714,71.06750395059369L77.14285714285714,68.19045843775937L77.14285714285714,64.05789233238355L77.14285714285714,66.60398197764668L77.14285714285714,58.24272329896729L77.14285714285714,71.7696906683249L77.14285714285714,79.08080082215615L77.14285714285714,73.19728690101023L77.14285714285714,72.98601833675956L77.14285714285714,80.01377413355769L77.14285714285714,73.77541611138393L77.14285714285714,76.84671229911558L77.14285714285714,70.22257874881852L77.14285714285714,62.960715194729076L86.78571428571429,84.69992155907445L86.78571428571429,77.81883508079652L86.78571428571429,72.22230360708014L86.78571428571429,80.36477217953231L86.78571428571429,82.57064354746039L86.78571428571429,75.46680779387981L86.78571428571429,77.99628249550784L86.78571428571429,75.86038201497949L86.78571428571429,83.27031870750758L86.78571428571429,83.95007541220292L86.78571428571429,79.1224228474618L86.78571428571429,78.57000005111489L86.78571428571429,82.04385876840254L86.78571428571429,76.35617442771668L86.78571428571429,75.13896909462339L86.78571428571429,76.90476335417054L86.78571428571429,85.94737812676523L86.78571428571429,79.87005566172232L86.78571428571429,74.25357944933035L86.78571428571429,68.7897895710383L86.78571428571429,79.09863042851572L86.78571428571429,74.57581547113432L86.78571428571429,81.77438957221611L86.78571428571429,89.15173065698527L86.78571428571429,90.64369172806701L86.78571428571429,81.66140722870593L86.78571428571429,73.18614877909944L86.78571428571429,71.00701763554065L86.78571428571429,71.04063349625325L86.78571428571429,77.12938456730558L86.78571428571429,70.38417302036855L86.78571428571429,73.47384495084893L86.78571428571429,83.07016234855433L86.78571428571429,77.83374590830354L86.78571428571429,69.58573966848L86.78571428571429,73.18085893170323L86.78571428571429,66.08453938271376L86.78571428571429,68.99222079657974L86.78571428571429,65.29212715207944L86.78571428571429,70.58338729130871L96.42857142857143,70.0130158558745L96.42857142857143,70.61022121811794L96.42857142857143,83.08981196611722L96.42857142857143,78.35712480860713L96.42857142857143,87.18322860589282L96.42857142857143,85.50618758633131L96.42857142857143,86.18810548617414L96.42857142857143,75.38569817550032L96.42857142857143,78.36912069218916L96.42857142857143,82.03074537216165L96.42857142857143,88.1173838234523L96.42857142857143,90.76450556588976L96.42857142857143,88.98884790914275L96.42857142857143,88.03160785038814L96.42857142857143,92.99046002599655L96.42857142857143,95.97258742713765L96.42857142857143,85.11078929939171L96.42857142857143,89.84960964013783L96.42857142857143,82.7621968800537L96.42857142857143,73.49701414858241L96.42857142857143,75.77756284951796L96.42857142857143,84.33355583715218L96.42857142857143,84.66180646532774L96.42857142857143,82.76033063267735L96.42857142857143,90.9021070214216L96.42857142857143,75.69597727132465L96.42857142857143,68.38168874757399L96.42857142857143,69.52881807379734L96.42857142857143,75.10091199122225L96.42857142857143,76.9956737218838L96.42857142857143,71.86917060432746L96.42857142857143,84.05796355695276L96.42857142857143,80.01837991093049L96.42857142857143,75.23496385265062L96.42857142857143,68.33167403183914L96.42857142857143,70.40464503181168L96.42857142857143,68.24193110698444L96.42857142857143,70.7888613354536L96.42857142857143,76.51675535243318L96.42857142857143,75.9863684131133L96.42857142857143,87.05534020782079L106.07142857142857,92.33342868320484L106.07142857142857,93.94723988645013L106.07142857142857,98.64606706940772L106.07142857142857,81.92201827220967L106.07142857142857,81.57575317507033L106.07142857142857,83.5425479349596L106.07142857142857,83.63362204918546L106.07142857142857,77.75100856556068L106.07142857142857,87.81764888882779L106.07142857142857,87.35248660583052L106.07142857142857,91.18466676331147L106.07142857142857,85.77602914009442L106.07142857142857,77.47732337004975L106.07142857142857,77.33691019295541L106.07142857142857,79.39193084392946L106.07142857142857,78.98173131345776L106.07142857142857,83.94064733464957L106.07142857142857,84.2276471970578L106.07142857142857,82.31899280457297L106.07142857142857,85.08412900764239L106.07142857142857,87.16485615888334L106.07142857142857,84.20544374179303L106.07142857142857,82.44994279392765L106.07142857142857,79.51282518826186L106.07142857142857,82.92745127644824L106.07142857142857,72.09032831278125L106.07142857142857,69.36326152429325L106.07142857142857,75.91979174687336L106.07142857142857,71.55267423779756L106.07142857142857,84.20078363254262L106.07142857142857,88.67292522861649L106.07142857142857,90.99234242655622L106.07142857142857,79.17245403313642L106.07142857142857,79.25098066492616L106.07142857142857,85.04634291640497L106.07142857142857,93.1981830414164L106.07142857142857,101.72770654588443L106.07142857142857,85.27390038627088L106.07142857142857,83.57141124998154L106.07142857142857,83.37569802744626L115.71428571428571,83.22516334301298L115.71428571428571,74.5865507167012L115.71428571428571,78.2772018828185L115.71428571428571,87.05716677813876L115.71428571428571,92.00030487827615L115.71428571428571,85.4542848232517L115.71428571428571,83.51331125675416L115.71428571428571,91.53855477095246L115.71428571428571,79.72115874614013L115.71428571428571,88.96388788947213L115.71428571428571,85.70404206074527L115.71428571428571,84.8891362648641L115.71428571428571,85.24038563511712L115.71428571428571,93.3073398994588L115.71428571428571,88.91933453973566L115.71428571428571,88.909457400155L115.71428571428571,89.47497504501922L115.71428571428571,96.3199578748441L115.71428571428571,92.2418845814908L115.71428571428571,83.8522349973652L115.71428571428571,85.5965090474897L115.71428571428571,90.56380918113868L115.71428571428571,95.71322607358054L115.71428571428571,86.41896854654802L115.71428571428571,78.79706424696094L115.71428571428571,79.47905606429153L115.71428571428571,67.37737690978804L115.71428571428571,77.1424886227727L115.71428571428571,76.80389030357017L115.71428571428571,85.26085566694096L115.71428571428571,81.27696936457092L115.71428571428571,88.41772506115079L115.71428571428571,85.69901376386163L115.71428571428571,88.6511221731882L115.71428571428571,87.23985755739362L115.71428571428571,81.22854938419644L115.71428571428571,73.32093536112565L115.71428571428571,73.55815727795809L115.71428571428571,90.9138223923384L115.71428571428571,87.17534209737678L125.35714285714286,81.68558081325259L125.35714285714286,86.8841927177557L125.35714285714286,91.42802997391513L125.35714285714286,93.84432139108567L125.35714285714286,99.81178613171967L125.35714285714286,79.24380193882116L125.35714285714286,82.86080251309366L125.35714285714286,82.81314054300906L125.35714285714286,85.15213108627975L125.35714285714286,91.21310912577367L125.35714285714286,100.77446990746425L125.35714285714286,93.55759460253418L125.35714285714286,89.80623399066005L125.35714285714286,85.94105917190424L125.35714285714286,78.5758861156134L125.35714285714286,88.69431214773955L125.35714285714286,93.08910803741794L125.35714285714286,99.16423317241619L125.35714285714286,94.39899109736518L125.35714285714286,90.2931392606225L125.35714285714286,89.61522362858148L125.35714285714286,87.23129485452891L125.35714285714286,97.03693668421276L125.35714285714286,99.51049029786422L125.35714285714286,100.04542395514336L125.35714285714286,97.19270763223619L125.35714285714286,80.80680638738956L125.35714285714286,80.3692814560045L125.35714285714286,79.2390192698226L125.35714285714286,90.67062865334795L125.35714285714286,87.50405104408159L125.35714285714286,82.70846148268741L125.35714285714286,91.31394452216048L125.35714285714286,86.10120326496255L125.35714285714286,90.4266892856716L125.35714285714286,82.34698468100514L125.35714285714286,89.08603669462163L125.35714285714286,82.218301393799L125.35714285714286,75.27921757723944L125.35714285714286,74.51568348582221L135,84.9770545604366L135,93.91377193651492L135,89.90782492842743L135,95.42794802280149L135,95.15126847057006L135,96.28303264343484L135,90.21341601270682L135,85.89973129784016L135,87.58513471656015L135,88.18494015704044L135,91.94262476757768L135,84.67591834330588L135,96.29590567375305L135,106.74398078112188L135,91.2362250343266L135,94.19527689283244L135,86.02053791482341L135,85.51272938502618L135,85.87424159359608L135,94.57179846949383L135,93.84258290084404L135,94.4350573457412L135,86.15330615927238L135,85.4241617319353L135,81.92672432645365L135,87.71025263379536L135,93.61473197671751L135,97.7834771543058L135,99.0530597622117L135,92.30011442432328L135,83.06022558488165L135,81.31169764260413L135,80.49403342176785L135,96.19628933345199L135,93.16240433949515L135,86.13347984213601L135,96.16015854658731L135,86.80707339752944L144.64285714285714,88.27783426628051L144.64285714285714,88.31135796498582L144.64285714285714,92.92751298938984L144.64285714285714,96.43546863089213L144.64285714285714,94.77008992381353L144.64285714285714,95.11034222545037L144.64285714285714,103.57245416437009L144.64285714285714,106.7777988612319L144.64285714285714,98.76925861369892L144.64285714285714,91.21562341569657L144.64285714285714,99.59984359043783L144.64285714285714,91.49136085515653L144.64285714285714,93.54490549620583L144.64285714285714,97.07084066159815L144.64285714285714,101.62358863776632L144.64285714285714,94.63616386296442L144.64285714285714,94.1969399142125L144.64285714285714,86.01492239363148L144.64285714285714,87.50038149353158L144.64285714285714,89.83596430723313L144.64285714285714,78.13947040143276L144.64285714285714,89.10999348476462L144.64285714285714,86.15718584089437L144.64285714285714,90.54708443976814L144.64285714285714,90.84902763504212L144.64285714285714,90.24088211671898L144.64285714285714,89.15250077932907L144.64285714285714,80.09739732199807L144.64285714285714,81.93867494999377L144.64285714285714,87.61914249860648L144.64285714285714,95.89025586540873L144.64285714285714,95.642092932104L144.64285714285714,102.82732601560159L144.64285714285714,89.04112093738253L144.64285714285714,89.82153145063175L144.64285714285714,85.08887977354676L144.64285714285714,82.91183638213512L144.64285714285714,90.5440770816445L144.64285714285714,99.00139333595672L144.64285714285714,92.11985362377999L144.64285714285714,96.08634851460002L154.28571428571428,98.85974235982304L154.28571428571428,100.72530734860595L154.28571428571428,93.73268603676773L154.28571428571428,99.51531633439856L154.28571428571428,98.31629093377376L154.28571428571428,100.76323864128675L154.28571428571428,102.77288489301891L154.28571428571428,100.44739040456814L154.28571428571428,94.02331688040059L154.28571428571428,94.28193506817159L154.28571428571428,98.73876736626441L154.28571428571428,92.50194731724841L154.28571428571428,94.53742185324646L154.28571428571428,103.09956510054532L154.28571428571428,102.00375780045137L154.28571428571428,101.24996630166126L154.28571428571428,99.25014059167927L154.28571428571428,100.18898559927705L154.28571428571428,104.63799060442571L154.28571428571428,102.25874376663016L154.28571428571428,102.32333828827807L154.28571428571428,103.31839960441961L154.28571428571428,97.34343040693719L154.28571428571428,89.07666579510125L154.28571428571428,92.61597431807265L154.28571428571428,75.78854271436859L154.28571428571428,92.26320437192001L154.28571428571428,84.64660271034752L154.28571428571428,88.65847645351292L154.28571428571428,96.2434357135435L154.28571428571428,92.9922803584765L154.28571428571428,104.0866089443119L154.28571428571428,98.00276310455645L154.28571428571428,92.82375456022329L154.28571428571428,96.47997235334182L154.28571428571428,92.05069774500951L154.28571428571428,91.49365518027665L154.28571428571428,86.71335944719254L154.28571428571428,86.56514844542362L154.28571428571428,90.14440363460817L163.92857142857142,102.20067974483061L163.92857142857142,101.61508800254649L163.92857142857142,110.94847022890877L163.92857142857142,114.68698749979237L163.92857142857142,108.96305091272399L163.92857142857142,96.74147306536003L163.92857142857142,91.21133535695691L163.92857142857142,91.64097371520835L163.92857142857142,84.24379077315339L163.92857142857142,95.46161683191198L163.92857142857142,91.58963853922423L163.92857142857142,95.27216990077656L163.92857142857142,101.83781403273838L163.92857142857142,104.21574048051201L163.92857142857142,96.12987669483864L163.92857142857142,94.547630035602L163.92857142857142,93.8067753522599L163.92857142857142,100.68954192453648L163.92857142857142,98.20941146326477L163.92857142857142,105.78462453750221L163.92857142857142,101.33503458540112L163.92857142857142,93.3774355588782L163.92857142857142,99.34226807916068L163.92857142857142,92.39572703088331L163.92857142857142,88.38722029606838L163.92857142857142,92.01158129475054L163.92857142857142,95.82441857504435L163.92857142857142,97.91018438036463L163.92857142857142,95.06412348565591L163.92857142857142,96.98793349580909L163.92857142857142,89.6169717955937L163.92857142857142,93.50311650325955L163.92857142857142,78.59404194183541L163.92857142857142,91.90691397352121L163.92857142857142,88.96158538120848L163.92857142857142,92.54412277057486L163.92857142857142,99.56104371788265L163.92857142857142,105.58755024312566L163.92857142857142,102.33237104438919L163.92857142857142,108.7108501774792L173.57142857142858,101.72051781048057L173.57142857142858,107.23013177094666L173.57142857142858,112.36462610774588L173.57142857142858,100.96987094900355L173.57142857142858,100.77786718063362L173.57142857142858,100.25915723659945L173.57142857142858,100.78367043241208L173.57142857142858,103.94549291288794L173.57142857142858,108.3970438404901L173.57142857142858,108.8645529632847L173.57142857142858,105.5114746396126L173.57142857142858,95.00632906184882L173.57142857142858,91.38132134678403L173.57142857142858,96.31533957350383L173.57142857142858,99.00305245151334L173.57142857142858,97.61010966067307L173.57142857142858,92.81994275800595L173.57142857142858,104.08041414219134L173.57142857142858,103.94072721096008L173.57142857142858,106.27011474187451L173.57142857142858,106.5761251197507L173.57142857142858,104.78816090766753L173.57142857142858,105.13525930027002L173.57142857142858,103.54140249809855L173.57142857142858,93.80661956952089L173.57142857142858,92.59648409709311L173.57142857142858,96.09032291904077L173.57142857142858,91.52693519633007L173.57142857142858,98.25876777885287L173.57142857142858,103.29592317055422L173.57142857142858,102.570788955289L173.57142857142858,108.74893752868843L173.57142857142858,97.26619495896689L173.57142857142858,92.62262390821094L173.57142857142858,86.69367405899382L173.57142857142858,90.63272455940786L173.57142857142858,100.47370545896644L173.57142857142858,106.68782278663237L173.57142857142858,100.67747864385238L173.57142857142858,104.13211669878041L183.21428571428572,106.97203566842799L183.21428571428572,99.03276524803488L183.21428571428572,106.65686410847839L183.21428571428572,100.43439666142187L183.21428571428572,103.59970575795643L183.21428571428572,112.01781841916154L183.21428571428572,117.11793826104588L183.21428571428572,103.14422373687724L183.21428571428572,112.88831180893015L183.21428571428572,108.12186658055498L183.21428571428572,97.2754802922661L183.21428571428572,103.61834439424868L183.21428571428572,108.56795744835917L183.21428571428572,112.16615940905695L183.21428571428572,113.41597231758551L183.21428571428572,110.16159123102577L183.21428571428572,108.83425625779745L183.21428571428572,101.339578224266L183.21428571428572,102.99395951280329L183.21428571428572,100.44480251593325L183.21428571428572,102.11790196227125L183.21428571428572,104.27102469414065L183.21428571428572,94.89789402689291L183.21428571428572,86.10625692331247L183.21428571428572,95.01011190752921L183.21428571428572,103.78545727826929L183.21428571428572,109.97224851083756L183.21428571428572,108.01458939491908L183.21428571428572,106.58084553957833L183.21428571428572,98.2507146718288L183.21428571428572,94.33800804283659L183.21428571428572,97.3463405668722L183.21428571428572,102.94352011614293L183.21428571428572,100.1321719133849L183.21428571428572,100.73233877285293L183.21428571428572,93.3176643106512L183.21428571428572,95.78972193716993L183.21428571428572,101.44489752853661L183.21428571428572,99.5940463174997L183.21428571428572,98.6560127567355L183.21428571428572,102.61377068678499L192.85714285714286,103.32374435456569L192.85714285714286,107.56511420152437L192.85714285714286,106.56834720722614L192.85714285714286,110.75989927739964L192.85714285714286,110.1544320113259L192.85714285714286,108.5476692076602L192.85714285714286,108.07189719944998L192.85714285714286,112.74919065477334L192.85714285714286,110.03478378042708L192.85714285714286,105.87130413179011L192.85714285714286,102.93567061922263L192.85714285714286,112.1399339175965L192.85714285714286,111.18831609905236L192.85714285714286,109.19598314032572L192.85714285714286,109.97315818189949L192.85714285714286,115.5337544832457L192.85714285714286,104.70518188068907L192.85714285714286,104.22611097727004L192.85714285714286,111.7557836758455L192.85714285714286,106.44131491108898L192.85714285714286,106.44804340052438L192.85714285714286,98.30226268306737L192.85714285714286,104.22708611317363L192.85714285714286,97.09550433798034L192.85714285714286,89.78365907204852L192.85714285714286,88.77705249401883L192.85714285714286,92.82969381737483L192.85714285714286,103.17151218848093L192.85714285714286,108.26576939408645L192.85714285714286,114.73557503797079L192.85714285714286,106.4580940816119L192.85714285714286,109.28321874221054L192.85714285714286,102.4653129185034L192.85714285714286,108.887219490231L192.85714285714286,105.18928458389892L192.85714285714286,106.89769467173372L192.85714285714286,112.86108463348626L192.85714285714286,110.28178634913438L192.85714285714286,102.97911200261451L192.85714285714286,99.59409557185376L192.85714285714286,100.85237179704258L202.5,101.075502876818L202.5,100.91703208018797L202.5,109.46160445052062L202.5,112.38561606469358L202.5,115.70531667640702L202.5,117.73518552272722L202.5,120.21237757802197L202.5,118.28368029263396L202.5,117.79011883166169L202.5,113.97331287890051L202.5,119.47633142594786L202.5,108.39433792824124L202.5,114.19819950285964L202.5,109.15036119951851L202.5,109.22371503870119L202.5,109.7609641753593L202.5,112.74051590115911L202.5,98.64710214810887L202.5,102.80551582157338L202.5,100.11305067421166L202.5,107.12328892107176L202.5,106.41988012949514L202.5,114.4098236162391L202.5,113.47755133834374L202.5,112.43329266279409L202.5,105.18237531988173L202.5,102.22278234910644L202.5,108.76868732370609L202.5,107.5120295182725L202.5,110.11075705596302L202.5,99.4735981019182L202.5,109.33775582927194L202.5,105.76896188468372L202.5,111.55750446604073L202.5,111.2784506306234L202.5,105.4401775361872L202.5,103.42436742157399L202.5,99.3305835845311L202.5,107.02667692701125L202.5,105.5576254199617L202.5,101.959257715517L212.14285714285714,104.17446832538735L212.14285714285714,110.20419336830895L212.14285714285714,119.28639995606599L212.14285714285714,115.41906052428267L212.14285714285714,115.80528464474943L212.14285714285714,114.8276218672779L212.14285714285714,112.09175076552022L212.14285714285714,114.83619122651557L212.14285714285714,118.31026469106547L212.14285714285714,117.86306910111881L212.14285714285714,114.80152347852746L212.14285714285714,116.87691601682347L212.14285714285714,112.60272308794511L212.14285714285714,110.00192004936979L212.14285714285714,102.81128653054925L212.14285714285714,108.22368492648961L212.14285714285714,117.29736749708233L212.14285714285714,120.40880185724376L212.14285714285714,124.22106132060271L212.14285714285714,116.52187474724309L212.14285714285714,109.34075801200993L212.14285714285714,110.58046184224946L212.14285714285714,111.52032057191767L212.14285714285714,109.68294012130137L212.14285714285714,112.22508014852968L212.14285714285714,107.83970690471364L212.14285714285714,111.71622997278764L212.14285714285714,112.38424699027878L212.14285714285714,115.27390942353401L212.14285714285714,108.43556934224601L212.14285714285714,106.53394732120522L212.14285714285714,104.6854534647107L212.14285714285714,109.10983628505575L212.14285714285714,114.31189866481022L212.14285714285714,114.65351172325357L212.14285714285714,106.93992449729716L212.14285714285714,103.79541293846347L212.14285714285714,106.59729222496416L212.14285714285714,115.14139833474198L221.78571428571428,121.68192130844882L221.78571428571428,119.72053874776748L221.78571428571428,119.71120786614809L221.78571428571428,115.48294959037062L221.78571428571428,110.43901290768848L221.78571428571428,112.73002843887951L221.78571428571428,117.37469683983733L221.78571428571428,116.82849541908455L221.78571428571428,117.75266219275102L221.78571428571428,117.21022351441923L221.78571428571428,122.48139854982382L221.78571428571428,119.58551392716433L221.78571428571428,123.1724231692555L221.78571428571428,123.92975762732574L221.78571428571428,120.70249403399211L221.78571428571428,117.55934623873091L221.78571428571428,118.51682574746522L221.78571428571428,113.9019540262074L221.78571428571428,117.40226652494178L221.78571428571428,113.55185387693507L221.78571428571428,108.72900146872732L221.78571428571428,114.28595323276414L221.78571428571428,116.96802833756277L221.78571428571428,118.19166533663817L221.78571428571428,115.1688219101128L221.78571428571428,111.50114016081274L221.78571428571428,114.66157787581844L221.78571428571428,116.24996210327748L221.78571428571428,118.74698333125579L221.78571428571428,116.40104418703677L221.78571428571428,115.62152345139374L221.78571428571428,113.22838891110638L221.78571428571428,109.24677421851713L221.78571428571428,102.9895189787506L221.78571428571428,99.2463248045579L221.78571428571428,114.09217162425001L221.78571428571428,107.13001100715805L221.78571428571428,114.06018046039428L221.78571428571428,113.48062520787634L221.78571428571428,111.30150425837414L231.42857142857142,109.78612544248752L231.42857142857142,114.42236852314227L231.42857142857142,119.3960856603221L231.42857142857142,120.25842241750638L231.42857142857142,123.0720789609739L231.42857142857142,124.9033543136749L231.42857142857142,128.54214315681523L231.42857142857142,125.55282378303991L231.42857142857142,119.2287175873729L231.42857142857142,117.2422875217485L231.42857142857142,117.20346250048604L231.42857142857142,121.88500647889371L231.42857142857142,116.68954120895675L231.42857142857142,110.76732075041711L231.42857142857142,113.892772103969L231.42857142857142,111.2246093558347L231.42857142857142,115.9560874850464L231.42857142857142,113.24341996085782L231.42857142857142,115.64724420716315L231.42857142857142,108.62743718947938L231.42857142857142,110.04291552155134L231.42857142857142,110.68018563365953L231.42857142857142,114.39052945109484L231.42857142857142,115.76023000319168L231.42857142857142,118.66323825819909L231.42857142857142,116.13559383149449L231.42857142857142,119.12385705971687L231.42857142857142,117.17494227540209L231.42857142857142,122.69725829923513L231.42857142857142,122.94880393550082L231.42857142857142,120.43885696374545L231.42857142857142,124.1514930539585L231.42857142857142,119.46791431850403L231.42857142857142,124.95657351938611L231.42857142857142,123.42190317441988L231.42857142857142,120.44365738840216L231.42857142857142,113.40925335294791L231.42857142857142,114.2608176805318L241.07142857142858,119.78003059386987L241.07142857142858,117.57369775708383L241.07142857142858,119.55648961876683L241.07142857142858,123.75090298714483L241.07142857142858,119.14695658614914L241.07142857142858,119.17613008351864L241.07142857142858,120.41901778153954L241.07142857142858,121.94571441726646L241.07142857142858,126.3762361028796L241.07142857142858,122.37539329509636L241.07142857142858,122.30946996571376L241.07142857142858,123.30023214873724L241.07142857142858,119.7783075219482L241.07142857142858,122.49534211963288L241.07142857142858,123.04777922742159L241.07142857142858,122.48617615872841L241.07142857142858,122.16761494687398L241.07142857142858,123.5293621361923L241.07142857142858,124.73476169153085L241.07142857142858,122.35140604098392L241.07142857142858,119.59391850688576L241.07142857142858,121.68241507618075L241.07142857142858,124.72729625786411L241.07142857142858,113.38921418346672L241.07142857142858,114.6720770273072L241.07142857142858,116.05541782287202L241.07142857142858,114.25921313389603L241.07142857142858,117.66286699495063L241.07142857142858,122.73916147330874L241.07142857142858,122.15703522868637L241.07142857142858,119.71323997270343L241.07142857142858,126.42539066766466L241.07142857142858,118.75576384879011L241.07142857142858,125.40724399894592L241.07142857142858,122.89582074012426L241.07142857142858,120.67201182506787L241.07142857142858,116.21868717893015L241.07142857142858,117.06559673283925L241.07142857142858,121.05658704307999L250.71428571428572,118.80482485851044L250.71428571428572,121.67797983662524L250.71428571428572,125.5997972917465L250.71428571428572,124.42518804263518L250.71428571428572,125.80869057451554L250.71428571428572,123.3394115395505L250.71428571428572,126.56685269305726L250.71428571428572,121.40408603606394L250.71428571428572,126.57956720744235L250.71428571428572,126.35566407322352L250.71428571428572,127.78753651573604L250.71428571428572,127.68187003436957L250.71428571428572,128.10547323354712L250.71428571428572,126.72231982678683L250.71428571428572,123.82127067166871L250.71428571428572,122.27548697422925L250.71428571428572,125.82800592679371L250.71428571428572,126.62495002964292L250.71428571428572,127.54116204604333L250.71428571428572,122.38045805098179L250.71428571428572,127.08428748224449L250.71428571428572,126.66900919938647L250.71428571428572,128.21900859116255L250.71428571428572,114.84193713648361L250.71428571428572,120.01320940696476L250.71428571428572,119.94492036633326L250.71428571428572,115.33142414278038L250.71428571428572,115.55533664443507L250.71428571428572,123.87630969892987L250.71428571428572,126.90261670715242L250.71428571428572,123.21326952172628L250.71428571428572,128.11568936701602L250.71428571428572,128.0893097883886L250.71428571428572,126.40658000242598L250.71428571428572,129.5283602662795L250.71428571428572,129.17604388456357L250.71428571428572,129.0343946688356L250.71428571428572,122.13257612027618L250.71428571428572,121.22178154994451L250.71428571428572,119.5038805910512" style="fill: none;" fill="none"></path></g></g></g></g><g opacity="0.2"><g><g><g><path stroke="rgb(0, 119, 187)" stroke-width="2px" d="M19.285714285714285,-43.27802562713623L19.285714285714285,27.801781919267455L19.285714285714285,-0.9931577311621993L19.285714285714285,-26.53151959843106L19.285714285714285,53.34086288346185L19.285714285714285,50.92278748088414L19.285714285714285,-8.323973655700684L19.285714285714285,43.51011239157785L19.285714285714285,38.13143242730035L19.285714285714285,24.66136776076425L19.285714285714285,35.223522345225035L19.285714285714285,45.07156652874417L19.285714285714285,21.54514355129666L19.285714285714285,-36.37853818469577L19.285714285714285,59.2875586880578L19.285714285714285,-11.394128508037994L19.285714285714285,38.77250144216751L19.285714285714285,44.969407611423065L19.285714285714285,30.415239493052184L19.285714285714285,-24.91003855069482L19.285714285714285,34.30300754970975L19.285714285714285,25.2919921875L19.285714285714285,-46.63844807942712L19.285714285714285,12.415618658065796L19.285714285714285,40.57202381557889L19.285714285714285,-20.27332515186734L19.285714285714285,17.360966099633117L19.285714285714285,12.57229926851062L19.285714285714285,36.56497997707791L19.285714285714285,38.64347659216989L19.285714285714285,33.832388083140074L19.285714285714285,28.270927826563536L19.285714285714285,52.56116141213312L19.285714285714285,-23.73051918877499L19.285714285714285,14.72697300381131L19.285714285714285,-11.307271030214082L19.285714285714285,23.828064097298522L28.928571428571427,17.09683354695639L28.928571428571427,21.690825515323212L28.928571428571427,47.24216649267407L28.928571428571427,38.41067780388727L28.928571428571427,38.69663082228769L28.928571428571427,18.524382405810883L28.928571428571427,54.17034708129036L28.928571428571427,-12.170423110326112L28.928571428571427,27.048097610473633L28.928571428571427,51.75151721636456L28.928571428571427,11.199531449211975L28.928571428571427,77.42245226436192L28.928571428571427,-17.68922087881299L28.928571428571427,53.86270327038237L28.928571428571427,35.73439945114984L28.928571428571427,13.534792820612608L28.928571428571427,50.57149095005461L28.928571428571427,46.94737211863202L28.928571428571427,-20.473717424604644L28.928571428571427,28.216818730036437L28.928571428571427,16.09114702542624L28.928571428571427,29.813520405027617L28.928571428571427,-35.574670341279784L28.928571428571427,61.90857267379761L28.928571428571427,1.4972517490386963L28.928571428571427,32.44816186692981L28.928571428571427,19.535479836993744L28.928571428571427,25.498231543434997L28.928571428571427,-3.8350759347279677L28.928571428571427,24.324264552858153L28.928571428571427,3.9096568955315547L28.928571428571427,57.99166350894505L28.928571428571427,55.96405773692662L28.928571428571427,41.688969956503996L28.928571428571427,38.62704345915054L28.928571428571427,46.229725175433686L28.928571428571427,-23.239210950003752L28.928571428571427,48.52384477191501L28.928571428571427,27.163907580905487L28.928571428571427,32.88262608316211L28.928571428571427,-6.124503718482146L28.928571428571427,49.29809996816846L38.57142857142857,17.339935461680113L38.57142857142857,30.04469238387216L38.57142857142857,58.23968121740553L38.57142857142857,64.3228580819236L38.57142857142857,36.35835160149469L38.57142857142857,9.434089554680725L38.57142857142857,45.59497478273181L38.57142857142857,74.60846685038673L38.57142857142857,77.4558549059762L38.57142857142857,13.01459103160434L38.57142857142857,37.952235831154724L38.57142857142857,27.883110602696746L38.57142857142857,37.53995752334595L38.57142857142857,36.73373198509216L38.57142857142857,33.236492501364836L38.57142857142857,35.13181980450949L38.57142857142857,33.64495134353638L38.57142857142857,48.616961929533204L38.57142857142857,48.60071741210092L38.57142857142857,38.048441569010436L38.57142857142857,40.86879865328473L38.57142857142857,65.94998580879637L38.57142857142857,-48.065631495581755L38.57142857142857,45.51837327745227L38.57142857142857,84.21172336737317L38.57142857142857,56.62876264254254L38.57142857142857,52.818845669428526L38.57142857142857,45.295912981033325L38.57142857142857,57.156002150641555L38.57142857142857,-6.875877486334929L38.57142857142857,19.30341193411087L38.57142857142857,54.595250844955444L38.57142857142857,53.21585790316266L38.57142857142857,41.08860654301114L38.57142857142857,69.88537930117714L38.57142857142857,76.38117044501836L38.57142857142857,39.9860777060191L38.57142857142857,31.501240889231383L38.57142857142857,81.95864534378052L38.57142857142857,88.1874393357171L38.57142857142857,-0.019453340106537098L38.57142857142857,58.30352759361267L48.214285714285715,52.25840981801352L48.214285714285715,58.46838940514459L48.214285714285715,87.33938829104108L48.214285714285715,57.12912442949083L48.214285714285715,58.48163965013292L48.214285714285715,36.575884315702666L48.214285714285715,59.48330040772757L48.214285714285715,31.41806141535443L48.214285714285715,68.00002504719629L48.214285714285715,49.91341116693286L48.214285714285715,78.4225746260749L48.214285714285715,12.478463013966888L48.214285714285715,62.42052842511072L48.214285714285715,79.64162074195015L48.214285714285715,54.157639106114715L48.214285714285715,33.86077472898697L48.214285714285715,48.611503865983764L48.214285714285715,69.09284607569379L48.214285714285715,67.16109238730537L48.214285714285715,61.848640071021194L48.214285714285715,84.56854869259729L48.214285714285715,-10.135390599568666L48.214285714285715,71.96296820375655L48.214285714285715,59.2445071803199L48.214285714285715,54.971067402097916L48.214285714285715,44.82947842280072L48.214285714285715,59.97504482004378L48.214285714285715,6.526108741760254L48.214285714285715,15.93549201223587L48.214285714285715,39.330072694354584L48.214285714285715,28.33041246732077L48.214285714285715,64.18163216114044L48.214285714285715,64.41794391473135L48.214285714285715,68.6306141085095L48.214285714285715,46.88575376404657L48.214285714285715,85.07654941082001L48.214285714285715,37.29076096746658L48.214285714285715,88.77390413814122L48.214285714285715,75.25958553949994L48.214285714285715,108.23814268906912L57.857142857142854,20.337131447262237L57.857142857142854,72.88663052188026L57.857142857142854,68.23569432894391L57.857142857142854,46.70573197470773L57.857142857142854,49.641627894507536L57.857142857142854,87.27053770754073L57.857142857142854,53.236204809612715L57.857142857142854,78.46396985318925L57.857142857142854,77.86640620231628L57.857142857142854,44.774390882915924L57.857142857142854,52.86653004752266L57.857142857142854,28.569046550326874L57.857142857142854,80.38595679071214L57.857142857142854,83.26952956782448L57.857142857142854,62.394139925638854L57.857142857142854,70.5574755801095L57.857142857142854,91.35746614138286L57.857142857142854,34.41322978337607L57.857142857142854,83.72461182541319L57.857142857142854,109.22660330269072L57.857142857142854,59.92444868882498L57.857142857142854,80.91086218092177L57.857142857142854,45.35011638535394L57.857142857142854,22.219444274902344L57.857142857142854,66.39584358533224L57.857142857142854,55.312272999021744L57.857142857142854,60.440383050176834L57.857142857142854,66.90584244992998L57.857142857142854,72.77705076005724L57.857142857142854,65.89202188120949L57.857142857142854,85.57626283168793L57.857142857142854,16.61824507183499L57.857142857142854,60.2935104502572L57.857142857142854,56.52160541216534L57.857142857142854,80.21970393922594L57.857142857142854,61.505271289083694L57.857142857142854,64.18781521585252L57.857142857142854,62.243518590927124L57.857142857142854,68.24467125203874L67.5,57.31136245197722L67.5,81.33118022812738L67.5,63.80681762430403L67.5,59.00254874759251L67.5,77.71586149268681L67.5,89.49332524670496L67.5,95.35620499981775L67.5,74.74513063165877L67.5,84.53106723891365L67.5,62.95594324005975L67.5,64.96020783318414L67.5,67.82948119110533L67.5,54.51230714056227L67.5,107.04397025373247L67.5,44.423412640889495L67.5,67.53619574175941L67.5,57.15271316634285L67.5,68.06849250528548L67.5,58.52246313624913L67.5,69.58721342351701L67.5,67.64420763651532L67.5,38.54696435398526L67.5,55.796178076002334L67.5,59.35689259899988L67.5,49.366178406609436L67.5,59.120916816923355L67.5,74.95399881733789L67.5,120.06406001912224L67.5,47.411283943388185L67.5,58.45742612414891L67.5,70.10730911625757L67.5,99.8939541578293L67.5,52.647099388970275L67.5,64.28611340787675L67.5,82.65301005045575L67.5,22.305205424626678L67.5,83.39869587951237L67.5,92.1471583445867L67.5,54.700510130988235L67.5,114.20148087210126L77.14285714285714,88.5496107339859L77.14285714285714,92.52934657202827L77.14285714285714,53.80568242073059L77.14285714285714,102.88297483656142L77.14285714285714,65.07570540904999L77.14285714285714,67.78078300423094L77.14285714285714,77.37949506441754L77.14285714285714,79.30063323179883L77.14285714285714,98.28827555974325L77.14285714285714,78.5401528676351L77.14285714285714,108.24980149004195L77.14285714285714,83.50169177850088L77.14285714285714,64.80086892180974L77.14285714285714,63.8874448935191L77.14285714285714,66.76330211427477L77.14285714285714,78.99082034164006L77.14285714285714,75.75145962503221L77.14285714285714,92.54325697157118L77.14285714285714,56.375593370861495L77.14285714285714,92.2543037864897L77.14285714285714,80.14516541692946L77.14285714285714,88.95564704471165L77.14285714285714,40.22306140263876L77.14285714285714,65.2196367846595L77.14285714285714,57.06394595570036L77.14285714285714,84.18407350116307L77.14285714285714,63.8748901685079L77.14285714285714,57.85904317431981L77.14285714285714,70.42311644554138L77.14285714285714,45.70083528094821L77.14285714285714,92.06014172236125L77.14285714285714,90.04746605290308L77.14285714285714,64.37201601929137L77.14285714285714,72.66911549038359L77.14285714285714,90.55540782875485L77.14285714285714,64.4178790781233L77.14285714285714,81.45365658071306L77.14285714285714,60.28637842337292L77.14285714285714,52.06791986359491L86.78571428571429,117.30873110559253L86.78571428571429,67.49720536337959L86.78571428571429,63.82750639650557L86.78571428571429,92.57847503821056L86.78571428571429,85.87945059935254L86.78571428571429,64.81105416350896L86.78571428571429,81.7904945479499L86.78571428571429,72.65653129418692L86.78571428571429,94.38522374629976L86.78571428571429,84.96971046924591L86.78571428571429,71.88094400035011L86.78571428571429,77.74136585659453L86.78571428571429,87.25464684433409L86.78571428571429,67.82464791668787L86.78571428571429,73.31316109498343L86.78571428571429,79.55345474349129L86.78571428571429,99.51130028565726L86.78571428571429,70.75407196415796L86.78571428571429,65.8288651307424L86.78571428571429,60.594104753600234L86.78571428571429,94.56189171473186L86.78571428571429,67.79159303506216L86.78571428571429,92.57225072383882L86.78571428571429,100.217742284139L86.78571428571429,92.88163333468968L86.78571428571429,68.18798047966429L86.78571428571429,60.47326110468971L86.78571428571429,67.73832092020247L86.78571428571429,71.09105728732216L86.78571428571429,86.26251117388409L86.78571428571429,60.26635569996306L86.78571428571429,78.1083528465695L86.78571428571429,97.46463844511244L86.78571428571429,69.97912124792737L86.78571428571429,57.213730308744644L86.78571428571429,78.57353782653809L86.78571428571429,55.44006005922955L86.78571428571429,73.35374291737875L86.78571428571429,59.741986685329024L86.78571428571429,78.52027750015259L96.42857142857143,69.1574587027232L96.42857142857143,71.50602926148309L96.42857142857143,101.80919808811612L96.42857142857143,71.25809407234192L96.42857142857143,100.4223843018214L96.42857142857143,82.99062605698904L96.42857142857143,87.21098233593835L96.42857142857143,59.18208720948961L96.42857142857143,82.84425446722243L96.42857142857143,87.52318239212036L96.42857142857143,97.24734150038826L96.42857142857143,94.73518817954594L96.42857142857143,86.32536142402226L96.42857142857143,86.59574776225621L96.42857142857143,100.42873828940922L96.42857142857143,100.44577852884929L96.42857142857143,68.81809210777283L96.42857142857143,96.95784015125699L96.42857142857143,72.1310777399275L96.42857142857143,59.5992400513755L96.42857142857143,79.19838590092131L96.42857142857143,97.16754531860353L96.42857142857143,85.15418240759108L96.42857142857143,79.90811688370177L96.42857142857143,103.11477160453798L96.42857142857143,52.8867826461792L96.42857142857143,57.41025596194798L96.42857142857143,71.2495120631324L96.42857142857143,83.4590528673596L96.42857142857143,79.83781631787619L96.42857142857143,64.17941592799293L96.42857142857143,102.34115298589072L96.42857142857143,73.9590044418971L96.42857142857143,68.05983976523083L96.42857142857143,57.97673930062189L96.42857142857143,73.51410153177049L96.42857142857143,64.99786021974352L96.42857142857143,74.6092566781574L96.42857142857143,85.10859637790257L96.42857142857143,75.19078800413344L96.42857142857143,103.658797899882L106.07142857142857,100.25056139628093L106.07142857142857,96.3679566913181L106.07142857142857,105.6943078438441L106.07142857142857,56.83594507641264L106.07142857142857,81.05635552936131L106.07142857142857,86.49274007479352L106.07142857142857,83.77023322052428L106.07142857142857,68.9270883401235L106.07142857142857,102.91760937372844L106.07142857142857,86.65474318133461L106.07142857142857,96.93293699953291L106.07142857142857,77.66307270526886L106.07142857142857,65.02926471498277L106.07142857142857,77.12629042731392L106.07142857142857,82.47446182039049L106.07142857142857,78.36643201775023L106.07142857142857,91.37902136643729L106.07142857142857,84.6581469906701L106.07142857142857,79.45601121584576L106.07142857142857,89.23183331224654L106.07142857142857,90.28594688574474L106.07142857142857,79.76632511615753L106.07142857142857,79.81669137212965L106.07142857142857,75.10714877976312L106.07142857142857,88.04939040872786L106.07142857142857,55.83464386728075L106.07142857142857,65.27266134156122L106.07142857142857,85.75458708074358L106.07142857142857,65.00199797418382L106.07142857142857,103.17294772466025L106.07142857142857,95.3811376227273L106.07142857142857,94.47146822346582L106.07142857142857,61.44262144300673L106.07142857142857,79.36877061261072L106.07142857142857,93.73938629362318L106.07142857142857,105.42594322893355L106.07142857142857,114.52199180258646L106.07142857142857,60.593191146850586L106.07142857142857,81.01767754554749L106.07142857142857,83.08212819364336L115.71428571428571,82.99936131636304L115.71428571428571,61.628631777233565L115.71428571428571,83.81317863199446L115.71428571428571,100.22711412111919L115.71428571428571,99.41501202848222L115.71428571428571,75.63525474071503L115.71428571428571,80.60185090700787L115.71428571428571,103.5764200422499L115.71428571428571,61.995064708921646L115.71428571428571,102.82798160447015L115.71428571428571,80.81427331765494L115.71428571428571,83.66677757104239L115.71428571428571,85.76725969049666L115.71428571428571,105.40777129597134L115.71428571428571,82.3373265001509L115.71428571428571,88.89464169078404L115.71428571428571,90.32325151231554L115.71428571428571,106.58743211958144L115.71428571428571,86.12477464146086L115.71428571428571,71.26776062117683L115.71428571428571,88.21292012267644L115.71428571428571,98.01475938161215L115.71428571428571,103.43735141224332L115.71428571428571,72.47758225599927L115.71428571428571,67.3642077975803L115.71428571428571,80.50204379028746L115.71428571428571,49.224858178032775L115.71428571428571,91.79015619224973L115.71428571428571,76.29599282476637L115.71428571428571,97.94630371199715L115.71428571428571,75.30113991101584L115.71428571428571,99.12885860602061L115.71428571428571,81.6209468179279L115.71428571428571,93.07928478717805L115.71428571428571,85.12296063370177L115.71428571428571,72.21158712440068L115.71428571428571,61.459514326519454L115.71428571428571,73.91399015320673L115.71428571428571,116.9473200639089L115.71428571428571,81.56762165493437L125.35714285714286,73.45093888706633L125.35714285714286,94.68211057451036L125.35714285714286,98.24378585815431L125.35714285714286,97.46875851684148L125.35714285714286,108.7629832426707L125.35714285714286,48.39182564947339L125.35714285714286,88.2863033745024L125.35714285714286,82.74164758788216L125.35714285714286,88.66061690118578L125.35714285714286,100.30457618501451L125.35714285714286,115.11651108000015L125.35714285714286,82.73228164513907L125.35714285714286,84.17919307284886L125.35714285714286,80.14329694377052L125.35714285714286,67.52812653117711L125.35714285714286,103.87195119592879L125.35714285714286,99.68130187193553L125.35714285714286,108.27692087491354L125.35714285714286,87.25112798478868L125.35714285714286,84.13436150550842L125.35714285714286,88.59835018051996L125.35714285714286,83.65540169345009L125.35714285714286,111.7453994287385L125.35714285714286,103.22082071834141L125.35714285714286,100.84782444106209L125.35714285714286,92.91363314787547L125.35714285714286,56.22795452011957L125.35714285714286,79.71299405892691L125.35714285714286,77.54362599054974L125.35714285714286,107.818042728636L125.35714285714286,82.75418463018205L125.35714285714286,75.51507714059618L125.35714285714286,104.22216908137004L125.35714285714286,78.28209137916565L125.35714285714286,96.91491831673517L125.35714285714286,70.22742777400548L125.35714285714286,99.19461471504636L125.35714285714286,71.91669844256508L125.35714285714286,64.87059185240004L125.35714285714286,73.37038234869641L135,100.6691111723582L135,107.3188480006324L135,83.89890441629622L135,103.7081326643626L135,94.73624914222295L135,97.98067890273201L135,81.1089910666148L135,79.42920422554016L135,90.1132398446401L135,89.0846483177609L135,97.57915168338353L135,73.77585870689818L135,113.72588666942384L135,122.41609344217514L135,67.97459141413373L135,98.63385468059117L135,73.75842944780987L135,84.75101659033034L135,86.41650990645093L135,107.61813378334047L135,92.74875954786937L135,95.32376901308696L135,73.73067937956917L135,84.33044509092969L135,76.6805682182312L135,96.38554509480795L135,102.47145099110074L135,104.03659492068822L135,100.95743367407057L135,82.17069641749066L135,69.2003923257192L135,78.68890572918787L135,79.26753709051344L135,119.74967320097818L135,88.61157684855992L135,75.59009309609732L135,111.20017660326428L135,72.77744567394257L144.64285714285714,90.48397556940715L144.64285714285714,88.36164351304373L144.64285714285714,99.8517455259959L144.64285714285714,101.69740209314558L144.64285714285714,92.27202186319563L144.64285714285714,95.62072067790562L144.64285714285714,116.26562207274966L144.64285714285714,111.58581590652467L144.64285714285714,86.75644824239943L144.64285714285714,79.88517061869305L144.64285714285714,112.17617385254967L144.64285714285714,79.32863675223457L144.64285714285714,96.62522245777978L144.64285714285714,102.35974340968663L144.64285714285714,108.45271060201857L144.64285714285714,84.15502670076158L144.64285714285714,93.53810399108464L144.64285714285714,73.74189611275992L144.64285714285714,89.72857014338176L144.64285714285714,93.33933852778542L144.64285714285714,60.59472954273224L144.64285714285714,105.5657781097624L144.64285714285714,81.72797437508902L144.64285714285714,97.13193233807883L144.64285714285714,91.3019424279531L144.64285714285714,89.32866383923425L144.64285714285714,87.51992877324423L144.64285714285714,66.51474213600159L144.64285714285714,84.70059139198729L144.64285714285714,96.13984382152559L144.64285714285714,108.29692591561212L144.64285714285714,95.26984853214688L144.64285714285714,113.60517564084795L144.64285714285714,68.36181332005395L144.64285714285714,90.99214722050561L144.64285714285714,77.98990225791931L144.64285714285714,79.64627129501768L144.64285714285714,101.99243813090855L144.64285714285714,111.68736771742503L144.64285714285714,81.79754405551488L144.64285714285714,102.03609085083009L154.28571428571428,103.01983312765758L154.28571428571428,103.52365483178033L154.28571428571428,83.24375406901044L154.28571428571428,108.1892617808448L154.28571428571428,96.51775283283658L154.28571428571428,104.4336602025562L154.28571428571428,105.78735427061717L154.28571428571428,96.95914867189195L154.28571428571428,84.38720659414929L154.28571428571428,94.6698623498281L154.28571428571428,105.42401581340367L154.28571428571428,83.14671724372441L154.28571428571428,97.59063365724352L154.28571428571428,115.94277997149362L154.28571428571428,100.36004685031044L154.28571428571428,100.11927905347612L154.28571428571428,96.25040202670628L154.28571428571428,101.59725311067369L154.28571428571428,111.31149811214871L154.28571428571428,98.68987350993687L154.28571428571428,102.42023007074992L154.28571428571428,104.81099157863194L154.28571428571428,88.38097661071355L154.28571428571428,76.67651887734732L154.28571428571428,97.92493710252974L154.28571428571428,50.54739530881247L154.28571428571428,116.97519685824713L154.28571428571428,73.22170021798875L154.28571428571428,94.67628706826105L154.28571428571428,107.62087460358939L154.28571428571428,88.11554732587602L154.28571428571428,120.72810182306503L154.28571428571428,88.87699434492323L154.28571428571428,85.05524174372357L154.28571428571428,101.96429904301962L154.28571428571428,85.40678583251106L154.28571428571428,90.65809133317735L154.28571428571428,79.54291584756639L154.28571428571428,86.34283194277022L154.28571428571428,95.51328641838498L163.92857142857142,120.2850939101643L163.92857142857142,100.73670038912032L163.92857142857142,124.94854356845221L163.92857142857142,120.29476340611777L163.92857142857142,100.37714603212144L163.92857142857142,78.40910629431409L163.92857142857142,82.91612879435223L163.92857142857142,92.28543125258552L163.92857142857142,73.14801636007097L163.92857142857142,112.28835592004988L163.92857142857142,85.78167110019261L163.92857142857142,100.79596694310507L163.92857142857142,111.6862802306811L163.92857142857142,107.78263015217252L163.92857142857142,84.0010810163286L163.92857142857142,92.174260046747L163.92857142857142,92.69549332724678L163.92857142857142,111.01369178295137L163.92857142857142,94.48921577135722L163.92857142857142,117.1474441488584L163.92857142857142,94.66064965724946L163.92857142857142,81.44103701909384L163.92857142857142,108.2895168595844L163.92857142857142,81.97591545846727L163.92857142857142,82.37446019384596L163.92857142857142,97.44812279277379L163.92857142857142,101.54367449548509L163.92857142857142,101.038833088345L163.92857142857142,90.79503214359285L163.92857142857142,99.8736485110389L163.92857142857142,78.56052924527063L163.92857142857142,99.33233356475831L163.92857142857142,56.230430099699234L163.92857142857142,111.87622202104993L163.92857142857142,84.54359249273938L163.92857142857142,97.91792885462444L163.92857142857142,110.08642513884439L163.92857142857142,114.62731003099017L163.92857142857142,97.4496022462845L163.92857142857142,118.2785688771142L173.57142857142858,91.23501925998265L173.57142857142858,115.49455271164577L173.57142857142858,120.06636761294472L173.57142857142858,83.87773821089003L173.57142857142858,100.48986152807872L173.57142857142858,99.48109232054817L173.57142857142858,101.57044022613103L173.57142857142858,108.68822663360173L173.57142857142858,115.07437023189334L173.57142857142858,109.56581664747662L173.57142857142858,100.48185715410445L173.57142857142858,79.24861069520315L173.57142857142858,85.94380977418687L173.57142857142858,103.71636691358354L173.57142857142858,103.03462176852757L173.57142857142858,95.5206954744127L173.57142857142858,85.63469240400526L173.57142857142858,120.97112121846942L173.57142857142858,103.7311968141132L173.57142857142858,109.76419603824617L173.57142857142858,107.03514068656499L173.57142857142858,102.10621458954282L173.57142857142858,105.65590688917372L173.57142857142858,101.15061729484135L173.57142857142858,79.2044451766544L173.57142857142858,90.78128088845148L173.57142857142858,101.3310811519623L173.57142857142858,84.681853612264L173.57142857142858,108.35651665263707L173.57142857142858,110.85165625810625L173.57142857142858,101.48308763239119L173.57142857142858,118.0161603887876L173.57142857142858,80.04208110438454L173.57142857142858,85.65726733207703L173.57142857142858,77.80024928516814L173.57142857142858,96.54130031002893L173.57142857142858,115.23517680830426L173.57142857142858,116.00899877813129L173.57142857142858,91.66196242968242L173.57142857142858,109.31407378117244L183.21428571428572,111.23191412289938L183.21428571428572,87.1238596174452L183.21428571428572,118.09301239914365L183.21428571428572,91.10069549083711L183.21428571428572,108.34766940275829L183.21428571428572,124.64498741096921L183.21428571428572,124.76811802387238L183.21428571428572,82.18365195062425L183.21428571428572,127.50444391700958L183.21428571428572,100.97219873799219L183.21428571428572,81.00590085983276L183.21428571428572,113.13264054722256L183.21428571428572,115.99237702952492L183.21428571428572,117.5634623501036L183.21428571428572,115.29069168037839L183.21428571428572,105.28001960118613L183.21428571428572,106.84325379795499L183.21428571428572,90.09756117396886L183.21428571428572,105.4755314456092L183.21428571428572,96.62106702062819L183.21428571428572,104.6275511317783L183.21428571428572,107.50070879194472L183.21428571428572,80.83819802602133L183.21428571428572,72.9188012679418L183.21428571428572,108.36589438385434L183.21428571428572,116.94847533437942L183.21428571428572,119.25243535968994L183.21428571428572,105.07810072104137L183.21428571428572,104.43022975656721L183.21428571428572,85.75551837020451L183.21428571428572,88.46894809934828L183.21428571428572,101.85883935292563L183.21428571428572,111.33928944004907L183.21428571428572,95.91514960924785L183.21428571428572,101.63258906205496L183.21428571428572,82.19565261734857L183.21428571428572,99.49780837694804L183.21428571428572,109.92766091558669L183.21428571428572,96.81776950094435L183.21428571428572,97.24896241558923L183.21428571428572,108.55040758185918L192.85714285714286,104.38870485623679L192.85714285714286,113.9271689719624L192.85714285714286,105.07319671577878L192.85714285714286,117.04722738265991L192.85714285714286,109.24623111221526L192.85714285714286,106.13752500216167L192.85714285714286,107.35823918713464L192.85714285714286,119.76513083775839L192.85714285714286,105.96317346890768L192.85714285714286,99.62608465883467L192.85714285714286,98.53222035037147L192.85714285714286,125.94632886515724L192.85714285714286,109.76088937123617L192.85714285714286,106.20748370223576L192.85714285714286,111.13892074426016L192.85714285714286,123.87464893526501L192.85714285714286,88.46232297685411L192.85714285714286,103.50750462214152L192.85714285714286,123.05029272370868L192.85714285714286,98.46961176395418L192.85714285714286,106.45813613467747L192.85714285714286,86.08359160688188L192.85714285714286,113.11432125833299L192.85714285714286,86.39813167519041L192.85714285714286,78.8158911731508L192.85714285714286,87.26714262697432L192.85714285714286,98.90865580240886L192.85714285714286,118.68423974514008L192.85714285714286,115.90715520249474L192.85714285714286,124.44028350379733L192.85714285714286,94.04187264707353L192.85714285714286,113.52090573310853L192.85714285714286,92.23845418294272L192.85714285714286,118.52007934782242L192.85714285714286,99.64238222440085L192.85714285714286,109.46030980348588L192.85714285714286,121.80616957611508L192.85714285714286,106.41283892260658L192.85714285714286,92.02510048283472L192.85714285714286,94.5165709257126L192.85714285714286,102.73978613482582L202.5,101.41019949648116L202.5,100.67932588524289L202.5,122.27846300601959L202.5,116.77163348595302L202.5,120.6848675939772L202.5,120.77998879220752L202.5,123.92816566096413L202.5,115.39063436455197L202.5,117.04977664020328L202.5,108.24810394975874L202.5,127.73085924651889L202.5,91.77134768168132L202.5,122.90399186478722L202.5,101.57860374450685L202.5,109.33374579747519L202.5,110.56683788034651L202.5,117.20984348985886L202.5,77.5069815185335L202.5,109.04313633177016L202.5,96.07435295316908L202.5,117.63864629136192L202.5,105.3647669421302L202.5,126.39473884635501L202.5,112.07914292150075L202.5,110.86690464946959L202.5,94.30599930551317L202.5,97.7833928929435L202.5,118.58754478560554L202.5,105.62704281012218L202.5,114.00884836249881L202.5,83.51785967085097L202.5,124.1339924203025L202.5,100.41577096780142L202.5,120.24031833807628L202.5,110.85986987749736L202.5,96.68276789453294L202.5,100.40065224965414L202.5,93.18990782896678L202.5,118.57081694073148L202.5,103.35404815938737L202.5,96.56170615884993L212.14285714285714,107.49728424019284L212.14285714285714,119.24878093269137L212.14285714285714,132.9097098377016L212.14285714285714,109.61805137660768L212.14285714285714,116.38462082544963L212.14285714285714,113.36112770107057L212.14285714285714,107.98794411288368L212.14285714285714,118.9528519180086L212.14285714285714,123.52137488789029L212.14285714285714,117.19227571619882L212.14285714285714,110.20920504464044L212.14285714285714,119.9900048242675L212.14285714285714,106.19143369462755L212.14285714285714,106.10071549150679L212.14285714285714,92.0253362523185L212.14285714285714,116.34228252040016L212.14285714285714,130.90789135297138L212.14285714285714,125.07595339748596L212.14285714285714,129.9394505156411L212.14285714285714,104.97309488720364L212.14285714285714,98.5690829091602L212.14285714285714,112.44001758760876L212.14285714285714,112.93010866642L212.14285714285714,106.92686944537694L212.14285714285714,116.03829018937218L212.14285714285714,101.26164703898961L212.14285714285714,117.53101457489862L212.14285714285714,113.38627251651552L212.14285714285714,119.60840307341682L212.14285714285714,98.17805922031404L212.14285714285714,103.68151428964403L212.14285714285714,101.91271267996895L212.14285714285714,115.7464105155733L212.14285714285714,122.11499223444198L212.14285714285714,115.16593131091861L212.14285714285714,95.3695436583625L212.14285714285714,99.07864560021295L212.14285714285714,110.80011115471522L212.14285714285714,127.95755749940872L221.78571428571428,131.49270576900906L221.78571428571428,116.77846490674548L221.78571428571428,119.69721154371898L221.78571428571428,109.14056217670442L221.78571428571428,102.8731078836653L221.78571428571428,116.16655173566608L221.78571428571428,124.34169944127402L221.78571428571428,116.0091932879554L221.78571428571428,119.13891235325073L221.78571428571428,116.39656549692154L221.78571428571428,130.38816110293072L221.78571428571428,115.24168699317508L221.78571428571428,128.5527870323923L221.78571428571428,125.06575931443109L221.78571428571428,115.8615986439917L221.78571428571428,112.8446245458391L221.78571428571428,119.95304501056671L221.78571428571428,106.9796464443207L221.78571428571428,122.65273527304332L221.78571428571428,107.77623490492503L221.78571428571428,101.49472285641565L221.78571428571428,122.62138087881937L221.78571428571428,120.99114099476074L221.78571428571428,120.02712083525128L221.78571428571428,110.63455677032472L221.78571428571428,105.9996175368627L221.78571428571428,119.40223444832696L221.78571428571428,118.63253844446606L221.78571428571428,122.4925151732233L221.78571428571428,112.88213547070822L221.78571428571428,114.45224234792923L221.78571428571428,109.63868710067537L221.78571428571428,103.27435217963325L221.78571428571428,93.60363611910078L221.78571428571428,93.63153354326884L221.78571428571428,136.36094185378818L221.78571428571428,96.6867700815201L221.78571428571428,124.45543464024863L221.78571428571428,112.61129232909944L221.78571428571428,108.03282283412086L231.42857142857142,107.51305721865761L231.42857142857142,121.37673314412436L231.42857142857142,126.85666136609184L231.42857142857142,121.55192755328285L231.42857142857142,127.29256377617519L231.42857142857142,127.6502673427264L231.42857142857142,134.00032642152576L231.42857142857142,121.06884472237694L231.42857142857142,109.74255829387242L231.42857142857142,114.26264242331187L231.42857142857142,117.14522496859233L231.42857142857142,128.90732244650525L231.42857142857142,108.8963433040513L231.42857142857142,101.88399006260767L231.42857142857142,118.58094913429684L231.42857142857142,107.22236523363325L231.42857142857142,123.05330467886395L231.42857142857142,109.17441867457497L231.42857142857142,119.25298057662117L231.42857142857142,98.0977266629537L231.42857142857142,112.16613301965926L231.42857142857142,111.63609080182182L231.42857142857142,119.9560451772478L231.42857142857142,117.81478083133698L231.42857142857142,123.0177506407102L231.42857142857142,112.34412719143762L231.42857142857142,123.60625190205045L231.42857142857142,114.25157009892993L231.42857142857142,130.98073233498468L231.42857142857142,123.32612238989937L231.42857142857142,116.67393650611243L231.42857142857142,129.72044718927808L231.42857142857142,112.44254621532228L231.42857142857142,133.18956232070923L231.42857142857142,121.11989765697055L231.42857142857142,115.97628870937561L231.42857142857142,102.85764729976655L231.42857142857142,115.53816417190765L241.07142857142858,128.05884996387695L241.07142857142858,114.26419850190481L241.07142857142858,122.53067741129135L241.07142857142858,130.04252303971185L241.07142857142858,112.2410369846556L241.07142857142858,119.2198903295729L241.07142857142858,122.28334932857089L241.07142857142858,124.23575937085681L241.07142857142858,133.02201863129932L241.07142857142858,116.37412908342151L241.07142857142858,122.21058497163986L241.07142857142858,124.78637542327246L241.07142857142858,114.49542058176465L241.07142857142858,126.57089401615991L241.07142857142858,123.87643488910464L241.07142857142858,121.64377155568866L241.07142857142858,121.68977312909233L241.07142857142858,125.57198292016983L241.07142857142858,126.54286102453868L241.07142857142858,118.77637256516351L241.07142857142858,115.4576872057385L241.07142857142858,124.81515993012323L241.07142857142858,129.29461803038913L241.07142857142858,96.38209107187059L241.07142857142858,116.59637129306793L241.07142857142858,118.13042901621925L241.07142857142858,111.56490610043208L241.07142857142858,122.76834778653252L241.07142857142858,130.35360319084592L241.07142857142858,121.28384586175284L241.07142857142858,116.04754708872902L241.07142857142858,136.49361671010652L241.07142857142858,107.25132362047832L241.07142857142858,135.3844642241796L241.07142857142858,119.12868585189185L241.07142857142858,117.33629845248329L241.07142857142858,109.53870020972359L241.07142857142858,118.33596106370291L241.07142857142858,127.04307250844109L250.71428571428572,115.42718158165614L250.71428571428572,125.98771230379741L250.71428571428572,131.48252347442838L250.71428571428572,122.6632741689682L250.71428571428572,127.88394437233607L250.71428571428572,119.63549298710294L250.71428571428572,131.40801442331738L250.71428571428572,113.65993605057399L250.71428571428572,134.34278896450996L250.71428571428572,126.01980937189526L250.71428571428572,129.93534517950482L250.71428571428572,127.52337031231987L250.71428571428572,128.74087803231345L250.71428571428572,124.64758971664642L250.71428571428572,119.46969693899155L250.71428571428572,119.95681142807007L250.71428571428572,131.1567843556404L250.71428571428572,127.82036618391673L250.71428571428572,128.91548007064395L250.71428571428572,114.63940205838946L250.71428571428572,134.14003162913852L250.71428571428572,126.04609177509944L250.71428571428572,130.54400767882663L250.71428571428572,94.77632995446524L250.71428571428572,127.7701178126865L250.71428571428572,119.84248680538602L250.71428571428572,108.41117980745103L250.71428571428572,115.89120539691714L250.71428571428572,136.35776928067207L250.71428571428572,131.44207721948624L250.71428571428572,117.67924874358707L250.71428571428572,135.46931913495064L250.71428571428572,128.04974042044745L250.71428571428572,123.88248532348209L250.71428571428572,134.21103066205978L250.71428571428572,128.64756931198968L250.71428571428572,128.82192084524365L250.71428571428572,111.77984829743704L250.71428571428572,119.85558969444699L250.71428571428572,116.92702915271124" style="fill: none;" fill="none"></path></g></g></g></g></g></g><g transform="translate(60, 178)" clip-path="url(#clip_1)"><clipPath id="clip_1"><rect width="270" height="22"></rect></clipPath><g><g><line x1="0" y1="0" x2="0" y2="5" style="visibility: inherit;" fill="rgb(0, 0, 0)" stroke="rgb(204, 204, 204)" stroke-width="1px"></line><line x1="19.285714285714285" y1="0" x2="19.285714285714285" y2="5" style="visibility: inherit;" fill="rgb(0, 0, 0)" stroke="rgb(204, 204, 204)" stroke-width="1px"></line><line x1="38.57142857142857" y1="0" x2="38.57142857142857" y2="5" style="visibility: inherit;" fill="rgb(0, 0, 0)" stroke="rgb(204, 204, 204)" stroke-width="1px"></line><line x1="57.857142857142854" y1="0" x2="57.857142857142854" y2="5" style="visibility: inherit;" fill="rgb(0, 0, 0)" stroke="rgb(204, 204, 204)" stroke-width="1px"></line><line x1="77.14285714285714" y1="0" x2="77.14285714285714" y2="5" style="visibility: inherit;" fill="rgb(0, 0, 0)" stroke="rgb(204, 204, 204)" stroke-width="1px"></line><line x1="96.42857142857143" y1="0" x2="96.42857142857143" y2="5" style="visibility: inherit;" fill="rgb(0, 0, 0)" stroke="rgb(204, 204, 204)" stroke-width="1px"></line><line x1="115.71428571428571" y1="0" x2="115.71428571428571" y2="5" style="visibility: inherit;" fill="rgb(0, 0, 0)" stroke="rgb(204, 204, 204)" stroke-width="1px"></line><line x1="135" y1="0" x2="135" y2="5" style="visibility: inherit;" fill="rgb(0, 0, 0)" stroke="rgb(204, 204, 204)" stroke-width="1px"></line><line x1="154.28571428571428" y1="0" x2="154.28571428571428" y2="5" style="visibility: inherit;" fill="rgb(0, 0, 0)" stroke="rgb(204, 204, 204)" stroke-width="1px"></line><line x1="173.57142857142858" y1="0" x2="173.57142857142858" y2="5" style="visibility: inherit;" fill="rgb(0, 0, 0)" stroke="rgb(204, 204, 204)" stroke-width="1px"></line><line x1="192.85714285714286" y1="0" x2="192.85714285714286" y2="5" style="visibility: inherit;" fill="rgb(0, 0, 0)" stroke="rgb(204, 204, 204)" stroke-width="1px"></line><line x1="212.14285714285714" y1="0" x2="212.14285714285714" y2="5" style="visibility: inherit;" fill="rgb(0, 0, 0)" stroke="rgb(204, 204, 204)" stroke-width="1px"></line><line x1="231.42857142857142" y1="0" x2="231.42857142857142" y2="5" style="visibility: inherit;" fill="rgb(0, 0, 0)" stroke="rgb(204, 204, 204)" stroke-width="1px"></line><line x1="250.71428571428572" y1="0" x2="250.71428571428572" y2="5" style="visibility: inherit;" fill="rgb(0, 0, 0)" stroke="rgb(204, 204, 204)" stroke-width="1px"></line><line x1="270" y1="0" x2="270" y2="5" style="visibility: inherit;" fill="rgb(0, 0, 0)" stroke="rgb(204, 204, 204)" stroke-width="1px"></line></g><g transform="translate(0, 8)"><text x="0" y="0" dx="0em" dy="0.95em" style="text-anchor: middle; visibility: hidden; font-family: &quot;Helvetica Neue&quot;, sans-serif; font-size: 12px; font-weight: 200;" fill="rgb(50, 49, 63)" stroke="none" stroke-width="1px">-2</text><text x="19.285714285714285" y="0" dx="0em" dy="0.95em" style="text-anchor: middle; visibility: inherit; font-family: &quot;Helvetica Neue&quot;, sans-serif; font-size: 12px; font-weight: 200;" fill="rgb(50, 49, 63)" stroke="none" stroke-width="1px">0</text><text x="38.57142857142857" y="0" dx="0em" dy="0.95em" style="text-anchor: middle; visibility: inherit; font-family: &quot;Helvetica Neue&quot;, sans-serif; font-size: 12px; font-weight: 200;" fill="rgb(50, 49, 63)" stroke="none" stroke-width="1px">2</text><text x="57.857142857142854" y="0" dx="0em" dy="0.95em" style="text-anchor: middle; visibility: inherit; font-family: &quot;Helvetica Neue&quot;, sans-serif; font-size: 12px; font-weight: 200;" fill="rgb(50, 49, 63)" stroke="none" stroke-width="1px">4</text><text x="77.14285714285714" y="0" dx="0em" dy="0.95em" style="text-anchor: middle; visibility: inherit; font-family: &quot;Helvetica Neue&quot;, sans-serif; font-size: 12px; font-weight: 200;" fill="rgb(50, 49, 63)" stroke="none" stroke-width="1px">6</text><text x="96.42857142857143" y="0" dx="0em" dy="0.95em" style="text-anchor: middle; visibility: inherit; font-family: &quot;Helvetica Neue&quot;, sans-serif; font-size: 12px; font-weight: 200;" fill="rgb(50, 49, 63)" stroke="none" stroke-width="1px">8</text><text x="115.71428571428571" y="0" dx="0em" dy="0.95em" style="text-anchor: middle; visibility: inherit; font-family: &quot;Helvetica Neue&quot;, sans-serif; font-size: 12px; font-weight: 200;" fill="rgb(50, 49, 63)" stroke="none" stroke-width="1px">10</text><text x="135" y="0" dx="0em" dy="0.95em" style="text-anchor: middle; visibility: inherit; font-family: &quot;Helvetica Neue&quot;, sans-serif; font-size: 12px; font-weight: 200;" fill="rgb(50, 49, 63)" stroke="none" stroke-width="1px">12</text><text x="154.28571428571428" y="0" dx="0em" dy="0.95em" style="text-anchor: middle; visibility: inherit; font-family: &quot;Helvetica Neue&quot;, sans-serif; font-size: 12px; font-weight: 200;" fill="rgb(50, 49, 63)" stroke="none" stroke-width="1px">14</text><text x="173.57142857142858" y="0" dx="0em" dy="0.95em" style="text-anchor: middle; visibility: inherit; font-family: &quot;Helvetica Neue&quot;, sans-serif; font-size: 12px; font-weight: 200;" fill="rgb(50, 49, 63)" stroke="none" stroke-width="1px">16</text><text x="192.85714285714286" y="0" dx="0em" dy="0.95em" style="text-anchor: middle; visibility: inherit; font-family: &quot;Helvetica Neue&quot;, sans-serif; font-size: 12px; font-weight: 200;" fill="rgb(50, 49, 63)" stroke="none" stroke-width="1px">18</text><text x="212.14285714285714" y="0" dx="0em" dy="0.95em" style="text-anchor: middle; visibility: inherit; font-family: &quot;Helvetica Neue&quot;, sans-serif; font-size: 12px; font-weight: 200;" fill="rgb(50, 49, 63)" stroke="none" stroke-width="1px">20</text><text x="231.42857142857142" y="0" dx="0em" dy="0.95em" style="text-anchor: middle; visibility: inherit; font-family: &quot;Helvetica Neue&quot;, sans-serif; font-size: 12px; font-weight: 200;" fill="rgb(50, 49, 63)" stroke="none" stroke-width="1px">22</text><text x="250.71428571428572" y="0" dx="0em" dy="0.95em" style="text-anchor: middle; visibility: inherit; font-family: &quot;Helvetica Neue&quot;, sans-serif; font-size: 12px; font-weight: 200;" fill="rgb(50, 49, 63)" stroke="none" stroke-width="1px">24</text><text x="270" y="0" dx="0em" dy="0.95em" style="text-anchor: middle; visibility: hidden; font-family: &quot;Helvetica Neue&quot;, sans-serif; font-size: 12px; font-weight: 200;" fill="rgb(50, 49, 63)" stroke="none" stroke-width="1px">26</text></g><line x1="0" y1="0" x2="270" y2="0" fill="rgb(0, 0, 0)" stroke="rgb(204, 204, 204)" stroke-width="1px"></line></g></g></g></g></svg>